<?xml version="1.0" standalone="no"?><!DOCTYPE svg PUBLIC "-//W3C//DTD SVG 1.1//EN" "http://www.w3.org/Graphics/SVG/1.1/DTD/svg11.dtd"><svg t="1733816961624" class="icon" viewBox="0 0 1024 1024" version="1.1" xmlns="http://www.w3.org/2000/svg" p-id="9280" xmlns:xlink="http://www.w3.org/1999/xlink" width="128" height="128"><path d="M289.28 667.648H732.16c58.368 0 95.232-62.976 66.56-113.664l-227.328-407.04c-29.696-52.736-105.472-51.712-134.144 1.536l-215.552 407.04c-27.136 50.688 9.728 112.128 67.584 112.128z" fill="#FFDF99" p-id="9281"></path><path d="M797.696 915.968h-573.44c-37.888 0-70.144-27.136-76.8-64L74.752 376.832c-11.264-62.976 53.76-112.128 111.616-83.968l283.136 139.776c21.504 10.752 46.592 10.752 68.096 0.512l299.008-142.848c57.344-27.648 121.856 22.016 110.592 84.48l-72.704 477.184c-7.168 37.376-39.424 64-76.8 64z" fill="#FF5D50" p-id="9282"></path><path d="M693.76 793.088H327.68c-28.16 0-51.2-23.04-51.2-51.2s23.04-51.2 51.2-51.2h366.08c28.16 0 51.2 23.04 51.2 51.2s-23.04 51.2-51.2 51.2z" fill="#FFDF99" p-id="9283"></path></svg>