<?xml version="1.0" standalone="no"?><!DOCTYPE svg PUBLIC "-//W3C//DTD SVG 1.1//EN" "http://www.w3.org/Graphics/SVG/1.1/DTD/svg11.dtd"><svg t="1733817142880" class="icon" viewBox="0 0 1024 1024" version="1.1" xmlns="http://www.w3.org/2000/svg" p-id="11345" xmlns:xlink="http://www.w3.org/1999/xlink" width="128" height="128"><path d="M988.27907 785.860465c0 73.823256-213.134884 134.548837-476.27907 134.548837S35.72093 859.683721 35.72093 785.860465s213.134884-134.548837 476.27907-134.548837S988.27907 712.037209 988.27907 785.860465z" fill="#EBEBEB" p-id="11346"></path><path d="M334.586047 414.362791c-134.548837-157.172093-273.860465 3.572093-239.330233 117.879069 33.339535 113.116279 278.623256 230.995349 319.106977 222.660466 40.483721-9.525581 207.181395-223.851163 188.130232-340.539535-21.432558-117.87907-216.706977-200.037209-267.906976 0z" fill="#EC434C" p-id="11347"></path><path d="M403.646512 715.609302c-39.293023 9.525581-269.097674-101.209302-314.344186-210.753488 1.190698 9.525581 2.381395 19.051163 4.76279 27.386046 33.339535 113.116279 278.623256 230.995349 319.106977 222.660466 40.483721-9.525581 207.181395-223.851163 188.130233-340.539535-1.190698-9.525581-4.762791-17.860465-7.144186-26.195349 5.953488 117.87907-151.218605 317.916279-190.511628 327.44186z" fill="#EC434C" opacity=".5" p-id="11348"></path><path d="M217.897674 471.516279c-30.95814 30.95814-71.44186 41.674419-90.493023 22.623256-19.051163-19.051163-9.525581-59.534884 21.432558-90.493023 30.95814-30.95814 71.44186-41.674419 90.493024-22.623256 17.860465 19.051163 9.525581 59.534884-21.432559 90.493023zM458.418605 416.744186c-30.95814 30.95814-71.44186 41.674419-90.493024 22.623256-19.051163-19.051163-9.525581-59.534884 21.432559-90.493023 30.95814-30.95814 71.44186-41.674419 90.493023-22.623256 19.051163 17.860465 9.525581 58.344186-21.432558 90.493023z" fill="#EC434C" p-id="11349"></path><path d="M771.572093 213.134884c-28.576744-138.12093-164.316279-86.92093-180.986046-7.144186-16.669767 78.586047 90.493023 229.804651 117.879069 236.948837 27.386047 7.144186 197.655814-65.488372 223.851163-141.693023 26.195349-76.204651-64.297674-190.511628-160.744186-88.111628z" fill="#EE425C" p-id="11350"></path><path d="M715.609302 416.744186c-26.195349-7.144186-127.404651-148.837209-119.069767-229.804651-2.381395 5.953488-4.762791 11.906977-5.953488 17.860465-16.669767 78.586047 90.493023 229.804651 117.879069 236.948837 27.386047 7.144186 197.655814-65.488372 223.851163-141.693023 2.381395-5.953488 3.572093-11.906977 4.762791-19.051163-35.72093 75.013953-196.465116 142.883721-221.469768 135.739535z" fill="#DE2641" p-id="11351"></path><path d="M683.460465 209.562791c-28.576744 8.334884-55.962791 1.190698-61.916279-15.47907-4.762791-17.860465 13.097674-39.293023 42.865116-47.627907 28.576744-8.334884 55.962791-1.190698 61.916279 15.47907 4.762791 17.860465-14.288372 39.293023-42.865116 47.627907zM845.395349 256c-28.576744 8.334884-55.962791 1.190698-61.916279-15.47907-4.762791-17.860465 13.097674-39.293023 42.865116-47.627907 28.576744-8.334884 55.962791-1.190698 61.916279 15.47907 4.762791 16.669767-13.097674 38.102326-42.865116 47.627907z" fill="#F3899B" p-id="11352"></path></svg>