<?xml version="1.0" standalone="no"?><!DOCTYPE svg PUBLIC "-//W3C//DTD SVG 1.1//EN" "http://www.w3.org/Graphics/SVG/1.1/DTD/svg11.dtd"><svg t="1733817208051" class="icon" viewBox="0 0 1727 1024" version="1.1" xmlns="http://www.w3.org/2000/svg" p-id="12995" xmlns:xlink="http://www.w3.org/1999/xlink" width="215.875" height="128"><path d="M1725.715708 633.015931L1629.323453 169.098104c-7.421326-35.746996-42.516831-58.74744-78.235501-51.326114l-297.986051 61.919915L1204.410074 189.804169l-613.279085 127.43719-258.01853 53.620494-280.395809 58.265904C16.99798 436.549082-6.03079 471.644588 1.390536 507.363258l96.392255 463.917826c7.421326 35.746996 42.545157 58.74744 78.263827 51.326114l191.453205-39.76924 127.663795-26.541153 42.885065-8.922587 134.122048-27.872459 391.064203-81.238022 152.873642-31.781402 7.846211-1.614563 144.7725-30.081862 85.37357-17.760195 31.328191-6.514904 188.988872-39.259379c35.71867-7.421326 58.719114-42.516831 51.297788-78.235501z m-52.459141 72.683669l-186.694492 38.806169-35.831973 7.449651-82.169937 17.052053-144.829151 30.110188-5.013644 1.048049-155.139696 32.234613-391.772344 81.407976-134.461956 27.957437-41.327153 8.582678-128.173658 26.62613-192.954465 40.109149c-32.716149 6.798161-64.752482-14.219486-71.550643-46.935636l-0.113303-0.623164c-44.641256-214.736906 46.539076-426.131382 215.048488-544.957569 57.954321-40.902268 125.029508-70.814175 198.902857-86.166689l78.518757-16.315586 606.650879-126.077558 89.169209-18.524988 260.709469-54.187007c32.716149-6.798161 64.752482 14.219486 71.550643 46.935635l96.420581 463.917827c6.798161 32.716149-14.219486 64.752482-46.935635 71.550642z" fill="#3F3D56" p-id="12996"></path><path d="M412.900207 123.70905c-9.998962-36.44664 70.632891-67.701184 91.803497-38.352957 2.94587-4.169539 13.822927-6.704686 18.816743-5.424366a38.930801 38.930801 0 0 1 13.287572 7.577117c5.631143 4.32533 11.471896 8.806451 14.927628 15.026768 3.478392 6.194824 4.01658 14.644371-0.668486 20.020584-3.710663 4.277176-14.669865 7.038929-20.250022 8.16629-3.891947 0.793119-7.166395 1.433279-9.984798 1.894988a19.091502 19.091502 0 0 1-3.328267-12.621919 15.494142 15.494142 0 0 0-6.758505 11.367092c-0.076479 0.946077 31.464154 116.996348 31.464155 116.996348a68.791723 68.791723 0 0 1-11.905279 5.350719 149.695502 149.695502 0 0 1-18.558979-40.449057 129.623932 129.623932 0 0 0 0.356903 28.801541c0.634495 5.359217 1.538084 10.678778 2.713599 15.947353-37.477694 8.089811-93.851443 5.427198-118.378641-28.977161l-0.01133-0.43055a5.854916 5.854916 0 0 0-11.31044-2.039449c-0.594839 1.515423-1.141525 2.832567-1.631559 3.874952-7.140901-25.549755 2.098932-55.118922 29.416209-106.731125zM672.170731 919.501759l-134.122048 27.872459-0.708142-5.608482-19.856295-159.133615s-10.055613 87.186413-21.470858 167.716293l-0.84977 5.948391-127.663795 26.541153 0.339908-5.863414 15.749072-269.093867 12.891013-117.324926c-2.067774 24.615007 5.665134 0 14.162835-62.316474 18.638291-5.920065 166.158381-8.809283 166.158381-8.809284l79.198574 141.798305s0.538188 5.211923 1.501261 14.247812v0.028326c2.577636 23.991843 8.072816 137.77606 14.304463 238.303863 0.113303 1.89782 0.254931 3.79564 0.368234 5.69346z" fill="#2F2E41" p-id="12997"></path><path d="M269.393864 762.54922a19.32094 19.32094 0 0 0 5.254412-26.42785 18.539151 18.539151 0 0 0-1.911983-2.396352l30.597389-60.058918-25.011567-26.249399L245.300049 734.22355a19.267121 19.267121 0 0 0-1.883657 23.44799 18.440011 18.440011 0 0 0 25.558252 5.16377 18.100103 18.100103 0 0 0 0.41922-0.283257zM841.8245 619.527247a19.32094 19.32094 0 0 1-16.474209-21.32923c0.133131-1.014059 0.351238-2.013955 0.648657-2.994023l-54.138853-40.157303 10.712768-34.642295 68.213879 63.030282a19.267121 19.267121 0 0 1 12.12622 20.156547 18.440011 18.440011 0 0 1-21.088462 15.936022z" fill="#FFB6B6" p-id="12998"></path><path d="M475.550924 165.070194m-65.667401 0a65.667401 65.667401 0 1 0 131.334802 0 65.667401 65.667401 0 1 0-131.334802 0Z" fill="#FFB6B6" p-id="12999"></path><path d="M1103.768968 677.090674l-0.481536 0.623164s1.869494-9.630728 0.481536-0.623164z" fill="#2F2E41" p-id="13000"></path><path d="M1245.56444 93.647017m-74.320893 0a74.320893 74.320893 0 1 0 148.641787 0 74.320893 74.320893 0 1 0-148.641787 0Z" fill="#FFB6B6" p-id="13001"></path><path d="M1156.579347 80.645534c8.013332 2.486994 15.737742 3.951431 20.946834-2.620124s3.852291-14.086356 11.602194-17.255999a27.416416 27.416416 0 0 1 19.793978 0.917752c1.127362 0.41922 2.226398 0.889426 3.299941 1.359632 0.603337-0.521192 1.203841-1.019724 1.858164-1.492763a23.615111 23.615111 0 0 1 16.995402-4.135547c-4.376316 2.113095 3.356592 25.376968 1.039552 29.648478 2.147086 1.073543 4.319665 2.147086 6.520569 3.062005 18.740263 7.667759 28.665578-13.771941 46.040545-24.173127-8.588343 22.623713-1.911983 30.688031 10.684443 51.345943l0.495699 1.206673c-1.25766-5.421533 15.213717-11.678674 15.213717-3.823965a93.831615 93.831615 0 0 1-5.237416 23.566958c16.156962-24.326086 25.68855-52.790552 19.43141-80.099331-1.336972-5.735948-1.940308-11.888284-5.580157-16.550689-3.637016-4.63408-10.341702-7.356177-15.630105-4.738884-2.005457-27.138825-29.073468-30.331128-56.212293-28.328503-9.644891 0.710974-15.42616-12.936334-23.076923-7.021934-6.546062 5.056132-11.704167 11.678674-17.54492 17.570413s-12.752217 11.259454-20.92134 12.726724c-5.183598 0.917752-11.024351 0.368234-15.159899 3.639849-4.792703 3.79564-4.84369 10.474833-4.818197 16.890597a23.586786 23.586786 0 0 1 13.276242 3.637016 23.079756 23.079756 0 0 0-13.40654 4.713391 1.436111 1.436111 0 0 0-0.20961 0.158624c-1.416284 10.789248-0.83844 13.066632-9.40129 19.796811z" fill="#2F2E41" p-id="13002"></path><path d="M727.133862 455.490458h0.787453l-79.765087-77.411224-62.33347-66.497343 0.036824-1.093371-1.900653-0.897924s-62.684708-37.205768-64.826129-37.001823l-9.62223-23.572623-80.490224-17.074714-15.981343 32.169464-31.206391 18.066112a56.368084 56.368084 0 0 0-19.564541 11.330268l-3.047842 1.761857 0.226606 0.926249a56.192465 56.192465 0 0 0-16.343912 38.537075l-30.914636 111.858071-0.028326 0.402225L255.5851 698.221623l39.840055 1.977132 101.046163-265.43419c3.38775-0.761961-22.887142 275.679585-19.827969 274.759001 42.805753-12.89951 317.644065-13.882411 284.859935-46.669374-13.443363-13.443363-70.321309-159.394211-73.54477-207.366567-0.43055-6.401601-0.801616-12.862687-1.116032-19.318107a343.264634 343.264634 0 0 1 32.557526 19.003692l0.456043 0.311583 176.910806 122.386723 28.322837-28.087735-97.953-94.296156z" fill="#6C63FF" p-id="13003"></path><path d="M377.059736 128.827499c-9.998962-36.44664 70.630059-67.698352 91.803497-38.350125 2.94587-4.172371 13.822927-6.707519 18.816743-5.427198a38.933634 38.933634 0 0 1 13.28474 7.579949c5.636808 4.32533 11.471896 8.806451 14.927628 15.026768 3.484057 6.194824 4.019413 14.644371-0.665654 20.020584-3.710663 4.274344-14.669865 7.038929-20.252854 8.166291-3.889115 0.793119-7.166395 1.433279-9.981966 1.894987a19.088669 19.088669 0 0 1-3.328266-12.621919 15.494142 15.494142 0 0 0-6.758505 11.367092c-0.076479 0.946077 31.464154 116.996348 31.464154 116.996348a68.791723 68.791723 0 0 1-11.905279 5.347886 149.698334 149.698334 0 0 1-18.558979-40.449057 129.623932 129.623932 0 0 0 0.356904 28.801542c0.631662 5.359217 1.538084 10.68161 2.713599 15.947352-37.480527 8.092644-93.851443 5.430031-118.378641-28.97716l-0.01133-0.427718a5.854916 5.854916 0 0 0-11.31044-2.039448c-0.594839 1.515423-1.144357 2.829734-1.631559 3.874951-7.143734-25.549755 2.098932-55.118922 29.416208-106.731125z" fill="#2F2E41" p-id="13004"></path><path d="M898.589143 311.783003c-0.096307 0.093475-0.184117 0.189782-0.277591 0.283256-14.766172-14.650037-38.542739-14.777502-53.464703-0.288921-14.972949 14.548064-15.479979 38.426604-1.133027 53.592168l-0.01133 0.01133 0.356904 0.368234 52.827375 54.390952 54.756353-53.184279-0.150126-0.155791 0.277591-0.257764c15.120243-14.68686 15.474314-38.851489 0.787454-53.971732-14.684027-15.120243-38.848657-15.474314-53.9689-0.787453z" fill="#6C63FF" p-id="13005"></path><path d="M1368.727287 774.78591l-144.7725 30.081862-0.226606-5.750111-0.396559-10.282219-4.617084 11.330268-2.605962 6.316625-152.873642 31.781402 0.339908-5.863414 3.030847-53.195608 32.461218-101.037666 10.933708-33.990804 229.04137-19.261456c0 0.028326 0.028326 0.028326 0.028325 0.056651 19.997923 36.511789 27.759157 90.245585 29.489855 144.036033 0.084977 1.926146 0.141628 3.852291 0.169954 5.778437z" fill="#2F2E41" p-id="13006"></path><path d="M1206.449522 183.697155l84.382172-7.234376 14.46592 21.697463s81.97449 50.632135 84.382171 60.277026-53.039817 366.466191-50.629303 366.466191-69.919084 40.987245-156.71177 48.218788-89.404313 4.622749-89.404313 4.622749l36.361663-89.007753 8.44105-112.11017-7.234377-212.162102 65.095223-48.221621 10.848732-32.546195z" fill="#6C63FF" p-id="13007"></path><path d="M1445.758947 738.155153c-1.506926-7.616773-1.16985-14.941791 0.614667-20.955331l-18.949873-71.655447 34.359038-8.018998 15.522467 73.547603c3.942933 4.880513 7.047427 11.528548 8.554352 19.142488 3.444401 17.400459-2.739092 33.282662-13.811597 35.477902-11.075337 2.192407-22.84182-10.137757-26.286221-27.538217z" fill="#FFB6B6" p-id="13008"></path><path d="M1340.373291 252.041332s43.018195-17.714874 63.262552 15.182559 73.383314 420.069689 73.383314 420.069689l-44.284353 6.327955-87.302548-312.522785-5.061798-129.057418z" fill="#6C63FF" p-id="13009"></path><path d="M874.282886 617.941009c5.183598-5.781269 8.630832-12.256517 10.166083-18.338039l52.8557-51.957777-25.459112-24.428058-50.875736 55.33703c-5.880409 2.183909-11.93927 6.316624-17.122868 12.097893-11.84013 13.20826-14.627376 30.02521-6.22315 37.559839 8.404226 7.534628 24.818952 2.934539 36.659083-10.270888z" fill="#FFB6B6" p-id="13010"></path><path d="M1212.947431 253.630402s-27.957436-37.183107-62.155018-19.218967c-34.197582 17.96414-277.444274 323.836057-277.444274 323.836057l34.860402 28.036748 234.536549-224.240168 70.202341-108.41367z" fill="#6C63FF" p-id="13011"></path></svg>