<?xml version="1.0" standalone="no"?><!DOCTYPE svg PUBLIC "-//W3C//DTD SVG 1.1//EN" "http://www.w3.org/Graphics/SVG/1.1/DTD/svg11.dtd"><svg t="1733817240993" class="icon" viewBox="0 0 1024 1024" version="1.1" xmlns="http://www.w3.org/2000/svg" p-id="14105" xmlns:xlink="http://www.w3.org/1999/xlink" width="128" height="128"><path d="M705.152 258.56H280.746667v2.581333l278.72 228.906667v458.176l2.005333 2.005333h424.426667V489.109333L705.152 258.56z" fill="#ABE700" p-id="14106"></path><path d="M561.493333 950.229333H0V489.109333L280.746667 258.56l280.746666 230.549333v461.12z" fill="#00D43D" p-id="14107"></path><path d="M779.221333 152.213333a107.861333 107.861333 0 0 0-139.370666 139.434667 107.861333 107.861333 0 0 0 139.370666-139.434667z" fill="#00CA0F" p-id="14108"></path><path d="M779.221333 152.213333l-139.370666 139.434667a107.861333 107.861333 0 0 0 139.370666-139.434667z" fill="#00AE0C" p-id="14109"></path><path d="M486.442667 152.213333a107.861333 107.861333 0 0 1 139.370666 139.434667 107.861333 107.861333 0 0 1-139.370666-139.434667z" fill="#00CA0F" p-id="14110"></path><path d="M601.386667 176.64a107.946667 107.946667 0 0 1 24.426666 114.986667l-139.392-139.413334a107.861333 107.861333 0 0 1 114.986667 24.426667z" fill="#00AE0C" p-id="14111"></path><path d="M617.962667 159.722667h29.994666v238.4h-29.994666V159.722667zM201.386667 646.656h158.698666v303.573333H201.386667v-303.573333z" fill="#FF7920" p-id="14112"></path><path d="M637.504 657.642667l1.984 3.861333 255.509333 179.84 6.314667 1.984v-185.685333H637.504z" fill="#D8FC7E" p-id="14113"></path><path d="M637.504 657.642667v185.685333h263.808l-263.808-185.685333z" fill="#FFFFFF" p-id="14114"></path><path d="M854.912 950.229333V676.608a84.8 84.8 0 0 1 84.544-84.586667A84.8 84.8 0 0 1 1024 676.608v273.621333h-169.088z" fill="#00CA0F" p-id="14115"></path><path d="M1024 676.608v273.621333h-84.544v-358.186666A84.8 84.8 0 0 1 1024 676.586667z" fill="#00AE0C" p-id="14116"></path><path d="M856.917333 831.68l-2.005333-13.162667a84.8 84.8 0 0 0-84.544-84.565333 84.8 84.8 0 0 0-84.544 84.565333v131.690667h171.093333v-118.528z" fill="#00CA0F" p-id="14117"></path><path d="M854.912 818.517333v131.690667H770.346667V733.952a84.8 84.8 0 0 1 84.544 84.565333z" fill="#00AE0C" p-id="14118"></path><path d="M48.234667 157.738667a83.968 83.925333 90 1 0 167.850666 0 83.968 83.925333 90 1 0-167.850666 0Z" fill="#FF7920" p-id="14119"></path></svg>