<?xml version="1.0" standalone="no"?><!DOCTYPE svg PUBLIC "-//W3C//DTD SVG 1.1//EN" "http://www.w3.org/Graphics/SVG/1.1/DTD/svg11.dtd"><svg t="1733817277632" class="icon" viewBox="0 0 1024 1024" version="1.1" xmlns="http://www.w3.org/2000/svg" p-id="15550" xmlns:xlink="http://www.w3.org/1999/xlink" width="128" height="128"><path d="M500.389225 969.816383h-74.027488c-28.147334-14.073667-56.294667-18.014294-84.442001 1.548103l-11.258933 20.68829-9.992304 11.39967-11.540407 9.851567-20.829027 10.695987h-51.791094c-14.073667-30.539857-40.954371-19.280924-64.17592-20.406817l-9.851567-11.39967-11.82188 0.84442c0-3.940627 0-7.740517 0.703683-11.681144h20.969764l10.695986 2.673997 13.088511 6.473887h33.636063a5.347993 5.347993 0 0 1 6.33315 4.081363l11.681144 7.318307h-0.703683l9.851566 1.125893 4.081364-1.970313 4.362836 1.26663 23.080814-8.02199a6.614623 6.614623 0 0 1 7.459044-2.95547l13.08851-10.55525v0.703683l10.273776-14.073667a4.2221 4.2221 0 0 1 2.111051-6.192413l19.84387-32.369434 13.08851 8.4442-1.548103-0.42221 44.894997 11.118197h100.626718L521.640462 937.306212v0.703684l10.695987 1.26663 10.13304 9.851566a7.59978 7.59978 0 0 1 2.392523 7.881254l9.007147 14.073667 10.273777 10.273776 13.229247 9.007147h4.503573l3.79989 2.251787h42.221001a9.28862 9.28862 0 0 1 8.162726-2.392523l12.24409-10.977461 11.681144 0.985157v10.414514l0.985157 11.962616-12.666301-0.703683-10.13304 11.39967h-65.301814 0.703683l-22.095656-10.414513-11.962617-10.55525h0.703683l-9.992303-12.244091-9.710831-9.007146z" fill="#232636" p-id="15551"></path><path d="M914.014294 924.076965l61.64266 33.776801a90.212205 90.212205 0 0 1-76.138537 45.17647c-24.06597 2.392523-48.835624-1.829577-72.901595 0.985157-10.836723 1.26663-20.547554 12.384827-30.680593 18.99945h-42.221001l-3.79989-14.073667a6.473887 6.473887 0 0 0 0.985157-5.770203l14.073667-14.073667c9.851567-18.014294 16.325454-30.680594 45.457944-22.517867 32.791644 9.147883 70.368334 2.11105 111.463441 2.11105l-23.080814-28.851017z" fill="#2B3144" p-id="15552"></path><path d="M172.332051 1002.608026c23.22155 1.125893 50.383727-10.13304 64.17592 20.406817h-21.1105z" fill="#2C2E3E" p-id="15553"></path><path d="M638.451897 1013.304013a11.39967 11.39967 0 0 0-0.84442 9.992304h-63.331501a11.82188 11.82188 0 0 0-1.125894-9.71083z" fill="#303242" p-id="15554"></path><path d="M289.284222 1023.014843l21.251237-10.695986v10.695986z" fill="#2C2E3E" p-id="15555"></path><path d="M158.962067 936.743266c8.4442-28.147334 18.57724-55.309511 24.628917-83.597582 4.362837-19.84387-4.081363-33.636064-28.147334-30.82133a62.909291 62.909291 0 0 1-30.82133-1.970313 334.108851 334.108851 0 0 1-42.221001-25.614074 343.256734 343.256734 0 0 0 26.036284-29.13249c18.99945-26.317757 36.873007-53.479934 55.309511-80.360638h9.28862l10.836723 10.695987-1.829576 10.695987-7.740517 14.073666-38.280374 74.590435c39.406267-13.229247 64.879604 3.096207 87.678945 26.317757l12.807036 0.84442v11.258933c-36.028587 37.013744-22.940077 82.612424-22.517867 126.663002l-10.836723 12.807037-28.991754-20.829027z" fill="#2C3041" p-id="15556"></path><path d="M468.582738 212.934579h20.969763v49.680044l9.147884 21.251237a12.525563 12.525563 0 0 1 2.11105 8.303464l9.71083 12.6663h32.51017l9.570094 2.814733 8.4442 8.303464a212.371633 212.371633 0 0 0 33.636064 19.42166c28.147334 10.55525 58.264981 19.140187 87.397471 28.147334l1.125893 2.814733 2.814734-1.125893a5.207257 5.207257 0 0 1 3.518416 4.081363l15.340297 8.162727a4.362837 4.362837 0 0 1 6.192414 2.673997l12.24409 8.162726-1.26663 12.244091-1.26663 11.82188-9.71083-4.2221-10.133041-7.459044-14.77735-9.147883-88.523364-23.784497c-34.19901-15.058824-66.286971-14.073667-94.997251 12.525563l-17.169874-2.11105 7.318307-9.71083 8.162727-8.4442v-1.407367l9.71083-9.992303h0.84442l11.118196-9.007147c4.925783-23.925234 4.925783-23.925234-35.184167-22.095657l-8.02199-1.407367-1.548103-18.99945 0.985157-33.7768-9.007147-11.39967-10.97746-9.710831h-10.55525v-10.13304l10.273776-9.71083h0.703684z" fill="#292E3F" p-id="15557"></path><path d="M855.467839 638.522265l7.740517 51.087411c0 1.407367-2.251787 3.37768-1.829576 4.2221a55.450247 55.450247 0 0 0 5.347993 7.459043l3.659153 24.628917 11.258934 21.814184 9.570093 11.962617 10.13304 10.55525 13.088511 9.007146a7.036833 7.036833 0 0 1 8.4442 2.814734l8.725673 8.584937 2.673997 10.55525-10.55525 12.384827-54.324354-1.26663-31.665751 10.414513v21.1105h-10.414513v-10.97746L817.187466 811.909841l34.761957-11.962617h15.340297l19.562397-3.940627-7.599781-15.481034-9.570093-11.681143-32.228697-73.323804-9.147884-74.168225-0.985156-21.391973h20.125343l4.081364 15.62177z" fill="#222536" p-id="15558"></path><path d="M964.257284 453.312809h-5.207257l-4.785046-1.548103H943.850467l-16.46619 3.236943-14.073667 9.28862-10.836723 10.977461-11.118197-21.391974 9.992303-9.147884 29.554701-13.229246h36.873007a5.91094 5.91094 0 0 1 7.459043 2.251786l12.244091 8.4442 9.71083 12.103354 0.985156 34.480484a6.896097 6.896097 0 0 1-2.95547 8.02199L986.071468 506.652007l-10.97746 10.273776-10.414514 7.881254a7.59978 7.59978 0 0 1-8.162727 3.79989l-23.503023 9.28862-20.829027-1.68884V520.725673l18.295767-4.785046 12.807037-6.614624a9.429357 9.429357 0 0 1 8.584936-3.79989l12.525564-9.851567 9.992303-12.103353a15.481034 15.481034 0 0 1 1.970314-9.007147l-1.26663-10.55525z" fill="#323545" p-id="15559"></path><path d="M183.872457 695.942826l-10.836723-10.695987-1.26663-56.294667 2.11105-17.592084 7.881253-34.339747-0.84442-14.073667a6.33315 6.33315 0 0 1 3.940627-4.081363l7.17757-14.073667a3.940627 3.940627 0 0 0-2.95547-4.64431l26.17702-45.457944 9.147884-14.073667a6.051677 6.051677 0 0 1 3.659153-7.036834h18.717977l0.84442 11.258934-9.71083 14.073667a7.318307 7.318307 0 0 1-3.37768 7.17757l-8.02199 11.962617-2.814733 17.73282-19.421661 33.7768-8.86641 34.199011-2.53326 29.5547-9.147883 10.414514 1.26663 45.035734a7.036833 7.036833 0 0 1-1.125894 7.17757zM366.830126 347.197361a44.332051 44.332051 0 0 1-2.814733-6.614623c0-1.125893 0-2.53326 0.985157-3.79989l7.036833-12.24409v0.703683l10.55525-14.073667a4.925783 4.925783 0 0 1 3.79989-6.192413l8.4442-10.836724 9.570094-12.103353 13.369983 15.19956a8.303463 8.303463 0 0 1-3.236943 7.17757l-8.02199 11.962617a27.162177 27.162177 0 0 1 0 6.75536l30.82133 12.807037 19.703134 1.68884 2.673997 53.479934-11.681144 7.59978c-2.53326-16.184717 9.28862-39.547004-21.251237-41.376581l-10.55525 10.414514a7.036833 7.036833 0 0 1-7.318307 1.548103l-14.073667 6.75536-10.695986 2.251787-10.414514-10.55525 10.414514-10.55525v-9.570094zM373.86696 368.589335l10.414513 10.55525-21.673447 9.851567-20.68829 10.97746-10.273777 8.162727a11.39967 11.39967 0 0 1-8.162726 3.940626L310.535459 422.210005l-10.97746 9.851567-10.414514 9.851567-10.273776 9.147884-1.548104 1.125893-9.007147 9.570093-0.84442 0.985157-9.429356 10.55525H238.196811a88.664101 88.664101 0 0 0-0.703683-10.55525l9.992304-11.39967 10.836723-10.97746 10.97746-10.836724 11.118197-10.273777 10.97746-9.851566 10.55525-9.429357 0.84442-0.703683 18.717977-12.947774 12.103354-7.881253a5.207257 5.207257 0 0 1 6.75536-3.096207l14.073667-8.162727a4.64431 4.64431 0 0 1 6.33315-2.95547zM838.157229 600.804838h-10.414513l-21.814184-83.034635 12.384827-23.080813 15.058824 24.91039-2.111051 2.53326h3.096207l4.64431 32.369434c0 15.903244-0.42221 31.102804-0.84442 46.302364z" fill="#222536" p-id="15560"></path><path d="M794.106652 335.375481l11.258933-19.984607 10.836724-11.39967 12.103353-9.007147 52.635514-0.84442V313.983507a57.139087 57.139087 0 0 0-9.851566 1.125894h-32.369434l-10.55525 8.725673-18.858714 26.317757z" fill="#232637" p-id="15561"></path><path d="M838.157229 843.575591v-10.55525h9.429357l3.518417 2.95547a9.147883 9.147883 0 0 0-1.407367 7.881253l8.162727 10.273777a4.081363 4.081363 0 0 1 4.503573 2.673997v3.659153l3.659154 0.84442 8.725673 15.903244v3.518416h3.659153c1.548103 2.392523 3.37768 4.785047 5.207257 7.177571a8.02199 8.02199 0 0 0-2.392523 6.051676l-12.525564 14.073667-21.1105-29.97691-8.86641-14.073667a6.473887 6.473887 0 0 1-1.970313-6.33315z" fill="#292F42" p-id="15562"></path><path d="M818.313359 494.68939l-12.384827 23.080813c-7.318307-14.073667-14.77735-27.302914-22.095657-41.095107 0-4.362837 0.985157-8.725673 1.548104-13.08851l12.103353-1.125893a5.629467 5.629467 0 0 0 5.347993-2.11105z" fill="#222637" p-id="15563"></path><path d="M880.659703 313.983507v-8.725673l12.103354-1.548103 8.725673 12.6663v53.19846a9.570093 9.570093 0 0 1-3.236943 9.429357 28.147334 28.147334 0 0 0-9.147884 0h-8.86641l-1.26663-13.08851a10.414513 10.414513 0 0 1 2.53326-8.02199v-44.191314z" fill="#232636" p-id="15564"></path><path d="M417.35459 298.080264l-13.369983-15.19956 14.918087-19.703134 8.162727-9.28862v-0.84442l9.71083-10.273777h20.68829a90.775151 90.775151 0 0 1-1.68884 9.28862l-10.695987 10.55525-10.273777 10.836724-8.02199 14.073667a18.717977 18.717977 0 0 0 0 8.86641 81.345794 81.345794 0 0 0-9.429357 1.68884zM158.962067 936.743266l15.481034 15.058823-10.836724 8.4442-11.39967 9.992304v10.55525l-13.08851 2.814733 2.53326-2.673997-2.392524 2.814734-9.570093-12.6663 1.26663-20.125344a4.785047 4.785047 0 0 1 6.192413-3.940627l14.073667-7.318306a5.347993 5.347993 0 0 1 7.740517-2.95547zM794.106652 335.375481l14.073667 15.19956-3.236944 17.873557-8.4442 32.369434h-11.39967v-44.191314a9.007147 9.007147 0 0 1 2.251787-8.86641l6.473887-13.08851z" fill="#222536" p-id="15565"></path><path d="M880.941176 294.280374l-52.635514 1.26663a35.46564 35.46564 0 0 1 52.635514-1.26663z" fill="#424553" p-id="15566"></path><path d="M490.115448 262.896097v-49.680044l8.86641 49.680044a81.768004 81.768004 0 0 1-8.86641 0z" fill="#354863" p-id="15567"></path><path d="M901.629467 369.152281v-53.19846z" fill="#4E505D" p-id="15568"></path><path d="M869.82298 812.050577l54.324354 1.26663-54.324354 7.740517z" fill="#2A3145" p-id="15569"></path><path d="M171.769104 628.811435l1.26663 56.294667h-9.28862z" fill="#2B3245" p-id="15570"></path><path d="M838.157229 600.804838c0-15.19956 0.84442-30.39912 1.407367-45.598681 2.814733 15.19956 5.48873 30.39912 8.303463 45.739417z" fill="#303445" p-id="15571"></path><path d="M784.536559 356.626718v44.191314z" fill="#4D4F5C" p-id="15572"></path><path d="M891.214953 453.594283l11.118197 21.391973-18.717977 7.740517z" fill="#494B59" p-id="15573"></path><path d="M543.595382 304.694887h-32.51017v-8.584936z" fill="#354863" p-id="15574"></path><path d="M796.358439 400.818032l8.4442-32.369434z" fill="#4D4F5C" p-id="15575"></path><path d="M837.875756 315.250137h32.369434z" fill="#424553" p-id="15576"></path><path d="M967.916438 430.513469h-36.873008z" fill="#474A58" p-id="15577"></path><path d="M855.467839 638.522265l-3.518416-21.95492z" fill="#53AAF6" p-id="15578"></path><path d="M914.014294 924.076965l-15.199561 15.762507-11.258933-10.273777 12.525563-10.97746 3.096207-3.096206z" fill="#232637" p-id="15579"></path><path d="M869.82298 812.050577v9.007147l-19.562397 2.11105-12.103354-0.703683z" fill="#292F42" p-id="15580"></path><path d="M181.761407 577.020341l-7.881253 34.058274 2.392523-35.606378 2.53326 1.688841z" fill="#2B3245" p-id="15581"></path><path d="M880.80044 326.227598v31.947223z" fill="#4E505D" p-id="15582"></path><path d="M373.86696 368.589335L358.948873 365.915338l7.881253-18.717977h17.169874v10.414514z" fill="#2A3952" p-id="15583"></path><path d="M997.611875 487.230346l-0.985157-34.480483z" fill="#474A58" p-id="15584"></path><path d="M319.964816 388.010995l-18.717977 12.947774z" fill="#313B4D" p-id="15585"></path><path d="M850.964266 409.543705l8.4442-19.280923 3.096207 2.392523-2.11105 15.481034z" fill="#484A59" p-id="15586"></path><path d="M850.964266 409.543705l9.429357-0.985156 5.06652 0.84442 4.785047-1.970314a11.540407 11.540407 0 0 1 0 6.192414z" fill="#84878F" p-id="15587"></path><path d="M912.46619 520.725673zM933.15448 537.3326l23.503024-9.28862z" fill="#474957" p-id="15588"></path><path d="M181.761407 577.020341h-2.95547l-2.53326-1.68884 4.64431-12.525564z" fill="#53AAF6" p-id="15589"></path><path d="M490.115448 262.896097a81.768004 81.768004 0 0 0 8.303463 0l0.844421 21.251237z" fill="#3A4154" p-id="15590"></path><path d="M866.726773 701.572292a55.450247 55.450247 0 0 1-5.347993-7.459043c0-0.84442 1.26663-2.814733 1.829576-4.2221a48.835624 48.835624 0 0 1 5.207257 7.17757c0.42221 0.985157-1.125893 2.95547-1.68884 4.503573z" fill="#53AAF6" p-id="15591"></path><path d="M881.64486 748.015393l-11.258934-21.814184z" fill="#2A3145" p-id="15592"></path><path d="M131.236943 951.379879L129.970313 971.083013z" fill="#353848" p-id="15593"></path><path d="M468.582738 212.934579l-9.429357 8.162727zM458.449698 221.80099l-10.273777 9.71083z" fill="#354863" p-id="15594"></path><path d="M448.035184 242.06707h-10.13304l9.992303-10.414514c0.140737 3.659153 0.281473 7.59978 0.140737 10.414514zM437.198461 242.770753l-9.71083 10.273777zM427.065421 253.326003l-8.162727 9.28862z" fill="#3A4154" p-id="15595"></path><path d="M403.984607 282.317757l-9.570094 12.103354zM394.97746 294.280374l-8.4442 10.836723z" fill="#2A3952" p-id="15596"></path><path d="M511.085212 296.532161v8.584936l-9.71083-12.6663a29.13249 29.13249 0 0 1 9.71083 4.081364z" fill="#3A4154" p-id="15597"></path><path d="M827.883452 295.547004l-12.103353 9.007147zM892.481583 303.709731l-12.103353 1.548103v-11.118197z" fill="#424553" p-id="15598"></path><path d="M561.609676 315.813084l-8.4442-8.303463z" fill="#354863" p-id="15599"></path><path d="M816.202309 303.991204l-10.836724 11.39967z" fill="#424553" p-id="15600"></path><path d="M901.629467 315.953821l-8.725674-12.6663z" fill="#4E505D" p-id="15601"></path><path d="M382.31116 311.309511l-10.55525 14.073667z" fill="#2D364C" p-id="15602"></path><path d="M826.898296 323.694338l10.55525-8.725674z" fill="#424553" p-id="15603"></path><path d="M372.17812 324.538758l-7.036834 12.24409z" fill="#2A3952" p-id="15604"></path><path d="M974.671798 483.148983l-9.992304 12.103353z" fill="#484A58" p-id="15605"></path><path d="M224.404618 481.460143l-9.147884 14.073667z" fill="#313B4D" p-id="15606"></path><path d="M975.375481 463.586586l1.26663 10.55525z" fill="#474A58" p-id="15607"></path><path d="M901.629467 475.126993l11.258933-10.695987z" fill="#494B59" p-id="15608"></path><path d="M236.507971 463.586586a88.664101 88.664101 0 0 1 0.703684 10.55525h-9.147884z" fill="#313B4D" p-id="15609"></path><path d="M192.035184 545.35459l-7.17757 14.073667 1.829577-15.058823 2.53326 1.407366z" fill="#2B3245" p-id="15610"></path><path d="M192.035184 545.35459h-2.814733l-2.53326-1.407366v-2.95547h2.95547a3.940627 3.940627 0 0 1 2.392523 4.362836z" fill="#53AAF6" p-id="15611"></path><path d="M964.257284 453.312809l11.118197 10.273777z" fill="#474A58" p-id="15612"></path><path d="M912.46619 464.431006l14.073667-9.28862z" fill="#494B59" p-id="15613"></path><path d="M803.113799 460.349643a5.629467 5.629467 0 0 1-5.347994 2.11105l-4.785046-9.28862a21.673447 21.673447 0 0 1 5.91094 0.985156c4.2221 0.84442 4.925783 2.95547 4.2221 6.192414z" fill="#53AAF6" p-id="15614"></path><path d="M246.500275 452.186916l-9.992304 11.39967z" fill="#313B4D" p-id="15615"></path><path d="M996.767455 452.890599l-9.71083-12.103353zM943.850467 451.905443z" fill="#474A58" p-id="15616"></path><path d="M901.629467 444.164926l-9.992304 9.147883z" fill="#494B59" p-id="15617"></path><path d="M890.652007 759.97801l-9.570094-11.962617zM901.629467 769.970313l-10.836724-9.992303zM914.295767 779.39967l-12.6663-9.007147z" fill="#2A3145" p-id="15618"></path><path d="M785.943925 441.913139l12.6663 12.24409a21.673447 21.673447 0 0 0-5.91094-0.985156l-9.147883-9.007147z" fill="#333C50" p-id="15619"></path><path d="M931.46564 790.79934l-8.725673-8.584936zM923.584387 813.739417l10.55525-12.384827z" fill="#2A3145" p-id="15620"></path><path d="M257.055525 441.631666l-10.836723 10.97746z" fill="#313B4D" p-id="15621"></path><path d="M987.619571 441.209456l-12.24409-8.4442z" fill="#474A58" p-id="15622"></path><path d="M776.514568 430.372732c3.096207 3.79989 6.192413 7.740517 9.429357 11.540407l-2.392523 2.251787-10.13304-10.836724z" fill="#333C50" p-id="15623"></path><path d="M268.314458 431.217152l-10.97746 10.836724z" fill="#313B4D" p-id="15624"></path><path d="M766.240792 419.395272l10.273776 10.97746-3.096206 2.95547-10.414514-11.118197z" fill="#333C50" p-id="15625"></path><path d="M838.157229 822.465091l12.103354 0.703683c-0.84442 3.37768-1.68884 6.896097-2.673997 10.273777h-9.429357z" fill="#2A3145" p-id="15626"></path><path d="M278.588235 421.224849l-11.118197 10.273777z" fill="#313B4D" p-id="15627"></path><path d="M753.996701 410.528862l12.244091 8.86641-3.236944 3.236944-10.97746-9.992304z" fill="#333C50" p-id="15628"></path><path d="M849.697636 844.420011a9.147883 9.147883 0 0 1 1.407367-7.881253l3.518416 1.970313v4.2221z" fill="#4F9CE2" p-id="15629"></path><path d="M849.697636 844.420011l4.64431-1.68884 3.518417 11.962617z" fill="#2A3145" p-id="15630"></path><path d="M964.820231 524.24409l10.414513-7.881253z" fill="#484A58" p-id="15631"></path><path d="M289.424959 411.373282l-10.97746 9.851567z" fill="#313B4D" p-id="15632"></path><path d="M881.926333 401.662452l-11.681143 11.962617a11.540407 11.540407 0 0 0 0-6.192414l8.162726-9.147883z" fill="#484A59" p-id="15633"></path><path d="M784.818032 400.677295h11.681143l-3.79989 6.614624z" fill="#4D4F5C" p-id="15634"></path><path d="M865.741616 861.730621l-3.659153-0.84442 0.281473-3.659153 3.659154 0.985157-0.281474 3.518416z" fill="#4F9CE2" p-id="15635"></path><path d="M742.456295 401.240242l11.540406 9.28862-1.970313 2.11105-11.118197-9.71083z" fill="#333C50" p-id="15636"></path><path d="M878.126443 881.855965l-3.79989-0.562947 0.140737-3.659153 3.518416 0.703683 0.140737 3.518417z" fill="#4F9CE2" p-id="15637"></path><path d="M300.402419 401.662452l-10.55525 9.429357z" fill="#313B4D" p-id="15638"></path><path d="M880.941176 895.085212a8.02199 8.02199 0 0 1 2.392524-6.051677l7.881253 7.318307-1.68884 1.26663a16.606927 16.606927 0 0 0-8.303463-1.68884z" fill="#4F9CE2" p-id="15639"></path><path d="M891.35569 390.122045l-9.570094 11.540407-3.37768-3.37768 9.570094-10.97746z" fill="#484A59" p-id="15640"></path><path d="M732.745465 393.077515l10.13304 8.162727-1.407367 1.68884a50.383727 50.383727 0 0 0-9.007147-2.53326c0.281473-2.392523 0.281473-4.785047 0.281474-7.318307z" fill="#333C50" p-id="15641"></path><path d="M732.745465 393.077515v7.318307h-9.992304l1.26663-12.24409z" fill="#2B3348" p-id="15642"></path><path d="M891.214953 896.351842l6.614624 8.86641a9.28862 9.28862 0 0 1-6.051677 1.68884h-0.985157a22.37713 22.37713 0 0 0-1.26663-8.584937z" fill="#4F9CE2" p-id="15643"></path><path d="M891.7779 906.907092a9.28862 9.28862 0 0 0 6.051677-1.68884l5.48873 10.273777-3.096207 3.096206z" fill="#292F42" p-id="15644"></path><path d="M889.385377 378.863112a28.147334 28.147334 0 0 1 9.147883 0l-7.17757 11.540406-3.37768-2.814733a14.073667 14.073667 0 0 0 1.407367-8.725673zM859.408466 390.262782l9.71083-11.39967 2.814734 3.096206-9.429357 10.695987z" fill="#484A59" p-id="15645"></path><path d="M723.879054 388.433205l-12.24409-8.4442z" fill="#2B3348" p-id="15646"></path><path d="M152.06597 940.120946l-14.073667 7.318306z" fill="#353848" p-id="15647"></path><path d="M331.505223 380.692688l-12.103354 7.881254z" fill="#2D364C" p-id="15648"></path><path d="M878.970863 365.915338l1.548103 13.08851a14.073667 14.073667 0 0 0-8.162726 2.673997l-2.814734-3.096207z" fill="#484A59" p-id="15649"></path><path d="M835.061023 522.836723l-3.236944-0.703683 1.548104-2.53326 2.673996 0.703683-0.985156 2.53326z" fill="#53AAF6" p-id="15650"></path><path d="M705.442551 377.596482L690.524464 369.433755z" fill="#2B3348" p-id="15651"></path><path d="M975.375481 516.362837L986.071468 506.652007z" fill="#484A58" p-id="15652"></path><path d="M352.75646 369.433755l-14.073667 8.162727z" fill="#2D364C" p-id="15653"></path><path d="M686.583837 365.352391l-2.814733 1.125894-1.125893-2.814734 2.814733-1.548103 1.125893 3.236943z" fill="#53AAF6" p-id="15654"></path><path d="M943.850467 508.763057l-12.807037 6.614623z" fill="#474957" p-id="15655"></path><path d="M880.659703 313.983507v11.962617l-9.851567-10.836723a57.139087 57.139087 0 0 1 9.851567-1.125894z" fill="#4E505D" p-id="15656"></path><path d="M129.68884 971.083013l9.429357 12.807036zM138.97746 983.608576l13.08851-2.814733c0 3.940627 0 7.740517-0.703683 11.681143z" fill="#353848" p-id="15657"></path><path d="M793.262232 334.671798l-6.473887 13.08851z" fill="#4D4F5C" p-id="15658"></path><path d="M151.080814 992.193513l11.82188-0.84442v8.584937z" fill="#353848" p-id="15659"></path><path d="M162.761957 999.93403v-8.584937l9.851567 11.39967z" fill="#2C2E3E" p-id="15660"></path><path d="M986.071468 506.652007l8.4442-11.118197zM964.679494 495.1116l-12.525563 9.851567z" fill="#484A58" p-id="15661"></path><path d="M342.341946 971.083013c28.147334-19.562397 56.294667-15.340297 84.442001-1.548104zM500.389225 969.816383L521.640462 971.083013z" fill="#323544" p-id="15662"></path><path d="M331.364486 991.208356l11.258933-20.68829z" fill="#2C2E3E" p-id="15663"></path><path d="M551.758109 1003.030236l22.095657 10.414514zM520.514568 971.083013l10.977461 11.118196zM531.069819 981.356789l9.992303 12.244091z" fill="#303242" p-id="15664"></path><path d="M321.372183 1002.748763l9.992303-11.39967z" fill="#2C2E3E" p-id="15665"></path><path d="M540.358439 992.897196l11.962617 10.55525z" fill="#303242" p-id="15666"></path><path d="M310.535459 1012.17812l11.540407-9.851567z" fill="#2C2E3E" p-id="15667"></path><path d="M498.700385 948.424409h-100.626718L352.75646 936.884002l1.125893 0.703684a45.598681 45.598681 0 0 1-1.68884-9.570094l20.26608-34.19901c7.59978-14.073667 24.91039-35.88785 21.1105-40.532161-29.413964-35.46564-13.08851-77.264431-20.547553-115.122595l1.125893-18.99945 25.895547-16.46619a6.614623 6.614623 0 0 0 5.48873-6.051677 9.992303 9.992303 0 0 0 5.91094-5.770203l25.051127 4.081363 30.117647-20.829027 9.007147-0.985157 25.191864 22.377131c24.206707 7.17757 39.687741 19.703134 35.184167 48.55415-2.95547 18.858714-2.814733 38.139637-3.940627 57.279824l-43.48763 9.992304-10.13304 9.851567 1.407366 4.081363-8.584937 8.162727a8.02199 8.02199 0 0 0-4.785046 7.318307l-8.303464 13.369983 9.28862 32.369434a47.709731 47.709731 0 0 1 1.407367 8.02199l43.065421 11.82188 9.992303 11.258934-1.829577 20.406817v-0.703684z" fill="#FCEBE1" p-id="15668"></path><path d="M584.971963 992.615723l-3.79989-2.251787h-4.503574l-12.807037-9.007147-10.97746-10.273776-9.007147-14.073667a7.59978 7.59978 0 0 0-2.392523-7.881254C539.936229 886.641012 539.936229 886.641012 479.419461 874.678395l-2.673996-21.110501 12.525563-11.962616 12.24409-7.318307h-0.84442l45.035734-9.71083 89.930731 11.118197 22.377131 19.42166 10.55525 21.53271a9.851567 9.851567 0 0 0 1.970313 9.147884l-1.407367 63.75371a3.940627 3.940627 0 0 0-1.970313 5.91094l-10.13304 14.073667-10.836724 10.695987-12.24409 10.97746a9.28862 9.28862 0 0 0-8.162727 2.392524z" fill="#F8E7DD" p-id="15669"></path><path d="M214.271578 959.824079c0-43.487631-14.073667-89.086311 22.517867-126.663001l94.715778-1.829577 10.414513 1.407367 38.280374 29.13249-38.702584 21.673447-9.429357 4.362837-10.414513 71.35349a4.2221 4.2221 0 0 0-2.11105 6.192414l-10.273777 14.073667v-0.703684l-13.08851 10.555251a6.614623 6.614623 0 0 0-7.459044 2.95547l-23.080813 8.02199-3.940627-1.125894-4.081363 1.970314a9.851567 9.851567 0 0 0-9.851567-1.125894h0.703683l-11.681143-7.318306a5.347993 5.347993 0 0 0-6.33315-4.081364l-7.318307-9.28862-6.896097-12.6663a5.91094 5.91094 0 0 0-1.970313-6.896097z" fill="#F8E8DE" p-id="15670"></path><path d="M667.44365 955.039032a3.940627 3.940627 0 0 1 1.970314-5.91094l42.221-9.147883a10.414513 10.414513 0 0 1 8.725674-2.392523l12.24409 1.407366c0 3.79989 0 7.59978 1.125893 11.39967l20.26608 30.680594-12.24409 11.681144a6.473887 6.473887 0 0 0-5.48873 1.26663l-15.058823-20.266081c-8.725673-20.406817-18.717977-20.125344-29.413964-1.407366l0.985157-0.84442-11.540407 10.97746-10.695987 11.681143-12.384827-1.68884v-11.540407l-0.84442-11.681143z" fill="#222536" p-id="15671"></path><path d="M479.419461 874.678395c60.235294 12.24409 60.235294 12.24409 61.642661 74.449697l-10.13304-9.851566-8.86641-21.673447-9.992304-11.258934-43.06542-11.82188a47.709731 47.709731 0 0 0-1.407367-8.02199l3.236943-2.673997a5.91094 5.91094 0 0 0 6.333151-5.347993z" fill="#353645" p-id="15672"></path><path d="M321.512919 959.683342l10.414514-71.35349 9.429356 6.896096 3.096207 3.79989-0.985157 28.147334-2.251786 2.392523z" fill="#2C2E3E" p-id="15673"></path><path d="M163.606377 960.246289l10.836724-8.4442 28.991753 20.829027-1.970313 17.31061h-4.64431l-12.947774-6.473887-10.695986-2.673996-10.695987-9.71083c0-4.081363 0.562947-7.459043 1.125893-10.836724z" fill="#4E8DC8" p-id="15674"></path><path d="M201.464541 989.941726l1.970313-17.31061 10.836724-12.807037a5.91094 5.91094 0 0 1 1.970313 7.881254l6.896097 12.6663 7.318307 9.28862zM352.75646 936.884002l44.894997 11.118197z" fill="#2C2E3E" p-id="15675"></path><path d="M584.971963 992.615723z" fill="#303242" p-id="15676"></path><path d="M522.344145 917.603079l8.86641 21.673447-10.695987-1.26663z" fill="#2F3140" p-id="15677"></path><path d="M498.700385 948.424409L521.640462 937.306212z" fill="#323544" p-id="15678"></path><path d="M266.062672 1001.059923l23.080813-8.02199zM352.75646 928.017592a45.598681 45.598681 0 0 0 1.68884 9.570094l-13.088511-8.444201 2.251787-2.392523a25.3326 25.3326 0 0 0 9.147884 1.26663zM152.06597 980.793843v-10.55525h9.992304v10.273776z" fill="#2C2E3E" p-id="15679"></path><path d="M162.339747 980.934579v-10.273776l10.55525 10.13304z" fill="#2F394E" p-id="15680"></path><path d="M309.128092 980.230896l10.273777-14.073667z" fill="#2C2E3E" p-id="15681"></path><path d="M552.884002 971.083013l10.273777 10.273776z" fill="#303242" p-id="15682"></path><path d="M657.873557 969.253436l0.84442 11.681143-11.681144-0.985156z" fill="#2E3446" p-id="15683"></path><path d="M183.872457 983.467839l13.088511 6.473887z" fill="#2F394E" p-id="15684"></path><path d="M296.461792 990.082463l13.08851-10.55525z" fill="#2C2E3E" p-id="15685"></path><path d="M563.861462 981.356789l13.229247 9.007147z" fill="#303242" p-id="15686"></path><path d="M635.074217 990.363936l12.24409-10.97746z" fill="#2E3446" p-id="15687"></path><path d="M236.789445 993.741616l11.681143 7.318307z" fill="#2C2E3E" p-id="15688"></path><path d="M658.717977 991.349093l12.384827 1.68884-11.39967 10.273777c-0.281473-4.081363-0.703683-7.881253-0.985157-11.962617z" fill="#2E3446" p-id="15689"></path><path d="M247.766905 1000.637713a9.851567 9.851567 0 0 1 9.851567 1.125893z" fill="#2C2E3E" p-id="15690"></path><path d="M648.303463 1010.630016l-10.13304 2.673997 10.13304-11.39967z" fill="#303242" p-id="15691"></path><path d="M648.303463 1010.630016v-8.725673l11.681144 0.985157c-3.940627 2.673997-7.881253 5.207257-11.681144 7.740516z" fill="#2E3446" p-id="15692"></path><path d="M543.736119 957.009346l9.007147 14.073667z" fill="#303242" p-id="15693"></path><path d="M753.574491 981.075316L732.745465 950.394722l10.273776-11.39967 11.118197-9.147883 21.814184-22.377131 8.725673-11.39967 12.24409-18.717977L827.461242 844.420011l9.007147 14.073667a6.473887 6.473887 0 0 0 1.970314 6.33315l8.86641 14.073667 21.1105 29.97691a12.6663 12.6663 0 0 0 5.06652 8.303464l6.614623 6.75536a10.273777 10.273777 0 0 0 7.599781 4.925783l11.118196 10.273777 23.080814 29.836174c-41.376581 0-78.671798 7.036833-111.463441-2.11105-29.13249-8.162727-35.606377 4.503573-45.457944 22.517867z" fill="#4F9CE2" p-id="15694"></path><path d="M753.574491 981.075316l11.399671 9.007147-14.073667 14.073667a4.64431 4.64431 0 0 0-4.925784 1.26663 34.19901 34.19901 0 0 0-5.629466-6.33315 6.33315 6.33315 0 0 0 0.985156-5.91094z" fill="#222536" p-id="15695"></path><path d="M745.974711 1005.00055a4.64431 4.64431 0 0 1 4.925784-1.26663 6.473887 6.473887 0 0 1-0.985157 5.770203l-3.096207-0.84442z" fill="#4F9CE2" p-id="15696"></path><path d="M691.368884 972.349643c10.695987-18.717977 20.68829-18.99945 29.413964 1.407366zM680.813634 982.482683l11.540407-10.97746zM670.680594 993.460143l10.695987-11.681144z" fill="#2E3446" p-id="15697"></path><path d="M741.330401 992.75646a6.33315 6.33315 0 0 1-0.985156 5.91094l-3.659154-0.84442-0.84442-3.79989a6.473887 6.473887 0 0 1 5.48873-1.26663z" fill="#4F9CE2" p-id="15698"></path><path d="M719.938428 937.587686a10.414513 10.414513 0 0 0-8.725674 2.392523c-6.473887-6.051677-18.014294-11.540407-18.717977-18.15503a632.329852 632.329852 0 0 1-1.970313-67.412865v-137.499725l-19.280924-24.48818-34.19901-38.280374-9.429357-11.39967-8.584937-11.258933-9.147883-10.695987-14.073667-19.984607c-5.207257-8.4442-10.55525-16.747664-15.62177-25.332601-15.340297-25.75481-28.147334-17.873557-38.702584 3.377681l-9.429357 11.258933-10.13304 10.695987-10.414513 10.97746L490.256185 633.315008l-10.836724 10.695987-10.695987 10.13304-10.695986 9.992304-31.384277 12.6663-20.688291-12.947774-32.228697-41.79879-2.673997-10.13304-6.192413-14.073667v-95.137988c-28.147334 37.295217-53.198461 70.368334-78.671798 103.722925-9.570093 12.103353-20.406817 23.22155-30.680593 34.761957l-30.680594 32.51017-9.851567 11.681144v10.695986l9.992304 11.681144-1.68884 113.996701c-22.79934-23.22155-48.272677-39.547004-87.678945-26.317757l38.280374-75.153381 7.740517-14.073666 1.829576-10.695987a7.036833 7.036833 0 0 0 1.125894-7.881254l7.318306-45.035734v-10.414513l2.673997-29.13249 8.86641-34.199011 19.421661-33.7768c9.992303 20.547554 29.13249 31.384277 46.86531 19.280923a105.552501 105.552501 0 0 0 38.280374-51.228147c7.881253-23.64376-8.02199-39.265531-33.213854-42.221001q0-4.2221 0.84442-8.4442l1.548104-1.125893 10.273776-9.147884 10.414514-9.851566 12.6663-10.133041 12.947774-9.71083a11.39967 11.39967 0 0 0 8.162726-4.362836l10.695987-7.740517 20.68829-10.97746 21.673447-9.851567 10.695987-2.251787 14.073667-6.75536a7.036833 7.036833 0 0 0 7.318307-1.548103l10.414513-1.125894 9.992304 31.384278a44.191314 44.191314 0 0 0 65.301814 0.985156c28.147334-29.97691 59.250137-33.636064 94.856514-32.51017l88.523365 23.503023 14.77735 9.147884 10.13304 7.459043 9.71083 4.2221 12.244091 10.13304 10.97746 9.992304 10.273776 10.13304 10.133041 10.414514 10.836723 11.681143 9.570094 12.6663 22.095657 41.095107 21.814183 83.034635 0.985157 21.391973 9.147883 74.168225 32.228697 73.323804 9.570094 11.681144-11.962617 19.42166h-15.340297c-17.73282-6.75536-39.687741-29.273227-44.472787 11.962617a12.103353 12.103353 0 0 0-1.970313 9.007146l-18.577241 44.332051L774.966465 886.641012l-14.073667 18.99945-8.162727 8.162727L732.745465 928.862012z" fill="#53AAF6" p-id="15699"></path><path d="M331.505223 831.894447l-94.715778 1.829577v-11.258933l10.97746-10.97746 61.642661-1.829577 11.962617 12.24409h10.414513c-0.140737 3.659153-0.140737 6.75536-0.281473 9.992303z" fill="#303241" p-id="15700"></path><path d="M223.700935 821.620671l1.68884-113.996702-9.992304-11.681143v-10.695987l9.851567-11.681144 11.82188 0.985157v147.773502z" fill="#253147" p-id="15701"></path><path d="M182.042881 706.638813l-7.740517 14.073666z" fill="#2B3245" p-id="15702"></path><path d="M597.638263 367.744915c-35.606377-1.125893-67.412864 2.53326-94.856515 32.51017a44.191314 44.191314 0 0 1-65.583287-0.985156l5.06652 1.125893 5.207256-0.84442 11.681144-7.59978 9.28862-54.183618-11.681143-10.97746a15.62177 15.62177 0 0 1-9.007147-2.251786L427.065421 295.547004l9.71083-10.273777 9.851566-11.118197 10.555251-10.836723 9.007146 0.985156 2.95547-1.125893v30.539857l10.273777 22.236394 12.103354 9.71083 19.562397 1.26663 1.829576 13.08851a24.628917 24.628917 0 0 0 0 7.881254h-0.84442l-9.71083 9.992303v1.407367l-8.162727 8.4442-7.318306 9.71083-4.925784 16.606927 20.688291-14.073667c28.71028-26.317757 61.220451-27.302914 94.997251-12.24409z" fill="#52AAF6" p-id="15703"></path><path d="M722.049478 400.255085H732.745465a50.383727 50.383727 0 0 1 9.007146 2.53326l10.97746 9.71083 10.977461 9.992304 10.414513 10.695987 10.13304 10.836723 9.147884 9.007147 4.785046 9.28862-12.103353 1.125893L774.966465 464.431006l-9.851567-11.118197-10.13304-10.414513-10.273777-10.13304L732.745465 422.210005l-11.681144-9.71083z" fill="#232637" p-id="15704"></path><path d="M510.803738 327.072018l-19.562397-1.26663-3.096206-8.866411c40.109951-1.829577 40.109951-1.829577 35.184167 22.095657L521.640462 337.768004z" fill="#354863" p-id="15705"></path><path d="M502.641012 379.989005l-20.688291 14.073667 3.518417-15.762507z" fill="#2A3952" p-id="15706"></path><path d="M469.427158 293.15448v-30.539857h8.86641l-0.985157 33.776801a72.338648 72.338648 0 0 0-7.881253-3.236944z" fill="#354863" p-id="15707"></path><path d="M469.427158 293.15448a72.338648 72.338648 0 0 1 8.162727 3.799891l1.829576 18.99945z" fill="#4E9EE5" p-id="15708"></path><path d="M456.901594 251.35569a90.775151 90.775151 0 0 0 1.68884-9.28862l10.97746 9.71083-2.251786 2.11105a15.481034 15.481034 0 0 0-8.02199 0zM478.575041 263.17757h-8.86641l-2.95547 1.125893a18.014294 18.014294 0 0 0 0-9.851566l2.251787-2.11105z" fill="#3A4154" p-id="15709"></path><path d="M488.145135 316.938977l3.096206 8.866411-11.82188-9.710831z" fill="#4E9EE5" p-id="15710"></path><path d="M711.072018 408.136339l-10.133041-7.459044zM700.938977 400.395822l-14.77735-9.147884z" fill="#2B3348" p-id="15711"></path><path d="M493.493128 368.448598l8.162727-8.4442z" fill="#2A3952" p-id="15712"></path><path d="M501.655855 358.597031l9.71083-9.992303zM512.211105 348.041781a24.628917 24.628917 0 0 1 0-7.881253L521.640462 337.768004l1.548103 1.829577z" fill="#354863" p-id="15713"></path><path d="M786.788345 865.249038l18.57724-44.332051 22.377131 11.962617v10.97746l-30.117647 33.495327z" fill="#2A3C57" p-id="15714"></path><path d="M837.875756 696.365036l-9.147884-74.168225z" fill="#303445" p-id="15715"></path><path d="M807.335899 811.909841c4.785047-41.235844 26.739967-18.717977 44.472787-11.962617l-34.62122 11.962617z" fill="#2A3145" p-id="15716"></path><path d="M807.335899 811.909841h9.851567l10.695986 20.969763-22.37713-11.962617a12.103353 12.103353 0 0 1 1.829577-9.007146z" fill="#292F42" p-id="15717"></path><path d="M867.148983 800.228697l11.962617-19.42166 7.59978 15.481033zM879.674546 781.369984l-9.570093-11.681144zM836.468389 858.493678l-8.725673-14.918087h10.414513z" fill="#2A3145" p-id="15718"></path><path d="M275.773502 460.912589c25.191864 3.37768 41.095107 18.99945 33.213854 42.221001a105.552501 105.552501 0 0 1-38.280374 51.228147c-17.73282 12.103353-36.873007 1.26663-46.865311-19.280923l2.814734-17.732821 8.02199-11.962616a7.318307 7.318307 0 0 0 3.37768-7.177571l9.71083-14.073666 9.429357-11.540407 9.429356-10.55525 0.84442-0.985157a18.014294 18.014294 0 0 0 8.303464-0.140737z" fill="#56EBFB" p-id="15719"></path><path d="M192.316658 643.025838l-7.318307 45.035734-1.125894-45.035734zM204.420011 569.279824l-8.86641 34.199011z" fill="#2B3245" p-id="15720"></path><path d="M247.766905 485.119296l-9.71083 14.073667zM257.055525 473.860363l-9.429357 11.540407-0.84442-11.258934z" fill="#313B4D" p-id="15721"></path><path d="M192.316658 643.025838H183.872457l9.147884-10.414513z" fill="#2C3041" p-id="15722"></path><path d="M234.678395 505.807587l-8.02199 11.962616z" fill="#313B4D" p-id="15723"></path><path d="M427.065421 295.547004l20.68829 28.991754-10.695987 2.814733L406.236394 323.694338a27.162177 27.162177 0 0 0 0-6.755361l8.02199-11.962616a8.303463 8.303463 0 0 0 3.236943-7.17757 81.345794 81.345794 0 0 1 9.570094-2.251787z" fill="#4E9EE5" p-id="15724"></path><path d="M447.753711 399.551402l-5.207257 0.84442-5.347993-1.125893-11.118197-31.806488v-9.28862c30.962067 1.829577 19.140187 25.191864 21.673447 41.376581zM468.442001 337.768004l-9.007147 54.042881c-0.985157-17.73282-1.829577-35.606377-2.673996-53.479934l2.392523-2.53326a72.901594 72.901594 0 0 1 9.28862 1.970313z" fill="#2A3952" p-id="15725"></path><path d="M406.236394 323.694338l30.82133 3.518416v9.28862z" fill="#2D364C" p-id="15726"></path><path d="M437.198461 336.782848v-9.28862l10.695986-2.814734a15.62177 15.62177 0 0 0 9.007147 2.251787c0.84442 2.95547 1.68884 5.91094 2.392524 9.007147l-2.392524 2.53326zM414.117647 305.257834l-8.02199 11.962617z" fill="#2A3952" p-id="15727"></path><path d="M409.051127 370.137438l-14.073667 6.75536zM426.502474 358.174821v9.28862l-10.414514 1.125894zM384.281473 358.034085v-10.414514zM362.8895 389.559098l-20.688291 10.977461zM384.703683 379.989005l-21.673447 9.851567z" fill="#2D364C" p-id="15728"></path><path d="M266.766355 463.023639l-9.429357 10.55525zM275.773502 460.912589a18.014294 18.014294 0 0 1-8.162727 1.125894l9.007147-9.570094q-0.281473 4.2221-0.84442 8.4442zM288.439802 442.194612l-10.273777 9.147884zM299.417262 431.780099l-10.414513 9.851567zM310.535459 422.210005l-10.97746 9.851567zM323.483233 412.076965L310.535459 422.210005z" fill="#313B4D" p-id="15729"></path><path d="M342.341946 400.395822l-10.695987 7.740517z" fill="#2D364C" p-id="15730"></path><path d="M887.5558 929.565695a10.273777 10.273777 0 0 1-7.59978-4.925783 11.258933 11.258933 0 0 0-6.614624-6.75536 12.6663 12.6663 0 0 1-5.06652-8.303463l12.525564-14.073667v0.84442l9.570093 10.273776h0.985157l8.4442 11.681144z" fill="#222536" p-id="15731"></path><path d="M847.305113 879.604178l-8.86641-14.073667z" fill="#2A3145" p-id="15732"></path><path d="M774.966465 464.431006h11.118197c0 4.362837-0.985157 8.725673-1.548103 13.08851z" fill="#333C50" p-id="15733"></path><path d="M872.35624 381.959318a14.073667 14.073667 0 0 1 8.162726-1.970313h8.866411a14.073667 14.073667 0 0 1-1.407367 8.4442l-9.570094 10.97746-8.162726 9.147884-4.785047 1.970313-5.06652-2.392523 2.53326-15.903244z" fill="#242738" p-id="15734"></path><path d="M446.205607 261.91094l10.695987-10.55525 2.392524 2.392523a31.806487 31.806487 0 0 0-1.548104 9.007147 40.109951 40.109951 0 0 0-9.147883 1.548103z" fill="#3A4154" p-id="15735"></path><path d="M435.931831 272.747664l10.273776-10.836724 2.533261 2.251787a42.221001 42.221001 0 0 0-1.407367 9.28862 38.139637 38.139637 0 0 0-8.86641 1.829577z" fill="#3A4154" p-id="15736"></path><path d="M427.909841 286.258384l8.02199-14.073667 2.673996 2.392523a42.221001 42.221001 0 0 0-0.985156 9.28862c-3.518417 1.26663-6.614623 1.829577-9.71083 2.392524z" fill="#3A4154" p-id="15737"></path><path d="M427.909841 286.258384c3.096207 0 6.192413-1.125893 9.28862-1.407367l-9.71083 10.273777a18.717977 18.717977 0 0 1 0.42221-8.86641z" fill="#4E9EE5" p-id="15738"></path><path d="M162.19901 971.083013h-9.992303l11.39967-9.992304c-0.562947 2.53326-1.125893 5.91094-1.407367 9.992304z" fill="#2F394E" p-id="15739"></path><path d="M890.792743 906.203408l-9.570093-10.273776a16.606927 16.606927 0 0 1 8.303463 1.68884 22.37713 22.37713 0 0 1 1.26663 8.584936z" fill="#292F42" p-id="15740"></path><path d="M637.04453 654.144035l34.19901 38.280374-12.807036 34.058274-53.479934 6.192413c9.007147 29.5547-22.236394 72.338648 33.636063 86.975261v11.82188l-2.673996 3.799891-89.930732-11.118197-14.073666-12.384827v-10.414514c1.125893-19.140187 0.985157-38.421111 3.940626-57.279824 4.503573-28.147334-10.97746-41.376581-35.184167-48.55415-4.925783-24.91039 4.2221-37.013744 30.117647-31.243541 31.806487 7.036833 63.331501 15.340297 94.997251 23.080814l14.073667 6.192413-4.081363-8.4442-9.28862-21.391973 1.68884-1.829577 6.473887-6.614623z" fill="#272A3A" p-id="15741"></path><path d="M331.505223 822.465091h-10.414514l-12.384827-93.871358 1.125894 1.125893a179.298516 179.298516 0 0 1-19.703134-12.525563c-7.881253-6.473887-14.918087-14.073667-22.236394-21.251237l21.532711-8.584937 19.84387-2.251787 54.183617-9.992303 3.37768-2.392524 3.940627 0.84442 24.347444 1.548104 1.68884 22.658603v1.125894l-22.236394 20.26608-1.125893 18.99945c-3.37768 20.68829-8.02199 41.376581-9.851567 62.346344-1.548103 15.762507 0 31.525014-21.814184 32.650908z" fill="#222536" p-id="15742"></path><path d="M626.348543 687.357889c-31.66575-7.740517-63.190764-16.04398-94.997251-23.080814-25.895547-5.770203-35.04343 6.33315-30.117647 31.243541l-25.191864-22.377131c0-3.236943 1.125893-6.33315 1.548104-9.570093l11.118196-10.414513 10.977461-10.836724 20.547553-20.829027 10.695987-11.118197 10.97746-11.540407 10.695987-9.992303 32.369434 22.095657 9.992303 11.681143 7.881254 11.258934 14.073666 18.15503 10.414514 11.82188 9.28862 21.391974z" fill="#E9DAD2" p-id="15743"></path><path d="M341.778999 833.161078c22.095657-1.125893 20.26608-16.8884 21.814184-32.650908 1.829577-20.969764 6.473887-42.221001 9.851567-62.346344 7.459043 37.858164-8.86641 79.656954 20.547553 115.122595 3.79989 4.64431-14.073667 26.59923-21.1105 40.532161l-28.147334 5.207256-3.096206-3.79989v-11.258933l38.702584-21.673447z" fill="#262939" p-id="15744"></path><path d="M426.643211 676.380429l31.384277-12.6663 9.007146 10.414513L437.198461 694.957669z" fill="#282B3B" p-id="15745"></path><path d="M426.643211 676.380429l10.55525 18.57724-25.051127-4.081363c0-2.53326-1.26663-3.79989-4.64431-3.659154l-1.829577-12.525563a39.547004 39.547004 0 0 0-0.985157-9.147884l1.548104-2.11105z" fill="#242738" p-id="15746"></path><path d="M489.552501 841.605278l-12.525563 11.962616a30.680594 30.680594 0 0 0-8.02199 0l-2.11105-13.08851a8.02199 8.02199 0 0 1 4.785046-7.318306l8.584937-8.162727-1.407366-4.081364h9.429356l12.666301 12.103354h0.84442z" fill="#222536" p-id="15747"></path><path d="M344.452996 899.025838l28.147334-5.207256L352.75646 928.017592a25.3326 25.3326 0 0 1-9.147884-1.26663z" fill="#F8E8DE" p-id="15748"></path><path d="M469.286421 894.522265l43.065421 11.82188zM532.477185 801.35459v10.414514l-41.235844 1.26663-1.829576-1.68884z" fill="#F8E7DD" p-id="15749"></path><path d="M467.879054 886.641012l-9.28862-32.369434h10.414514v22.095657a16.04398 16.04398 0 0 0 2.251786 8.02199z" fill="#40404D" p-id="15750"></path><path d="M374.570643 719.164376l22.236394-20.68829a7.17757 7.17757 0 0 0 3.659153 4.2221z" fill="#262939" p-id="15751"></path><path d="M467.034634 674.128642l-9.007146-10.414513 10.695986-9.992304 8.866411 9.851567c0 3.236943-0.985157 6.33315-1.548104 9.570093z" fill="#272A3B" p-id="15752"></path><path d="M407.22155 687.217152c3.37768 0 4.925783 1.125893 4.64431 3.659154a9.992303 9.992303 0 0 1-5.91094 5.770203l-0.84442-1.125893a42.221001 42.221001 0 0 0 2.11105-8.303464z" fill="#53AAF6" p-id="15753"></path><path d="M400.46619 702.698186a7.17757 7.17757 0 0 1-3.659153-4.2221v-1.125894h4.503573l4.081364-1.970313 0.84442 1.125893a6.614623 6.614623 0 0 1-5.770204 6.192414z" fill="#53AAF6" p-id="15754"></path><path d="M488.285871 821.761407h-9.429356l10.13304-9.851566 1.829576 1.68884z" fill="#F8E7DD" p-id="15755"></path><path d="M480.263881 825.279824l-8.584937 8.162727zM469.004948 853.849368h-10.414514l8.303464-13.369984z" fill="#4B4A56" p-id="15756"></path><path d="M690.524464 854.412314a632.329852 632.329852 0 0 0 1.68884 67.412865c0 6.614623 12.24409 12.103353 18.717977 18.15503l-42.221001 9.147883 1.407367-63.75371 8.86641-31.243541z" fill="#2E3446" p-id="15757"></path><path d="M488.285871 821.761407l2.53326-8.725673 41.235844-1.26663 14.073667 12.384827-45.035734 9.71083z" fill="#303240" p-id="15758"></path><path d="M658.295767 854.693788l-22.37713-19.42166 2.673996-3.799891 9.28862-7.459043 29.976911 5.347993 1.970313 24.769654h-10.13304l-8.4442-2.673997z" fill="#2D2F3E" p-id="15759"></path><path d="M669.5547 854.130841h10.133041l-8.866411 31.243541a9.851567 9.851567 0 0 1-1.970313-9.147884c0.140737-7.318307 0.42221-14.77735 0.703683-22.095657z" fill="#232738" p-id="15760"></path><path d="M669.5547 854.130841v22.095657l-10.55525-21.53271 2.53326-3.37768a12.947774 12.947774 0 0 0 8.4442 2.673996z" fill="#3F404D" p-id="15761"></path><path d="M468.864211 875.804288v-22.095657a30.680594 30.680594 0 0 1 8.02199 0c0.84442 7.036833 1.829577 14.073667 2.673997 21.1105l-2.251787 3.79989a14.073667 14.073667 0 0 0-8.4442-2.814733zM489.552501 841.605278l12.244091-7.318307z" fill="#4B4A56" p-id="15762"></path><path d="M667.44365 955.039032l-10.13304 14.073667z" fill="#2E3446" p-id="15763"></path><path d="M331.505223 822.465091l10.414513 10.836723-10.414513-1.407367c0.140737-3.236943 0.140737-6.33315 0-9.429356z" fill="#262939" p-id="15764"></path><path d="M341.356789 883.967015v11.258933l-9.429356-6.896096z" fill="#232636" p-id="15765"></path><path d="M223.137988 980.371633l-6.896097-12.6663z" fill="#2C3041" p-id="15766"></path><path d="M719.938428 937.587686L732.745465 928.862012l1.26663 1.26663a17.31061 17.31061 0 0 0-1.407367 8.4442l-0.84442 0.84442z" fill="#2E3446" p-id="15767"></path><path d="M743.441451 938.995052l-10.273776 11.39967c0-3.79989-0.703683-7.59978-0.985157-11.39967h0.84442a31.806487 31.806487 0 0 0 8.86641-0.985156z" fill="#2E3446" p-id="15768"></path><path d="M468.864211 875.804288a14.073667 14.073667 0 0 1 8.584937 2.673997 5.91094 5.91094 0 0 1-6.33315 5.347993 16.04398 16.04398 0 0 1-2.251787-8.02199z" fill="#292B3B" p-id="15769"></path><path d="M786.788345 865.249038l10.55525 12.103353-12.24409 18.717977-1.26663-1.125893-7.17757-7.318307L774.966465 886.641012z" fill="#242B3F" p-id="15770"></path><path d="M732.745465 928.862012l19.140186-14.073667 2.251787 16.04398-11.118197 9.147884-1.548103-1.68884-7.459043-7.459044z" fill="#242C41" p-id="15771"></path><path d="M754.559648 929.847169l-2.251787-16.04398 8.162727-8.162727 15.903244 1.829576z" fill="#263046" p-id="15772"></path><path d="M776.373832 907.470038l-15.481034-1.829576L774.966465 886.641012l1.26663 1.26663 7.17757 7.318306 1.26663 1.125894z" fill="#232B3F" p-id="15773"></path><path d="M873.482133 917.884552a11.258933 11.258933 0 0 1 6.614623 6.75536z" fill="#292F42" p-id="15774"></path><path d="M255.507422 641.196262c10.273777-11.540407 21.1105-22.658604 30.680593-34.761957 25.473337-32.93238 50.383727-66.427708 78.671798-103.722925v95.560198l-1.548103 14.073667H352.75646a6.192413 6.192413 0 0 1-1.970314-7.036834L338.682793 581.101704l-65.864761 63.331501h-14.073667z" fill="#2B354B" p-id="15775"></path><path d="M679.828477 854.130841l-1.970313-24.769654v-98.515667l12.103353-14.073667 1.125894 30.258383v107.804288z" fill="#232738" p-id="15776"></path><path d="M584.971963 610.937878l-32.369434-22.095657-11.540407-9.992303c11.118197-21.251237 23.362287-29.13249 38.702584-3.377681 5.06652 8.584937 10.414513 16.8884 15.62177 25.332601l-0.84442 2.673997z" fill="#303A50" p-id="15777"></path><path d="M394.97746 674.691589l-24.347444-1.548104-6.614623-40.95437 9.851567-10.13304 32.228697 41.37658-1.548103 2.11105-9.570094 9.147884z" fill="#262939" p-id="15778"></path><path d="M691.368884 854.975261z" fill="#314B6C" p-id="15779"></path><path d="M690.524464 716.912589l-12.103353 14.073667-19.843871-3.940627 12.807037-34.058273z" fill="#2A344A" p-id="15780"></path><path d="M520.233095 621.493128l-20.547553 20.829027-1.407367-1.407367-6.896097-6.896096-1.125893-0.703684 20.829027-21.1105z" fill="#242839" p-id="15781"></path><path d="M236.648708 674.691589l-11.82188-0.985157 30.680594-32.51017 2.95547 2.673996v14.073667a5.770203 5.770203 0 0 1-4.2221 6.614624l-7.59978 10.13304h-10.414514z" fill="#27354E" p-id="15782"></path><path d="M627.615173 663.714129l-10.414513-11.821881 10.414513-9.147883 9.429357 11.39967-1.26663 1.125894-6.473887 6.614623zM477.589885 663.573392l-8.866411-9.851567 10.695987-10.13304 9.28862 9.570094z" fill="#252839" p-id="15783"></path><path d="M627.615173 642.744365l-10.414513 9.147883-14.073667-18.15503 16.606927-2.251786z" fill="#2D303F" p-id="15784"></path><path d="M488.708081 653.158879l-9.28862-9.570094 10.836724-10.695987 1.125893 1.125894 6.896097 6.896096 1.407367 1.407367zM520.233095 621.493128l-9.147883-9.71083 10.414513-10.97746 1.407367 1.407367 6.75536 6.896096 1.26663 1.26663z" fill="#242739" p-id="15785"></path><path d="M541.062122 578.849918l11.540407 9.992303-10.695987 9.992303-10.273777-8.725673z" fill="#282B3B" p-id="15786"></path><path d="M531.632765 590.108851l10.273777 8.725673-10.97746 11.540407-1.26663-1.26663-6.75536-6.896096-1.407367-1.407367z" fill="#262939" p-id="15787"></path><path d="M595.386476 600.804838l14.073667 19.984607-15.340297 1.68884v-19.140187z" fill="#23283B" p-id="15788"></path><path d="M373.726223 622.056075l-9.851567 10.13304h-0.703683v-20.829027h7.740517z" fill="#222637" p-id="15789"></path><path d="M594.542056 622.478285l15.340297-1.68884 9.147883 10.695987-16.606926 1.829576z" fill="#26324A" p-id="15790"></path><path d="M224.967565 673.424959l-9.851567 11.681143z" fill="#394154" p-id="15791"></path><path d="M371.052226 611.923035H363.030236l1.548104-14.073667z" fill="#414758" p-id="15792"></path><path d="M215.115998 685.106102v10.695987zM215.397471 695.942826l9.992304 11.681143z" fill="#394154" p-id="15793"></path><path d="M764.551952 453.031336L774.966465 464.431006zM754.278175 442.335349l10.13304 10.414514zM743.582188 431.780099l10.273777 10.13304zM732.745465 422.210005l10.97746 9.992304zM720.642111 412.076965L732.745465 422.210005z" fill="#333C50" p-id="15794"></path><path d="M309.128092 809.658054l-61.64266 1.829577v-115.826279h10.55525c-4.64431 44.894997 32.369434 24.91039 51.228147 32.932381l-1.125893-1.125894z" fill="#E3D4CD" p-id="15795"></path><path d="M309.128092 809.658054v-81.627268l12.384827 93.871358z" fill="#262939" p-id="15796"></path><path d="M236.507971 822.465091v-10.414514l11.399671-0.703683z" fill="#2C3041" p-id="15797"></path><path d="M247.907642 811.346894l-11.399671 0.703683v-137.358988h10.273777l1.125894 20.969763z" fill="#394154" p-id="15798"></path><path d="M457.746014 262.75536a31.806487 31.806487 0 0 1 1.548104-9.007147 15.481034 15.481034 0 0 1 8.02199 0 18.014294 18.014294 0 0 1 0 9.851567z" fill="#4E9EE5" p-id="15799"></path><path d="M447.331501 273.451347a42.221001 42.221001 0 0 1 1.407367-9.28862 40.109951 40.109951 0 0 1 9.147883-1.548104zM437.198461 284.428807a42.221001 42.221001 0 0 1 0.985156-9.28862 38.139637 38.139637 0 0 1 8.86641-1.829577zM459.153381 335.938428c-0.703683-3.096207-1.548103-6.051677-2.392523-9.007147l11.681143 10.97746a72.901594 72.901594 0 0 0-9.28862-1.970313zM521.640462 337.768004l-9.147884 2.95547-1.829576-13.08851z" fill="#4E9EE5" p-id="15800"></path><path d="M658.436504 726.482683l19.84387 3.940627v98.515667L648.303463 824.013194l-9.28862-4.362837c-56.294667-14.073667-24.628917-57.420561-33.636063-86.975261z" fill="#E6D7CF" p-id="15801"></path><path d="M626.348543 687.357889l10.55525-2.251787 4.081364 8.4442z" fill="#736E75" p-id="15802"></path><path d="M629.304013 661.462342l6.473887-6.614623z" fill="#222637" p-id="15803"></path><path d="M638.592633 819.650357l9.28862 4.362837-9.28862 7.459043z" fill="#242637" p-id="15804"></path><path d="M248.048378 695.661352l-1.125893-20.969763 7.59978-10.13304a5.770203 5.770203 0 0 0 4.2221-6.614624l14.073667-14.073667L338.682793 581.101704l12.6663 23.221551a6.192413 6.192413 0 0 0 1.970313 7.036833l10.273777 20.969764h0.703683l6.614624 40.95437-4.081364-0.985157-3.37768 2.392524-54.183617 9.992303-19.84387 2.251787-21.110501 8.584937a26.036284 26.036284 0 0 0-9.28862 0.84442z" fill="#F2E2D9" p-id="15805"></path><path d="M258.603628 696.224299a26.036284 26.036284 0 0 1 9.28862-0.84442c7.318307 7.036833 14.073667 14.77735 22.236394 21.251237a179.298516 179.298516 0 0 0 19.703134 12.525563c-18.858714-8.02199-55.590984 11.962617-51.228148-32.93238zM308.987356 684.683892l54.183617-9.992303zM405.1105 695.520616l-4.081363 1.970313h-4.503574L394.97746 674.691589h10.55525l1.829577 12.525563a42.221001 42.221001 0 0 1-2.251787 8.303464zM268.314458 695.520616l21.532711-8.584937z" fill="#262939" p-id="15806"></path><path d="M594.542056 603.478835v19.140186l-9.992303-11.681143z" fill="#25283A" p-id="15807"></path><path d="M405.391974 674.691589H394.97746l9.570094-9.147884a39.547004 39.547004 0 0 1 0.84442 9.147884z" fill="#222536" p-id="15808"></path><path d="M669.273227 853.990104a12.947774 12.947774 0 0 1-8.4442-2.673996z" fill="#252838" p-id="15809"></path><path d="M734.434305 929.847169l7.459043 7.459043a31.806487 31.806487 0 0 1-8.86641 0.985157 17.31061 17.31061 0 0 1 1.407367-8.4442zM783.832875 894.944475l-7.17757-7.318307z" fill="#23283B" p-id="15810"></path><path d="M350.926883 604.323255L338.682793 581.101704zM363.170973 632.329852L352.75646 611.360088h10.55525z" fill="#414758" p-id="15811"></path><path d="M272.395822 644.433205l-14.073667 14.073667v-14.073667z" fill="#292B3C" p-id="15812"></path><path d="M498.278175 640.914788l-6.896097-6.896096z" fill="#232738" p-id="15813"></path><path d="M254.240792 664.417812l-7.59978 10.13304z" fill="#394154" p-id="15814"></path><path d="M522.907092 602.212205l6.75536 6.896096z" fill="#242738" p-id="15815"></path></svg>