<?xml version="1.0" standalone="no"?><!DOCTYPE svg PUBLIC "-//W3C//DTD SVG 1.1//EN" "http://www.w3.org/Graphics/SVG/1.1/DTD/svg11.dtd"><svg t="1733817329648" class="icon" viewBox="0 0 1024 1024" version="1.1" xmlns="http://www.w3.org/2000/svg" p-id="17606" xmlns:xlink="http://www.w3.org/1999/xlink" width="128" height="128"><path d="M267.115355 517.524645l127.587097-392.695742 6.99458 2.270968-127.587097 392.695742z" fill="#FFFFFF" p-id="17607"></path><path d="M285.117935 473.864258A195.749161 195.749161 0 1 0 410.789161 720.516129a195.691355 195.691355 0 0 0-125.671226-246.651871z m-86.35458 265.744516a83.191742 83.191742 0 1 1 104.836129-53.404903 83.125677 83.125677 0 0 1-104.836129 53.413161z" fill="#FFB452" p-id="17608"></path><path d="M163.253677 848.986839a198.44129 198.44129 0 1 1 249.889033-127.710968 198.713806 198.713806 0 0 1-249.889033 127.710968z m121.129291-372.793807a193.304774 193.304774 0 1 0 124.102193 243.571613 193.395613 193.395613 0 0 0-124.102193-243.571613z m-86.346323 265.744516a85.883871 85.883871 0 1 1 108.056774-55.444645 85.735226 85.735226 0 0 1-108.056774 55.452903z m51.563355-158.703483a80.747355 80.747355 0 1 0 51.844129 101.747612 80.821677 80.821677 0 0 0-51.844129-101.739354z" fill="#69164C" p-id="17609"></path><path d="M406.494968 637.291355c-4.930065-37.103484-28.407742-72.522323-54.148129-99.410581a179.059613 179.059613 0 0 0-72.167226-47.112258 151.04 151.04 0 0 0-89.319226-3.806968 256.132129 256.132129 0 0 0-80.846452 33.420387c-27.714065 17.234581-39.457032 40.687484-52.579096 85.826065a180.769032 180.769032 0 0 0-0.412904 108.948645c9.199484 28.71329 18.745806 62.686968 43.792517 80.59871a215.535484 215.535484 0 0 0 70.044903 33.057032 200.084645 200.084645 0 0 0 94.893419 4.079484c33.081806-5.202581 59.895742-19.654194 74.859355-46.691097 14.492903-27.185548 43.321806-41.488516 52.702968-70.350451 7.845161-27.292903 16.623484-52.744258 13.179871-78.558968z m-207.690323 102.317419a83.191742 83.191742 0 1 1 104.836129-53.404903 83.125677 83.125677 0 0 1-104.827871 53.413161z" fill="#FD6DCB" p-id="17610"></path><path d="M169.331613 830.373161a220.88671 220.88671 0 0 1-70.978065-33.36258c-23.188645-17.308903-33.172645-48.334452-42.198709-75.974194l-1.75071-5.706322a180.669935 180.669935 0 0 1 0.247742-110.03871c13.435871-44.510968 24.394323-68.740129 53.504-87.064774a259.501419 259.501419 0 0 1 81.92-33.585549 156.465548 156.465548 0 0 1 90.871742 3.79871 182.272 182.272 0 0 1 73.414193 48.037161c18.085161 18.745806 49.019871 56.567742 55.229936 100.789678 3.600516 25.352258-4.418065 50.019097-12.882581 76.081548l-0.908387 2.791226a105.893161 105.893161 0 0 1-28.630709 40.613161 145.953032 145.953032 0 0 0-24.220904 30.208c-14.03871 25.789935-40.538839 42.396903-76.395355 48.243613-27.367226 3.460129-61.852903 6.656-97.222193-4.830968zM278.957419 492.940387a151.287742 151.287742 0 0 0-88.237419-3.972129 258.807742 258.807742 0 0 0-80.218839 33.114839c-27.259871 17.374968-38.532129 40.984774-51.513806 84.108387a180.537806 180.537806 0 0 0-0.42942 107.404387l1.75071 5.714581c8.712258 27.012129 18.382452 57.426581 40.794839 73.975742a209.044645 209.044645 0 0 0 69.12 32.743225 203.429161 203.429161 0 0 0 93.960258 3.773936c34.626065-5.210839 59.887484-21.190194 73.00129-45.749678a139.453935 139.453935 0 0 1 25.145807-31.446709 101.227355 101.227355 0 0 0 27.565419-38.895484l0.908387-2.791226c8.315871-25.6 16.020645-49.333677 12.593549-73.604129-6.210065-42.669419-36.352-79.739871-53.512259-98.180129a170.925419 170.925419 0 0 0-70.928516-46.195613z m-80.904258 248.997161A85.883871 85.883871 0 1 1 306.126452 686.492903a85.735226 85.735226 0 0 1-108.065033 55.444645z m51.571613-158.703483a80.747355 80.747355 0 1 0 51.835871 101.739354 80.821677 80.821677 0 0 0-51.835871-101.739354z" fill="#69164C" p-id="17611"></path><path d="M249.145806 516.682323l-18.944 12.37058a5.33471 5.33471 0 0 1-6.821161-1.189161l-0.313806-0.611097a5.33471 5.33471 0 0 1 1.189161-6.821161l18.935742-12.370581a5.33471 5.33471 0 0 1 6.821161 1.189162l0.313807 0.611096a4.839226 4.839226 0 0 1-1.189162 6.821162z" fill="#55B2FF" p-id="17612"></path><path d="M225.271742 531.571613a7.89471 7.89471 0 0 1-3.740903-2.758194l-0.313807-0.619354a6.408258 6.408258 0 0 1 1.940645-9.141678l18.944-12.370581a5.838452 5.838452 0 0 1 4.946581-0.966193 8.266323 8.266323 0 0 1 4.203355 2.906839l0.313806 0.619354a5.838452 5.838452 0 0 1 0.966194 4.938323 9.455484 9.455484 0 0 1-2.915097 4.211613l-18.935742 12.362323a6.028387 6.028387 0 0 1-5.409032 0.817548z m21.644387-22.296774a2.873806 2.873806 0 0 0-2.626064 0.173419l-18.944 12.370581a3.096774 3.096774 0 0 0-0.891871 4.343742l0.313806 0.611096a3.096774 3.096774 0 0 0 4.335484 0.900129l18.944-12.37058a2.147097 2.147097 0 0 0 1.222193-2.180129c-0.165161-1.073548-0.008258-1.544258-0.173419-2.626065l-0.313806-0.619355z" fill="#69164C" p-id="17613"></path><path d="M139.932903 585.149935l-21.404903-6.95329a4.90529 4.90529 0 0 1-3.138065-6.168774l0.148646-0.462452a4.90529 4.90529 0 0 1 6.160516-3.138064l21.413161 6.95329a4.90529 4.90529 0 0 1 3.138065 6.168774l-0.148646 0.462452a4.624516 4.624516 0 0 1-6.168774 3.138064z" fill="#FFB452" p-id="17614"></path><path d="M139.313548 587.016258l-21.404903-6.961548a6.689032 6.689032 0 0 1-4.401548-8.629678l0.148645-0.462451a6.689032 6.689032 0 0 1 8.637935-4.401549l21.404904 6.953291a6.689032 6.689032 0 0 1 4.401548 8.637935l-0.156903 0.462452a6.689032 6.689032 0 0 1-8.629678 4.401548zM121.228387 569.806452a3.344516 3.344516 0 0 0-4.31071 2.204903l-0.156903 0.462451a3.344516 3.344516 0 0 0 2.204903 4.318968l21.404904 6.953291a3.344516 3.344516 0 0 0 4.318967-2.196646l0.148646-0.470709a3.344516 3.344516 0 0 0-2.196646-4.31071z" fill="#69164C" p-id="17615"></path><path d="M119.477677 741.623742l-22.734451 1.874581a4.855742 4.855742 0 0 1-5.29342-4.294194l0.148646-0.462452a4.855742 4.855742 0 0 1 4.294193-5.293419l22.734452-1.874581a4.855742 4.855742 0 0 1 5.293419 4.294194l-0.148645 0.462452a4.855742 4.855742 0 0 1-4.294194 5.285161z" fill="#FFFFFF" p-id="17616"></path><path d="M94.125419 745.216a4.409806 4.409806 0 0 1-2.180129-1.222194 8.704 8.704 0 0 1-2.667355-4.459354l0.156904-0.47071a6.639484 6.639484 0 0 1 5.978838-7.316645l22.734452-1.882839a8.340645 8.340645 0 0 1 4.657548 1.511226 8.712258 8.712258 0 0 1 2.659097 4.475871l-0.148645 0.462451a6.639484 6.639484 0 0 1-5.978839 7.316646l-22.734451 1.87458a3.658323 3.658323 0 0 1-2.47742-0.289032z m25.6-12.263226a1.792 1.792 0 0 0-1.552516 0.008258l-22.734451 1.874581a3.674839 3.674839 0 0 0-3.220646 3.584l-0.156903 0.47071a3.823484 3.823484 0 0 0 1.255226 2.460903 2.221419 2.221419 0 0 0 2.328774 0.759742l22.734452-1.874581a3.674839 3.674839 0 0 0 3.220645-3.584l0.156903-0.47071a3.823484 3.823484 0 0 0-1.255226-2.460903 1.709419 1.709419 0 0 0-0.784516-0.768z" fill="#69164C" p-id="17617"></path><path d="M198.606452 773.491613l-22.461936-2.147097a4.954839 4.954839 0 0 1-4.376774-5.532903l0.165161-0.47071a4.954839 4.954839 0 0 1 5.532903-4.376774l22.461936 2.147097a4.954839 4.954839 0 0 1 4.368516 5.541161l-0.148645 0.47071a4.731871 4.731871 0 0 1-5.541161 4.376774z" fill="#55B2FF" p-id="17618"></path><path d="M174.625032 772.913548a6.300903 6.300903 0 0 1-4.376774-7.085419l0.148645-0.462452a5.698065 5.698065 0 0 1 2.444387-4.352 7.12671 7.12671 0 0 1 5.095226-1.428645l22.453678 2.147097a6.350452 6.350452 0 0 1 5.780645 7.539613l-0.148645 0.462452a6.350452 6.350452 0 0 1-7.539613 5.780645l-22.461936-2.147097c-0.305548-0.611097-0.924903-0.29729-1.395613-0.454194z m25.633033-7.622193l-0.462452-0.148645-22.461936-2.147097a3.022452 3.022452 0 0 0-3.534451 2.964645l-0.148645 0.462452a3.022452 3.022452 0 0 0 2.972903 3.534451l22.453677 2.147097a3.022452 3.022452 0 0 0 3.534452-2.956387l0.148645-0.47071a3.683097 3.683097 0 0 0-2.502193-3.385806z" fill="#69164C" p-id="17619"></path><path d="M305.284129 591.029677l-20.810323-8.827871a4.418065 4.418065 0 0 1-2.518709-6.474322l0.148645-0.47071a4.418065 4.418065 0 0 1 6.482581-2.526968l20.810322 8.819613a4.418065 4.418065 0 0 1 2.51871 6.482581l-0.148645 0.462452a4.674065 4.674065 0 0 1-6.482581 2.526967z" fill="#55B2FF" p-id="17620"></path><path d="M305.135484 593.019871l-0.47071-0.148645-20.810322-8.819613a5.136516 5.136516 0 0 1-3.427097-3.691355 8.266323 8.266323 0 0 1 0.115613-5.103484l0.148645-0.470709a5.144774 5.144774 0 0 1 3.691355-3.427097 5.921032 5.921032 0 0 1 5.103484 0.115613l20.810322 8.819613a6.325677 6.325677 0 0 1 3.311484 8.794838l-0.148645 0.462452a5.136516 5.136516 0 0 1-3.691355 3.435355 7.89471 7.89471 0 0 1-4.641032 0.033032z m0.586322-3.410581c0.933161 0.305548 1.858065 0.602839 2.626065-0.173419s1.387355-1.090065 1.692903-2.023226l0.148645-0.462451c0.305548-0.933161 0.602839-1.866323-0.173419-2.634323a3.732645 3.732645 0 0 0-2.023226-1.684645l-20.810322-8.819613c-0.924903-0.305548-1.858065-0.602839-2.626065 0.173419a3.732645 3.732645 0 0 0-1.684645 2.023226l-0.156903 0.47071c-0.29729 0.924903-0.602839 1.858065 0.181677 2.626064a3.732645 3.732645 0 0 0 2.023226 1.684645z" fill="#69164C" p-id="17621"></path><path d="M330.983226 758.891355l-17.597936-13.956129a5.086968 5.086968 0 0 1-0.825806-6.953291l0.148645-0.462451a5.086968 5.086968 0 0 1 6.961548-0.825807l17.589678 13.947871a5.086968 5.086968 0 0 1 0.825806 6.953291l-0.148645 0.470709a5.086968 5.086968 0 0 1-6.961548 0.825807z" fill="#55B2FF" p-id="17622"></path><path d="M331.767742 761.211871a4.409806 4.409806 0 0 1-2.180129-1.222194l-17.589678-13.956129a6.87071 6.87071 0 0 1-1.007483-9.579354l0.156903-0.47071a8.704 8.704 0 0 1 4.459355-2.667355 4.442839 4.442839 0 0 1 4.657548 1.519484l17.589677 13.947871a8.712258 8.712258 0 0 1 2.667355 4.459355 4.442839 4.442839 0 0 1-1.511225 4.657548l-0.148646 0.47071a8.712258 8.712258 0 0 1-4.467613 2.659097c-0.768 0.784516-1.701161 0.478968-2.626064 0.181677z m-13.956129-23.576774a1.800258 1.800258 0 0 0-1.544258 0.016516c-1.081806 0.165161-1.701161 0.47071-2.00671 1.403871l-0.148645 0.47071a3.617032 3.617032 0 0 0 0.495484 4.789677l17.597935 13.956129a2.229677 2.229677 0 0 0 2.328775 0.743226 3.823484 3.823484 0 0 0 2.469161-1.255226l0.148645-0.462452a2.229677 2.229677 0 0 0 0.751484-2.328774 3.823484 3.823484 0 0 0-1.255226-2.460903l-17.589677-13.956129a3.790452 3.790452 0 0 0-1.23871-0.908387z" fill="#69164C" p-id="17623"></path><path d="M334.765419 706.097548l-22.09858 4.657549a4.954839 4.954839 0 0 1-5.912774-3.980387l-0.313807-0.611097a4.954839 4.954839 0 0 1 3.980387-5.912774l22.098581-4.657549a4.954839 4.954839 0 0 1 5.912774 3.980387l0.313806 0.619355a5.062194 5.062194 0 0 1-3.980387 5.904516z" fill="#EA4B3B" p-id="17624"></path><path d="M309.594839 712.340645a6.391742 6.391742 0 0 1-4.541936-5.07871l-0.305548-0.619354a5.788903 5.788903 0 0 1 1.048774-4.806194 6.077935 6.077935 0 0 1 3.996903-2.807742l22.098581-4.657548a6.573419 6.573419 0 0 1 8.092903 5.20258l0.305549 0.611097a6.565161 6.565161 0 0 1-5.202581 8.092903l-22.090323 4.649291c-0.933161-0.305548-2.477419-0.289032-3.41058-0.594581z m24.947613-15.054451a1.792 1.792 0 0 0-1.544258 0.016516l-22.098581 4.64929c-1.073548 0.165161-1.701161 0.478968-1.998452 1.403871a3.658323 3.658323 0 0 0-0.289032 2.485677l0.313806 0.619355c0.165161 1.073548 0.47071 1.692903 1.403871 1.998452a3.666581 3.666581 0 0 0 2.47742 0.289032l22.09858-4.657548a3.187613 3.187613 0 0 0 2.287484-3.881291l-0.313806-0.619354a2.956387 2.956387 0 0 0-2.337032-2.304z" fill="#69164C" p-id="17625"></path><path d="M367.863742 680.315871l-14.369032-17.531871a4.814452 4.814452 0 0 1 0.718451-6.969806l0.619355-0.313807a4.814452 4.814452 0 0 1 6.969807 0.718452l14.369032 17.531871a4.814452 4.814452 0 0 1-0.718452 6.969806l-0.619355 0.313807a4.897032 4.897032 0 0 1-6.969806-0.718452z" fill="#FFB452" p-id="17626"></path><path d="M369.424516 683.396129a7.068903 7.068903 0 0 1-2.956387-1.990194l-14.369032-17.53187a7.12671 7.12671 0 0 1-1.436903-5.095226 5.698065 5.698065 0 0 1 2.444387-4.352l0.619354-0.313807a7.12671 7.12671 0 0 1 5.095226-1.436903 5.698065 5.698065 0 0 1 4.352 2.444387l14.369033 17.531871a6.961548 6.961548 0 0 1-1.007484 9.447226l-0.619355 0.313806a6.978065 6.978065 0 0 1-6.490839 0.98271z m-0.189935-4.178581a3.187613 3.187613 0 0 0 4.492387 0.42942l0.619355-0.313807a4.418065 4.418065 0 0 0 1.222193-2.180129 2.048 2.048 0 0 0-0.792774-2.312258l-14.369032-17.531871c-0.313806-0.619355-1.246968-0.916645-2.180129-1.222193a2.048 2.048 0 0 0-2.312258 0.792774l-0.619355 0.313806a4.409806 4.409806 0 0 0-1.222194 2.171871 2.048 2.048 0 0 0 0.792774 2.312258z" fill="#69164C" p-id="17627"></path><path d="M280.394323 757.875613l-22.577549 1.403871a5.086968 5.086968 0 0 1-5.144774-4.756645l0.148645-0.462452a5.086968 5.086968 0 0 1 4.756645-5.144774l22.585807-1.403871a5.086968 5.086968 0 0 1 5.144774 4.756645l-0.148645 0.462452a4.707097 4.707097 0 0 1-4.764903 5.144774z" fill="#FFFFFF" p-id="17628"></path><path d="M255.488 760.080516a6.317419 6.317419 0 0 1-4.690581-6.152258l0.148646-0.47071a6.87071 6.87071 0 0 1 6.449548-7.168l22.585806-1.403871a8.340645 8.340645 0 0 1 4.649291 1.511226 6.788129 6.788129 0 0 1 2.048 4.78142l-0.148645 0.462451a8.340645 8.340645 0 0 1-1.511226 4.657549 6.788129 6.788129 0 0 1-4.789678 2.048L257.651613 759.741935c-0.305548 0.933161-1.23871 0.635871-2.163613 0.330323z m25.765161-11.181419l-0.933161-0.305549-22.585806 1.403871a3.674839 3.674839 0 0 0-3.220646 3.592258l-0.156903 0.462452a3.823484 3.823484 0 0 0 1.263484 2.469161 2.221419 2.221419 0 0 0 2.320516 0.751484l22.585807-1.403871a3.815226 3.815226 0 0 0 2.469161-1.263484 2.221419 2.221419 0 0 0 0.751484-2.320516l0.148645-0.470709a3.823484 3.823484 0 0 0-1.255226-2.460904c-0.611097 0.313806-0.924903-0.305548-1.395613-0.454193z" fill="#69164C" p-id="17629"></path><path d="M251.870968 817.052903l-10.372129-20.347871a4.731871 4.731871 0 0 1 2.114064-6.523871l0.619355-0.305548a4.731871 4.731871 0 0 1 6.515613 2.114064l10.363871 20.347871a4.731871 4.731871 0 0 1-2.114065 6.523871l-0.619354 0.305549a4.723613 4.723613 0 0 1-6.515613-2.114065z" fill="#FFB452" p-id="17630"></path><path d="M254.538323 821.528774a6.284387 6.284387 0 0 1-4.046452-3.36929l-10.372129-20.356129a6.804645 6.804645 0 0 1 2.873806-8.836129l0.619355-0.322065a6.804645 6.804645 0 0 1 8.836129 2.873807l10.372129 20.356129a7.101935 7.101935 0 0 1-3.022451 9.306838l-0.619355 0.313807a6.829419 6.829419 0 0 1-4.641032 0.033032z m-6.730323-29.976774a5.177806 5.177806 0 0 0-2.626065 0.181677l-0.619354 0.313807a3.270194 3.270194 0 0 0-1.511226 4.64929l10.372129 20.356129a3.270194 3.270194 0 0 0 4.64929 1.511226l0.305549-0.933161a3.740903 3.740903 0 0 0 1.684645-2.023226 5.177806 5.177806 0 0 0-0.165162-2.634323l-10.372129-20.347871c-0.47071-0.148645-1.246968-0.916645-1.709419-1.073548z" fill="#69164C" p-id="17631"></path><path d="M150.255484 802.048l-19.431226-11.462194a5.367742 5.367742 0 0 1-1.907613-6.796387l0.148645-0.462451a5.367742 5.367742 0 0 1 6.796387-1.907613l19.431226 11.462193a5.367742 5.367742 0 0 1 1.899355 6.788129l-0.140387 0.47071a4.954839 4.954839 0 0 1-6.796387 1.899355z" fill="#EA4B3B" p-id="17632"></path><path d="M150.585806 804.211613l-1.403871-0.454194-19.422967-11.453935a7.390968 7.390968 0 0 1-2.700387-9.116903l0.148645-0.462452a7.12671 7.12671 0 0 1 4.153806-3.278452 6.028387 6.028387 0 0 1 4.954839 0.578065l19.431226 11.462193a7.390968 7.390968 0 0 1 2.700387 9.108646l-0.148645 0.462451a6.44129 6.44129 0 0 1-7.713033 3.154581z m-16.260129-21.231484a2.948129 2.948129 0 0 0-2.006709-0.140387c-1.081806 0.165161-1.701161 0.478968-2.00671 1.403871l-0.148645 0.47071a3.36929 3.36929 0 0 0 1.114839 4.475871l19.431225 11.462193a3.658323 3.658323 0 0 0 2.47742 0.289032c1.081806-0.165161 1.701161-0.478968 2.006709-1.403871l0.148646-0.470709a3.36929 3.36929 0 0 0-1.114839-4.475871l-19.431226-11.462194z" fill="#69164C" p-id="17633"></path><path d="M116.636903 696.452129l-15.14529-16.763871a4.954839 4.954839 0 0 1 0.256-7.110193l0.619355-0.313807a4.954839 4.954839 0 0 1 7.118451 0.247742l15.145291 16.763871a4.954839 4.954839 0 0 1-0.256 7.118452l-0.619355 0.313806a4.599742 4.599742 0 0 1-7.118452-0.256z" fill="#EA4B3B" p-id="17634"></path><path d="M118.23071 699.532387a9.067355 9.067355 0 0 1-2.956387-1.990193l-15.137033-16.763871a6.565161 6.565161 0 0 1 0.545033-9.587613l0.619354-0.322065a7.605677 7.605677 0 0 1 4.624517-1.57729 8.051613 8.051613 0 0 1 4.508903 1.981935l15.137032 16.747355a6.573419 6.573419 0 0 1-0.545032 9.595871l-0.619355 0.313807a7.605677 7.605677 0 0 1-4.624516 1.585548 1.800258 1.800258 0 0 1-1.552516 0.016516z m-11.965936-26.533161a3.484903 3.484903 0 0 0-3.245419 0.495484l-0.611097 0.313806a3.187613 3.187613 0 0 0-0.437677 4.484129l15.14529 16.763871a4.409806 4.409806 0 0 0 2.171871 1.213936c0.933161 0.305548 1.701161-0.478968 2.312258-0.792775l0.619355-0.313806a3.187613 3.187613 0 0 0 0.429419-4.492387l-15.137032-16.747355c0.148645-0.47071-0.313806-0.619355-1.23871-0.924903z" fill="#69164C" p-id="17635"></path><path d="M348.589419 630.305032l-22.750967 0.330323a5.086968 5.086968 0 0 1-5.136517-4.756645l0.148646-0.47071a5.086968 5.086968 0 0 1 4.756645-5.144774l22.750968-0.330323a5.086968 5.086968 0 0 1 5.136516 4.764903l-0.148645 0.462452a5.086968 5.086968 0 0 1-4.756646 5.144774z" fill="#FFB452" p-id="17636"></path><path d="M323.988645 631.576774a6.969806 6.969806 0 0 1-4.69058-6.160516l0.156903-0.462452a6.804645 6.804645 0 0 1 6.755097-6.548645l22.750967-0.330322a6.804645 6.804645 0 0 1 6.548645 6.763355l-0.148645 0.462451a6.804645 6.804645 0 0 1-6.763355 6.548645l-22.742709 0.330323z m25.930323-10.107871l-0.94142-0.29729-22.742709 0.330322a6.738581 6.738581 0 0 0-2.312258 0.784517 2.229677 2.229677 0 0 0-0.759742 2.328774l-0.148645 0.462451a2.923355 2.923355 0 0 0 3.11329 3.072l22.750968-0.330322a2.923355 2.923355 0 0 0 3.072-3.11329l0.148645-0.462452a4.021677 4.021677 0 0 0-2.188387-2.77471z" fill="#69164C" p-id="17637"></path><path d="M301.171613 541.861161l-19.431226-11.462193a5.367742 5.367742 0 0 1-1.907613-6.796387l0.148645-0.462452a5.367742 5.367742 0 0 1 6.796387-1.907613l19.431226 11.462194a5.367742 5.367742 0 0 1 1.907613 6.788129l-0.148645 0.470709a4.954839 4.954839 0 0 1-6.796387 1.899355z" fill="#FFB452" p-id="17638"></path><path d="M301.501935 544.016516l-1.40387-0.454193-19.431226-11.453936a7.12671 7.12671 0 0 1-3.278452-4.153806 6.028387 6.028387 0 0 1 0.578065-4.954839l0.156903-0.47071a7.12671 7.12671 0 0 1 4.153806-3.278451 6.028387 6.028387 0 0 1 4.954839 0.578064l19.431226 11.462194a7.12671 7.12671 0 0 1 3.278451 4.153806 6.028387 6.028387 0 0 1-0.578064 4.954839l-0.148645 0.462451a6.771613 6.771613 0 0 1-7.721291 3.154581z m0.586323-3.402322a3.36929 3.36929 0 0 0 4.484129-1.123097l0.148645-0.462452a3.666581 3.666581 0 0 0 0.289033-2.477419c-0.165161-1.081806-0.478968-1.701161-1.403871-2.00671l-19.431226-11.453935a3.666581 3.666581 0 0 0-2.47742-0.289033c-1.081806 0.165161-1.701161 0.47071-2.006709 1.403871l-0.148645 0.462452a3.658323 3.658323 0 0 0-0.289033 2.477419c0.165161 1.090065 0.478968 1.701161 1.403871 2.00671z" fill="#69164C" p-id="17639"></path><path d="M172.907355 526.402065l-22.090323 4.657548a4.954839 4.954839 0 0 1-5.912774-3.980387l-0.313806-0.619355a4.954839 4.954839 0 0 1 3.980387-5.912774l22.090322-4.657549a4.954839 4.954839 0 0 1 5.912774 3.980387l0.313807 0.619355a5.41729 5.41729 0 0 1-3.980387 5.912775z" fill="#FFFFFF" p-id="17640"></path><path d="M147.736774 532.620387a6.391742 6.391742 0 0 1-4.517161-5.070452l-0.322065-0.619354a6.573419 6.573419 0 0 1 5.202581-8.084646l22.098581-4.657548a6.565161 6.565161 0 0 1 8.084645 5.202581l0.313806 0.619355a5.788903 5.788903 0 0 1-1.048774 4.806193 6.077935 6.077935 0 0 1-3.996903 2.807742l-22.098581 4.657548a6.507355 6.507355 0 0 1-3.716129 0.338581z m24.807226-14.575484a1.800258 1.800258 0 0 0-1.544258 0.008258l-22.098581 4.657549a3.187613 3.187613 0 0 0-2.287484 3.88129l0.313807 0.619355a3.187613 3.187613 0 0 0 3.88129 2.295742l22.098581-4.657549c1.081806-0.165161 1.701161-0.478968 1.998451-1.403871a3.666581 3.666581 0 0 0 0.297291-2.477419l-0.313807-0.619355c-0.165161-1.081806-0.478968-1.701161-1.403871-2.006709z" fill="#69164C" p-id="17641"></path><path d="M204.700903 556.791742l-22.09858 4.64929a4.954839 4.954839 0 0 1-5.904517-3.972129l-0.313806-0.619355a4.954839 4.954839 0 0 1 3.972129-5.912774l22.098581-4.657548a4.954839 4.954839 0 0 1 5.912774 3.980387l0.313806 0.619355a4.954839 4.954839 0 0 1-3.980387 5.912774z" fill="#EA4B3B" p-id="17642"></path><path d="M179.530323 563.018323l-1.866323-0.602839a5.070452 5.070452 0 0 1-2.807742-4.005161l-0.322064-0.611097a5.788903 5.788903 0 0 1 1.048774-4.806194 6.077935 6.077935 0 0 1 4.005161-2.816l22.090323-4.657548a6.565161 6.565161 0 0 1 8.092903 5.202581l0.313806 0.611096a6.573419 6.573419 0 0 1-5.20258 8.092904l-22.098581 4.657548z m25.269677-14.426839a1.792 1.792 0 0 0-1.552516 0.016516l-22.090323 4.64929c-1.081806 0.165161-1.701161 0.478968-1.998451 1.403871a3.666581 3.666581 0 0 0-0.297291 2.47742l0.313807 0.627613a3.187613 3.187613 0 0 0 3.889548 2.287483l22.098581-4.657548a3.187613 3.187613 0 0 0 2.287484-3.88129l-0.313807-0.619355a4.228129 4.228129 0 0 0-2.337032-2.304z" fill="#69164C" p-id="17643"></path><path d="M100.525419 633.583484l-19.125677-12.387097a4.641032 4.641032 0 0 1-1.445161-6.647742l0.148645-0.47071a4.641032 4.641032 0 0 1 6.647742-1.436903l19.125677 12.387097a4.64929 4.64929 0 0 1 1.445161 6.647742l-0.148645 0.462452a4.459355 4.459355 0 0 1-6.647742 1.445161z" fill="#55B2FF" p-id="17644"></path><path d="M101.326452 635.904l-1.387355-0.454194-19.133936-12.387096a6.862452 6.862452 0 0 1-2.081032-9.43071l0.148645-0.462452a6.077935 6.077935 0 0 1 4.005161-2.816 5.788903 5.788903 0 0 1 4.806194 1.040517l19.125677 12.387096a6.862452 6.862452 0 0 1 2.081033 9.43071l-0.148645 0.462452a6.482581 6.482581 0 0 1-7.407484 2.229677z m0.132129-3.567484a3.022452 3.022452 0 0 0 4.484129-1.114839l0.148645-0.462451a3.022452 3.022452 0 0 0-1.114839-4.484129l-19.133935-12.387097a3.666581 3.666581 0 0 0-2.47742-0.289032c-1.073548 0.165161-1.701161 0.478968-1.998451 1.403871l-0.148645 0.470709a3.022452 3.022452 0 0 0 1.114838 4.475871z" fill="#69164C" p-id="17645"></path><path d="M355.922581 598.214194l-12.370581-18.935742a5.33471 5.33471 0 0 1 1.189161-6.821162l0.619355-0.313806a5.33471 5.33471 0 0 1 6.812903 1.180903l12.370581 18.944a5.33471 5.33471 0 0 1-1.189161 6.821161l-0.611097 0.313807a4.434581 4.434581 0 0 1-6.821161-1.189161z" fill="#FFFFFF" p-id="17646"></path><path d="M358.284387 602.07071a7.886452 7.886452 0 0 1-3.740903-2.758194l-12.370581-18.935742a5.838452 5.838452 0 0 1-0.966193-4.94658 8.274581 8.274581 0 0 1 2.915096-4.203355l0.611097-0.313807a5.838452 5.838452 0 0 1 4.946581-0.966193 8.258065 8.258065 0 0 1 4.203355 2.915096l12.37058 18.935742a6.408258 6.408258 0 0 1-1.948903 9.149936l-0.611097 0.313806a6.028387 6.028387 0 0 1-5.409032 0.809291z m-1.123097-4.475871a3.096774 3.096774 0 0 0 4.343742 0.891871l0.611097-0.313807a3.096774 3.096774 0 0 0 0.900129-4.335484l-12.370581-18.944a2.147097 2.147097 0 0 0-2.180129-1.222193 5.169548 5.169548 0 0 0-2.626064 0.173419l-0.619355 0.313807a2.147097 2.147097 0 0 0-1.222194 2.180129 5.169548 5.169548 0 0 0 0.181678 2.626064z" fill="#69164C" p-id="17647"></path><path d="M121.327484 781.840516s-14.748903 34.312258-16.59871 35.253678c-1.536 1.560774-9.967484-27.937032-5.252129-39.267097 3.79871-8.538839 21.850839 4.013419 21.850839 4.013419z" fill="#FFFFFF" p-id="17648"></path><path d="M103.944258 819.41471l-0.924903-0.305549c-3.740903-2.749935-10.45471-31.174194-5.896258-42.050064a6.144 6.144 0 0 1 4.459355-4.211613c7.407484-2.221419 19.695484 5.888 20.942451 6.804645a3.253677 3.253677 0 0 1 1.106581 2.931613 278.602323 278.602323 0 0 1-17.052903 36.657548 3.732645 3.732645 0 0 1-2.634323 0.17342z m5.111742-41.042581a18.266839 18.266839 0 0 0-5.888-0.891871 2.543484 2.543484 0 0 0-1.536 1.560774c-3.038968 7.762581 0.817548 25.988129 3.038968 33.403871 2.890323-5.747613 8.373677-17.862194 13.237677-29.654709a29.423484 29.423484 0 0 0-8.852645-4.426323z" fill="#69164C" p-id="17649"></path><path d="M130.147097 789.347097s-6.061419 37.656774-11.016258 37.070451c-4.492387-0.429419-13.501935-24.964129-11.264-36.583225 1.783742-8.687484 22.280258-0.487226 22.280258-0.487226z" fill="#FFFFFF" p-id="17650"></path><path d="M118.23071 829.208774a5.978839 5.978839 0 0 1-3.584-3.220645 60.870194 60.870194 0 0 1-8.786581-36.302452 6.292645 6.292645 0 0 1 3.674839-4.979612c6.788129-3.460129 20.446968 2.014968 21.84258 2.460903a3.253677 3.253677 0 0 1 1.717678 2.617806c-6.812903 39.985548-11.30529 39.556129-13.78271 39.258839-0.619355 0.313806-0.619355 0.313806-1.081806 0.165161z m7.440516-38.746839a21.999484 21.999484 0 0 0-13.939613-1.436903c-0.611097 0.313806-0.768 0.776258-1.073548 1.70942a53.982968 53.982968 0 0 0 8.770064 33.197419 162.353548 162.353548 0 0 0 8.109419-32.867097z" fill="#69164C" p-id="17651"></path><path d="M147.505548 794.491871s-0.04129 34.972903-4.839225 35.468387c-4.327226 0.652387-18.72929-21.520516-16.962065-33.296516 0.858839-8.984774 21.80129-2.171871 21.80129-2.171871z" fill="#FFFFFF" p-id="17652"></path><path d="M140.824774 832.445935a11.264 11.264 0 0 1-3.732645-2.749935c-5.450323-5.376-15.805935-22.627097-14.336-33.478194a6.10271 6.10271 0 0 1 3.212387-5.128258c6.466065-4.071226 20.430452 0.462452 21.826065 0.908387a2.692129 2.692129 0 0 1 1.87458 2.155355c-0.181677 36.996129-4.979613 37.491613-7.143226 37.821936-0.148645 0.462452-1.23871 0.627613-1.701161 0.470709z m4.062968-36.236387a28.432516 28.432516 0 0 0-16.103226-1.123096c-0.619355 0.313806-0.768 0.784516-1.073548 1.717677-1.156129 9.909677 10.116129 27.466323 14.311226 30.373161a130.048 130.048 0 0 0 2.865548-30.967742z" fill="#69164C" p-id="17653"></path><path d="M135.779097 691.348645a237.848774 237.848774 0 0 0-30.992516 55.791484c-6.804645 20.942452-9.480258 35.509677-4.764904 44.75871 3.914323 6.936774 22.139871 22.123355 40.794839 13.774451 18.663226-8.340645 7.514839-50.043871 26.657032-77.270709 9.182968-13.997419-31.694452-37.053935-31.694451-37.053936z" fill="#ECC18E" p-id="17654"></path><path d="M119.33729 808.464516a43.057548 43.057548 0 0 1-21.636129-15.772903c-5.483355-10.017032-2.807742-24.584258 4.294194-46.459871a257.420387 257.420387 0 0 1 31.611871-56.113548 2.378323 2.378323 0 0 1 3.245419-0.487226c3.105032 1.527742 31.240258 17.870452 34.436129 31.777032a10.074839 10.074839 0 0 1-1.635097 8.208516c-9.339871 12.915613-11.065806 29.332645-13.130322 43.586065-2.048 15.805935-3.955613 29.588645-14.748903 34.320516a29.803355 29.803355 0 0 1-22.437162 0.941419z m16.929033-113.87871a249.509161 249.509161 0 0 0-29.61342 53.157162c-6.499097 20.00929-9.645419 34.427871-4.624516 42.743742 3.28671 5.698065 20.579097 20.579097 37.541161 12.717419 8.332387-3.468387 9.934452-16.326194 11.528258-30.728258a99.047226 99.047226 0 0 1 13.890065-45.914839 4.756645 4.756645 0 0 0 0.900129-4.343742c-1.618581-9.273806-20.595613-22.131613-29.613419-27.631484z" fill="#69164C" p-id="17655"></path><path d="M236.717419 819.340387s-9.472 37.062194-7.291871 38.284387c2.485677 1.83329 24.476903-16.747355 27.325936-28.688516 2.403097-8.993032-20.034065-9.595871-20.034065-9.595871z" fill="#FFFFFF" p-id="17656"></path><path d="M228.690581 859.953548l-0.933162-0.305548c-1.23871-0.916645-2.807742-2.452645 6.656-41.059097 0.29729-0.933161 1.222194-2.180129 2.617807-1.725935 1.544258-0.008258 16.251871 0.652387 20.942451 6.804645a6.135742 6.135742 0 0 1 1.123097 6.028387c-2.692129 11.470452-21.446194 28.019613-27.309419 30.232774a7.002839 7.002839 0 0 1-3.096774 0.024774z m10.388645-38.309161c-3.154581 12.874323-6.144 26.822194-7.027613 32.710194 5.854968-3.757419 20.298323-16.557419 22.709677-25.550452a2.535226 2.535226 0 0 0-0.330322-2.163613 29.885935 29.885935 0 0 0-15.36-4.996129z" fill="#69164C" p-id="17657"></path><path d="M225.164387 820.215742s-16.615226 33.709419-14.12129 35.550968c3.270194 2.60129 26.83871-11.346581 31.867871-22.065549 3.650065-8.076387-17.746581-13.485419-17.746581-13.485419z" fill="#FFFFFF" p-id="17658"></path><path d="M210.580645 858.706581l-1.403871-0.454194c-1.701161-1.073548-4.046452-3.377548 13.642323-38.796387a2.237935 2.237935 0 0 1 2.931613-1.098323c1.395613 0.454194 15.65729 4.05471 19.117419 10.842839a6.284387 6.284387 0 0 1 0.049548 6.18529 59.408516 59.408516 0 0 1-30.777806 23.444646c-0.933161-0.29729-2.163613 0.330323-3.559226-0.123871z m16.136258-35.410581a205.568 205.568 0 0 0-12.923871 30.282323 62.579613 62.579613 0 0 0 27.383742-20.95071c0.305548-0.933161 0.454194-1.395613 0.140387-2.014968a38.730323 38.730323 0 0 0-14.600258-7.316645z" fill="#69164C" p-id="17659"></path><path d="M208.516129 814.311226s-18.027355 30.158452-15.533419 32c2.807742 2.452645 26.40929-6.854194 31.900903-17.424516 4.583226-7.762581-16.359226-14.575484-16.359226-14.575484z" fill="#FFFFFF" p-id="17660"></path><path d="M192.677161 848.788645l-1.395613-0.454193c-1.709419-1.073548-4.046452-3.377548 15.054452-35.24542 0.768-0.776258 1.536-1.560774 2.931613-1.10658s15.36 4.996129 18.200774 12.089806a6.424774 6.424774 0 0 1-0.412903 6.036645 52.917677 52.917677 0 0 1-29.266581 18.795355 10.983226 10.983226 0 0 1-5.111742-0.115613z m16.937291-31.545806a175.946323 175.946323 0 0 0-14.022194 27.342451 50.654968 50.654968 0 0 0 27.573677-16.763871c0.29729-0.933161 0.445935-1.395613 0.13213-2.014967a33.362581 33.362581 0 0 0-13.683613-8.563613z" fill="#69164C" p-id="17661"></path><path d="M278.627097 737.767226a237.86529 237.86529 0 0 1-7.721291 63.355871c-6.804645 20.942452-13.196387 34.295742-22.445419 39.011097-7.250581 3.303226-30.918194 4.880516-41.108645-12.841291-10.19871-17.721806 23.33729-44.899097 23.857548-78.179097 0.330323-16.871226 47.417806-11.346581 47.417807-11.34658z" fill="#ECC18E" p-id="17662"></path><path d="M223.108129 842.182194a29.828129 29.828129 0 0 1-17.589677-13.947871c-5.962323-10.165677 0.594581-22.445419 8.225032-36.434581a89.459613 89.459613 0 0 0 14.996645-42.974968 9.868387 9.868387 0 0 1 3.501419-7.613935c10.760258-9.364645 42.669419-6.201806 46.542452-5.458581a2.378323 2.378323 0 0 1 2.337032 2.304 257.445161 257.445161 0 0 1-7.407484 63.966968c-7.101935 21.883871-13.501935 35.237161-23.841032 40.109419a43.074065 43.074065 0 0 1-26.764387 0.049549z m53.231484-102.077936c-10.529032-0.850581-33.445161-1.602065-40.66271 4.789677a4.756645 4.756645 0 0 0-1.825032 4.046452 99.055484 99.055484 0 0 1-15.756387 45.303742c-7.176258 12.593548-12.965161 24.088774-8.728774 31.636645 9.711484 16.020645 32.289032 14.616774 37.846709 11.784258 8.481032-3.930839 14.410323-17.441032 21.388387-37.301677a230.631226 230.631226 0 0 0 7.737807-60.259097z" fill="#69164C" p-id="17663"></path><path d="M304.144516 736.817548c-12.998194 40.026839-63.215484 50.456774-114.877935 33.676387s-85.850839-55.675871-73.141678-94.769548a94.084129 94.084129 0 0 1 103.060645-62.224516 55.114323 55.114323 0 0 0 42.768517-12.857806c6.523871 3.666581 3.550968 20.711226-1.825033 24.61729a48.309677 48.309677 0 0 0 25.154065-9.323355c7.324903 7.531355 0.454194 19.191742-3.526194 25.104516-0.916645 1.23871 2.196645 4.31071 2.972903 5.07871a89.459613 89.459613 0 0 1 19.422968 90.698322z" fill="#ECC18E" p-id="17664"></path><path d="M187.904 773.136516c-55.84929-18.151226-87.262968-59.226839-74.562065-98.320516a97.858065 97.858065 0 0 1 105.827097-64.412903 52.760774 52.760774 0 0 0 40.91871-11.916387 2.956387 2.956387 0 0 1 3.245419-0.495484c3.11329 1.527742 4.533677 5.07871 4.872258 10.339097a29.836387 29.836387 0 0 1-2.675613 13.014709 52.025806 52.025806 0 0 0 15.426065-6.300903 8.307613 8.307613 0 0 1 3.699613-1.891097 3.11329 3.11329 0 0 1 2.791226 0.908387c4.211613 4.459355 7.060645 13.105548-2.890323 27.879226a10.652903 10.652903 0 0 0 1.882839 2.147097l0.313806 0.619355a91.763613 91.763613 0 0 1 20.050581 93.48129c-13.171613 38.945032-62.117161 53.396645-118.899613 34.948129z m73.463742-169.092129a58.128516 58.128516 0 0 1-42.925419 11.784258 92.143484 92.143484 0 0 0-99.980388 60.647226c-11.643871 35.84 18.514581 74.45471 71.572646 91.68929 53.991226 17.548387 100.005161 4.195097 111.797677-32.107355a86.651871 86.651871 0 0 0-19.084387-88.526451l-0.462452-0.156903c-2.031484-1.684645-5.144774-4.756645-3.005935-8.175484 4.129032-6.375226 8.398452-14.765419 5.103484-20.471742a1.709419 1.709419 0 0 0-0.768 0.784516 49.573161 49.573161 0 0 1-23.76671 8.225032 2.353548 2.353548 0 0 1-2.493935-1.841548 3.080258 3.080258 0 0 1 0.908387-2.791226 21.173677 21.173677 0 0 0 4.541935-13.956129 8.365419 8.365419 0 0 0-1.436903-5.103484z" fill="#69164C" p-id="17665"></path><path d="M263.151484 755.389935a93.382194 93.382194 0 0 1-69.475097 1.610323 95.232 95.232 0 0 1-55.097806-41.059097 49.350194 49.350194 0 0 1 0.396387-50.291613 46.046968 46.046968 0 0 1 25.071484-20.157935 47.863742 47.863742 0 0 1 58.66529 22.148129 47.442581 47.442581 0 0 1 60.482064 16.565677 48.367484 48.367484 0 0 1 8.885678 29.646452 50.151226 50.151226 0 0 1-28.928 41.538064z" fill="#FFFFFF" p-id="17666"></path><path d="M195.848258 691.835871a18.811871 18.811871 0 0 1-16.920774 14.055226c-5.557677 1.28-25.063226 1.123097-40.629678 9.438968a49.350194 49.350194 0 0 1 0.396388-50.291613 62.926452 62.926452 0 0 1 36.500645-3.072c17.052903 4.517161 24.435613 18.233806 20.645161 29.869419zM263.184516 755.389935a120.980645 120.980645 0 0 0-27.639742-32.132129A18.332903 18.332903 0 0 1 230.119226 701.935484c3.782194-11.643871 17.812645-18.398968 34.419613-12.486194a67.129806 67.129806 0 0 1 27.251613 23.783226 49.284129 49.284129 0 0 1-28.614194 42.149161z" fill="#707169" p-id="17667"></path><path d="M185.096258 688.334452c-0.743226 3.88129-6.507355-0.561548-14.567226-2.667355-7.597419-1.957161-16.392258 1.362581-15.483871-1.436903 1.511226-4.64929 9.538065-7.184516 17.284129-5.698065 8.068129 2.105806 13.675355 7.019355 12.766968 9.810581zM240.004129 706.180129c-1.676387 3.567484 5.598968 3.361032 13.361548 6.4 7.291871 2.882065 12.461419 10.735484 13.361549 7.944258 1.519484-4.657548-3.484903-11.429161-10.628129-14.781935-7.300129-2.882065-14.724129-2.204903-16.094968 0.437677zM221.646452 710.523871c-1.362581 4.178581-7.696516 6.243097-14.203871 4.129032s-10.578581-7.044129-9.067355-11.701677c1.511226-4.64929 6.779871-3.451871 13.295484-1.337807 6.201806 1.502968 11.330065 4.707097 9.975742 8.902194zM234.091355 740.285935a20.925935 20.925935 0 0 1-14.914065 12.651355 44.75871 44.75871 0 0 1-43.751225-14.212129 20.934194 20.934194 0 0 1-4.624517-19.001806c2.114065-6.523871 5.351226-8.555355 9.372904-8.274581a24.443871 24.443871 0 0 1 11.016258 4.096c0.933161 0.305548 1.717677 1.073548 2.64258 1.370839a80.293161 80.293161 0 0 0 10.405162 4.409806l0.933161 0.305549 0.924903 0.29729a80.260129 80.260129 0 0 0 11.008 2.551742c0.933161 0.29729 2.014968 0.140387 2.948129 0.437677a50.704516 50.704516 0 0 1 11.313549 3.162839c3.427097 2.147097 4.847484 5.698065 2.725161 12.205419z" fill="#69164C" p-id="17668"></path><path d="M203.627355 723.183484c-1.511226 4.657548-5.045677 7.622194-8.307613 6.565161s-4.376774-5.532903-2.865548-10.190451a8.324129 8.324129 0 0 1 1.527741-3.105033 80.309677 80.309677 0 0 0 10.405162 4.409807zM216.196129 727.271226c-1.519484 4.657548-5.053935 7.622194-8.307613 6.565161s-4.376774-5.532903-2.865548-10.190452l0.759742-2.328774a80.384 80.384 0 0 0 10.999742 2.551742 8.324129 8.324129 0 0 1-0.594581 3.402323zM190.744774 715.396129c-1.519484 4.657548-5.053935 7.622194-8.307613 6.565161-3.261935-1.057032-4.376774-5.532903-2.865548-10.190451l0.148645-0.462452a24.518194 24.518194 0 0 1 11.016258 4.087742zM231.225806 728.551226c-1.511226 4.657548-5.037419 7.622194-8.299354 6.565161s-4.376774-5.532903-2.865549-10.190452a50.745806 50.745806 0 0 1 11.313549 3.162839z" fill="#FEFDF9" p-id="17669"></path><path d="M218.690065 752.772129a44.75871 44.75871 0 0 1-43.751226-14.212129 28.977548 28.977548 0 0 1 24.906322-2.204903 27.590194 27.590194 0 0 1 18.844904 16.417032z" fill="#FE8A8B" p-id="17670"></path><path d="M194.419613 753.135484a42.396903 42.396903 0 0 1-19.901936-13.163355 21.239742 21.239742 0 0 1-4.797935-20.083613c2.26271-6.978065 5.797161-9.950968 11.371355-9.678451a33.511226 33.511226 0 0 1 11.643871 3.773935l2.64258 1.379097a73.083871 73.083871 0 0 0 9.463742 4.104258l0.933162 0.305548 0.933161 0.297291a72.951742 72.951742 0 0 0 10.074839 2.246193l2.939871 0.445936a33.998452 33.998452 0 0 1 11.643871 3.773935c4.657548 3.055484 5.780645 7.539613 3.509677 14.525936a21.231484 21.231484 0 0 1-15.690323 13.427612 48.64 48.64 0 0 1-24.765935-1.36258z m-10.652903-36.913549a6.210065 6.210065 0 0 0-2.939871-0.437677c-2.014968-0.140387-4.178581 0.181677-5.995355 5.764129a16.144516 16.144516 0 0 0 3.831742 15.137032 38.631226 38.631226 0 0 0 17.267613 11.784258 33.544258 33.544258 0 0 0 20.892903 0.619355 16.268387 16.268387 0 0 0 12.147613-10.462967c1.816774-5.582452 0.256-7.118452-1.45342-8.192a38.515613 38.515613 0 0 0-9.926193-2.708646l-2.939871-0.437677a73.397677 73.397677 0 0 1-10.545548-2.394839l-2.320517-0.759742a72.96 72.96 0 0 1-9.472-4.104258l-2.64258-1.379097a25.872516 25.872516 0 0 0-5.904516-2.427871z" fill="#69164C" p-id="17671"></path><path d="M698.260645 536.774194V123.870968h7.349678v412.903226z" fill="#FFFFFF" p-id="17672"></path><path d="M710.18529 489.678452A195.749161 195.749161 0 1 0 905.926194 685.419355a195.691355 195.691355 0 0 0-195.740904-195.749161z m0 279.428129A83.191742 83.191742 0 1 1 793.377032 685.914839a83.125677 83.125677 0 0 1-83.191742 83.191742z" fill="#FFB452" p-id="17673"></path><path d="M710.193548 884.108387A198.44129 198.44129 0 1 1 908.387097 685.419355a198.722065 198.722065 0 0 1-198.193549 198.689032z m0-391.985548A193.304774 193.304774 0 1 0 903.490065 685.419355 193.403871 193.403871 0 0 0 710.193548 492.122839z m0 279.428129A85.883871 85.883871 0 1 1 795.829677 685.419355 85.735226 85.735226 0 0 1 710.193548 771.550968z m0-166.878968A80.747355 80.747355 0 1 0 790.940903 685.419355 80.821677 80.821677 0 0 0 710.193548 604.672z" fill="#69164C" p-id="17674"></path><path d="M890.103742 688.664774a180.802065 180.802065 0 0 0-33.28-103.746064c-17.614452-24.468645-37.194323-53.834323-66.56-63.132904A215.543742 215.543742 0 0 0 713.447226 512a200.068129 200.068129 0 0 0-91.515871 25.451355c-29.844645 15.170065-50.894452 37.186065-56.765936 67.526193C559.781161 635.317677 536.774194 657.837419 536.774194 688.16929c0 27.416774-0.487226 54.817032 10.768516 77.815742 16.152774 33.767226 49.424516 60.193032 82.21729 77.807484a179.051355 179.051355 0 0 0 83.191742 22.511484A150.973935 150.973935 0 0 0 799.083355 842.322581a256.173419 256.173419 0 0 0 66.551742-56.765936c22.016-23.981419 25.930323-49.911742 24.468645-96.891871zM713.438968 772.343742a83.191742 83.191742 0 1 1 83.191742-83.191742 83.125677 83.125677 0 0 1-83.191742 83.191742z" fill="#FF7166" p-id="17675"></path><path d="M710.226581 866.502194a182.272 182.272 0 0 1-84.661678-22.99871c-22.99871-12.238452-64.107355-38.664258-83.678968-78.790194-11.255742-23.006968-11.255742-48.93729-11.255741-76.345806v-2.931613a105.893161 105.893161 0 0 1 14.682838-47.475613 145.92 145.92 0 0 0 13.700129-36.211613c5.384258-28.870194 25.443097-52.851613 57.748645-69.491613 24.955871-11.742968 56.765935-25.930323 93.464775-25.930322a220.795871 220.795871 0 0 1 77.807484 9.785806c27.895742 9.298581 46.980129 35.724387 64.107354 59.210323l3.427097 4.897032a180.719484 180.719484 0 0 1 33.767226 104.720516c0.974452 46.492903-1.957161 72.91871-23.981419 99.344516a259.303226 259.303226 0 0 1-67.534452 57.253162 148.810323 148.810323 0 0 1-87.59329 24.964129z m0-355.28671a203.495226 203.495226 0 0 0-90.533162 25.451355c-31.314581 15.65729-50.407226 38.656-55.296 66.064516a139.412645 139.412645 0 0 1-14.195613 37.681548 101.227355 101.227355 0 0 0-14.187354 45.501936v2.939871c0 26.92129 0 51.877161 10.760258 73.901419 19.092645 38.656 59.210323 64.594581 81.242838 76.824774a176.499613 176.499613 0 0 0 82.209033 22.511484 151.312516 151.312516 0 0 0 85.148903-23.485935 258.840774 258.840774 0 0 0 66.064516-56.27871c21.041548-24.955871 23.981419-50.894452 22.99871-95.917419a180.496516 180.496516 0 0 0-32.784516-102.276129l-3.427097-4.897033c-16.64-22.99871-35.228903-48.93729-61.65471-57.740387a202.19871 202.19871 0 0 0-76.345806-10.28129z m0 260.343742a85.883871 85.883871 0 1 1 85.636129-86.131613 85.735226 85.735226 0 0 1-85.636129 86.131613z m0-166.87071a80.747355 80.747355 0 1 0 80.747354 80.747355 80.829935 80.829935 0 0 0-80.747354-80.747355z" fill="#69164C" p-id="17676"></path><path d="M731.771871 829.283097l14.195613-17.62271a5.33471 5.33471 0 0 1 6.854193-0.974452l0.487226 0.495484a5.33471 5.33471 0 0 1 0.974452 6.845936l-14.187355 17.614451a5.342968 5.342968 0 0 1-6.854194 0.98271l-0.495483-0.495484a4.376774 4.376774 0 0 1-0.974452-6.845935z" fill="#55B2FF" p-id="17677"></path><path d="M736.165161 839.556129a7.869935 7.869935 0 0 1-4.401548-1.469935l-0.495484-0.487226a6.408258 6.408258 0 0 1-0.974452-9.298581l14.187355-17.614452a6.4 6.4 0 0 1 9.298581-0.982709l0.495484 0.495484a6.408258 6.408258 0 0 1 0.974451 9.290322l-14.187354 17.62271a5.863226 5.863226 0 0 1-4.409807 2.444387z m13.708387-27.895742a3.740903 3.740903 0 0 0-2.452645 0.98271l-14.195613 17.614451a3.096774 3.096774 0 0 0 0.495484 4.401549l0.487226 0.495484a2.155355 2.155355 0 0 0 2.444387 0.487225c0.98271 0 1.469935-0.487226 2.444387-0.982709l14.195613-17.614452a3.096774 3.096774 0 0 0-0.495484-4.401548l-0.974451-0.495484a2.939871 2.939871 0 0 0-1.957162-0.487226z" fill="#69164C" p-id="17678"></path><path d="M814.443355 730.92129h22.511484a4.90529 4.90529 0 0 1 4.888774 4.897033v0.495483a4.90529 4.90529 0 0 1-4.888774 4.888775h-22.511484a4.90529 4.90529 0 0 1-4.897032-4.888775v-0.495483c-0.495484-2.931613 1.957161-4.888774 4.897032-4.888775z" fill="#FFB452" p-id="17679"></path><path d="M836.946581 742.664258h-22.511484a6.689032 6.689032 0 0 1-6.854194-6.854193v-0.487226a6.689032 6.689032 0 0 1 6.854194-6.854194h22.511484a6.689032 6.689032 0 0 1 6.845935 6.854194v0.495484a6.689032 6.689032 0 0 1-6.845935 6.854193z m-22.511484-10.273032a3.344516 3.344516 0 0 0-3.427097 3.427097v0.487225a3.344516 3.344516 0 0 0 3.427097 3.427097h22.511484a3.336258 3.336258 0 0 0 3.418838-3.427097v-0.495483a3.336258 3.336258 0 0 0-3.418838-3.418839z" fill="#69164C" p-id="17680"></path><path d="M785.564903 575.298065l21.041549-8.811355a4.855742 4.855742 0 0 1 6.358709 2.452645v0.487226a4.855742 4.855742 0 0 1-2.444387 6.358709L789.966452 585.083871a4.855742 4.855742 0 0 1-6.35871-2.444387v-0.495484a4.723613 4.723613 0 0 1 1.957161-6.854194z" fill="#FFFFFF" p-id="17681"></path><path d="M788.034065 587.041032a7.63871 7.63871 0 0 1-6.35871-3.914322v-0.495484a8.340645 8.340645 0 0 1 0-4.888774 8.695742 8.695742 0 0 1 3.427097-3.914323l21.041548-8.811355a8.340645 8.340645 0 0 1 4.888774 0 8.712258 8.712258 0 0 1 3.914323 3.427097v0.495484a6.639484 6.639484 0 0 1-3.418839 8.803097l-21.049806 8.811354a5.326452 5.326452 0 0 1-2.444387 0.495484z m20.554322-19.084387a1.800258 1.800258 0 0 0-1.469935 0.495484l-21.041549 8.315871a3.815226 3.815226 0 0 0-1.957161 1.957161 2.221419 2.221419 0 0 0 0 2.444387v0.495484a3.674839 3.674839 0 0 0 4.401548 1.948903l21.049807-8.803096a3.823484 3.823484 0 0 0 1.957161-1.957162 2.229677 2.229677 0 0 0 0-2.452645v-0.487226a3.823484 3.823484 0 0 0-1.957161-1.957161z" fill="#69164C" p-id="17682"></path><path d="M699.953548 569.418323l22.024258-4.888775a4.954839 4.954839 0 0 1 5.871484 3.914323v0.495484a4.954839 4.954839 0 0 1-3.914322 5.863226l-22.016 4.897032a4.954839 4.954839 0 0 1-5.879742-3.914323v-0.495484a5.698065 5.698065 0 0 1 3.92258-5.863225z" fill="#55B2FF" p-id="17683"></path><path d="M701.423484 581.656774a6.300903 6.300903 0 0 1-6.35871-5.384258v-0.487226a5.689806 5.689806 0 0 1 0.974452-4.888774 7.12671 7.12671 0 0 1 4.409806-2.939871l22.016-4.897032a6.350452 6.350452 0 0 1 7.828645 5.384258v0.495484a6.350452 6.350452 0 0 1-5.376 7.828645l-22.024258 4.888774z m22.024258-15.170064h-0.495484l-22.016 4.897032c-0.98271 0-1.469935 0.487226-1.957161 1.469935-0.98271 0.487226-0.98271 1.461677-0.98271 2.444388v0.495483a3.022452 3.022452 0 0 0 3.914323 2.436129l22.024258-4.888774a3.022452 3.022452 0 0 0 2.444387-3.914322v-0.495484a2.741677 2.741677 0 0 0-2.931613-2.444387z" fill="#69164C" p-id="17684"></path><path d="M655.409548 776.423226l22.511484 1.957161a4.418065 4.418065 0 0 1 4.401549 5.384258v0.487226a4.418065 4.418065 0 0 1-5.384258 4.401548l-22.511484-1.957161a4.418065 4.418065 0 0 1-4.401549-5.384258v-0.487226a4.418065 4.418065 0 0 1 5.384258-4.401548z" fill="#55B2FF" p-id="17685"></path><path d="M677.442065 790.131613h-0.495484l-22.990452-1.957161a5.136516 5.136516 0 0 1-4.409806-2.444387 8.266323 8.266323 0 0 1-1.469936-4.897033v-0.487226a6.325677 6.325677 0 0 1 7.349678-5.871483l22.503225 1.957161a5.136516 5.136516 0 0 1 4.409807 2.444387 8.266323 8.266323 0 0 1 1.461677 4.897032v0.495484a6.069677 6.069677 0 0 1-6.358709 5.863226zM654.930581 777.909677a2.543484 2.543484 0 0 0-1.957162 0.974452 3.740903 3.740903 0 0 0-0.974451 2.452645v0.487226c0 0.974452 0 1.957161 0.974451 2.444387a3.740903 3.740903 0 0 0 2.444387 0.98271l22.511484 1.957161c1.957161 0 3.427097-0.98271 3.427097-2.939871v-0.495484c0-0.974452 0-1.948903-0.974452-2.444387-0.98271-0.487226-1.469935-0.974452-2.452645-0.974451z" fill="#69164C" p-id="17686"></path><path d="M579.072 624.251871l21.041548 7.828645a5.095226 5.095226 0 0 1 2.939871 6.35871v0.495484a5.086968 5.086968 0 0 1-6.358709 2.931613l-21.049807-7.828646a5.086968 5.086968 0 0 1-2.931613-6.358709v-0.495484a5.086968 5.086968 0 0 1 6.35871-2.931613z" fill="#55B2FF" p-id="17687"></path><path d="M598.156387 644.318968a4.418065 4.418065 0 0 1-2.444387-0.495484l-21.041548-7.828645a6.87071 6.87071 0 0 1-3.922581-8.811355v-0.487226a6.87071 6.87071 0 0 1 8.811355-3.914323l21.041548 7.828646a8.704 8.704 0 0 1 3.914323 3.427096 4.442839 4.442839 0 0 1 0 4.897033v0.487225a8.704 8.704 0 0 1-3.427097 3.914323 3.600516 3.600516 0 0 1-2.931613 0.98271z m-21.041548-18.597162a3.303226 3.303226 0 0 0-2.939871 1.957162v0.487226a3.617032 3.617032 0 0 0 1.957161 4.401548l21.041548 7.828645a2.180129 2.180129 0 0 0 2.452646 0 3.815226 3.815226 0 0 0 1.957161-1.957161v-0.487226a2.221419 2.221419 0 0 0 0-2.444387 3.823484 3.823484 0 0 0-1.957161-1.957161l-21.041549-7.828646z" fill="#69164C" p-id="17688"></path><path d="M591.822452 676.112516l19.571613-11.255742a4.954839 4.954839 0 0 1 6.854193 1.957161l0.495484 0.495484a4.954839 4.954839 0 0 1-1.957161 6.854194l-19.571613 11.247484a4.954839 4.954839 0 0 1-6.854194-1.957162l-0.495484-0.495483a4.954839 4.954839 0 0 1 1.957162-6.845936z" fill="#EA4B3B" p-id="17689"></path><path d="M594.266839 687.855484h-1.957162a5.07871 5.07871 0 0 1-3.914322-2.931613l-0.495484-0.495484a5.788903 5.788903 0 0 1-0.478968-4.888774c0.487226-1.469935 1.469935-3.427097 2.931613-3.914323l19.571613-11.255742a5.788903 5.788903 0 0 1 4.897032-0.495483 5.07871 5.07871 0 0 1 3.914323 2.93987l0.495484 0.495484a5.797161 5.797161 0 0 1 0.487226 4.888775 5.07871 5.07871 0 0 1-2.939871 3.914322l-19.571613 11.255742a17.300645 17.300645 0 0 1-2.939871 0.495484z m19.571613-22.024258a1.800258 1.800258 0 0 0-1.461678 0.495484l-19.571613 11.255742a3.187613 3.187613 0 0 0-0.982709 4.401548l0.495483 0.495484c0.478968 0.974452 0.974452 1.461677 1.948904 1.461677a3.674839 3.674839 0 0 0 2.452645-0.495484l19.571613-11.247483c0.974452-0.495484 1.469935-0.98271 1.469935-1.957162a3.674839 3.674839 0 0 0-0.495484-2.452645l-0.487225-0.487226c-0.487226-0.974452-0.974452-1.469935-1.957162-1.469935z" fill="#69164C" p-id="17690"></path><path d="M568.311742 710.854194l19.084387 12.238451a4.814452 4.814452 0 0 1 1.469936 6.854194l-0.495484 0.487226a4.814452 4.814452 0 0 1-6.845936 1.469935l-19.084387-12.238452a4.814452 4.814452 0 0 1-1.469935-6.854193l0.495483-0.487226a4.814452 4.814452 0 0 1 6.845936-1.461677z" fill="#FFB452" p-id="17691"></path><path d="M584.481032 734.348387a7.068903 7.068903 0 0 1-3.427097-0.98271l-19.084387-12.230193a7.12671 7.12671 0 0 1-2.939871-4.409807 5.698065 5.698065 0 0 1 0.98271-4.888774l0.487226-0.495484a7.12671 7.12671 0 0 1 4.401548-2.931613 5.689806 5.689806 0 0 1 4.897033 0.974452l19.076129 12.238452a6.969806 6.969806 0 0 1 1.965419 9.29858l-0.495484 0.495484a7.12671 7.12671 0 0 1-4.401548 2.931613z m-19.084387-22.511484h-0.495484c-0.974452 0-1.461677 0.495484-1.957161 1.469936l-0.495484 0.487226a4.418065 4.418065 0 0 0-0.478968 2.444387c0 0.98271 0.487226 1.469935 1.469936 1.957161l19.076129 12.238452a3.666581 3.666581 0 0 0 2.452645 0.487225c0.974452 0 1.469935-0.495484 1.957161-1.469935l0.495484-0.495484a3.187613 3.187613 0 0 0-0.990968-4.39329l-19.076129-12.238452c-0.495484-0.495484-0.98271-0.495484-1.957161-0.495484z" fill="#69164C" p-id="17692"></path><path d="M627.018323 610.064516l21.041548-8.324129a5.095226 5.095226 0 0 1 6.35871 2.939871v0.487226a5.095226 5.095226 0 0 1-2.931613 6.35871l-21.041549 8.324129a5.086968 5.086968 0 0 1-6.358709-2.939871v-0.487226a5.086968 5.086968 0 0 1 2.931613-6.35871z" fill="#FFFFFF" p-id="17693"></path><path d="M628.983742 621.799226a6.201806 6.201806 0 0 1-2.931613-0.487226 6.788129 6.788129 0 0 1-3.427097-3.914323v-0.495483a8.340645 8.340645 0 0 1 0-4.888775 5.59071 5.59071 0 0 1 3.914323-3.427096l21.041548-8.315871a8.340645 8.340645 0 0 1 4.897032 0 6.788129 6.788129 0 0 1 3.427097 3.914322v0.495484a8.340645 8.340645 0 0 1 0 4.888774 6.788129 6.788129 0 0 1-3.914322 3.427097l-21.049807 8.315871c0 0.495484-0.974452 0.495484-1.957161 0.495484z m21.041548-18.597161h-0.974451l-21.041549 8.324129a3.815226 3.815226 0 0 0-1.957161 1.957161 2.229677 2.229677 0 0 0 0 2.444387v0.495484a3.823484 3.823484 0 0 0 1.957161 1.957161 2.229677 2.229677 0 0 0 2.444387 0l21.041549-8.324129a3.815226 3.815226 0 0 0 1.957161-1.957161 2.221419 2.221419 0 0 0 0-2.444387v-0.495484a3.823484 3.823484 0 0 0-1.957161-1.957161z" fill="#69164C" p-id="17694"></path><path d="M635.854452 544.487226l16.152774 16.144516a4.731871 4.731871 0 0 1 0 6.854193l-0.495484 0.495484a4.731871 4.731871 0 0 1-6.845936 0l-16.152774-16.152774a4.731871 4.731871 0 0 1 0-6.854193l0.495484-0.495484a4.731871 4.731871 0 0 1 6.854194 0z" fill="#FFB452" p-id="17695"></path><path d="M648.092903 571.408516a6.276129 6.276129 0 0 1-4.897032-1.957161L627.034839 553.290323a6.804645 6.804645 0 0 1 0-9.298581l0.495484-0.487226a6.804645 6.804645 0 0 1 9.290322 0l16.152774 16.144516a6.804645 6.804645 0 0 1 0 9.298581l-0.495484 0.495484a6.193548 6.193548 0 0 1-4.401548 1.957161z m-15.665548-26.425806c-0.974452 0-1.469935 0.487226-2.444387 0.974451a2.741677 2.741677 0 0 0 0 4.409807l16.144516 16.144516a2.741677 2.741677 0 0 0 4.409806 0l0.487226-0.495484a2.741677 2.741677 0 0 0 0-4.39329l-16.152774-15.665549a2.692129 2.692129 0 0 0-2.444387-0.974451z" fill="#69164C" p-id="17696"></path><path d="M737.643355 527.847226l22.016 4.888774a5.367742 5.367742 0 0 1 3.92258 5.871484v0.495484a5.367742 5.367742 0 0 1-5.879741 3.914322l-22.016-4.897032a5.367742 5.367742 0 0 1-3.914323-5.871484v-0.495484a4.459355 4.459355 0 0 1 5.863226-3.906064z" fill="#EA4B3B" p-id="17697"></path><path d="M758.693161 544.487226h-1.469935l-22.016-4.888774a7.390968 7.390968 0 0 1-5.384258-7.836904v-0.487225a7.134968 7.134968 0 0 1 2.931613-4.401549 6.028387 6.028387 0 0 1 4.897032-0.982709l22.024258 4.897032a7.390968 7.390968 0 0 1 5.376 7.828645v0.495484a7.12671 7.12671 0 0 1-2.931613 4.401548 9.083871 9.083871 0 0 1-3.427097 0.974452z m-22.024258-15.170065a2.939871 2.939871 0 0 0-1.957161 0.495484c-0.974452 0.487226-1.461677 0.974452-1.461677 1.948903v0.495484a3.36929 3.36929 0 0 0 2.444387 3.914323l22.024258 4.888774a3.666581 3.666581 0 0 0 2.444387-0.487226c0.974452-0.487226 1.469935-0.974452 1.469935-1.957161v-0.495484a3.36929 3.36929 0 0 0-2.452645-3.906064l-22.016-4.897033z" fill="#69164C" p-id="17698"></path><path d="M802.237935 617.397677l19.571613 11.255742a4.954839 4.954839 0 0 1 1.96542 6.854194l-0.495484 0.495484a4.954839 4.954839 0 0 1-6.854194 1.948903l-19.571613-11.255742a4.954839 4.954839 0 0 1-1.957161-6.854193l0.495484-0.487226a4.954839 4.954839 0 0 1 6.854194-1.957162z" fill="#EA4B3B" p-id="17699"></path><path d="M818.869677 640.396387a9.083871 9.083871 0 0 1-3.427096-0.974452l-19.571613-11.255741a7.605677 7.605677 0 0 1-2.939871-3.914323 8.464516 8.464516 0 0 1 0.487226-4.897032l0.495483-0.495484a7.613935 7.613935 0 0 1 3.906065-2.931613 8.043355 8.043355 0 0 1 4.897032 0.495484l19.571613 11.247484a7.613935 7.613935 0 0 1 2.939871 3.914322 8.456258 8.456258 0 0 1-0.495484 4.897033l-0.487226 0.495483a7.605677 7.605677 0 0 1-3.914322 2.931613c0 0.495484-0.974452 0.495484-1.469936 0.495484z m-19.092645-22.024258h-0.974451c-0.98271 0-1.469935 0.98271-1.957162 1.469936l-0.495484 0.495483a4.409806 4.409806 0 0 0-0.487225 2.444387c0 0.974452 0.98271 1.469935 1.469935 1.957162l19.571613 11.255742a4.409806 4.409806 0 0 0 2.452645 0.487226c0.974452 0 1.469935-0.974452 1.957162-1.469936l0.487225-0.487226a3.187613 3.187613 0 0 0-0.974451-4.401548l-19.571613-11.255742c-0.495484 0-0.990968-0.495484-1.478194-0.495484z" fill="#69164C" p-id="17700"></path><path d="M602.045935 752.450065l21.537033-7.34142a5.095226 5.095226 0 0 1 6.358709 2.939871v0.495484a5.095226 5.095226 0 0 1-2.931612 6.35871l-22.024259 7.341419a5.086968 5.086968 0 0 1-6.358709-2.939871v-0.495484a4.789677 4.789677 0 0 1 3.427097-6.358709z" fill="#FFB452" p-id="17701"></path><path d="M603.532387 764.20129a6.969806 6.969806 0 0 1-6.35871-4.401548v-0.495484a6.804645 6.804645 0 0 1 4.401549-8.315871l21.537032-7.341419a6.804645 6.804645 0 0 1 8.315871 4.401548v0.495484a6.804645 6.804645 0 0 1-4.401548 8.315871l-21.537033 7.341419z m-0.974452-10.28129a2.923355 2.923355 0 0 0-1.957161 3.922581v0.487225a6.771613 6.771613 0 0 0 1.461678 1.957162 2.229677 2.229677 0 0 0 2.452645 0l21.528774-7.34142a2.923355 2.923355 0 0 0 1.957161-3.914322v-0.495484a6.746839 6.746839 0 0 0-1.469935-1.948903 2.180129 2.180129 0 0 0-2.444387 0z" fill="#69164C" p-id="17702"></path><path d="M674.493935 821.958194l22.024259 4.888774a5.367742 5.367742 0 0 1 3.914322 5.871484v0.495483a5.367742 5.367742 0 0 1-5.871484 3.914323l-22.024258-4.897032a5.367742 5.367742 0 0 1-3.914322-5.871484v-0.487226a4.731871 4.731871 0 0 1 5.871483-3.914322z" fill="#FFB452" p-id="17703"></path><path d="M695.535484 838.589935h-1.469936l-22.024258-4.897032a7.118452 7.118452 0 0 1-4.401548-2.939871 6.011871 6.011871 0 0 1-0.98271-4.888774v-0.495484a7.12671 7.12671 0 0 1 2.939871-4.401548 6.028387 6.028387 0 0 1 4.888774-0.974452l22.024258 4.888774a7.118452 7.118452 0 0 1 4.401549 2.939871 6.028387 6.028387 0 0 1 0.98271 4.888775v0.495483a7.110194 7.110194 0 0 1-2.939871 4.401549 9.116903 9.116903 0 0 1-3.418839 0.982709z m-22.024258-15.178322a2.939871 2.939871 0 0 0-1.957161 0.495484c-0.98271 0.487226-1.469935 0.974452-1.469936 1.957161v0.487226a3.650065 3.650065 0 0 0 0.495484 2.444387c0.487226 0.98271 0.974452 1.469935 1.948903 1.469935l22.024258 4.897033a3.683097 3.683097 0 0 0 2.444387-0.487226c0.495484-0.495484 1.469935-0.98271 1.469936-1.965419v-0.487226a3.658323 3.658323 0 0 0-0.495484-2.444387c-0.478968-0.98271-0.974452-1.469935-1.948903-1.469936l-22.024258-4.897032z" fill="#69164C" p-id="17704"></path><path d="M801.246968 796.985806l19.571613-11.255741a4.954839 4.954839 0 0 1 6.854193 1.957161l0.487226 0.495484a4.954839 4.954839 0 0 1-1.957161 6.845935l-19.571613 11.255742a4.954839 4.954839 0 0 1-6.854194-1.957161l-0.495484-0.495484a4.954839 4.954839 0 0 1 1.96542-6.845936z" fill="#FFFFFF" p-id="17705"></path><path d="M804.195097 808.23329a6.391742 6.391742 0 0 1-5.863226-3.427096l-0.495484-0.495484a6.565161 6.565161 0 0 1 2.444387-9.290323l19.571613-11.255742a6.573419 6.573419 0 0 1 9.306839 2.444387l0.487226 0.495484a6.573419 6.573419 0 0 1-2.444387 9.290323l-19.571613 11.255742a5.276903 5.276903 0 0 1-3.435355 0.982709z m19.084387-21.537032a1.800258 1.800258 0 0 0-1.461678 0.495484l-19.571612 11.255742a3.187613 3.187613 0 0 0-0.990968 4.401548l0.495484 0.495484a3.187613 3.187613 0 0 0 4.401548 0.974452l19.571613-11.255742a3.179355 3.179355 0 0 0 0.98271-4.409807l-0.487226-0.487225a3.484903 3.484903 0 0 0-2.931613-1.461678z" fill="#69164C" p-id="17706"></path><path d="M761.12929 777.909677l19.571613-11.255742a4.954839 4.954839 0 0 1 6.854194 1.957162l0.495484 0.495484a4.954839 4.954839 0 0 1-1.957162 6.854193l-19.571613 11.247484a4.954839 4.954839 0 0 1-6.854193-1.957161l-0.495484-0.487226a5.830194 5.830194 0 0 1 1.957161-6.854194z" fill="#EA4B3B" p-id="17707"></path><path d="M764.069161 789.165419h-1.957161a5.070452 5.070452 0 0 1-3.914323-2.931613l-0.495483-0.495483a6.565161 6.565161 0 0 1 2.452645-9.290323l19.571613-11.255742a5.797161 5.797161 0 0 1 4.897032-0.495484 5.07871 5.07871 0 0 1 3.914322 2.939871l0.495484 0.495484a5.788903 5.788903 0 0 1 0.487226 4.888774c-0.495484 1.469935-1.469935 3.427097-2.939871 3.914323l-19.571613 11.255742a4.129032 4.129032 0 0 1-2.939871 0.974451z m-1.957161-9.785806a3.187613 3.187613 0 0 0-0.98271 4.409806l0.495484 0.487226c0.487226 0.974452 0.974452 1.469935 1.957161 1.469936a3.666581 3.666581 0 0 0 2.444388-0.495484l19.571612-11.255742c0.98271-0.487226 1.469935-0.974452 1.469936-1.957161a3.666581 3.666581 0 0 0-0.495484-2.444388l-0.478968-0.495483c-0.495484-0.974452-0.98271-1.461677-1.957161-1.461678a3.666581 3.666581 0 0 0-2.452645 0.495484z" fill="#69164C" p-id="17708"></path><path d="M836.517161 672.206452l22.024258 5.871483a4.641032 4.641032 0 0 1 3.418839 5.871484v0.495484a4.641032 4.641032 0 0 1-5.871484 3.418839l-22.016-5.863226a4.641032 4.641032 0 0 1-3.427097-5.879742v-0.495484a5.037419 5.037419 0 0 1 5.871484-3.418838z" fill="#55B2FF" p-id="17709"></path><path d="M857.054968 690.316387h-1.469936l-22.024258-5.863226a6.854194 6.854194 0 0 1-4.888774-8.324129v-0.495484a6.061419 6.061419 0 0 1 2.931613-3.914322 5.797161 5.797161 0 0 1 4.897032-0.487226l22.016 5.871484a6.854194 6.854194 0 0 1 4.897032 8.324129v0.487226a6.069677 6.069677 0 0 1-2.939871 3.914322c-0.974452 0-1.957161 0.495484-3.418838 0.495484z m-21.537033-16.144516a1.783742 1.783742 0 0 0-1.461677 0.487226c-0.98271 0.495484-1.469935 0.974452-1.469935 1.957161v0.495484a3.022452 3.022452 0 0 0 2.444387 3.906064l22.024258 5.871484a3.658323 3.658323 0 0 0 2.444387-0.487225c0.98271-0.495484 1.469935-0.974452 1.469935-1.957162v-0.495484a3.022452 3.022452 0 0 0-2.452645-3.906064l-22.016-5.871484z" fill="#69164C" p-id="17710"></path><path d="M605.018839 784.763871l17.614451 14.187355a5.33471 5.33471 0 0 1 0.98271 6.854193l-0.495484 0.487226a5.33471 5.33471 0 0 1-6.854193 0.974452l-17.614452-14.187355a5.33471 5.33471 0 0 1-0.974452-6.854194l0.495484-0.487225a4.723613 4.723613 0 0 1 6.845936-0.974452z" fill="#FFFFFF" p-id="17711"></path><path d="M618.71071 810.206968a7.89471 7.89471 0 0 1-4.401549-1.469936l-17.614451-14.187355a6.4 6.4 0 0 1-0.98271-9.29858l0.495484-0.495484a5.838452 5.838452 0 0 1 4.401548-2.444387 8.266323 8.266323 0 0 1 4.888774 1.469935l17.62271 14.195613a6.408258 6.408258 0 0 1 0.974452 9.298581l-0.495484 0.487226a5.838452 5.838452 0 0 1-4.401549 2.444387z m-17.127226-24.468645a2.873806 2.873806 0 0 0-2.444387 0.982709l-0.495484 0.487226a3.096774 3.096774 0 0 0 0.495484 4.401548l17.614451 14.195613a2.147097 2.147097 0 0 0 2.444387 0.495484c0.98271 0 1.469935-0.495484 2.452646-0.990968l0.487225-0.487225a2.147097 2.147097 0 0 0 0.495484-2.444387c0-0.98271-0.495484-1.469935-0.990967-2.444388l-17.614452-14.195612z" fill="#69164C" p-id="17712"></path><path d="M649.562839 833.197419s-3.427097 37.194323-4.897033 38.664258c-0.974452 1.957161-18.101677-23.494194-17.127225-35.724387 0.98271-8.811355 22.024258-2.939871 22.024258-2.939871z" fill="#FFFFFF" p-id="17713"></path><path d="M644.64929 874.306065h-0.974451c-4.401548-1.469935-19.571613-26.425806-18.597162-38.177033a6.144 6.144 0 0 1 2.931613-5.384258c6.35871-4.401548 20.562581-0.487226 22.024258 0a3.261935 3.261935 0 0 1 1.957162 2.452645 278.461935 278.461935 0 0 1-4.888775 40.125936 3.749161 3.749161 0 0 1-2.452645 0.98271z m-7.828645-40.62142a18.076903 18.076903 0 0 0-5.863226 0.98271 2.526968 2.526968 0 0 0-0.990967 1.957161c-0.487226 8.315871 8.811355 24.468645 13.212903 30.827355 0.990968-6.35871 2.452645-19.571613 3.427097-32.29729a29.324387 29.324387 0 0 0-9.785807-1.469936z" fill="#69164C" p-id="17714"></path><path d="M660.281806 837.607226s5.871484 37.681548 0.98271 38.664258c-4.409806 0.974452-20.562581-19.579871-22.024258-31.322839-0.974452-8.811355 21.041548-7.341419 21.041548-7.341419z" fill="#FFFFFF" p-id="17715"></path><path d="M661.264516 879.203097a5.970581 5.970581 0 0 1-4.401548-1.957162 60.88671 60.88671 0 0 1-19.571613-31.810064 6.292645 6.292645 0 0 1 1.957161-5.871484c5.384258-5.384258 20.067097-4.409806 21.528774-4.409806a3.261935 3.261935 0 0 1 2.444387 1.957161c5.871484 40.134194 1.469935 41.108645-0.974451 41.604129-0.495484 0.487226-0.495484 0.487226-0.98271 0.487226z m-4.888774-39.151484a21.958194 21.958194 0 0 0-13.708387 2.939871c-0.487226 0.487226-0.487226 0.974452-0.487226 1.957161a53.991226 53.991226 0 0 0 18.597161 28.870194 162.337032 162.337032 0 0 0-2.444387-33.767226z" fill="#69164C" p-id="17716"></path><path d="M678.383484 837.111742s10.760258 33.28 6.35871 35.237161c-3.914323 1.957161-24.468645-14.682839-26.425807-26.425806-1.957161-8.811355 20.067097-8.811355 20.067097-8.811355z" fill="#FFFFFF" p-id="17717"></path><path d="M683.767742 875.280516a11.206194 11.206194 0 0 1-4.409807-1.469935c-6.854194-3.427097-22.024258-16.64-23.981419-27.400258a6.110968 6.110968 0 0 1 1.469936-5.879742c4.888774-5.871484 19.571613-5.871484 21.041548-5.871484a2.700387 2.700387 0 0 1 2.444387 1.469935c11.255742 35.237161 6.854194 37.194323 4.897032 38.168774 0 0.495484-0.98271 0.98271-1.469935 0.98271z m-7.349677-35.724387a28.449032 28.449032 0 0 0-15.657291 3.914323c-0.495484 0.487226-0.495484 0.974452-0.495484 1.957161 1.965419 9.785806 18.109935 22.99871 23.006968 24.468645a130.097548 130.097548 0 0 0-6.854193-30.340129z" fill="#69164C" p-id="17718"></path><path d="M635.342452 742.672516a237.857032 237.857032 0 0 0-12.230194 62.637419c0 22.024258 1.957161 36.698839 9.298581 44.040259 5.863226 5.384258 27.895742 14.195613 43.065806 0.495483 15.170065-13.708387-8.324129-49.92 1.461678-81.730064 4.409806-16.144516-41.595871-25.443097-41.595871-25.443097z" fill="#FFA4B1" p-id="17719"></path><path d="M655.896774 859.127742a43.107097 43.107097 0 0 1-25.434839-8.315871c-8.324129-7.836903-10.28129-22.511484-10.28129-45.518452a257.403871 257.403871 0 0 1 12.71742-63.124645 2.048 2.048 0 0 1 2.93987-1.469935c3.427097 0.495484 35.237161 7.341419 42.578581 19.571613a10.074839 10.074839 0 0 1 0.974452 8.324129c-4.897032 15.170065-1.469935 31.314581 0.974451 45.510193 2.939871 15.65729 5.384258 29.852903-3.418838 37.681549a31.620129 31.620129 0 0 1-21.049807 7.341419z m-19.076129-113.531871a249.831226 249.831226 0 0 0-11.751226 59.210323c0 21.041548 1.469935 35.724387 8.811355 42.083096 4.888774 4.409806 25.930323 12.725677 39.63871 0.495484 6.854194-5.871484 4.401548-18.109935 1.469935-32.784516a99.038968 99.038968 0 0 1-0.982709-47.962839 4.756645 4.756645 0 0 0-0.495484-4.401548c-4.401548-7.836903-26.425806-14.195613-36.698839-16.64z" fill="#69164C" p-id="17720"></path><path d="M770.915097 833.222194s2.452645 38.168774 4.897032 38.664258c2.939871 0.974452 18.109935-23.494194 17.127226-35.724387-0.495484-8.811355-22.016-2.939871-22.016-2.939871z" fill="#FFFFFF" p-id="17721"></path><path d="M775.828645 874.322581h-0.98271c-1.469935-0.487226-3.427097-1.461677-6.358709-41.100387 0-0.98271 0.487226-2.452645 1.957161-2.452646 1.461677-0.487226 15.65729-4.401548 22.016 0a6.144 6.144 0 0 1 2.939871 5.384258c0.974452 11.742968-11.742968 33.28-16.64 37.194323a6.978065 6.978065 0 0 1-2.931613 0.974452z m-1.965419-39.63871c0.98271 13.212903 2.452645 27.408516 3.427097 33.28 4.409806-5.384258 14.195613-22.024258 13.708387-31.322839a2.56 2.56 0 0 0-0.98271-1.957161 29.968516 29.968516 0 0 0-16.152774 0z" fill="#69164C" p-id="17722"></path><path d="M760.179613 837.615484s-5.384258 37.194323-2.444387 38.168774c3.914323 1.469935 22.016-19.084387 23.485935-30.827355 0.974452-8.811355-21.041548-7.341419-21.041548-7.341419z" fill="#FFFFFF" p-id="17723"></path><path d="M758.197677 878.724129h-1.461677c-1.957161-0.487226-4.897032-1.957161 0.974452-41.108645a2.237935 2.237935 0 0 1 2.444387-1.957161c1.469935 0 16.152774-0.98271 21.537032 4.401548a6.292645 6.292645 0 0 1 1.957161 5.871484 59.416774 59.416774 0 0 1-22.024258 31.810064c-0.974452 0-1.957161 0.98271-3.427097 0.98271z m4.409807-38.664258a205.576258 205.576258 0 0 0-2.939871 32.792774 62.530065 62.530065 0 0 0 19.571613-28.382968c0-0.98271 0-1.469935-0.487226-1.957161a38.69729 38.69729 0 0 0-16.144516-2.452645z" fill="#69164C" p-id="17724"></path><path d="M742.532129 837.136516s-7.828645 34.254452-4.888774 35.237161c3.427097 1.469935 22.99871-14.682839 24.955871-26.425806 1.957161-8.811355-20.067097-8.811355-20.067097-8.811355z" fill="#FFFFFF" p-id="17725"></path><path d="M738.130581 874.818065h-1.469936c-1.957161-0.495484-4.897032-1.965419 3.427097-38.177033 0.487226-0.974452 0.974452-1.957161 2.444387-1.957161s16.144516 0 21.041548 5.871484a6.433032 6.433032 0 0 1 1.469936 5.871484 52.967226 52.967226 0 0 1-22.024258 26.92129 10.999742 10.999742 0 0 1-4.888774 1.469936z m6.358709-35.237162a175.748129 175.748129 0 0 0-4.897032 30.340129 50.704516 50.704516 0 0 0 21.041548-24.468645c0-0.98271 0-1.469935-0.487225-1.957161a33.362581 33.362581 0 0 0-15.657291-3.914323z" fill="#69164C" p-id="17726"></path><path d="M785.564903 742.680774a237.857032 237.857032 0 0 1 12.230194 62.63742c0 22.024258-1.957161 36.698839-9.298581 44.040258-5.863226 5.384258-27.895742 14.195613-43.065806 0.487225-15.170065-13.700129 8.324129-49.911742-1.461678-81.721806-4.897032-16.152774 41.595871-25.443097 41.595871-25.443097z" fill="#FFA4B1" p-id="17727"></path><path d="M765.027097 859.152516a29.811613 29.811613 0 0 1-21.049807-7.828645c-8.803097-7.828645-6.35871-21.537032-3.427096-37.681548a89.467871 89.467871 0 0 0 0.982709-45.510194 9.868387 9.868387 0 0 1 0.974452-8.324129c7.349677-12.230194 38.664258-19.076129 42.57858-19.571613a2.378323 2.378323 0 0 1 2.939871 1.469936 263.242323 263.242323 0 0 1 12.71742 63.611871c0 23.006968-1.957161 38.177032-10.273032 45.518451a43.107097 43.107097 0 0 1-25.451355 8.315871zM783.607742 745.620645c-10.273032 2.444387-31.810065 8.803097-36.698839 16.631742a4.756645 4.756645 0 0 0-0.495484 4.409807 99.038968 99.038968 0 0 1-0.974451 47.95458c-2.939871 14.195613-4.897032 26.92129 1.469935 32.792774 13.708387 12.230194 34.741677 3.914323 39.63871-0.495483 6.854194-6.35871 8.315871-21.041548 8.803097-42.083097a212.372645 212.372645 0 0 0-11.742968-59.210323z" fill="#69164C" p-id="17728"></path><path d="M809.538065 733.877677c0 42.091355-44.527484 67.534452-98.849033 67.534452s-98.849032-26.425806-98.849032-67.534452a94.084129 94.084129 0 0 1 78.781935-91.020387 55.114323 55.114323 0 0 0 36.707097-25.443096c7.341419 1.461677 9.785806 18.597161 5.871484 23.973161a48.301419 48.301419 0 0 0 21.041549-16.64c9.298581 4.897032 6.35871 18.109935 4.409806 24.964129-0.495484 1.469935 3.418839 3.427097 4.401548 3.914322a89.459613 89.459613 0 0 1 46.492904 80.251871z" fill="#FFA4B1" p-id="17729"></path><path d="M710.201806 804.343742c-58.723097 0-101.301677-29.365677-101.301677-70.466065a97.858065 97.858065 0 0 1 80.747355-93.960258 52.760774 52.760774 0 0 0 35.237161-23.981419 2.956387 2.956387 0 0 1 2.931613-1.469935c3.427097 0.495484 5.871484 3.427097 7.828645 8.324129a29.828129 29.828129 0 0 1 1.469936 13.212903 52.025806 52.025806 0 0 0 12.725677-10.768516 8.307613 8.307613 0 0 1 2.939871-2.939871 3.121548 3.121548 0 0 1 2.931613 0c5.384258 2.939871 10.768516 10.28129 5.871484 27.408516a10.669419 10.669419 0 0 0 2.452645 1.469935l0.487226 0.487226a91.755355 91.755355 0 0 1 47.95458 82.704516c-0.487226 41.108645-42.570323 69.978839-102.276129 69.978839z m17.614452-183.51071a58.128516 58.128516 0 0 1-37.186064 24.468645 92.143484 92.143484 0 0 0-76.345807 88.576c0 37.681548 40.621419 65.081806 96.404645 65.081807 56.765935 0 96.404645-26.92129 96.404645-65.081807a86.651871 86.651871 0 0 0-45.501935-78.302967h-0.495484c-2.444387-0.98271-6.35871-2.939871-5.384258-6.854194 1.957161-7.341419 3.427097-16.631742-1.469935-21.041548a1.709419 1.709419 0 0 0-0.487226 0.982709 49.548387 49.548387 0 0 1-20.067097 15.170065 2.353548 2.353548 0 0 1-2.931613-0.98271 3.080258 3.080258 0 0 1 0-2.931613 21.165419 21.165419 0 0 0 0-14.682838 8.365419 8.365419 0 0 0-2.939871-4.401549z" fill="#69164C" p-id="17730"></path><path d="M776.282839 764.20129a93.382194 93.382194 0 0 1-65.569033 23.006968 95.232 95.232 0 0 1-65.090064-22.024258 49.350194 49.350194 0 0 1-15.170065-47.954581 46.03871 46.03871 0 0 1 17.614452-26.92129 47.863742 47.863742 0 0 1 62.645677 2.939871 47.442581 47.442581 0 0 1 62.63742-2.931613 48.367484 48.367484 0 0 1 17.614451 25.443097 50.151226 50.151226 0 0 1-14.682838 48.450064z" fill="#FFFFFF" p-id="17731"></path><path d="M692.628645 724.562581a18.811871 18.811871 0 0 1-11.751226 18.605419c-4.888774 2.931613-23.485935 8.803097-35.724387 21.528774a49.350194 49.350194 0 0 1-15.170064-47.962839 62.926452 62.926452 0 0 1 33.775484-14.187354c17.614452-0.98271 28.870194 9.785806 28.870193 22.024258zM776.299355 764.20129a120.997161 120.997161 0 0 0-36.211613-22.024258 18.332903 18.332903 0 0 1-11.751226-18.597161c0-12.230194 11.255742-22.99871 28.878452-22.503226a67.138065 67.138065 0 0 1 33.28 14.187355 49.284129 49.284129 0 0 1-14.203871 48.93729z" fill="#BC5353" p-id="17732"></path><path d="M681.323355 724.562581c0.487226 3.914323-6.35871 1.469935-14.682839 1.957161-7.828645 0.495484-15.170065 6.35871-15.170064 3.427097 0-4.888774 6.854194-9.785806 14.67458-10.768516 8.324129-0.487226 15.178323 2.452645 15.178323 5.384258zM739.055484 724.562581c-0.495484 3.914323 6.35871 1.469935 14.682839 1.957161 7.828645 0.495484 15.170065 6.35871 15.170064 3.427097 0-4.888774-6.854194-9.785806-14.682839-10.768516-7.828645-0.487226-14.682839 2.452645-15.170064 5.384258zM722.927484 734.356645c0 4.409806-5.384258 8.324129-12.238452 8.324129s-12.717419-3.914323-12.717419-8.324129c0-4.401548 5.376-5.384258 12.230193-5.384258s12.717419 0.98271 12.71742 5.384258z" fill="#69164C" p-id="17733"></path><path d="M702.356645 759.329032a11.528258 11.528258 0 0 1-11.255742-6.854193 2.320516 2.320516 0 1 1 4.409807-1.461678c0 0.487226 1.461677 3.427097 6.854193 3.427097a6.95329 6.95329 0 0 0 2.931613-0.98271 18.440258 18.440258 0 0 0 2.931613-10.273032 2.444387 2.444387 0 0 1 4.897032 0 21.223226 21.223226 0 0 1-3.914322 14.187355 15.929806 15.929806 0 0 1-6.854194 1.957161z" fill="#69164C" p-id="17734"></path><path d="M718.492903 759.329032a9.306839 9.306839 0 0 1-6.358709-2.452645 23.246452 23.246452 0 0 1-4.409807-14.187355 2.444387 2.444387 0 0 1 4.897032 0c0 1.957161 0 7.828645 2.931613 10.273033 0.98271 0.98271 1.469935 0.98271 2.939871 0.982709a7.002839 7.002839 0 0 0 6.854194-3.427097 2.320516 2.320516 0 1 1 4.401548 1.469936 10.504258 10.504258 0 0 1-11.255742 7.341419z" fill="#69164C" p-id="17735"></path></svg>