<?xml version="1.0" standalone="no"?><!DOCTYPE svg PUBLIC "-//W3C//DTD SVG 1.1//EN" "http://www.w3.org/Graphics/SVG/1.1/DTD/svg11.dtd"><svg t="1733817368181" class="icon" viewBox="0 0 1280 1024" version="1.1" xmlns="http://www.w3.org/2000/svg" p-id="18889" width="160" height="128" xmlns:xlink="http://www.w3.org/1999/xlink"><path d="M184.685714 493.714286h109.714286v146.285714h-109.714286z" fill="#fe0220" p-id="18890"></path><path d="M402.285714 475.428571h475.428572v182.857143H402.285714zM950.857143 475.428571h164.571428v182.857143h-164.571428z" fill="#fe0220" p-id="18891"></path><path d="M1005.714286 402.285714v-137.142857c64-21.942857 109.714286-84.114286 109.714285-155.428571 0-16.457143-1.828571-34.742857-7.314285-51.2L1093.485714 18.285714l-31.085714 29.257143C1033.142857 74.971429 992.914286 91.428571 950.857143 91.428571H329.142857c-42.057143 0-82.285714-16.457143-111.542857-43.885714L186.514286 18.285714l-14.628572 40.228572C166.4 74.971429 164.571429 93.257143 164.571429 109.714286c0 71.314286 45.714286 131.657143 109.714285 155.428571V475.428571H164.571429v182.857143h109.714285v292.571429h182.857143V658.285714h365.714286v292.571429h182.857143V658.285714h109.714285V475.428571h-109.714285v-73.142857zM274.285714 603.428571h-54.857143v-73.142857h54.857143v73.142857z m128-128v420.571429h-73.142857V402.285714h73.142857v73.142857z m420.571429 128H457.142857v-73.142857h365.714286v73.142857z m-365.714286-128v-73.142857h73.142857v73.142857h-73.142857z m128 0v-73.142857h109.714286v73.142857h-109.714286z m237.714286 0h-73.142857v-73.142857h73.142857v73.142857z m128 0v420.571429h-73.142857V402.285714h73.142857v73.142857z m0-128H329.142857v-73.142857h621.714286v73.142857z m0-128H329.142857c-58.514286 0-106.057143-45.714286-109.714286-102.4 32.914286 18.285714 71.314286 29.257143 109.714286 29.257143h621.714286c38.4 0 76.8-10.971429 109.714286-29.257143-3.657143 56.685714-51.2 102.4-109.714286 102.4z m109.714286 310.857143v73.142857h-54.857143v-73.142857h54.857143z" fill="#fe0220" p-id="18892"></path></svg>