<?xml version="1.0" standalone="no"?><!DOCTYPE svg PUBLIC "-//W3C//DTD SVG 1.1//EN" "http://www.w3.org/Graphics/SVG/1.1/DTD/svg11.dtd"><svg t="1732356392224" class="icon" viewBox="0 0 1024 1024" version="1.1" xmlns="http://www.w3.org/2000/svg" p-id="4788" xmlns:xlink="http://www.w3.org/1999/xlink" width="200" height="200"><path d="M922.624 685.056c-17.408 17.408-28.672 98.816-57.856 103.424-29.184 4.608-10.752 1.536-46.08 46.08-78.848 66.048-137.728 4.096-92.672 11.776 45.056 7.168 69.632-57.856 69.632-57.856-46.592 7.68 7.68 29.696-34.816 23.04-1.536 0-2.56-0.512-3.584-0.512l3.584-10.752s-39.424 4.608-3.584 10.752l-7.68 23.552s-29.184-13.824-46.08 11.776-46.08-11.776-46.08-11.776-14.336-20.48-11.776-46.08 34.816-34.304 34.816-34.304 11.776-18.944 23.04-57.344c11.264-38.4 34.816-69.12 34.816-69.12v80.384s12.288 8.704 23.04-34.304c44.544-67.584 30.208-163.84-11.776-241.664-47.616-88.576-162.816-104.448-162.816-104.448V200.704c75.264 4.608 80.896 22.016 103.936 34.304 26.112 13.824 11.776-23.04 11.776-23.04s52.736 35.84 138.752 126.464c100.352 105.472 57.856 311.296 57.856 311.296 48.64-5.12 46.08-57.856 46.08-57.856 9.216 48.128-5.12 75.776-22.528 93.184zM424.96 788.48V200.704C434.176 65.536 494.592 5.12 494.592 5.12c61.44 64 69.632 195.584 69.632 195.584V788.48c-69.632-82.944-139.264 0-139.264 0zM251.392 408.064c-43.52 57.344-57.856 104.96-57.856 196.096 0 90.624 70.656 232.448 103.936 265.216 0 0-118.784-46.08-161.792-173.056-43.52-126.464-20.48-286.208 46.08-345.6C248.832 291.328 251.392 281.6 251.392 281.6s-50.688 1.024-69.632 11.776c0 0 99.84-104.448 219.648-92.16v138.24c0.512-0.512-98.304 1.024-150.016 68.608zM89.6 604.16c-30.72-54.272 0-138.24 0-138.24s9.216 17.92 11.776 80.384c2.048 62.976-11.776 57.856-11.776 57.856z m462.848 195.584H436.736c64.512-64 115.712 0 115.712 0z m46.08 11.776s-7.68 80.896-57.856 80.384V1018.88H448v-126.976s-63.488-16.384-57.856-80.384h208.384z" fill="#40B4FE" p-id="4789"></path></svg>