<?xml version="1.0" standalone="no"?><!DOCTYPE svg PUBLIC "-//W3C//DTD SVG 1.1//EN" "http://www.w3.org/Graphics/SVG/1.1/DTD/svg11.dtd"><svg t="1732356416627" class="icon" viewBox="0 0 1024 1024" version="1.1" xmlns="http://www.w3.org/2000/svg" p-id="5873" xmlns:xlink="http://www.w3.org/1999/xlink" width="200" height="200"><path d="M499.253 920.282c-23.1-90.3 29.4-180.6 117.6-205.8v-207.9s0-21 42-21c0-21-10.5-42-63-42-21-31.5 0-63 42-63 63 0 73.5 42 73.5 42s73.5-42 73.5-105c-63 42-105-42-157.5-42-31.5 0-52.5 21-52.5 21s-21 0-21-21v-199.5c0-21 21-31.5 21-31.5s0-42-63-42-63 42-63 42 21 10.5 21 31.5v199.5c0 21-21 21-21 21s-21-21-52.5-21c-52.5 0-94.5 84-157.5 42 0 63 73.5 105 73.5 105s10.5-42 73.5-42c42 0 63 31.5 42 63-52.5 0-63 21-63 42 42 0 42 21 42 21v504h153.3c-29.4-21-50.4-52.5-60.9-90.3z m-29.4-560.7c0-23.1 18.9-42 42-42s42 18.9 42 42-18.9 42-42 42-42-18.9-42-42z" p-id="5874"></path><path d="M961.253 533.882c-21-75.6-60.9-138.6-115.5-186.9 2.1 6.3 4.2 12.6 6.3 21 44.1 168-54.6 340.2-222.6 386.4-67.2 18.9-107.1 86.1-88.2 153.3 18.9 67.2 86.1 107.1 153.3 88.2 201.6-52.5 321.3-260.4 266.7-462z m-705.6-31.5c-75.6-44.1-102.9-140.7-58.8-214.2 6.3-8.4 12.6-18.9 18.9-25.2-54.6 14.7-105 50.4-136.5 102.9-60.9 105-25.2 239.4 79.8 300.3 46.2 25.2 102.9 10.5 128.1-33.6 27.3-46.2 12.6-105-31.5-130.2z" p-id="5875"></path></svg>