<?xml version="1.0" standalone="no"?><!DOCTYPE svg PUBLIC "-//W3C//DTD SVG 1.1//EN" "http://www.w3.org/Graphics/SVG/1.1/DTD/svg11.dtd"><svg t="1732356379879" class="icon" viewBox="0 0 1025 1024" version="1.1" xmlns="http://www.w3.org/2000/svg" p-id="4221" xmlns:xlink="http://www.w3.org/1999/xlink" width="200.1953125" height="200"><path d="M1024.396003 697.900788H213.919123a62.27875 62.27875 0 0 0-26.959021 6.739755 86.593056 86.593056 0 0 0-26.361827 20.219266 107.537485 107.537485 0 0 0-19.920668 32.035165 110.096886 110.096886 0 0 0-7.635545 42.144798 143.667691 143.667691 0 0 0 6.441158 43.808408 140.767037 140.767037 0 0 0 17.062671 35.959579 79.640018 79.640018 0 0 0 25.594007 24.740873 63.43048 63.43048 0 0 0 32.802985 9.000559H1024.396003a158.042992 158.042992 0 0 1-24.612903-30.328898 185.897802 185.897802 0 0 1-17.062671-34.850505 130.102868 130.102868 0 0 1-7.635546-46.069213 131.553195 131.553195 0 0 1 7.635546-48.330016 134.496505 134.496505 0 0 1 17.062671-31.480628A120.078548 120.078548 0 0 1 1024.396003 697.900788m0 306.786828q0 19.110192-25.594007 19.110191H142.383874a130.572091 130.572091 0 0 1-66.757701-15.740314 125.410633 125.410633 0 0 1-43.936378-43.253871 189.39565 189.39565 0 0 1-24.01571-65.733941A453.227203 453.227203 0 0 1 0.635733 817.04089V165.246851A151.77246 151.77246 0 0 1 48.667153 39.921532 213.283389 213.283389 0 0 1 185.723059 1.146612h228.383853q59.719349 0 122.424666-0.554537T658.913587 0.037538H892.160301a121.699502 121.699502 0 0 1 57.415889 12.797003 115.983507 115.983507 0 0 1 40.993067 35.95958 173.570022 173.570022 0 0 1 25.16744 54.515234A249.669536 249.669536 0 0 1 1024.396003 170.664249v455.146754q-223.734276 0-402.93498-1.109074h-149.938222q-74.947783 0-134.112596-0.554537t-97.897075-0.426567H196.259258a92.351708 92.351708 0 0 0-48.031419 14.034047 153.56404 153.56404 0 0 0-42.187455 38.391011 206.970201 206.970201 0 0 0-30.456868 56.178844 193.149438 193.149438 0 0 0-11.687929 66.885671 226.89087 226.89087 0 0 0 12.285123 76.78202 186.409682 186.409682 0 0 0 32.205792 57.885112 152.071057 152.071057 0 0 0 43.936378 36.514117 99.560686 99.560686 0 0 0 47.434226 12.797003h800.025994a29.859675 29.859675 0 0 1 17.062671 5.076145 18.129088 18.129088 0 0 1 7.550232 16.422821zM519.55422 0.037538v435.098114l90.176217-121.571532 89.024487 121.571532V0.037538z" fill="#FF9900" p-id="4222"></path></svg>