<?xml version="1.0" standalone="no"?><!DOCTYPE svg PUBLIC "-//W3C//DTD SVG 1.1//EN" "http://www.w3.org/Graphics/SVG/1.1/DTD/svg11.dtd"><svg t="1732356431488" class="icon" viewBox="0 0 1299 1024" version="1.1" xmlns="http://www.w3.org/2000/svg" p-id="6505" xmlns:xlink="http://www.w3.org/1999/xlink" width="253.7109375" height="200"><path d="M19.534 22.412v106.202l361.083 382.323 21.24-21.24L19.534 22.413z m456.665 446.046L348.758 574.659l42.48 21.24 106.2-84.96z m14.868 169.922l38.233-38.233-38.233-57.349-57.349 38.233z m303.736-531.007L603.64 341.017l446.046-63.72-254.883-169.922zM518.68 510.938L582.4 702.1l276.123-233.642L709.842 638.38l276.122 21.24 21.24-233.643-84.96-84.96-403.565 169.921zM667.36 702.1L539.92 829.542v169.922h467.285L837.283 787.06l84.96-84.96H667.361z" p-id="6506"></path><path d="M964.724 702.1l-84.96 84.96 191.162 233.643h223.022l-265.503-191.161-21.24-106.202-42.48-21.24z" fill="#FCAA51" p-id="6507"></path></svg>