<?xml version="1.0" standalone="no"?><!DOCTYPE svg PUBLIC "-//W3C//DTD SVG 1.1//EN" "http://www.w3.org/Graphics/SVG/1.1/DTD/svg11.dtd"><svg t="1733878369547" class="icon" viewBox="0 0 1024 1024" version="1.1" xmlns="http://www.w3.org/2000/svg" p-id="3191" xmlns:xlink="http://www.w3.org/1999/xlink" width="128" height="128"><path d="M504.867667 960.168035c6.263022 5.096839 14.003344-4.156369 8.885154-9.717851C506.624567 949.786263 506.714039 955.887626 504.867667 960.168035z" p-id="3192"></path><path d="M327.183904 1008.734924c-5.829897 2.23171-10.121491-2.732955-11.841788 2.775657 14.337847-0.133191 27.319383 12.071568 45.905104 12.489442C357.096951 1012.153151 335.776242 1016.411193 327.183904 1008.734924z" p-id="3193"></path><path d="M32.535156 674.323103c1.733515-0.205378 4.199072 0.237913 4.432918-1.383762 0.540897-12.015648 1.434598-24.348515-8.884137-31.919044 5.818713-1.283106 3.737479 4.82639 10.366521 2.779724-0.030502-8.383909-5.884801-11.99328-13.330273-9.715818-1.186517-6.28539-8.920739-6.439932-5.915302-16.647844l-4.444102 0c0.155559 33.996212 7.330583 74.847179 20.733043 108.22929C53.52543 719.341624 33.105538 689.569901 32.535156 674.323103z" p-id="3194"></path><path d="M636.656493 944.903953c0.402623 2.959685 7.530877 6.662595 8.879054 4.162469C641.924142 948.296762 642.380651 943.697101 636.656493 944.903953z" p-id="3195"></path><path d="M309.414613 1005.955199c-3.569719-2.661784-5.8726-6.512119-8.878037-9.708701-3.372475-1.003507-7.572563-1.24142-10.366521-2.777691-30.944005-23.104044-66.542575-33.569188-91.812242-61.058364-27.036734-6.644294-33.764399-39.456022-62.180827-40.233816 11.625226 13.491932 21.013659 30.052338 35.533499 40.233816 3.82085 2.678052 9.17187 2.649584 13.329256 5.553348 7.617299 5.336786 13.028306 14.220923 20.725926 19.424519 4.23669 2.864112 10.252648 5.676372 14.812657 8.335106 25.850216 15.039386 58.564339 36.081514 87.360006 41.625711C309.510185 1007.403015 311.706309 1006.689274 309.414613 1005.955199z" p-id="3196"></path><path d="M102.215342 94.225945c29.144403 17.264996 62.145242-7.524777 65.151696-31.919044-4.704384-49.817459-74.460824-44.07805-79.951135-2.778708C86.257853 68.182551 90.570798 87.32137 102.215342 94.225945z" p-id="3197"></path><path d="M19.203866 264.980732c6.204052-7.550195-15.950372-19.997951-17.769291-6.929993C4.662675 262.888313 10.139769 265.618218 19.203866 264.980732z" p-id="3198"></path><path d="M51.779714 747.868875c1.332926-7.643734-5.674339-14.720135-8.883121-22.202209-0.270449 2.052766-3.587003 1.273956-5.92852 1.386812 6.665645 13.176747 6.191851 33.053708 16.295041 43.018624 5.644854 29.85611 30.631871 53.627126 44.417636 80.478815 11.7574 7.475974 17.331083 20.756427 29.61718 27.746407-1.59524-11.457467-12.857496-13.856936-13.336373-26.365696C84.529422 825.406307 74.295075 780.875814 51.779714 747.868875z" p-id="3199"></path><path d="M100.637386 629.922751l5.932587 0c-0.340603-2.621115 1.662344-3.058307 1.469167-5.548265-2.032432 0.056937-3.244367-0.653754-4.445119-1.388845-0.438208 2.725838 2.002947 2.754306 2.975952 4.161453C105.646787 629.067686 100.858015 627.356539 100.637386 629.922751z" p-id="3200"></path><path d="M87.31423 578.580205c1.103146-0.585633 2.993236-8.070758-2.962735-8.320872C85.248246 573.116329 81.961176 579.898897 87.31423 578.580205z" p-id="3201"></path><path d="M1006.831593 517.525908c26.204037-32.251513 9.951698-82.137093 1.473234-124.884251-6.178634-31.153451-21.253606-60.278536-26.654445-86.02403-2.442172-3.725278-8.073808-4.46037-10.357371-8.327989-17.641184-62.568199-53.239754-108.287243-96.247193-147.086461-9.532807 1.778251-13.220467 0.487011-20.727959 4.166536-1.313608-2.466573-4.139085-3.52905-2.963751-8.331039-6.800869 0.617152-13.425845 2.926133-13.329256-5.551315 8.562852 0.58665 13.730862 1.1794 23.696794 2.784808-3.413144-4.409533-4.744036-3.535151-2.962735-11.09958C796.006683 69.381269 696.344313 24.431886 590.746306 13.833551c-45.073424-9.143402-91.868162-6.64531-136.217677-1.388845-18.472865 2.187991-34.54321 13.93319-54.791275 11.10568-38.741264 15.027186-81.618563 26.194886-112.525967 48.557738-4.043513 0.127091-2.975952-2.311014-5.922419 0-18.788049 14.311412-43.396845 23.178265-59.230293 40.252117-34.309363 19.642098-58.640593 48.645176-88.841373 72.143709-0.8815 4.424784 2.777691 4.28651 0 6.945244-18.195299 7.316348-18.544035 23.09591-28.140896 37.466292 3.851352 0.556148 4.282443 4.307861 5.93157 6.939144-17.654402 17.845546-15.440993 59.584113-45.905104 61.04718 15.741943 16.670212-1.018758 38.681278-13.330273 51.343563 5.489295 6.137965-2.104619 11.840772-4.440035 15.258999 1.800619 10.826081-5.266632 17.973653-1.486451 26.366712-8.501849 19.013762-28.603506 27.333617-23.683577 48.560788-4.530524 1.003507-5.40084-1.40613-8.885154-1.386812-0.870316 2.88343-2.844795 4.733869-5.922419 5.554365-3.894054 26.087113-2.033449 59.984703-1.482384 92.971307 0.258248 15.412524 5.021602 29.252176 5.922419 43.009473 0.845915 12.80361-5.478111 28.497767 7.407854 36.084564 4.199072 0.239947-1.792485-9.084432 4.440035-6.949311 3.660208 1.198718 5.429308 4.164503 5.915302 8.324939 0.605968 6.119664-7.091652 4.461386-4.440035 12.493509 12.153923 1.660311 13.811183-11.447299 25.173078-16.653945-1.333942-4.058764-1.333942-4.258042 0-8.325956 4.571193-4.579326 8.548618-1.158049 11.847889-6.93711-6.381979 1.52712-6.886274-1.038076-10.366521-1.387829 5.015501-9.847992 9.232874-22.312016 22.216444-20.810314 1.329875-6.545671-8.226317-1.301407-4.447152-5.548265 0.99029 3.828984 5.104973-6.351477 0-1.380712-1.084845-4.299727 8.784498-10.250615 16.294024-11.10568-1.517969-1.34716-2.999337-2.743122-4.450202-4.167553 8.181581-19.247609-16.816621-52.990656 2.968835-63.829954 0.084388-30.66644-8.536418-50.624739-1.488484-84.643318-0.389405-4.7054-7.624416-3.025772-7.40277-8.313755 1.405113-4.249908 7.205525-4.356664 7.40277-9.715818 8.2253-21.548456 7.362101-40.234832 10.366521-61.05938 3.136595-21.720282 24.476622-36.710866 20.726942-61.05328 9.803256-5.812613 14.956015-21.150917 14.819774-31.911927 11.090429 2.571296 24.222441-1.318691 28.129712-9.715818-0.931319-6.52432-6.923893-8.319855-7.410904-15.258999 13.804066-24.990068 40.181963-38.207484 53.309908-63.836055 9.328446 1.342076 9.166787-6.207102 13.323156-9.703617 68.895275-47.962954 167.972012-81.300329 273.935023-74.941735 2.302881 1.99888 5.141575 3.500582 5.913269 6.944227 9.432152 1.798585 17.782509 4.608811 28.138863 5.551315 12.730406 12.692787 37.818079 13.111677 56.259425 20.806247 24.933131 10.409224 53.192984 24.286494 78.480952 33.31399 35.653473 12.715155 75.480599 24.814174 100.683162 45.786147 28.772282 23.925557 36.635628 59.734589 53.308891 92.966224 6.743933 13.428895 14.848242 24.819258 20.738126 38.857171-7.923333-4.609828-15.361688-9.658881-19.248625-18.041773-4.537641 1.009607-4.364798-2.393369-8.886171-1.389862-7.602048-10.915553-19.471288-17.830295-34.057215-22.202209-9.330479-14.255492-31.32121-18.073292-47.381388-24.968716-12.527061-5.382539-21.711132-20.634421-35.539599-20.821498 0.174877 8.135828 9.562292 7.896898 11.840772 6.938127 0.71374 4.372931-4.548825 3.145745-2.956634 8.320872 5.794312 8.056524 14.085699 10.778295 20.727959 18.043807 3.101009 3.397893 3.743579 9.644647 7.406837 13.876254 13.315022 15.360671 36.031694 23.922507 48.864789 38.84802 6.98388 8.138878 10.833198 18.084476 19.245575 24.978884 6.4684 5.309335 14.583894 6.572106 20.736093 11.09958 12.261696 9.055964 19.866794 26.85779 32.573815 34.689618 11.151433 16.831872 24.559993 31.563191 42.935252 41.627745 3.251484 7.122154 6.165416 15.774478 1.488484 23.588005-15.28035-7.886731-19.581094-26.048478-32.581948-36.07338-14.528991-27.085537-42.76851-41.329845-63.675412-62.441109-3.486348 0.033552-4.355647-2.393369-8.879054-1.390879-25.343888-23.667309-61.34508-44.610814-103.015527-48.501818 3.895071-1.376645 7.831828-3.033905 11.814337-4.98805 13.473631-6.615825 20.21553-11.39443 20.21553-14.334797 0-4.41055-6.982863-8.93599-20.949605-13.598688-13.965726-4.651514-43.622558-6.982863-88.945079-6.982863-45.334722 0-80.618107 3.192514-105.852188 9.556192-25.246282 6.374862-42.394355 11.761467-51.456419 16.172017-9.073248 4.41055-16.792219 6.615825-23.15488 6.615825l-8.8211-0.735092c-3.927606 0-9.188138 3.192514-15.803963 9.556192-6.615825 6.374862-9.92323 11.393413-9.92323 15.068871 0 3.675459 2.205275 7.236027 6.615825 10.658321 4.41055 3.434495 8.086009 11.761467 11.026376 24.993118 2.940367 13.231651 4.41055 28.668576 4.41055 46.310777 0 17.642201-2.573329 40.188063-7.717954 67.628436-5.145642 27.451557-12.014632 50.847401-20.582568 70.200749-8.57912 19.365549-12.863596 40.188063-12.863596 62.482795 0 22.304899 2.814293 33.446164 8.453046 33.446164 5.627569 0 17.148073-18.251219 34.54931-54.763823 17.389036-36.501421 29.276577-85.385527 35.651439-146.650286 0.482944-4.893494 2.079201-8.695027 4.777588-11.393413 2.688219-2.688219 9.924246-6.489751 21.685714-11.39443 11.76045-4.893494 25.106991-9.303028 40.061989-13.231651 14.942798-3.916422 25.843099-5.880734 32.711072-5.880734 6.856789 0 10.291284 2.699403 10.291284 8.086009 0 6.374862-0.735092 10.544448-2.205275 12.496559-1.470183 1.964311-4.169587 3.434495-8.086009 4.41055l-36.019493 7.350917c-18.136329 3.434495-29.529742 7.350917-34.181256 11.761467-4.663715 4.41055-6.982863 14.219907-6.982863 29.403668 0 6.374862 0.240964 13.598688 0.735092 21.685714 0.482944 8.086009 0.735092 18.009238 0.735092 29.771722 0 11.76045-1.964311 26.588358-5.879717 44.47254-3.928623 17.895365-6.616842 41.049229-8.086009 69.465657 0 3.927606-2.572313 7.971119-7.718971 12.128505-5.145642 4.170603-11.152449 6.248788-18.009238 6.248788-0.494128 0-10.659338-0.609018-30.506814-1.838238-19.847476-1.217019-38.718896-1.837221-56.602061-1.837221-17.894348 0-30.390907 0.126074-37.489677 0.367037-7.109953 0.252148-12.496559-0.240964-16.172017-1.470183-3.675459-1.217019-5.513696-3.422294-5.513696-6.615825 0-3.18133 4.651514-7.592897 13.966742-13.231651 9.303028-5.628586 16.412981-13.599705 21.317659-23.890989 4.893494-10.291284 7.350917-18.376276 7.350917-24.257009s-2.699403-8.8211-8.086009-8.8211c-3.927606 0-11.761467 4.043513-23.522934 12.128505-11.761467 8.086009-24.752154 18.136329-38.95986 30.139776-14.21889 12.013615-25.61332 19.97355-34.182272 23.889972-8.57912 3.927606-16.172017 11.27954-22.787843 22.051734-6.615825 10.785412-9.924246 20.10064-9.924246 27.934501 0 7.845045 1.34411 15.803963 4.043513 23.889972 2.688219 8.086009 6.121697 12.129521 10.291284 12.129521 4.157386 0 11.141265-3.422294 20.949605-10.291284 6.362661-4.41055 18.377293-7.223826 36.019493-8.453046 17.642201-1.217019 52.306401-1.838238 104.014967-1.838238 51.697383 0 105.117096 4.536624 160.248974 13.598688 55.132894 9.074265 93.965664 18.492182 116.512543 28.301539 40.176879 17.148073 69.580547 25.72821 88.209987 25.72821 18.619273 0 32.826979-4.536624 42.636335-13.598688 9.797156-9.074265 20.214513-26.705282 31.240889-52.926602 3.682576-8.75298 6.735799-16.710881 9.188138-23.908273l4.336329 0c2.022265-1.772151 2.022265-6.546688 0-8.327989-0.64562-0.037619-1.202785 0.008134-1.701997 0.105739 3.134561-10.501746 4.717601-19.041214 4.717601-25.574684 0-2.446239-0.735092-3.675459-2.205275-3.675459-1.469167 0-4.662698 4.411567-9.555175 13.232667-4.904678 9.314212-13.484815 13.965726-25.72821 13.965726-10.785412 0-24.510174 4.663715-41.165135 13.966742-5.880734 3.434495-12.622633 5.145642-20.21553 5.145642-7.604081 0-25.119192-3.307404-52.557531-9.92323-27.451557-6.615825-75.714445-12.863596-144.813065-18.745347-3.927606-0.482944-5.880734-1.838238-5.880734-4.043513s1.838238-4.043513 5.513696-5.513696c3.674442-1.469167 15.183761-3.674442 34.548293-6.615825 19.353348-2.940367 37.363603-4.41055 54.029748-4.41055l31.608943 1.470183c12.243395 0 21.92566-1.712164 29.035614-5.146659 7.097753-3.422294 11.877374-7.958918 14.334797-13.598688 2.446239-5.627569 3.675459-15.310852 3.675459-29.036631 0-31.355779-1.22922-56.843025-3.675459-76.44852-0.493111-6.856789 0.736108-17.883164 3.675459-33.079127 2.940367-15.183761 6.363678-26.210137 10.291284-33.079127 3.917439-6.856789 5.880734-12.370485 5.880734-16.540072 0-4.157386-3.434495-8.567936-10.291284-13.231651-6.86899-4.651514-19.365549-6.98388-37.489677-6.98388l-56.602061 2.205275c-8.338156 0-12.496559-4.893494-12.496559-14.701834 0-1.952111 0.367037-4.157386 1.103146-6.615825 0.735092-2.446239 7.958918-4.157386 21.684697-5.145642 13.713578-0.976055 25.72821-1.470183 36.019493-1.470183s20.949605 0.367037 31.975981 1.102129c11.026376 0.735092 19.112384 0.126074 24.258026-1.838238 5.145642-1.952111 10.291284-6.615825 15.436926-13.966742s7.718971-12.243395 7.718971-14.701834c0-7.833861-12.129521-13.598688-36.387548-17.275163-24.257009-3.675459-54.281896-5.512679-90.047208-5.512679-6.374862 0-10.291284-1.217019-11.761467-3.675459-1.469167-2.446239-2.205275-6.856789-2.205275-13.231651 0-6.362661 5.386606-9.556192 16.172017-9.556192 3.422294 0 9.303028 0.367037 17.642201 1.102129 8.326972 0.735092 18.745347 1.102129 31.241906 1.102129 8.663508 0 17.559846-1.593207 26.695114-4.772504 14.480188 18.676209 38.759565 28.170381 59.041183 41.401015 0.870316 12.597215 13.805083 13.898622 23.692727 18.043807 0.334502 2.622132-1.668445 3.062374-1.476284 5.549281 38.244086 31.223605 64.215293 73.951445 99.208911 108.224206 6.081028 17.713372 34.098901 47.475943 34.049082 67.994457-0.024401 8.894305-9.124084 19.229308-11.840772 30.536299-1.787401 7.394636-2.164606 15.378972-2.969852 22.191026-1.067561 9.139335-3.743579 17.221277-4.438002 24.9738-1.537287 17.094186 8.265969 33.657643 7.407854 49.9537-2.081235 39.382817-32.408088 63.097913-42.946436 90.199717-27.244146 18.402711-42.956604 47.618285-74.032783 62.442126-0.562249 4.548825-4.328196 6.116614-5.925469 9.707684-32.683621 11.416798-50.651173 34.358166-93.280392 33.308906-4.446136 5.084638-9.328446 9.74937-16.288941 12.481308-15.405407-3.594121-28.639091 6.926943-37.01385 9.720901-12.179341 4.057747-36.685448 2.782775-48.864789 4.164503-50.41021 5.689589-113.041446-3.968275-158.439205-15.269166-12.225094-3.045089-25.478095-10.947071-34.049082-13.869137-19.56381-6.69208-34.958033-2.337449-41.461002-18.043807-5.309335 0.504295-5.428291 3.724261-10.366521 1.388845-18.081426-12.325749-38.676194-22.811227-57.749943-30.526132-16.39468-29.50534-51.777704-41.205804-68.107314-70.778248-34.645899-18.401694-46.931996-57.768244-74.034817-83.247356-7.925366 7.532911 8.674692 25.290001-2.958668 34.688601 6.263022 13.768481 11.901775 38.220702 8.886171 58.282706 11.552022 4.837574 17.618816 22.862064 2.950534 27.73929-0.708657 10.903352 12.591114 25.042937 10.371605 37.478493 8.663508 2.248994 12.245428-0.443292 14.807573-6.94016 5.992573 7.109953 6.112547 20.38634 10.358388 29.14237 8.028055 1.495602 6.415531-6.026125 13.325189-5.555382 2.567229 4.535607 8.008738 6.369778 13.324173 8.325956-3.076608 10.2862 7.258395 8.007721 10.372622 12.486392-1.752833 0.680189-3.365358 1.480351-4.445119 2.772607 9.9944-4.824357 8.655374 7.46479 11.846872 11.106697 6.594474 7.52681 23.781182 12.475208 20.727959 26.362646 11.393413-2.823444 8.134811-9.734119 14.80554-12.486392 5.820747 9.853076 11.116864 6.590407 22.210343 15.264083 2.326265-5.263582 9.934414-12.850379 8.889221-16.649878-0.144375 6.068828-7.22891-1.437648-7.40277-4.163486 6.640227-13.469564 0.978089-27.27058 2.951551-38.855138 12.279997 6.070861 14.067398 21.965313 23.697811 30.528165-1.080778 9.498239-9.958815 14.98855-10.360421 26.362646 6.773418 6.204052 16.306225 12.233227 28.129712 9.716835 13.57632 7.16079 15.466411 25.2717 22.21441 38.847004 7.049967 0.513446 8.106343 0.46566 14.79944 2.778708-0.191144 3.415177-0.222663 6.685979 1.4773 8.321889 16.27979 1.927709 20.707625-10.202829 35.543666-5.550298 23.169114-21.396964 57.261915-8.195815 88.83629-12.486392 1.684712-10.81693 9.868326-8.022972 19.252692-12.489442 2.854962 4.438002-0.869299 6.99913 1.480351 12.489442 2.029382 2.717704 8.93294 0.883533 8.886171 5.549281 10.077772-3.59107 21.933794-11.51542 11.840772-15.257982 12.28203-3.278936 19.398084-7.22586 31.101598-8.327989 2.182907 6.078995 7.096736 4.234657 4.440035 12.487408 21.188535-1.003507 35.629071-1.837221 51.820406-5.549281 2.328299 2.444205 0.419907 8.860753 4.451219 9.710734 9.819524 3.99471 12.160023-8.196832 25.172061-5.549281 2.40557 2.660768 2.549945 11.621159-1.487468 12.486392 8.807883 5.743476 14.524924-1.383762 26.656479 0 3.141678-2.139188 6.58939-3.99471 10.364488-5.549281 32.534162-1.183467 48.65331-19.728519 69.589698-30.523082 8.358491-4.313961 16.041877-7.512576 22.216444-12.487408 45.462829-36.72815 81.224074-86.78454 122.897572-126.271063 6.761217-15.397273 20.482929-24.285478 31.094481-36.08558 4.362764 0.903868 5.99359 8.960392 10.360421 5.555382 11.638444-6.753083 1.320725-35.517231 19.252692-33.299756 14.620496 1.806719 8.753997 25.255433 10.365505 40.237883 0.910985 8.489648 5.945804 15.574183 5.919369 23.592072-0.034569 11.196168-6.007824 19.614646 1.484418 24.9738 13.954542-7.034716 17.936034-25.312369 20.726942-38.851071 7.534944-36.580725 5.76381-80.335457 8.882104-117.945107 0.28875-3.510749 2.925116-7.706771 2.959685-11.097546 0.094555-7.690503-4.384115-14.536108-4.445119-22.202209C993.326443 566.768918 1021.797775 544.611445 1006.831593 517.525908zM547.98593 322.24163c-12.990687 2.457423-26.348411 6.006807-40.061989 10.658321-13.725779 4.663715-28.427613 6.98388-44.105502 6.98388-1.964311 0-4.043513-0.735092-6.248788-2.205275s-3.308421-3.790348-3.308421-6.98388c0-3.18133 3.308421-6.615825 9.924246-10.291284 6.615825-3.675459 21.065512-9.063081 43.37041-16.172017 22.293715-7.097753 37.856714-10.658321 46.677815-10.658321s13.231651 3.193531 13.231651 9.556192C567.465352 313.42053 560.964416 319.794375 547.98593 322.24163zM637.299063 583.932242c-17.642201 0.494128-39.580062 2.941384-65.790199 7.350917-26.222338 4.41055-49.377218 9.314212-69.465657 14.701834-1.964311 0.493111-3.675459 0.735092-5.145642 0.735092-4.411567 0-6.616842-1.217019-6.616842-3.675459 0-2.446239 0.609018-5.386606 1.838238-8.8211 1.217019-3.422294 2.688219-5.880734 4.41055-7.3499 1.712164-1.470183 12.003448-4.41055 30.873851-8.822117 18.860237-4.41055 38.706696-8.199882 59.542428-11.393413 20.823531-3.18133 36.386531-4.777588 46.677815-4.777588s16.172017 0.861166 17.643218 2.572313c1.469167 1.722331 2.205275 5.398806 2.205275 11.026376C653.47108 581.118966 648.072274 583.932242 637.299063 583.932242zM643.179797 523.655739c-23.03999 0-43.864538 1.355294-62.482795 4.043513-18.62944 2.698386-40.682191 7.717954-66.157236 15.068871-7.845045 1.964311-11.761467 0.367037-11.761467-4.778604 0-5.145642 3.675459-9.555175 11.027392-13.231651 7.3499-3.675459 24.372916-8.326972 51.088365-13.965726 26.704265-5.628586 52.800529-8.453046 78.286758-8.453046 7.832844 0 11.761467 3.560569 11.761467 10.658321C654.941264 520.106355 651.012641 523.655739 643.179797 523.655739zM640.238413 436.914919c4.411567 0 8.695027 1.355294 12.864613 4.043513 4.157386 2.699403 6.248788 6.500935 6.248788 11.39443 0 5.880734-4.170603 8.8211-12.496559 8.8211-31.862107 0-56.488188 0.620202-73.876208 1.838238-17.401237 1.228203-33.2052 3.801532-47.413923 7.717954-1.964311 0.494128-3.675459 0.735092-5.145642 0.735092-4.41055 0-6.615825-1.585073-6.615825-4.778604 0-3.18133 1.102129-5.75466 3.307404-7.717954 2.205275-1.952111 9.671082-4.52544 22.420805-7.717954 12.737523-3.18133 29.644632-6.363678 50.721327-9.556192C611.317689 438.512193 627.983835 436.914919 640.238413 436.914919zM153.940176 781.168631c-5.243247-0.749326-3.635806 4.913829-8.879054 4.166536-3.99471-3.17218-2.868179-7.011331-4.444102-9.719885 2.530627-1.801636 8.34324 0.863199 13.323156-1.382745C152.902101 778.501763 152.902101 776.898389 153.940176 781.168631zM275.362481 826.963929c-3.093892-0.803212-4.228557-3.443645-8.884137-2.777691-0.336536-2.46759 1.486451-6.954395-2.958668-5.547248 4.883327-4.565092-3.976409-3.319605-2.968835-8.326972 5.316452-0.81643 7.175024 1.605408 10.372622 2.775657C267.576406 818.710161 276.51443 816.93191 275.362481 826.963929zM416.026294 910.213318C407.651536 887.779296 438.270189 905.841403 416.026294 910.213318L416.026294 910.213318zM444.168207 910.213318c0.118957-1.968378 0.233847-3.923539-1.488484-4.163486 0.384322-3.245384 6.503986-0.795078 7.40887 0C448.800403 908.090398 447.862983 910.453265 444.168207 910.213318z" p-id="3202"></path><path d="M854.318874 700.686765c-1.901275 1.830104-1.901275 5.116157 0 6.942194l5.927503 0C861.349523 702.422314 858.566749 700.864692 854.318874 700.686765z" p-id="3203"></path><path d="M915.024435 814.47042c13.305871 1.370544 21.843306-1.729448 28.137846-6.932027C935.320286 802.543227 920.501529 808.701526 915.024435 814.47042z" p-id="3204"></path><path d="M368.651006 181.733376c3.780181-0.149458 7.05505-0.786945 8.886171-2.771591C374.93843 175.564909 369.095315 176.142409 368.651006 181.733376z" p-id="3205"></path><path d="M164.312798 577.189326l0-4.157386c-4.181787 1.145848-3.840168-1.957194-7.410904-1.384779C155.763163 577.055119 161.805556 579.377317 164.312798 577.189326z" p-id="3206"></path><path d="M322.744886 191.449194c-11.621159-0.264348-14.770971 7.429205-23.691711 9.709717C307.386248 203.541097 320.338299 199.153931 322.744886 191.449194z" p-id="3207"></path><path d="M344.953195 423.172873c-17.312782-18.621306-35.455211 14.179238-14.80554 16.653945 7.662035 0.910985 9.120017-3.397893 14.80554-6.944227L344.953195 423.172873z" p-id="3208"></path><path d="M270.489321 287.324266c-7.350917 1.22922-13.116761 1.838238-17.274147 1.838238-4.169587 0-7.350917-1.102129-9.556192-3.307404s-5.145642-3.307404-8.8211-3.307404c-3.675459 0-7.971119 3.433478-12.864613 10.291284-4.904678 6.86899-7.350917 14.953982-7.350917 24.258026 0 24.017062 10.039136 36.019493 30.13876 36.019493 8.8211 0 21.558623-2.446239 38.224768-7.350917 16.653945-4.893494 33.194016-12.496559 49.618181-22.787843 16.412981-10.291284 24.62608-16.907109 24.62608-19.847476s-4.536624-5.260532-13.598688-6.982863c-9.074265-1.712164-16.425182-3.917439-22.052751-6.615825-5.63977-2.687202-13.598688-4.042496-23.890989-4.042496C286.903319 285.487045 277.840238 286.107247 270.489321 287.324266z" p-id="3209"></path><path d="M228.590111 539.827757c7.350917 0 18.251219-2.205275 32.711072-6.615825 14.44867-4.41055 29.035614-10.900302 43.737448-19.479422 14.701834-8.568953 23.15488-15.436926 25.360155-20.582568 2.205275-5.145642 3.307404-9.429102 3.307404-12.863596 0-3.422294-1.964311-5.145642-5.880734-5.145642-3.928623 0-12.013615 1.964311-24.258026 5.880734-12.255595 3.928623-24.62608 9.682266-37.122639 17.275163-12.496559 7.604081-19.97355 11.393413-22.419789 11.393413-2.457423 0-4.29566-0.482944-5.512679-1.470183-1.22922-0.976055-3.066441-1.469167-5.512679-1.469167-2.457423 0-5.63977 2.205275-9.556192 6.615825-3.928623 4.41055-5.880734 9.924246-5.880734 16.540072S221.239194 539.827757 228.590111 539.827757z" p-id="3210"></path><path d="M235.941028 446.471111c6.362661 0 22.534678-4.52544 48.516052-13.598688 25.969173-9.062064 42.509245-15.918853 49.618181-20.582568 7.097753-4.651514 10.658321-9.430118 10.658321-14.334797 0-6.856789-5.880734-10.291284-17.642201-10.291284-32.838163 0-58.566372 3.801532-77.184629 11.39443-18.630457 7.604081-27.933485 19.238458-27.933485 34.916347C221.973269 442.313725 226.6258 446.471111 235.941028 446.471111z" p-id="3211"></path><path d="M464.513878 938.966283l3.073558 0 0-0.739159-1.000457 0 0-3.562602-0.833714 0 0 3.562602-1.239387 0 0-3.252501-0.833714 0 0 6.088145c0 2.025315-0.2857 3.535151-0.858115 4.527474 0.2857 0.237913 0.516496 0.46871 0.691373 0.691373 0.623252-1.219052 0.954704-2.779724 0.995373-4.682016l1.316658 0 0 4.515273 0.833714 0 0-5.254431-2.144272 0L464.514895 938.966283z" p-id="3212"></path><path d="M473.997883 938.989667l0-0.714757-5.027702 0 0-1.966345c1.397996-0.023385 3.220983-0.162676 5.46896-0.416857l-0.321285-0.8815c-1.668445 0.293833-3.662241 0.460576-5.981389 0.500228l0 4.742002c0 1.239387-0.087438 2.220526-0.262315 2.943417-0.18301 0.746276-0.528697 1.52102-1.037059 2.323215 0.206395 0.230796 0.404656 0.484978 0.5958 0.762543 1.024858-1.389862 1.537287-3.189464 1.537287-5.39779l0-1.822987 0.566315 0c0.230796 1.898224 0.741192 3.40196 1.531187 4.510189-0.647653 0.655787-1.568806 1.272939-2.764473 1.852472 0.222663 0.2857 0.416857 0.568349 0.5836 0.845915 1.151949-0.662904 2.0548-1.334959 2.710587-2.013114 0.564282 0.619185 1.360377 1.243454 2.389302 1.870773 0.198261-0.262315 0.441258-0.556148 0.726958-0.8815-1.112296-0.504295-1.958211-1.060443-2.537744-1.668445C473.072663 942.425179 473.680665 940.896025 473.997883 938.989667zM470.37021 939.060838l2.722788 0c-0.274516 1.608458-0.756443 2.885464-1.447815 3.831017C470.993462 941.895465 470.568471 940.61846 470.37021 939.060838z" p-id="3213"></path><path d="M480.098229 940.872641c-0.437191-0.52463-1.012657-1.12348-1.727415-1.799602l-0.512429 0.476844 0-1.572873 1.679629 0 0-0.833714-1.679629 0 0-2.525543-0.905901 0 0 2.525543-1.858572 0 0 0.833714 1.70403 0c-0.404656 1.53322-1.012657 2.919016-1.822987 4.158403 0.158609 0.357887 0.293833 0.706623 0.404656 1.048243 0.619185-0.921152 1.143815-2.049716 1.572873-3.383659l0 6.529404 0.905901 0 0-6.564989c0.484978 0.508362 0.99334 1.100096 1.525087 1.775201L480.098229 940.872641z" p-id="3214"></path><path d="M486.067417 936.261796l0-0.869299-6.767317 0 0 0.893701 0.739159 0c0.2857 2.93935 1.028925 5.162926 2.227643 6.672762-0.8815 0.8815-2.160539 1.716231-3.836101 2.502159 0.270449 0.318235 0.492095 0.619185 0.666971 0.905901 1.620659-0.818463 2.88343-1.699963 3.789332-2.645517 0.810329 0.866249 1.898224 1.652177 3.264702 2.3588 0.191144-0.2857 0.456509-0.615118 0.798129-0.989273-1.414264-0.564282-2.549945-1.279039-3.40806-2.144272C484.852432 941.253912 485.694279 939.025253 486.067417 936.261796zM480.991929 936.285181l4.06283 0c-0.333486 2.478774-1.048243 4.452236-2.144272 5.921403C481.869362 940.824855 481.23086 938.850376 480.991929 936.285181z" p-id="3215"></path><path d="M493.169237 937.970909c-0.210462 0-0.391439 0.073204-0.541914 0.220629s-0.22673 0.323318-0.22673 0.529713 0.073204 0.384322 0.220629 0.532764 0.329419 0.223679 0.548014 0.223679 0.401606-0.074221 0.548014-0.223679 0.220629-0.326369 0.220629-0.532764-0.075238-0.383305-0.22673-0.529713S493.379699 937.970909 493.169237 937.970909z" p-id="3216"></path><path d="M493.169237 943.339214c-0.210462 0-0.391439 0.073204-0.541914 0.220629s-0.22673 0.325352-0.22673 0.535814c0 0.214529 0.075238 0.394489 0.22673 0.538864s0.331452 0.217579 0.541914 0.217579 0.391439-0.072187 0.541914-0.217579 0.22673-0.324335 0.22673-0.538864c0-0.210462-0.075238-0.389405-0.22673-0.535814S493.379699 943.339214 493.169237 943.339214z" p-id="3217"></path><path d="M506.776059 944.702641l1.966345-6.588374-1.131614 0-1.287173 4.891461c-0.064054 0.230796-0.099639 0.433125-0.106756 0.608001l-0.053886 0c-0.023385-0.262315-0.05592-0.464643-0.095572-0.608001l-1.381728-4.891461-1.078745 0-1.41833 4.867059c-0.059987 0.194194-0.097606 0.401606-0.112856 0.619185l-0.047786 0c-0.020334-0.254181-0.049819-0.454476-0.089472-0.601901l-1.316658-4.88536-1.214986 0 1.977529 6.588374 1.1794 0 1.41833-4.635246c0.079304-0.246047 0.125057-0.452442 0.137258-0.619185l0.023385 0c0.016268 0.222663 0.051853 0.433125 0.106756 0.631386l1.310558 4.623046L506.776059 944.701625z" p-id="3218"></path><path d="M515.956063 943.004712c-0.064054 0.230796-0.099639 0.433125-0.106756 0.608001l-0.053886 0c-0.023385-0.262315-0.05592-0.464643-0.095572-0.608001l-1.381728-4.891461-1.078745 0-1.41833 4.867059c-0.059987 0.194194-0.097606 0.401606-0.112856 0.619185l-0.047786 0c-0.020334-0.254181-0.049819-0.454476-0.089472-0.601901l-1.316658-4.88536-1.214986 0 1.977529 6.588374 1.1794 0 1.41833-4.635246c0.079304-0.246047 0.125057-0.452442 0.137258-0.619185l0.023385 0c0.016268 0.222663 0.051853 0.433125 0.106756 0.631386l1.310558 4.623046 1.214986 0 1.966345-6.588374-1.131614 0L515.956063 943.004712z" p-id="3219"></path><path d="M525.588509 943.004712c-0.064054 0.230796-0.099639 0.433125-0.106756 0.608001l-0.053886 0c-0.023385-0.262315-0.05592-0.464643-0.095572-0.608001l-1.381728-4.891461-1.078745 0-1.41833 4.867059c-0.059987 0.194194-0.097606 0.401606-0.112856 0.619185l-0.047786 0c-0.020334-0.254181-0.049819-0.454476-0.089472-0.601901l-1.316658-4.88536L518.67275 938.112234l1.977529 6.588374 1.1794 0 1.41833-4.635246c0.079304-0.246047 0.125057-0.452442 0.137258-0.619185l0.023385 0c0.016268 0.222663 0.051853 0.433125 0.106756 0.631386l1.310558 4.623046 1.214986 0 1.966345-6.588374-1.131614 0L525.588509 943.004712z" p-id="3220"></path><path d="M528.978268 943.327013c-0.218596 0-0.401606 0.073204-0.548014 0.220629s-0.220629 0.327385-0.220629 0.541914c0 0.206395 0.072187 0.384322 0.217579 0.532764s0.326369 0.223679 0.544964 0.223679c0.22673 0 0.41279-0.074221 0.560215-0.223679s0.220629-0.326369 0.220629-0.532764c0-0.210462-0.073204-0.390422-0.220629-0.538864S529.200931 943.327013 528.978268 943.327013z" p-id="3221"></path><path d="M534.792915 935.278623 531.510929 936.231294 531.510929 937.303938 533.631816 936.689837 533.631816 943.696084 531.563798 943.696084 531.563798 944.702641 536.854832 944.702641 536.854832 943.696084 534.792915 943.696084Z" p-id="3222"></path><path d="M538.52226 940.598125l3.508716 0 0 0.899801-3.508716 0 0-0.899801Z" p-id="3223"></path><path d="M546.958022 939.889468l0-0.023385c1.231253-0.345686 1.846371-1.122464 1.846371-2.329315 0-0.655787-0.237913-1.188551-0.714757-1.599307s-1.10823-0.616135-1.894157-0.616135c-0.806262 0-1.510852 0.174877-2.114787 0.52463l0 1.102129c0.572416-0.437191 1.181434-0.655787 1.829087-0.655787 1.131614 0 1.69793 0.506329 1.69793 1.518986 0 1.096029-0.741192 1.644043-2.222559 1.644043l-0.733058 0 0 0.964871 0.768644 0c1.672512 0 2.508259 0.5836 2.508259 1.751816 0 0.52463-0.186061 0.942503-0.557165 1.253621s-0.874383 0.467693-1.509836 0.467693c-0.794062 0-1.506785-0.244014-2.139188-0.733058l0 1.208885c0.535814 0.325352 1.24142 0.488028 2.114787 0.488028 0.99334 0 1.788418-0.254181 2.386252-0.762543s0.896751-1.177367 0.896751-2.008031c0-0.5958-0.193178-1.092979-0.58055-1.492551S547.624993 939.960639 546.958022 939.889468z" p-id="3224"></path><path d="M550.955782 940.598125l3.508716 0 0 0.899801-3.508716 0 0-0.899801Z" p-id="3225"></path><path d="M555.864527 936.50581 560.475372 936.50581 557.043927 944.702641 558.252812 944.702641 561.8632 935.880524 561.8632 935.474851 555.864527 935.474851Z" p-id="3226"></path><path d="M563.936301 943.327013c-0.218596 0-0.401606 0.073204-0.548014 0.220629s-0.220629 0.327385-0.220629 0.541914c0 0.206395 0.072187 0.384322 0.217579 0.532764s0.326369 0.223679 0.544964 0.223679c0.22673 0 0.41279-0.074221 0.560215-0.223679s0.220629-0.326369 0.220629-0.532764c0-0.210462-0.073204-0.390422-0.220629-0.538864S564.158964 943.327013 563.936301 943.327013z" p-id="3227"></path><path d="M566.935638 938.951032c-0.625285 0.660871-0.938437 1.532204-0.938437 2.611965 0 0.973005 0.289766 1.765033 0.869299 2.377102s1.346143 0.917085 2.29983 0.917085c0.71069 0 1.318691-0.150475 1.822987-0.452442l0-1.072644c-0.504295 0.373138-1.040109 0.560215-1.608458 0.560215-0.671038 0-1.204818-0.214529-1.599307-0.643587s-0.59275-1.022825-0.59275-1.781301c0-0.770677 0.209445-1.386812 0.628336-1.849422s0.961821-0.694423 1.629809-0.694423c0.568349 0 1.083828 0.17081 1.548471 0.512429l0-1.156016c-0.429058-0.214529-0.945554-0.321285-1.548471-0.321285C568.398704 937.959725 567.56194 938.290161 566.935638 938.951032z" p-id="3228"></path><path d="M575.499507 937.959725c-1.040109 0-1.864672 0.315185-2.472674 0.944537s-0.910985 1.488484-0.910985 2.576379c0 1.012657 0.293833 1.829087 0.8815 2.448272s1.374611 0.929286 2.3588 0.929286c1.008591 0 1.81282-0.319251 2.412687-0.958771s0.899801-1.479334 0.899801-2.52046c0-1.068577-0.280616-1.905341-0.842864-2.511309S576.48878 937.959725 575.499507 937.959725zM576.953423 943.252792c-0.349753 0.427024-0.858115 0.640536-1.525087 0.640536-0.647653 0-1.163133-0.218596-1.546438-0.655787s-0.574449-1.035025-0.574449-1.793502c0-0.782878 0.190127-1.397996 0.569366-1.846371s0.896751-0.673072 1.551521-0.673072c0.666971 0 1.175333 0.214529 1.525087 0.643587s0.52463 1.044176 0.52463 1.846371C577.478053 942.212683 577.303176 942.825768 576.953423 943.252792z" p-id="3229"></path><path d="M587.622928 937.959725c-0.973005 0-1.70403 0.448375-2.192058 1.346143-0.131157-0.41279-0.365004-0.741192-0.702557-0.983172s-0.726958-0.362971-1.1672-0.362971c-0.901834 0-1.587107 0.399573-2.0548 1.197701l-0.023385 0 0-1.042142-1.1672 0 0 6.588374 1.1672 0 0-3.747646c0-0.591734 0.146408-1.078745 0.438208-1.460016s0.659854-0.572416 1.105179-0.572416c0.964871 0 1.447815 0.625285 1.447815 1.876873l0 3.902188 1.1672 0 0-3.75273c0-0.548014 0.152509-1.022825 0.458543-1.423414s0.673072-0.601901 1.102129-0.601901c0.508362 0 0.873366 0.153525 1.096029 0.461593s0.333486 0.81948 0.333486 1.534237l0 3.783231 1.1672 0 0-4.06283C589.797702 938.852409 589.072777 937.959725 587.622928 937.959725z" p-id="3230"></path></svg>