<?xml version="1.0" standalone="no"?><!DOCTYPE svg PUBLIC "-//W3C//DTD SVG 1.1//EN" "http://www.w3.org/Graphics/SVG/1.1/DTD/svg11.dtd"><svg t="1732356363565" class="icon" viewBox="0 0 1024 1024" version="1.1" xmlns="http://www.w3.org/2000/svg" p-id="3728" xmlns:xlink="http://www.w3.org/1999/xlink" width="200" height="200"><path d="M911.7 385.43l42.325-117.874H747.75c0-15.703-105.55-58.626-235.752-58.626-130.2 0-235.752 42.924-235.752 58.626H69.975L112.3 385.429h163.947v29.47H122.881l42.325 117.872h111.041v29.47h-100.46l42.325 117.873h58.135l234.75 134.956 234.748-134.956H805.886l42.323-117.873h-100.46v-29.47h111.044l42.323-117.873H747.75V385.43H911.7zM613.364 577.827l-86.627-45.543-86.628 45.543 16.545-96.46-70.082-68.315 96.852-14.073 43.313-87.763 43.315 87.763 96.851 14.073-70.082 68.314 16.543 96.461z" p-id="3729"></path></svg>