<?xml version="1.0" standalone="no"?><!DOCTYPE svg PUBLIC "-//W3C//DTD SVG 1.1//EN" "http://www.w3.org/Graphics/SVG/1.1/DTD/svg11.dtd"><svg t="1732356428149" class="icon" viewBox="0 0 1024 1024" version="1.1" xmlns="http://www.w3.org/2000/svg" p-id="6333" xmlns:xlink="http://www.w3.org/1999/xlink" width="200" height="200"><path d="M512 512m-448 0a448 448 0 1 0 896 0 448 448 0 1 0-896 0Z" fill="#E7D8C8" p-id="6334"></path><path d="M742.4 896.3C675.1 936.7 596.3 960 512 960s-163.1-23.3-230.4-63.7L318 424h388l36.4 472.3z" fill="#717171" p-id="6335"></path><path d="M592 952.9c-26 4.7-52.7 7.1-80 7.1-27.3 0-54-2.4-80-7.1V741h160v211.9z" fill="#FFEAEA" p-id="6336"></path><path d="M432 741h160v132.8l-80 71.6-30-51.4 63.3-68c-10.5 2.6-21.9 4-33.8 4-33.4 0-62.7-11-79.5-27.5V741z" fill="#FFD8D8" p-id="6337"></path><path d="M643 789.1V879l-131 30 113.6-126.6c3.7-4.1 10-4.5 14.1-0.8 2.1 2 3.3 4.7 3.3 7.5zM381 789.1c0-2.8 1.2-5.5 3.3-7.4 4.1-3.7 10.4-3.3 14.1 0.8L512 909l-131-30v-89.9z" fill="#FFFFFF" p-id="6338"></path><path d="M772.9 876.2C699.5 928.9 609.4 960 512 960s-187.5-31.1-260.9-83.8l130-51.9c14.8 46 67.8 80 130.9 80s116.2-34 130.9-80l130 51.9z" fill="#E77979" p-id="6339"></path><path d="M348 929c-13.7-5.4-27-11.4-40-18.1V441h40v488z m368-18c-13 6.6-26.3 12.7-40 18.1V441h40v470z" fill="#717171" p-id="6340"></path><path d="M312.2 527.4c-4.7-127 96.7-224.4 199.7-224.4 102.5 0 204.1 98.9 200 222.7 6.1-3.6 11.9-4.8 17-3 16.3 6 18.6 41.1 5 78.4-13.6 37.4-37.9 62.8-54.2 56.9-0.3-0.1-0.6-0.2-0.8-0.3-37 82.5-99.1 140.2-166.9 140.2-68.3 0-131.3-57.1-168.1-140.8-0.6 0.3-1.3 0.6-2 0.9-16.3 6-40.6-19.5-54.2-56.9-13.6-37.4-11.4-72.5 5-78.4 5.7-2 12.5-0.2 19.5 4.7z" fill="#FFEAEA" p-id="6341"></path><path d="M693.6 595.1c4.8-15.5 7.4-31.9 7.4-48.9 0-97.1-84.6-175.8-189-175.8s-189 78.7-189 175.8c0 17 2.6 33.5 7.5 49.1-0.1 0.4-0.1 0.8-0.2 1.3-5.6-9.3-11.6-23.3-18-41.9-9.4-27.5-16-69.4-16-100.9 0-86.6 32.7-208.7 215.8-208.8 183.1 0 215.8 122.2 215.8 208.8 0 31.5-6.6 73.4-16 100.9-6.4 18.6-12.4 32.6-18 41.9-0.2-0.5-0.2-1-0.3-1.5z" fill="#717171" p-id="6342"></path><path d="M512 65c75.6 0 140.7 53.4 155.5 127.5L702 365H322l34.5-172.5C371.3 118.4 436.4 65 512 65z" fill="#717171" p-id="6343"></path><path d="M353 387c-33.1 0-60-26.9-60-60s26.9-60 60-60 60 26.9 60 60-26.9 60-60 60z m318 0c-33.1 0-60-26.9-60-60s26.9-60 60-60 60 26.9 60 60-26.9 60-60 60zM454.6 225.4c-30.1-25.3-48-53.2-37-66.3 11-13.1 41.6-0.3 71.7 25s48 53.2 37 66.3c-10.9 13-41.5 0.3-71.7-25z m9-10.8c12.7 10.6 25.8 19 36.6 23.5 5 2.1 9.2 3.2 12.3 3.4 1.2 0.1 2.2 0 2.8-0.2 0.3-0.1 0.3-0.1 0.2 0v-0.3c0.1-0.6 0-1.6-0.3-2.8-0.7-3-2.6-7-5.5-11.5-6.3-9.9-16.8-21.4-29.5-32s-25.8-19-36.6-23.5c-5-2.1-9.2-3.2-12.3-3.4-1.2-0.1-2.2 0-2.8 0.2-0.3 0.1-0.3 0.1-0.2 0v0.3c-0.1 0.6 0 1.6 0.3 2.8 0.7 3 2.6 7 5.5 11.5 6.3 9.9 16.9 21.4 29.5 32z" fill="#E77979" p-id="6344"></path><path d="M569.3 225.4c-30.1 25.3-60.7 38.1-71.7 25-11-13.1 6.9-41 37-66.3 30.1-25.3 60.7-38.1 71.7-25 11.1 13-6.8 41-37 66.3z m-9-10.8c12.7-10.6 23.2-22.1 29.5-32 2.9-4.5 4.8-8.5 5.5-11.5 0.3-1.2 0.4-2.2 0.3-2.8v-0.3h-0.2c-0.6-0.2-1.6-0.3-2.8-0.2-3.1 0.2-7.4 1.3-12.3 3.4-10.8 4.5-24 12.9-36.6 23.5-12.7 10.6-23.2 22.1-29.5 32-2.9 4.5-4.8 8.5-5.5 11.5-0.3 1.2-0.4 2.2-0.3 2.8v0.3h0.2c0.6 0.2 1.6 0.3 2.8 0.2 3.1-0.2 7.4-1.3 12.3-3.4 10.8-4.5 24-12.8 36.6-23.5z" fill="#E77979" p-id="6345"></path><path d="M726.5 478.1C679.9 430 600.3 398.3 510 398.3c-87.8 0-165.4 29.9-212.5 75.8l9.3-154.8c1.4-23.3 16.2-43.7 37.9-52.2L512 201l166.6 66c21.6 8.6 36.3 28.8 37.8 51.9l10.1 159.2z" fill="#717171" p-id="6346"></path><path d="M723.1 424.6C667.8 388.3 592.8 366 510 366c-80.9 0-154.5 21.4-209.4 56.2l0.6-9.8C356.9 378.5 430 358 510 358c81.7 0 156.3 21.4 212.5 56.7l0.6 9.9z" fill="#878787" p-id="6347"></path><path d="M516 202.6v195.7h-8V202.6l4-1.6 4 1.6z" fill="#878787" p-id="6348"></path><path d="M458 339a54 34 0 1 0 108 0 54 34 0 1 0-108 0Z" fill="#FFE2BD" p-id="6349"></path><path d="M512 359c23.1 0 40-10.7 40-20s-16.9-20-40-20-40 10.7-40 20 16.9 20 40 20z m0 14c-29.8 0-54-15.2-54-34s24.2-34 54-34 54 15.2 54 34-24.2 34-54 34z" fill="#D4A384" p-id="6350"></path><path d="M293 330h13v540h-13V330z m425 0h13v540h-13V330z" fill="#E77979" p-id="6351"></path><path d="M488 739.5a24 16.5 0 1 0 48 0 24 16.5 0 1 0-48 0Z" fill="#FFB1B1" p-id="6352"></path><path d="M612.6 581.4c-0.7 1-1.6 1.9-2.6 2.6-4.2 2.8-9.9 1.6-12.6-2.6l-21.1-32.2c-1-1.5-1.5-3.2-1.5-5 0-5 4.1-9.1 9.1-9.1h42.2c1.8 0 3.5 0.5 5 1.5 4.2 2.8 5.4 8.4 2.6 12.6l-21.1 32.2z m-184 0c-0.7 1-1.6 1.9-2.6 2.6-4.2 2.8-9.9 1.6-12.6-2.6l-21.1-32.2c-1-1.5-1.5-3.2-1.5-5 0-5 4.1-9.1 9.1-9.1h42.2c1.8 0 3.5 0.5 5 1.5 4.2 2.8 5.4 8.4 2.6 12.6l-21.1 32.2z" fill="#717171" p-id="6353"></path></svg>