<?xml version="1.0" standalone="no"?><!DOCTYPE svg PUBLIC "-//W3C//DTD SVG 1.1//EN" "http://www.w3.org/Graphics/SVG/1.1/DTD/svg11.dtd"><svg t="1733877545746" class="icon" viewBox="0 0 1024 1024" version="1.1" xmlns="http://www.w3.org/2000/svg" p-id="4092" xmlns:xlink="http://www.w3.org/1999/xlink" width="128" height="128"><path d="M778.21 957.8q0-21.95 11.72-30.75 10-5.85 23.44-13.17a69.84 69.84 0 0 0 26.79-14.65q13.37-7.31 15.06-30.75 13.4-168.34 24.27-328.66t10.89-325.75v-84.91A267.81 267.81 0 0 0 832.63 116q-27.64-2.91-59.45-4.4H418.24q-30.16 0-76.2 0.74t-88.73 1.47q-42.68 0.74-74.5 2.19l-30.13 1.47-8.37 4.4v30.75q0 161.05 10.87 321.35t10.89 322.82q0 17.58 2.51 46.12a205.59 205.59 0 0 1-2.52 55.64q-5 27.09-20.07 47.59-11.73 20.49-46.88 20.49Q80 966.59 70 963.66t-20.09-22V747q0-23.4-2.52-71.73t-5-108.34q-2.52-60-5.86-127.37T29.8 309.24q-1.69-60-3.34-109.81-1.69-46.84-3.35-70.27-1.69-4.4-8.37-24.89-3.36-17.58-5-24.89V75q-0.03-22 17.55-39.53t44.38-16.11q16.73 0 57.75-0.72t87.05-1.47q46-0.74 87.07-1.47t57.78-0.7h452.05q23.43 1.48 57.75 2.93a326.53 326.53 0 0 1 66.14 9.51q31.8 8 54.42 24.16t22.61 46.85v13.17l-48.56 787.61a307.12 307.12 0 0 1-2.52 38.77 87.89 87.89 0 0 1-12.55 35.85 54.35 54.35 0 0 1-21.76 25.63q-15.1 9.57-41.9 9.52-15.09 0-33.5-0.72a177.29 177.29 0 0 1-36-5.12q-17.58-4.4-28.47-15.37t-10.82-29.99zM272.57 278.49q0-16.1 10.89-26.35a310.81 310.81 0 0 1 24.27-20.49q10.06 0 31.82-1.47 25.1 0 51-1.47t50.23-2.19q24.28-0.74 34.33-0.74h144a56.65 56.65 0 0 1 35.14 15.37q15.06 13.93 15.07 31.49t-5 27.08q-5 9.53-25.1 18.3-15.09 0-55.26 1.47t-86.22 3.65q-46 2.2-86.22 4.4t-55.25 2.19h-11.71q-25.13 0-50.22-13.17-21.78-11.7-21.77-38.07zM284.29 564v-52.73a99 99 0 0 0 3.35-24.15v-12.44q0-20.49 8.37-43.93 11.7-21.95 40.19-27.82 51.89-7.31 88.73-7.31H589a475.29 475.29 0 0 1 70.32 10.24q35.16 10.27 56.08 31.49t20.93 60.75v38.06q0 13.19-1.68 47.59t-4.18 73.2-4.18 73.2-1.66 47.59A58.19 58.19 0 0 1 710.39 796a64.31 64.31 0 0 1-22.59 12.44q-80.38 1.48-159.07 5.86-78.69 7.31-159.05 7.31h-28.45q-16.76-13.16-23.46-24.87t-10-29.3q-1.67-11.7-5.86-32.94t-6.69-41q-2.52-19.75-5-35.87t-2.51-18.3v-12.4q0-7.31-3.35-20.49V564z m112.19 0q0 8.79 1.66 33t4.18 49.78a243.21 243.21 0 0 0 8.38 45.38q5.85 19.75 14.23 19.75h160.73q3.34 0 13.4-3.65t13.4-8q3.34-23.4 5-41t2.51-33q0.82-15.36 0.83-31.47v-38.14q0-5.82-0.83-25.61t-0.83-27.09q-18.43-13.16-48.56-13.17-30.16 2.94-51.91 2.93h-53.55q-21.76 0-53.59 5.86-10.06 4.4-13.38 17.56 0 5.88-0.85 22.7t-0.82 24.17z" fill="#de2854" p-id="4093"></path></svg>