<?xml version="1.0" standalone="no"?><!DOCTYPE svg PUBLIC "-//W3C//DTD SVG 1.1//EN" "http://www.w3.org/Graphics/SVG/1.1/DTD/svg11.dtd"><svg t="1732356307699" class="icon" viewBox="0 0 1024 1024" version="1.1" xmlns="http://www.w3.org/2000/svg" p-id="2575" xmlns:xlink="http://www.w3.org/1999/xlink" width="200" height="200"><path d="M508.830309 749.263775c-0.146333 0-0.291642-0.002047-0.437975-0.00614-101.95609-2.727111-182.059476-17.044188-244.889453-43.769876-54.973032-23.38357-88.334861-52.902884-115.142413-76.622098-27.876907-24.665773-49.89641-44.149523-86.327134-49.533137-5.860475-0.86674-10.79588-4.831029-12.905938-10.367115s-1.064238-11.780301 2.734274-16.32685c28.218692-33.778314 61.622476-64.246233 99.284237-90.557482 35.719526-24.954345 75.447343-46.305629 118.080326-63.462381 80.742952-32.494065 171.338297-49.669236 261.990946-49.669236 93.367481 0 182.187389 17.989723 256.857019 52.024887 79.71146 36.33351 139.826606 89.774653 173.845397 154.547889 2.075265 3.950985 2.447748 8.578376 1.031493 12.81077-20.212344 60.380182-61.98268 101.779058-131.454938 130.287345-71.90875 29.507034-174.260859 45.596478-322.108139 50.634214C509.201769 749.261729 509.016551 749.263775 508.830309 749.263775zM94.617449 553.780569c30.485315 10.780531 52.465932 30.229488 75.443249 50.560536 53.496401 47.335075 120.048143 106.235556 338.709235 112.168686 141.611252-4.852518 243.109923-20.615527 310.295092-48.184419 57.375755-23.545252 92.670609-56.642045 110.487394-103.797018-63.385633-112.965841-215.129662-182.834118-398.334217-182.834118C357.56621 381.695259 196.577632 445.586404 94.617449 553.780569z" fill="#231815" p-id="2576"></path><path d="M959.56599 482.807121c-3.969405 0-7.949043-1.433652-11.095709-4.336772-280.477996-258.660084-595.21526-175.182858-809.857828-59.609633-7.961322 4.287653-17.890462 1.307785-22.178115-6.653537-4.28663-7.961322-1.307785-17.891486 6.653537-22.178115 149.072177-80.268138 293.109688-118.969579 428.075589-115.018593 154.179498 4.508687 295.322076 64.86431 419.505399 179.388646 6.647397 6.129604 7.066953 16.488533 0.936325 23.13593C968.37768 481.033731 963.978487 482.807121 959.56599 482.807121z" fill="#231815" p-id="2577"></path><path d="M414.63702 497.04438c0 21.779026 17.659195 39.439244 39.440267 39.439244 21.780049 0 39.439244-17.660218 39.439244-39.439244 0-21.781072-17.659195-39.440267-39.439244-39.440267C432.296215 457.604112 414.63702 475.263307 414.63702 497.04438L414.63702 497.04438zM370.27158 543.04097c0-81.883939 66.366523-148.250462 148.231019-148.250462 81.882915 0 148.250462 66.366523 148.250462 148.250462 0 81.846076-66.367547 148.231019-148.250462 148.231019C436.638103 691.273013 370.27158 624.88807 370.27158 543.04097L370.27158 543.04097z" fill="#231815" p-id="2578"></path></svg>