<?xml version="1.0" standalone="no"?><!DOCTYPE svg PUBLIC "-//W3C//DTD SVG 1.1//EN" "http://www.w3.org/Graphics/SVG/1.1/DTD/svg11.dtd"><svg t="1732356302174" class="icon" viewBox="0 0 1024 1024" version="1.1" xmlns="http://www.w3.org/2000/svg" p-id="2370" xmlns:xlink="http://www.w3.org/1999/xlink" width="200" height="200"><path d="M513.828742 175.30478c70.986986 0 142.005777 1.176756 212.960959-0.318042 77.188806-1.622014 133.48225 56.897723 132.528124 130.556263-1.81284 137.680405 0.222629 275.424418 0.60428 413.136628 0.127217 47.992546-18.859894 86.06218-60.682424 111.918998-21.499643 13.294158-45.639035 17.969376-70.541728 18.00118-143.055316 0.254434-286.142436 0.858714-429.197751-0.127216-65.0396-0.445259-107.943473-29.291673-127.216822-80.401032-5.692953-15.043389-8.173681-30.62745-8.17368-46.561356-0.095413-136.694475-0.190825-273.388949 0-410.05162 0.095413-67.393111 32.980961-114.685965 90.45116-131.096934 13.516787-3.880113 27.351617-5.120477 41.409075-5.120477 72.640805 0.127217 145.249806 0.063608 217.858807 0.063608z" fill="#123450" p-id="2371"></path><path d="M841.221232 346.920272c-60.332578-37.592571-112.364258-15.361431-162.29686 16.251949-53.780911 34.062304-97.829736 79.065255-140.065721 125.817436-4.99326 5.533932-9.795695 11.226884-14.757151 16.792621-12.212815 13.771221-11.862969 13.453179-23.980371-1.462994-46.752182-57.565612-95.253595-113.509209-159.49809-153.359878-35.811535-22.199335-73.531323-37.274529-117.325713-26.62012-14.470913 3.530267-25.920427 12.085598-39.182781 21.467839-2.671553-48.087959-4.738827-93.85421 37.020095-127.598472 17.524117-14.184676 37.083703-23.725937 60.04634-23.757741 154.345809-0.190825 308.723421-0.38165 463.06923 0.095412 49.264714 0.159021 93.695189 45.543622 96.875609 97.575302 0.98593 17.428705 0.095413 34.921017 0.095413 54.798646z" fill="#7A4721" p-id="2372"></path><path d="M340.845669 372.808895c4.357176 3.116812 8.714352 6.20182 13.039724 9.318632-7.124142 7.092338-15.838494 12.212815-23.439699 18.700873-2.894183 2.480728-6.647079 4.99326-1.876448 8.523527 8.078268 5.979191 15.234214 13.103333 24.043979 18.128397 6.392645 3.657484 10.940647-0.508867 15.933907-3.530267 6.933317-4.198155 11.990185-12.371836 21.913097-10.463583 3.975526 0.922322 6.710687 3.339442 8.587136 6.8061-4.707022 7.442184-12.817095 11.036059-19.20974 16.538187-5.82017 4.99326-6.106407 9.445849 0.413454 13.962046 3.498463 2.41712 6.774296 5.152281 10.081933 7.823834 16.856229 13.6122 16.856229 13.580396 35.111843 2.035469 3.085008-1.940057 5.915582-4.834239 10.113737-2.607944 3.0214 1.20856 4.770631 3.498463 5.661149 6.519862 1.399385 6.933317-4.802435 8.905178-8.682548 11.703947-8.905178 6.424449-7.346771 11.576731 0.763301 16.919838 2.226294 1.462993 4.548001 2.894183 6.297232 4.866043 10.399975 11.862969 21.881293 13.294158 34.666584 3.880113l8.714353 10.622605c-8.714352 8.237289-8.364506 14.534522 1.940056 22.294748 26.302078 19.81402 31.390751 19.591391 54.385191-4.929652 4.707022-5.025064 2.79877-9.414045 1.81284-14.407305 1.049539-2.989595 2.703357-5.470323 5.947386-6.583471 25.920427 5.59754 37.401746-16.729012 54.607821-27.765071 3.275833-2.099078 0.98593-5.661149-1.526602-7.951051-3.816505-3.466658-9.064199-5.692953-10.177346-11.481319 3.212225-3.180421 6.392645-6.360841 9.60487-9.573065 22.930832 13.230549 22.930832 13.230549 45.22558-3.466659 2.130882-1.59021 4.229959-3.275833 6.488058-4.738826 8.841569-5.692953 9.891108-11.608535 1.367581-18.764482-4.039134-3.371246-8.523527-6.519862-11.19508-11.322297 2.162686-3.40305 5.374911-5.470323 9.191415-6.678883 8.682548-2.003665 12.149206 5.343107 16.792621 9.763891 6.233624 5.915582 11.640339 6.392645 18.00118 0.60428 5.883778-5.343107 12.658074-9.668478 18.987111-14.502717 13.803025-10.558996 13.898438-11.703948 1.208559-23.789546-2.289903-2.19449-5.056869-3.943721-6.360841-6.965121 4.293568-2.258099 8.587135-4.484393 12.848899-6.742492 9.255024 1.367581 12.721682 15.838494 22.83542 12.117403 11.990185-4.38898 20.895363-14.439109 30.659254-22.61279 3.116812-2.576141 2.035469-5.629344 0.826909-8.650744 10.145542-4.134547 20.100258-2.099078 30.02317 0.98593 10.20915 13.898438 20.513712 27.701463 34.0305 38.514893 5.788365-2.099078 3.40305-9.22322 8.39631-11.19508 5.406715 17.428705 2.258099 35.366276 2.385315 52.954001 0.636084 96.525763 0.318042 193.083331 0.286238 289.609095 0 6.837904 0.349846 13.771221-3.212225 20.068453-3.40305 6.519862-2.544336 15.456844-11.067863 19.114328-11.926577 8.39631-27.415225 12.848899-32.535702 28.687393 0.031804 1.431189-0.254434 2.830574-0.795105 4.166351-1.908252 2.321707-4.484393 3.593875-7.314968 4.420784-1.431189 0.286238-2.862378 0.349846-4.325372 0.286238-9.032394-0.763301-14.089263 5.661149-19.845824 10.781626-4.293568 3.530267-9.668478 4.325372-14.788955 5.756561-3.116812 0.572476-6.170016 0.508867-8.968786-1.272168-2.957791-11.990185 7.855639-14.884368 14.439109-19.623195 9.509457-6.8061 10.718017-11.544927 0.159021-18.382831-7.537597-4.897848-14.470913-10.877038-21.372426-16.665403-6.329037-5.343107-12.340032-5.565736-18.669068-0.349847-22.930832 18.923502-23.630525 13.771221-0.890518 32.122248 7.855639 6.329037 19.559586 9.98652 20.863559 22.485573-1.081343 3.466658-3.816505 4.770631-7.124142 5.374911-2.41712 0.254434-4.738827-0.063608-6.996926-0.890518-11.004255-7.537597-21.245209-16.124732-31.486163-24.584651-7.664813-6.360841-13.962046-6.233624-20.863559 0.826909-5.406715 5.533932-16.665404 8.809765-6.138211 19.273349 0.890518 0.890518-0.445259 2.925987-1.717427 4.00733-3.657484 2.19449-7.760226 2.41712-11.862969 2.639749-5.883778 0.127217-11.735752 0.095413-17.61953 0.031804-4.102742-0.159021-8.173681-0.38165-11.862968-2.41712 5.470323-18.160201-9.127807-24.393826-20.163867-32.694723-16.283753-12.244619-15.870298-11.640339-31.836009-0.254433-9.859304 7.028729-12.244619 11.862969-0.508867 18.98711 4.38898 2.671553 11.131472 5.374911 8.205485 13.135137-3.371246 2.480728-7.251359 2.639749-11.195081 2.289903-1.526602-0.190825-2.989595-0.60428-4.452588-1.144951-1.81284-1.113147 0.349846 0.508867-1.43119-0.667889-18.032984-11.79936-18.032984-11.79936-34.730192 0.60428a22.580986 22.580986 0 0 1-6.774296 1.558406c-3.975526 0.190825-7.855639-0.031804-11.354101-2.19449-3.40305-8.650744 4.707022-10.972451 9.159611-13.930242 10.558996-7.028729 9.159611-12.62627-0.190825-18.923502-2.639749-1.781036-4.961456-4.039134-7.505793-5.979191-19.400565-14.947977-19.177936-14.661739-38.355871 0.127217-8.39631 6.456254-9.700283 10.558996-0.572476 18.032985 6.647079 5.438519 18.319222 8.01466 16.983446 20.322887-3.40305 2.480728-7.283163 2.639749-11.290493 2.258098-1.526602-0.222629-3.0214-0.667888-4.452589-1.240364-26.556511-18.891698-26.556511-18.891698-52.063484 0-2.19449 0.922322-4.484393 1.399385-6.837904 1.590211-3.975526 0.190825-7.887443-0.031804-11.41771-2.194491-3.911917-5.470323 1.335777-7.505792 4.261764-9.922912a207.808678 207.808678 0 0 1 15.266018-11.640339c9.191415-6.360841 7.537597-11.385906-0.890518-16.506382-2.258099-1.399385-4.357176-3.085008-6.456253-4.738827-23.376091-18.351026-28.751002-17.714942-49.391931 4.261764-5.025064 5.374911-4.516197 8.714352 1.049539 12.721682 6.519862 4.675218 12.467249 10.018325 18.955306 14.757151 3.40305 2.512532 9.350436 4.38898 6.138212 10.877038-3.466658 2.385315-7.378576 2.607945-11.385906 2.480728-2.385315-0.127217-4.675218-0.60428-6.869708-1.462993-2.925987-1.272168-5.247694-3.40305-7.760226-5.279498-22.99444-17.206075-22.99444-17.206075-45.82986 1.462993-1.622014 1.335777-3.275833 2.607945-5.184086 3.562071-2.19449 0.954126-4.484393 1.399385-6.869708 1.558406-3.212225 0.159021-6.360841-0.254434-9.477653-0.922322-6.551666-2.385315-14.152871-0.954126-20.132062-5.406715-6.742492-6.456254-14.343697-11.958381-21.531447-17.937572-5.59754-4.643414-11.703948-6.710687-18.82809-3.530266-3.244029 0.540671-6.074603-0.477063-8.714352-2.19449-1.876448-1.494798-3.0214-3.371246-3.053204-5.82017 2.925987-5.756561 3.339442-10.368171-3.371246-14.59813-9.922912-6.233624-18.573656-14.248284-28.114917-21.054384a13.00792 13.00792 0 0 1-2.79877-3.40305c-2.703357-7.060534-3.116812-14.470913-3.116812-21.849489-0.031804-108.325123-0.063608-216.618443 0.159021-324.943567 0-6.074603-1.622014-12.721682 2.607944-18.38283 9.286828 3.212225 16.220145 9.859304 23.248875 16.092928 7.760226 6.869708 14.248284 6.488058 22.39016 0.159021 22.676398-17.587726 22.867224-17.301488 1.908252-36.034165-3.530267-3.148616-7.346771-6.138212-8.17368-11.226884 3.562071-3.848309 8.269093-3.530267 12.944311-3.40305 6.010995 2.19449 11.735752 4.929652 16.220145 9.541261 8.936982 9.159611 18.00118 12.689878 28.305743 1.81284 2.576141-2.703357 6.488058-3.434854 10.081933-4.38898 5.088673 0.667888 9.763891 2.289903 13.707612 5.629344-1.781036 4.102742-5.915582 5.883778-8.873373 8.841569-4.61161 4.579806-15.297823 6.869708-6.742491 16.760816 10.749821 12.371836 19.750412 14.916172 29.355281 8.205485 6.933317-4.834239 12.721682-11.258689 21.02258-14.089263z" fill="#B6AB5C" p-id="2373"></path><path d="M647.59723 811.388887c4.325372-0.127217 8.650744-0.254434 12.944311-0.349846 0.826909 0.031804 1.622014 0.031804 2.448924 0.031804 14.884368 11.41771 31.931422 14.121067 50.155232 11.958381 5.120477 0.159021 10.20915-0.127217 15.329627-0.095412 4.452589 0.190825 8.905178 0 13.294158 0.699692 2.735162 0.572476 5.247694 1.59021 6.837904 4.039134-4.134547 3.307637-9.096003 2.79877-13.866634 2.79877-148.143989 0.031804-296.256173 0-444.400161 0.063609-7.092338 0-13.866634-1.240364-20.481909-3.530267 2.989595-11.672143 10.877038-16.569991 22.708203-16.124732 3.275833 0.190825 6.551666 0.349846 9.8275 0.540671 23.121657 16.474578 49.773581 10.399975 75.312358 11.385906 8.61894-0.127217 17.206075-0.159021 25.79321-0.127217 25.920427-0.413455 51.809051-0.572476 77.697674 0.063608 6.424449-0.159021 12.848899-0.286238 19.273349 0.063609 20.895363 0.318042 41.82253 0.286238 62.717893 0.095413 2.703357-4.738827-4.897848-6.996925-2.41712-11.385906 4.261764-0.286238 8.523527-0.540671 12.78529-0.826909 1.431189-0.60428 2.894183-0.636084 4.357177-0.159021 11.640339 11.608535 23.471504 9.127807 35.39808 0.477063 0.731497-0.031804 1.494798-0.031804 2.258099-0.031805 4.261764 0.159021 8.491723 0.318042 12.753486 0.508868 1.749231 6.678883-3.657484 8.873373-7.092338 12.18101 9.445849-0.286238 19.527782-0.667888 30.436625 0.063609-1.844644-4.039134-6.678883-7.219555-4.070938-12.340032z" fill="#86782A" p-id="2374"></path><path d="M224.823928 343.867068c9.445849 7.664813 18.859894 15.393235 28.369351 22.994441 5.025064 4.00733 7.251359 7.601205-0.095413 11.576731-2.289903 1.240364-3.975526 3.498463-6.106407 5.088672-29.736932 22.262944-36.129577 21.372426-61.541138-8.618939 9.159611-15.234214 21.277013-26.810945 39.373607-31.040905zM390.492033 413.518278c-4.039134 2.480728-8.110072 4.929652-12.117402 7.473988-7.41038 4.770631-14.725347 16.41097-22.00851 13.23055-12.721682-5.533932-23.058049-16.442774-34.316738-25.220735-2.703357-2.099078-2.226294-5.088673 0.286238-6.551666 10.877038-6.265428 17.651334-18.669069 31.549772-20.322888 13.103333 9.445849 26.429295 18.60546 36.60664 31.390751zM699.279063 372.395441c9.636674 1.081343 13.6122 9.509457 19.81402 15.011584 4.643414 4.134547 1.494798 7.696618-1.971861 10.463584-11.576731 9.255024-23.312483 18.351026-35.01643 27.447029-4.484393 3.498463-8.269093 2.894183-12.530857-1.240364-6.010995-5.851974-11.036059-12.944312-18.923502-16.79262 14.280088-14.248284 31.0091-25.157126 48.62863-34.889213z" fill="#F5DA65" p-id="2375"></path><path d="M435.590397 458.07597c-27.256204 18.764481-27.256204 18.764481-52.317918-0.60428-18.541852-14.343697-18.637264-14.439109 1.144951-28.401155 4.61161-3.244029 7.919247-8.809765 14.629935-8.746157 13.103333 11.735752 26.079448 23.535112 36.543032 37.751592z" fill="#F4D965" p-id="2376"></path><path d="M641.459018 413.931733c9.127807 0.922322 12.594465 9.255024 18.891698 13.930242 6.265428 4.643414 6.265428 8.841569-0.063609 13.644004-11.481318 8.682548-22.740007 17.61953-33.966891 26.651924-4.675218 3.752896-8.809765 3.339442-12.721682-0.795105-4.707022-4.99326-11.036059-8.587135-13.99385-15.138802 12.817095-13.962046 26.906358-26.556511 41.854334-38.292263zM340.845669 372.808895c-5.502128 10.304563-17.206075 13.930242-24.711868 22.103923-3.339442 3.657484-7.505792 3.625679-11.385905 0.254434-2.003665-1.749231-3.911917-3.593875-5.979191-5.279498-23.376091-19.177936-22.517377-23.535112 7.314967-36.797466 12.62627 4.802435 23.916762 11.894773 34.761997 19.718607z" fill="#F4DA65" p-id="2377"></path><path d="M589.968009 461.765258c23.980371 15.80669 23.948567 15.774886 0.82691 32.917352-5.533932 4.102742-11.481318 7.919247-16.156537 12.848899-9.032394 9.541262-17.905768 9.98652-27.574246 1.431189 12.371836-17.428705 27.510638-32.408485 42.903873-47.19744zM474.26431 501.933969c-13.325962 15.838494-16.315557 16.188341-31.772401 3.593875-0.413455-0.318042-0.763301-0.731497-1.176755-1.081343-24.234804-20.19567-24.234804-20.19567-0.063609-39.882473 12.817095 10.908842 22.930832 24.139392 33.012765 37.369941z" fill="#F4D965" p-id="2378"></path><path d="M292.630494 810.88002c-9.382241 2.894183-15.743082 9.922912-22.708203 16.124732-21.913097-2.544336-40.105103-12.117402-54.925863-28.114918-1.494798-8.173681 4.834239-11.576731 9.922912-15.743081 1.81284 1.017735 3.657484 2.003665 5.470324 3.021399 15.520452 3.943721 28.941827 12.340032 42.967481 19.495978 5.406715 5.438519 13.930242-0.349846 19.273349 5.21589z" fill="#B89618" p-id="2379"></path><path d="M541.11675 515.546169c8.873373 4.834239 12.62627 9.98652 1.367581 16.506382-2.289903 1.303972-3.943721 3.689288-6.233624 4.961457-10.145542 5.565736-17.937572 21.308818-28.464764 17.810355-13.357766-4.452589-25.538777-15.679473-35.175451-26.588316-9.445849-10.686213 3.562071-12.40364 10.399975-15.647669 9.255024 11.41771 18.478243 22.867224 28.528372 35.270864 9.891108-10.845234 19.750412-21.595055 29.577911-32.313073z" fill="#F3D865" p-id="2380"></path><path d="M766.481349 346.506817c2.989595 0.826909 7.346771 0.795105 8.650744 2.735162 2.19449 3.244029-1.653819 5.279498-4.166351 7.155946-6.329037 4.770631-12.594465 9.636674-18.955306 14.343697-22.326552 16.569991-22.358356 16.569991-39.914278-5.088673 16.601795-10.622605 34.666584-17.174271 54.385191-19.146132z" fill="#F3D965" p-id="2381"></path><path d="M747.971302 808.017641c2.989595-4.707022 9.509457-1.240364 12.753486-5.37491 6.742492-5.438519 14.152871-9.445849 23.026245-10.240954 1.049539 0 2.067273 0.031804 3.116812 0.031804 7.124142 2.862378 16.951641 3.657484 12.467248 15.552256-12.244619 9.795695-26.111253 16.124732-41.663509 18.82809-16.124732-5.82017-17.174271-7.79203-9.700282-18.796286z" fill="#B89617" p-id="2382"></path><path d="M838.931329 374.81256c-0.349846 4.229959-0.127217 8.587135-1.240364 12.594465-1.049539 3.689288-5.247694 7.569401-8.300898 4.070939-11.735752-13.38957-26.556511-24.393826-34.094108-41.122838-0.286238-0.667888 0.763301-1.908252 1.20856-2.862378 18.732677 2.162686 32.408485 11.958381 42.42681 27.319812z" fill="#F1D765" p-id="2383"></path><path d="M292.37606 347.460944c-0.254434 0.477063-0.38165 1.049539-0.763301 1.36758-23.59872 20.132062-25.63419 19.81402-53.84452-8.364506 19.20974-5.374911 37.020095-0.095413 54.607821 6.996926z" fill="#F0D664" p-id="2384"></path><path d="M825.827996 754.23673c6.774296-3.721092 7.155946-12.053794 12.562662-16.79262-1.017735 24.489238-9.795695 45.320993-29.832345 60.746032-7.79203 0.98593-11.767556-4.166351-15.679473-9.414045 0.127217-0.890518 0.286238-1.781036 0.413454-2.671553 9.668478-11.767556 21.690468-21.245209 32.535702-31.867814z" fill="#B4931A" p-id="2385"></path><path d="M185.800168 740.052055c1.113147 0.413455 2.226294 0.826909 3.371245 1.240364 11.099668 12.467249 24.934497 22.835419 30.659254 39.373606-2.321707 6.8061-5.247694 12.62627-14.248284 8.269093-11.385906-14.407305-20.036649-29.895953-19.782215-48.883063z" fill="#B79619" p-id="2386"></path><path d="M747.971302 808.017641c-7.092338 11.41771 4.579806 13.453179 9.668478 18.796286l-9.00059 0.858713c-2.512532-0.159021-5.025064-0.318042-7.537597-0.508867-4.198155-3.466658-8.39631-3.434854-12.530857 0.095413-5.565736-0.095413-11.163276-0.190825-16.729012-0.318042-0.286238-9.064199 9.286828-10.050129 13.262354-15.615865 2.576141-0.349846 5.21589-0.572476 6.678883-3.212225 1.940057-1.876448 4.00733-1.908252 6.170016-0.349846 3.371246 0.095413 6.678883 0.190825 10.018325 0.254433z" fill="#88792A" p-id="2387"></path><path d="M792.847035 788.776097c7.092338 0.127217 10.113737 6.8061 15.679474 9.414045-1.20856 4.961456-4.866043 7.696618-9.22322 9.795695 0.826909-9.064199-10.336367-8.777961-12.467248-15.552256 2.003665-1.20856 4.00733-2.448924 6.010994-3.657484z" fill="#8B7B2A" p-id="2388"></path><path d="M205.582383 788.966922c6.519862-0.159021 9.98652-4.38898 12.912508-9.414044 1.113147-1.272168 2.162686-1.240364 3.148616 0.127216 1.113147 1.144951 2.19449 2.321707 3.307638 3.466659 0.159021 7.378576-7.823835 9.763891-9.922913 15.743081-4.102742-2.448924-7.346771-5.661149-9.445849-9.922912z" fill="#87782A" p-id="2389"></path><path d="M312.889772 565.860422c-3.562071-3.943721-7.124142-7.919247-10.686213-11.862969-5.788365-2.385315-10.781626-5.374911-9.445849-12.848899-2.989595-7.760226-6.010995-15.488648-9.00059-23.248874-2.607945-1.367581-2.607945-3.244029-1.113147-5.438519-1.081343-5.343107-2.19449-10.654409-3.275833-15.997515-2.003665-15.838494 3.244029-20.100258 19.623195-15.870299 6.106407 3.148616 12.721682 3.721092 19.432369 3.593875 18.414635 2.321707 35.525297 7.251359 47.674504 22.485574 4.579806 3.0214 9.159611 6.042799 13.707612 9.064198 16.665404 6.424449 29.228065 17.587726 38.451285 32.535702a23.360189 23.360189 0 0 0 10.050129 8.682548c11.385906 2.353511 15.615865 8.205485 9.541261 19.050719-2.130882 2.130882-4.293568 4.261764-6.424449 6.392646-12.340032 14.725347-31.422555 19.591391-51.363792 13.071528-7.505792-1.940057-14.916172-4.452589-22.835419-3.689288-18.700873-2.162686-34.571171-9.00059-44.335063-25.920427zM596.360655 585.197379c-2.289903-1.908252-4.579806-3.848309-6.901513-5.756562-8.968786-11.513122-8.459919-14.21648 4.357176-22.167531 4.102742-0.667888 6.996925-3.0214 9.127807-6.424449 11.481318-16.760816 26.206665-29.768736 45.130168-37.910613 3.275833-2.19449 6.583471-4.357176 9.859303-6.551666 15.838494-15.615865 34.380346-24.80728 57.406591-23.248874 7.569401-0.731497 15.138802-1.431189 22.708203-2.162686 6.265428 1.940057 10.081933 5.184085 7.060533 12.276423-1.049539 5.343107-2.099078 10.718017-3.18042 16.061124 3.562071 22.262944-8.555331 37.179116-24.203001 50.505078-10.940647 9.509457-22.899028 17.587726-35.429884 24.902693-6.678883 7.442184-14.693543 10.718017-24.711868 7.728421l-19.559586 3.148617c-16.633599 7.283163-29.864149 1.144951-41.663509-10.399975z" fill="#133450" p-id="2390"></path><path d="M771.25198 620.945305c5.979191 5.056869 11.831164 10.399975 18.096593 15.170606 28.528372 21.722272 28.591981 21.690468 0.349846 43.317328-4.229959 3.244029-8.968786 5.915582-12.721682 9.60487-5.088673 5.025064-8.746156 3.721092-13.580396-0.445259-10.463584-9.032394-21.467839-17.3969-32.122247-26.174861-3.7847-3.116812-8.078268-6.8061-2.035469-11.417709 12.244619-9.382241 24.711868-18.478243 37.147312-27.606051 1.20856-0.922322 2.735162-1.399385 4.866043-2.448924zM760.025096 610.322701c-0.222629 2.925987-0.063608 3.625679-0.318043 3.911917-11.958381 12.880703-26.39749 23.058049-41.186445 31.963227-7.473988 4.516197-13.421375-6.297233-18.859894-11.481319-8.237289-7.919247-24.648259-12.562661-23.344287-23.471503 0.922322-7.951051 15.393235-14.407305 23.916762-21.40423 20.036649-16.474578 20.036649-16.379166 39.818866 2.385315 6.869708 6.551666 14.089263 12.785291 19.973041 18.096593zM769.534553 438.357362c0.127217 3.498463-2.19449 4.961456-4.293568 6.615275-10.018325 7.919247-20.100258 15.774886-30.02317 23.789546-6.233624 5.025064-11.608535 6.170016-17.842159-0.667889-7.855639-8.650744-16.474578-16.697208-25.252539-24.489238-6.678883-5.915582-5.692953-10.495388 1.049539-15.106997 2.639749-1.81284 5.343107-3.530267 7.919247-5.438519 10.081933-7.601205 20.831755-23.471504 30.818275-19.718608 13.803025 5.184085 23.757741 20.386496 35.302668 31.390751 1.113147 1.017735 1.685623 2.607945 2.321707 3.625679zM729.270429 566.401093c1.240364-0.667888 3.148616-1.558406 4.929652-2.703357 2.258099-1.431189 4.452589-2.957791 6.519862-4.643414 33.966891-27.82868 42.076964-26.842749 70.255489 7.569401 4.00733 4.897848 4.516197 7.664813-1.176755 11.131472-4.548001 2.766966-8.61894 6.265428-12.880703 9.509457-8.332702 6.360841-16.729012 19.559586-25.984036 16.029319-15.647669-6.010995-27.288008-19.909433-39.214585-32.090443-0.699693-0.731497-0.954126-1.844644-2.448924-4.802435zM821.025561 400.128708c-1.971861 2.130882-3.848309 4.707022-6.297232 6.615274-9.573066 7.537597-19.464174 14.725347-28.973631 22.390161-4.134547 3.339442-7.442184 3.593875-11.004255-0.349846-0.699693-0.795105-1.494798-1.494798-2.289903-2.226295-35.843339-31.804205-34.984626-39.469019 6.8061-64.117278 3.530267-2.099078 7.124142-3.943721 10.081933-0.636084 10.20915 11.449514 20.004845 23.248874 29.895953 34.952822 0.667888 0.763301 0.98593 1.844644 1.781035 3.371246zM745.108923 493.283225c-0.159021-5.311302-3.180421-9.032394-7.060533-12.276423 9.318632-12.658074 23.725937-19.464174 35.207255-29.64152 5.565736-4.929652 9.763891-1.272168 13.771221 2.703358 7.18775 7.155946 13.898438 14.916172 21.817685 21.181601 9.891108 7.79203 9.509457 13.707613-0.922322 20.132062-4.99326 3.085008-9.477653 6.901513-14.21648 10.336366-19.750412 14.375501-19.718607 14.343697-37.847004-2.925986-3.434854-3.307637-7.155946-6.360841-10.749822-9.509458zM375.703078 742.278349c-2.894183 6.933317-10.145542 9.127807-15.329627 13.516787-22.517377 18.955306-22.61279 18.82809-44.812125 0.381651-23.725937-19.750412-22.962636-18.859894 1.303972-38.514893 12.499053-10.145542 21.054384-11.385906 32.090443 0.731497 5.979191 6.551666 14.057459 11.258689 21.308818 16.697208 2.576141 1.908252 5.533932 3.40305 5.438519 7.18775zM715.721837 662.163556c8.237289 6.519862 15.743082 12.40364 23.185266 18.351026 24.012175 19.273348 23.471504 18.669069-0.667888 37.974221-10.940647 8.746156-19.050719 12.053794-29.100848-0.159021-3.625679-4.38898-9.127807-7.251359-13.644004-10.940646-19.241544-15.679473-19.241544-15.743082 1.20856-31.358947 6.20182-4.770631 12.658074-9.286828 19.018914-13.866633zM386.166661 811.007237c-8.39631-6.456254-16.188341-13.930242-25.347951-19.114328-13.771221-7.79203-13.803025-13.230549-1.176756-23.058049 26.333882-20.545517 25.825015-21.181601 52.667764-0.763301 20.354691 15.488648 20.386496 15.552256 0.540672 30.945492-5.438519 4.229959-11.226884 7.982856-16.856229 11.926577-3.244029 3.148616-6.519862 3.116812-9.8275 0.063609zM593.816318 557.273286c-5.692953 6.583471-11.481318 13.135137-4.357176 22.167531-25.920427 20.895363-25.920427 20.895363-53.208435 0.636085-2.130882-1.59021-4.325372-3.085008-6.519863-4.548002-11.099668-7.251359-11.544927-13.166941 0-21.722272 30.182191-22.358356 29.80054-22.835419 58.646955 0.286238 1.622014 1.303972 3.625679 2.130882 5.438519 3.18042zM715.340187 483.137684c-20.577321 4.293568-38.991956 13.707613-57.406591 23.248874-32.758332-25.825015-32.185856-25.125322 0-50.950337 12.371836-9.922912 21.086188-12.880703 32.44029-0.063609 8.269093 9.286828 20.513712 15.106998 24.966301 27.765072zM705.22645 654.435134c-1.176756 6.106407-5.979191 7.124142-9.22322 9.60487-27.510638 21.054384-27.542442 21.054384-54.289778 0.254433-18.351026-14.280088-18.382831-14.311892-0.731497-28.910022 4.102742-3.371246 8.905178-5.979191 12.689878-9.636675 7.283163-7.060534 13.548591-6.488058 20.736342 0.381651 8.046464 7.696618 16.919837 14.534522 25.284343 21.944902 2.289903 2.035469 4.039134 4.643414 5.533932 6.360841zM768.962077 707.738982c2.79877 1.81284 5.184085 3.053204 7.219555 4.707022 11.067863 9.096003 22.00851 18.382831 33.044569 27.478834 5.311302 4.38898 5.438519 6.869708-0.731497 11.79936-29.768736 23.789546-29.546107 24.075783-58.774171-0.60428-17.269684-14.566326-17.333292-14.661739 0.318042-29.164456 6.106407-4.99326 12.594465-9.477653 18.923502-14.21648zM321.063453 700.169581c-2.321707 5.788365-7.41038 7.919247-11.672143 11.036059-25.825015 18.923502-26.524707 19.81402-49.83719 0.795105-23.121657-18.82809-23.185266-11.322297 0-30.245799 21.02258-17.142467 21.849489-16.315557 43.63537 1.558406 6.424449 5.247694 15.138802 8.237289 17.873963 16.856229zM515.514365 636.243128c-2.289903-1.653819-4.420785-3.085008-6.42445-4.675218-7.028729-5.661149-13.930242-11.449514-20.958971-17.110662-18.255614-14.661739-18.287418-14.629934-0.286238-27.860484 20.640929-15.170606 20.640929-15.170606 42.776656 2.385315 23.916762 18.987111 23.916762 19.018915-0.349846 36.797466-4.675218 3.434854-9.445849 6.678883-14.757151 10.463583zM711.80992 735.63127c-3.148616 6.20182-8.682548 9.414045-13.866633 13.166941-19.591391 14.184676-19.527782 14.311892-39.02376-0.159021-4.707022-3.498463-9.159611-7.314967-13.771221-10.940647-14.788955-11.576731-14.82076-11.990185-0.254434-22.962636 3.816505-2.894183 7.951051-5.438519 11.544927-8.555331 8.39631-7.283163 15.329627-6.869708 23.439699 1.399385 7.760226 7.919247 17.174271 14.280088 26.047644 21.117992 2.576141 1.908252 5.152281 3.625679 5.883778 6.933317zM737.984781 807.795012c-2.067273 0.127217-4.102742 0.222629-6.170016 0.349846-10.368171-12.912507-25.093518-20.863559-37.560766-31.358946-6.742492-5.661149-5.756561-8.555331 0.190825-12.721682 0.445259-0.318042 0.795105-0.699693 1.20856-1.017735 34.857409-24.711868 20.354691-24.839084 54.22617 1.303972 20.79995 16.061124 20.163866 16.697208-0.636084 32.44029-4.134547 3.148616-7.505792 7.314967-11.258689 11.004255zM420.928658 707.42094c-2.735162 5.629344-8.205485 8.873373-13.389571 12.562661-21.40423 15.297823-21.340622 15.361431-41.568096-0.508867-24.171196-18.987111-23.82135-18.60546-0.286238-39.214586 8.428114-7.378576 14.788955-8.173681 23.21707-0.98593 8.841569 7.569401 18.382831 14.375501 27.60605 21.531447 2.130882 1.622014 4.38898 3.116812 4.420785 6.615275zM570.440227 677.047924c-9.096003-4.039134-15.138802-9.922912-21.690468-15.20241-24.234804-19.432369-23.757741-18.669069 0.540672-38.673914 10.845234-8.936982 17.842159-7.919247 26.842749 1.367581 6.583471 6.8061 14.121067 12.880703 22.072119 18.128397 8.332702 5.502128 6.233624 8.714352-0.508868 13.453179-9.509457 6.615275-18.414635 14.089263-27.256204 20.927167zM269.731466 658.79231c-1.113147 1.622014-1.908252 3.689288-3.40305 4.866043-10.399975 8.269093-20.927167 16.347362-31.422555 24.457434-1.749231 1.367581-3.911917 2.162686-5.883778 0.667888-11.290493-8.809765-22.644594-17.555921-33.680654-26.651924-4.134547-3.40305-1.240364-6.869708 1.844644-9.159611 10.972451-8.237289 21.881293-22.262944 33.299003-22.740007 13.644004-0.60428 23.59872 16.220145 36.065969 24.266609 1.176756 0.763301 1.81284 2.41712 3.180421 4.293568zM620.37283 718.170761c-6.138212-4.770631-13.38957-10.081933-20.291083-15.80669-22.899028-18.987111-22.453769-18.573656 1.622014-37.115507 10.240954-7.887443 17.460509-9.096003 26.651924 1.049538 6.678883 7.378576 15.42504 12.976116 23.21707 19.400566 2.289903 1.876448 5.947386 2.925987 4.516197 7.219554-1.176756 3.562071-30.595646 25.506973-35.716122 25.252539zM648.074293 512.90642c-15.043389 12.62627-30.086778 25.284343-45.130168 37.910613-12.499053-3.530267-19.114327-14.852564-29.323477-21.531447-5.120477-3.339442-1.876448-7.569401 1.749231-10.336367 6.360841-4.866043 12.976116-9.350436 19.43237-14.121067 27.701463-20.481908 30.563841-20.068454 53.272044 8.078268zM474.26431 745.108923c1.017735 6.551666-1.971861 7.346771-3.880113 9.032395-27.097183 23.789546-27.542442 24.362021-55.498338 2.671553-23.789546-18.446439-20.036649-11.767556 0.286238-30.659254 13.99385-13.00792 23.884958-10.972451 35.747927 1.017734 5.565736 5.629344 12.308227 10.177346 18.637264 15.075194 2.130882 1.653819 4.643414 2.830574 4.707022 2.862378zM596.360655 585.197379c13.357766 5.502128 26.842749 10.654409 41.695313 10.399975 16.983446 17.365096 16.983446 17.365096-3.053204 32.376681-20.704538 15.520452-20.768146 15.584061-41.059229-1.717427-7.18775-6.138212-19.81402-10.113737-20.19567-18.859894-0.349846-7.696618 12.689878-10.940647 18.98711-17.110663 1.431189-1.431189 2.41712-3.371246 3.62568-5.088672zM838.358853 704.876603c-1.462993 9.191415 4.039134 21.02258-7.314967 29.450695-5.120477 3.7847-9.032394 4.643414-13.99385 0.190825-9.827499-8.841569-19.654999-17.714942-29.991366-25.984036-7.760226-6.20182-6.424449-10.20915 1.176756-15.297823 8.332702-5.59754 15.647669-12.689878 24.012175-18.255614 4.38898-2.925987 8.523527-9.541262 15.329627-5.088672 6.360841 4.166351 11.544927 9.318632 10.877038 17.969376-0.413455 5.21589-0.095413 10.495388-0.095413 17.015249zM283.788924 745.204336c1.717427 1.113147 3.975526 2.41712 6.010995 4.00733 5.502128 4.198155 10.749821 8.714352 16.379166 12.753486 7.664813 5.533932 21.913097 14.057459 19.495978 18.192005-5.692953 9.763891-17.746747 15.965711-27.415225 23.376091-3.593875 2.735162-7.060534 0.98593-10.20915-1.494797-5.438519-4.261764-11.036059-8.364506-16.41097-12.721682-7.505792-6.106407-23.407895-12.62627-20.4183-18.510048 5.21589-10.240954 18.700873-16.41097 28.751002-24.203 0.763301-0.636084 1.940057-0.731497 3.816504-1.399385zM838.358853 617.733081c0 4.770631-0.413455 9.573066 0.095413 14.280088 0.922322 8.61894-3.434854 14.566326-10.304563 18.192005-7.378576 3.911917-11.672143-2.862378-16.283753-6.8061-8.905178-7.601205-17.206075-15.902103-26.270273-23.344286-5.979191-4.897848-5.184085-7.982856 0.667888-12.149207 8.682548-6.170016 16.601795-13.38957 25.443364-19.305152 4.357176-2.925987 8.428114-10.177346 14.82076-5.979191 6.010995 3.943721 12.371836 8.777961 11.894773 17.61953-0.318042 5.851974-0.063608 11.672143-0.063609 17.492313zM327.01084 632.044973c1.144951 0.826909 3.212225 2.258099 5.247693 3.752896 3.848309 2.862378 7.633009 5.788365 11.481319 8.61894 27.924092 20.768146 27.796875 20.609125-0.127217 41.44088-7.314967 5.438519-13.580396 6.996925-20.768146 0.286237-4.261764-4.00733-9.22322-7.251359-13.484983-11.258688-5.883778-5.502128-15.647669-7.219555-17.460509-16.506383-0.508867-2.703357 30.277604-25.952232 35.111843-26.333882zM230.73951 613.216884c-2.989595-0.190825-38.801131-28.623785-39.914278-31.358947-0.98593-2.41712-0.095413-4.070938 1.653819-5.470323 8.746156-6.933317 17.492313-13.898438 26.333882-20.672734 3.434854-2.639749 6.933317-1.971861 10.272758 0.60428 10.940647 8.428114 21.881293 16.856229 32.885549 25.188931 2.79877 2.099078 5.533932 4.579806 1.97186 7.473988-9.859304 8.078268-20.100258 15.679473-30.245799 23.407895-0.699693 0.60428-1.940057 0.572476-2.957791 0.82691zM483.48753 810.498369c-6.551666-5.343107-12.976116-10.81343-19.654999-15.997515-14.788955-11.513122-14.82076-11.449514 0.540671-23.312482 20.895363-16.156536 20.895363-16.156536 38.387676-3.0214 28.623785 21.531447 28.623785 21.531447-0.318042 42.681244-6.424449 5.692953-12.753486 6.010995-18.955306-0.349847zM346.60223 443.159797c-2.353511 5.629344-7.537597 7.664813-11.735752 10.81343-26.01584 19.718607-25.984036 19.750412-51.236575 0.159021-14.757151-11.449514-15.043389-12.340032 1.43119-23.439699 8.587135-5.788365 16.601795-18.891698 26.238469-15.42504 12.340032 4.420785 22.103923 15.838494 32.917353 24.330217 1.144951 0.858714 1.685623 2.448924 2.385315 3.562071zM272.116781 736.458179c0.445259 3.466658-2.321707 4.484393-4.166351 6.297233-24.457434 24.107588-25.093518 24.139392-53.049414 3.625679-2.162686-1.59021-4.484393-2.894183-6.710688-4.38898-10.304563-6.933317-13.357766-12.085598-0.222629-21.149796 24.362021-16.760816 23.630525-17.651334 47.515483 1.272168 5.788365 4.61161 12.785291 7.887443 16.633599 14.343696zM504.89176 644.734851c-8.205485 6.297233-17.460509 13.103333-26.365686 20.322887-6.360841 5.184085-9.477653-0.254434-13.453179-3.307637-6.742492-5.152281-13.38957-10.431779-20.227475-15.42504-17.905768-13.135137-17.524117-12.62627-1.240364-26.429294 12.435444-10.495388 23.058049-15.138802 35.588906-0.031805 5.247694 6.329037 13.325962 10.368171 20.004845 15.584061 2.41712 1.908252 5.247694 3.721092 5.692953 9.286828zM437.880299 575.942355c2.353511-9.032394-3.530267-14.089263-9.541261-19.050719 11.385906-24.012175 28.560176-28.528372 47.070224-12.371836 1.20856 1.049539 2.385315 2.130882 3.593875 3.148616 6.583471 5.629344 16.156536 8.555331 18.096593 18.351027 0.508867 2.480728-30.62745 25.825015-33.935087 25.443364-10.749821-1.303972-16.538187-10.81343-25.284344-15.520452zM366.098208 506.640991c-15.902103-7.505792-31.772401-14.979781-47.674504-22.485573 7.505792-15.456844 23.884958-21.181601 36.034165-31.517967 2.957791-2.512532 7.283163 0.954126 10.081933 3.116812 10.050129 7.760226 19.623195 16.092928 29.736932 23.789545 4.961456 3.752896 4.579806 6.8061-0.159021 9.60487-9.477653 5.661149-16.41097 15.234214-28.019505 17.492313z" fill="#F5DA65" p-id="2391"></path><path d="M838.390658 530.684971c-1.335777 10.877038 5.565736 27.192596-9.732087 32.631114-12.880703 4.579806-18.319222-11.163276-26.365687-18.287418-19.686803-17.333292-19.20974-17.873963 0.922322-34.380346 2.862378-2.353511 5.947386-4.452589 9.096003-6.456253 5.406715-3.40305 9.255024-11.862969 17.269684-7.728422 7.919247 4.070938 9.668478 11.958381 8.873373 20.450104-0.38165 4.229959-0.063608 8.459919-0.063608 13.771221z" fill="#F4DA65" p-id="2392"></path><path d="M418.288909 639.837003c4.643414 2.894183 8.841569 5.120477 12.594465 7.951052 8.459919 6.392645 16.156536 13.930242 25.093518 19.464173 10.399975 6.456254 7.092338 10.972451-0.508867 16.092928-0.890518 0.60428-1.844644 1.081343-2.735162 1.622015-7.537597 4.548001-14.121067 17.492313-21.913097 13.294158-15.170606-8.173681-27.796875-20.895363-41.377271-31.83601-0.667888-0.540671-1.20856-2.512532-0.890518-2.766966 9.795695-7.951051 19.654999-15.80669 29.736932-23.82135zM314.925241 624.443768c-6.424449 9.732087-16.856229 13.930242-24.616454 21.117992-6.933317 6.424449-13.484983 7.696618-20.100258-0.667888-1.908252-2.41712-5.438519-3.530267-7.569401-5.820169-6.360841-6.869708-22.421965-10.718017-19.43237-18.510048 4.643414-12.149206 19.718607-18.192005 30.786471-26.270274 1.272168-0.922322 5.279498 0.445259 7.219555 1.876448 10.304563 7.569401 20.4183 15.42504 30.436624 23.344287 1.526602 1.176756 2.226294 3.307637 3.275833 4.929652zM518.376743 715.785446c-1.685623 2.099078-2.79877 3.752896-4.166351 5.184085-19.336957 20.19567-27.415225 20.990776-49.519147 5.025065-24.203-17.492313-23.980371-17.269684-2.03547-36.097773 7.442184-6.392645 13.039724-9.22322 21.467839-0.985931 8.269093 8.078268 18.319222 14.407305 27.574246 21.531447 2.035469 1.558406 4.00733 3.180421 6.678883 5.343107zM620.086592 735.154207c4.897848-0.349846 7.505792 1.335777 10.050129 3.434854 6.170016 5.056869 12.499053 9.891108 18.60546 14.979781 20.322887 16.983446 19.241544 24.775476-4.929652 37.083703-4.229959 2.162686-8.205485 2.385315-12.02199-0.508867-10.972451-8.39631-21.785881-16.983446-32.790135-25.316147-6.901513-5.21589-7.18775-10.558996 0.318042-14.725348 7.887443-4.38898 12.848899-12.848899 20.768146-14.947976zM538.254372 782.66969c-2.41712-1.749231-4.516197-3.212225-6.583471-4.770631-4.261764-3.212225-8.428114-6.488058-12.689878-9.668479-26.524707-19.845824-26.01584-24.489238 3.466658-41.790725 3.975526-2.321707 6.901513-2.671553 10.113738-0.254434 11.481318 8.650744 22.835419 17.460509 34.157716 26.333882 2.067273 1.622014 4.420785 4.357176 2.226295 6.742492-8.714352 9.382241-19.654999 15.965711-30.691058 23.407895zM560.676336 683.408765c-5.979191 5.406715-10.018325 9.382241-14.407305 12.944311-18.255614 14.947977-18.287418 14.916172-36.733857-0.413454-0.826909-0.667888-1.558406-1.462993-2.41712-2.130882-23.694133-18.764481-23.376091-18.414635-0.222629-38.133242 6.869708-5.851974 10.845234-5.851974 17.301488 0.031804 8.650744 7.855639 18.414635 14.502718 27.733267 21.62686 2.576141 1.940057 5.311302 3.689288 8.746156 6.074603zM581.857937 749.593316c-8.968786-2.130882-13.6122-9.255024-20.036649-13.898438-28.178526-20.4183-27.987701-20.291083 0.795105-39.787061 4.961456-3.371246 7.951051-3.721092 12.40364-0.127216 10.749821 8.746156 21.690468 17.206075 32.59931 25.761406 2.099078 1.653819 5.279498 3.657484 2.925987 6.20182-8.300898 9.064199-18.764481 15.42504-28.687393 21.849489zM408.016151 632.681057c-1.526602 12.308227-31.549772 24.80728-40.677579 17.905768-7.601205-5.756561-14.248284-13.071528-22.485573-17.61953-13.00792-7.155946-7.219555-11.926577 0.636084-17.587725 4.738827-3.40305 9.255024-7.092338 13.771221-10.781626 4.134547-3.371246 8.809765-4.643414 13.198745-1.367581 11.099668 8.173681 21.913097 16.729012 32.694723 25.284343 1.526602 1.144951 2.258099 3.244029 2.862379 4.166351zM576.673852 811.643321c-1.017735-0.349846-2.035469-0.636084-3.053204-0.954126-0.667888-0.826909-1.20856-1.781036-2.035469-2.448924-7.346771-5.979191-21.62686-13.262354-20.736342-17.555922 2.289903-11.163276 16.665404-14.947977 24.998105-23.121657 3.562071-3.498463 7.442184-2.258099 11.385906 0.82691 11.767556 9.191415 24.616455 17.142467 35.62071 27.097182 11.004255 9.954716-5.152281 10.050129-7.251359 15.456844l-0.127217 0.445259c-12.880703 5.311302-25.825015 7.314967-38.80113 0.254434zM292.725906 541.11675c3.148616 4.293568 6.297233 8.555331 9.445849 12.848899-10.399975 23.248874-25.602385 27.447029-43.762586 12.085598-0.826909-0.699693-1.526602-1.462993-2.353512-2.130882-24.075783-19.432369-23.757741-19.018915 0.477063-37.020095 6.901513-5.152281 11.258689-3.689288 16.792621 0.349846 6.424449 4.707022 12.944312 9.255024 19.400565 13.866634z" fill="#F5DA65" p-id="2393"></path><path d="M838.804112 443.605056c-2.79877 10.877038 5.947386 26.206665-7.823834 31.645185-13.548591 5.374911-17.746747-11.703948-26.906358-17.683138-3.053204-2.003665-5.184085-5.343107-8.046464-7.696618-7.855639-6.488058-7.092338-11.481318 1.431189-17.047054 8.841569-5.788365 17.174271-12.499053 25.157127-19.400566 8.650744-7.442184 12.880703-2.19449 14.470913 5.21589 1.781036 8.110072 1.272168 16.729012 1.717427 24.966301z" fill="#F4D965" p-id="2394"></path><path d="M298.991335 480.593347c-11.544927-0.699693-20.545517 1.622014-19.623195 15.870299-10.399975 12.02199-19.591391 10.018325-30.977296-0.127217-22.771811-20.386496-23.121657-19.623195 1.303972-38.483089 8.110072-6.233624 14.59813-8.809765 22.930832-0.063608 7.951051 8.364506 19.432369 13.039724 26.365687 22.803615zM269.731466 380.060254c9.827499 7.79203 19.909433 15.552256 29.641519 23.757741 2.067273 1.749231-0.508867 3.530267-2.19449 4.802435-10.5908 8.078268-21.213405 16.124732-31.676989 24.330218-7.378576 5.788365-10.431779-1.303972-14.534521-4.643414-21.499643-17.460509-21.372426-17.3969-0.254434-35.23906 5.692953-4.834239 11.290493-9.573066 19.018915-13.00792zM220.848402 537.395658c-10.240954-8.364506-21.817685-17.683138-33.076374-27.288008-0.60428-0.508867 0.826909-3.721092 1.781036-5.406715 0.763301-1.303972 2.099078-2.639749 3.530267-3.180421 9.318632-3.721092 14.757151-18.82809 24.775476-14.725347 12.40364 5.056869 22.358356 15.997515 33.171786 24.648259 1.272168 1.017735 1.844644 3.816505 1.558406 5.597541-0.60428 3.498463-26.174861 20.768146-31.740597 20.354691zM418.257105 548.240892l-38.451285-32.535702c5.056869-9.891108 15.106998-14.470913 23.185266-21.086188 1.462993-1.20856 3.593875-2.162686 5.470323-2.258099 3.085008-0.127217 36.161381 26.62012 37.083704 29.387086 1.622014 4.866043-2.735162 6.456254-5.247694 8.61894-7.124142 6.20182-14.661739 11.958381-22.040314 17.873963zM250.3309 443.127993c-1.462993 1.781036-2.830574 4.00733-4.738826 5.661149-3.212225 2.766966-6.710687 5.21589-10.113738 7.728422-20.672733 15.106998-26.969966 14.502718-44.366866-4.484393-1.717427-1.876448-4.484393-5.025064-3.911917-6.297233 5.59754-12.149206 18.351026-16.919837 27.860484-25.093518 6.647079-5.692953 12.149206 0.445259 16.315557 4.897848 5.724757 6.106407 15.170606 8.205485 18.955306 17.587725zM312.889772 565.860422c12.944312 11.672143 29.069044 18.096593 44.335063 25.888623-6.615275 9.954716-17.587726 15.043389-26.333882 22.580986-3.752896 3.212225-7.601205 2.766966-11.385906-0.731497-3.116812-2.862378-6.869708-4.961456-10.272758-7.537597-28.560176-21.722272-28.464764-22.676398 3.657483-40.200515z" fill="#F5DA65" p-id="2395"></path><path d="M380.060254 595.438333c18.478243 0.826909 35.557102-3.721092 51.363792-13.071529 22.899028 18.510048 22.358356 17.842159-0.60428 35.84334-9.700283 7.601205-15.679473 7.346771-24.075784-0.82691-8.173681-7.982856-17.714942-14.693543-26.683728-21.944901z" fill="#F4D965" p-id="2396"></path><path d="M660.573345 811.039041c-13.039724-7.314967-11.226884-11.608535-0.190825-21.785881 14.661739-13.484983 24.298413-10.368171 35.684319 1.431189 6.996925 7.283163 17.269684 10.940647 22.61279 19.973041-19.177936 10.304563-38.546697 6.583471-57.947263 0.795106l-0.159021-0.413455z" fill="#F4D964" p-id="2397"></path><path d="M482.565208 826.972948h-79.574122c-11.831164-10.336367 1.844644-11.163276 5.979191-15.552257 2.19449-0.159021 4.357176-0.349846 6.551666-0.508867 16.951641-6.519862 33.903283-6.424449 50.886729-0.190825 1.335777 0.286238 2.703357 0.572476 4.039134 0.826909 5.59754 3.975526 17.937572 2.79877 12.117402 15.42504z" fill="#B59419" p-id="2398"></path><path d="M186.786098 670.178215c12.658074 4.484393 19.718607 14.407305 29.546107 20.481909 5.788365 3.593875 5.788365 7.951051-0.349846 12.276423-9.382241 6.583471-18.351026 13.739417-29.196261 21.913097v-54.671429z" fill="#F2D865" p-id="2399"></path><path d="M376.275554 827.131969c-13.834829 0.063608-27.701463-0.38165-41.504488 0.318042-14.152871 0.731497-24.521042-4.866043-32.281269-16.061124l6.551666-0.572476c19.20974-6.551666 38.387676-6.583471 57.597416 0.031805l6.647079 0.572475c13.198745 8.61894 13.421375 9.732087 2.989596 15.711278z" fill="#B69418" p-id="2400"></path><path d="M185.89558 647.3746c0-15.584061-0.095413-30.118582 0.031805-44.653104 0.063608-7.537597 3.498463-8.078268 8.873373-3.657484 0.413455 0.349846 0.763301 0.731497 1.20856 1.049539 29.705128 19.973041 29.259869 22.358356-10.113738 47.261049z" fill="#F2D865" p-id="2401"></path><path d="M560.835357 811.516104c3.975526 5.152281 12.02199 6.647079 13.6122 15.42504h-71.368637c-5.502128-12.62627 7.473988-10.972451 12.40364-15.520453 2.162686-0.159021 4.357176-0.349846 6.519863-0.508867 11.544927-6.042799 23.121657-4.929652 34.730192-0.286238 1.367581 0.318042 2.735162 0.60428 4.102742 0.890518z" fill="#B1921D" p-id="2402"></path><path d="M717.725502 559.849427c11.004255-15.456844 20.768146-31.486163 24.203001-50.505078 12.244619-2.448924 16.633599 8.39631 21.277013 14.884368 4.325372 6.042799-5.979191 9.700283-10.20915 12.530857-11.640339 7.823835-20.291083 20.259279-35.270864 23.089853z" fill="#F2D865" p-id="2403"></path><path d="M660.700562 811.4843c19.305153-0.254434 38.64211-0.540671 57.947262-0.795105l6.456254 0.667888c0.572476 9.318632-10.113737 9.382241-13.262354 15.615865-19.241544 1.940057-37.751592 1.462993-51.141162-15.488648z" fill="#B69518" p-id="2404"></path><path d="M366.575271 810.848216H308.977855c5.406715-9.732087 16.506383-13.198745 23.630525-21.054384 3.307637-3.657484 7.378576-2.162686 9.98652 0.38165 7.569401 7.378576 17.905768 11.672143 23.980371 20.672734z" fill="#F2D762" p-id="2405"></path><path d="M185.2913 544.13815c3.0214-5.565736-4.229959-13.898438 4.929652-17.492313 3.40305-1.335777 24.616455 17.460509 22.994441 19.654998-5.979191 8.078268-14.979781 17.524117-22.962637 17.555922-8.809765 0.063608-2.130882-12.785291-4.961456-19.718607z" fill="#F0D664" p-id="2406"></path><path d="M466.408672 810.689195c-16.951641 0.063608-33.935087 0.127217-50.886729 0.222629 4.039134-7.060534 11.640339-10.272758 17.237879-15.584061 6.074603-5.756561 11.099668-5.025064 16.124732 0.159021 5.406715 5.59754 13.930242 7.664813 17.524118 15.202411z" fill="#F1D660" p-id="2407"></path><path d="M647.59723 811.388887c1.844644 5.788365 6.869708 9.127807 12.308227 14.534522-15.870298 2.480728-30.277604 1.20856-46.43414 0.98593 4.134547-7.537597 12.785291-8.587135 14.916173-15.425039l19.20974-0.095413z" fill="#B89617" p-id="2408"></path><path d="M187.70842 427.957387c-3.40305-6.710687-1.653819-13.00792-1.685623-19.018914-0.031804-4.961456-2.830574-12.276423 2.003665-14.407305 5.915582-2.576141 9.445849 5.152281 14.248284 7.982855 9.382241 5.533932 8.237289 10.399975-0.031804 15.647669-4.802435 3.116812-9.445849 6.360841-14.534522 9.795695z" fill="#EFD564" p-id="2409"></path><path d="M221.643507 779.64829c-1.049539-0.063608-2.099078-0.095413-3.18042-0.127217-10.304563-12.340032-22.962636-22.962636-29.323478-38.228654 14.375501 5.756561 24.648259 17.333292 36.956487 25.952231 9.509457 6.647079-3.244029 8.078268-4.452589 12.40364z" fill="#F2D763" p-id="2410"></path><path d="M515.48256 811.420691c-1.844644 6.933317-13.675808 6.170016-12.40364 15.520453-6.837904 0-13.644004 0-20.481908 0.031804 0.922322-8.936982-8.269093-10.145542-12.117402-15.456844 4.357176-0.349846 8.682548-0.667888 13.039724-1.017735 6.297233 1.494798 12.62627 1.431189 18.955306 0.349847 4.325372 0.222629 8.650744 0.38165 13.00792 0.572475z" fill="#8A7A29" p-id="2411"></path><path d="M273.388949 805.632326c-15.965711-2.957791-30.62745-8.714352-42.967481-19.495978 4.134547-5.915582 8.682548-8.777961 15.58406-3.371246 9.382241 7.378576 19.845824 13.421375 27.383421 22.867224z" fill="#F2D762" p-id="2412"></path><path d="M376.275554 827.131969c11.004255-7.505792-2.448924-10.399975-3.053204-15.711278l12.944311-0.38165c3.275833-0.031804 6.551666-0.031804 9.8275-0.063609l13.00792 0.477064c-0.763301 5.629344-12.435444 7.219555-5.979191 15.552256-8.936982 0-17.842159 0.063608-26.747336 0.127217z" fill="#87782A" p-id="2413"></path><path d="M825.827996 754.23673c-7.473988 13.962046-18.255614 24.648259-32.535702 31.899618-3.085008-2.035469-7.919247-4.675218-2.830574-8.141876 11.735752-7.982856 20.958971-19.686803 35.366276-23.757742z" fill="#F1D661" p-id="2414"></path><path d="M186.627077 493.156008v-29.41889c7.601205 2.766966 16.760816 5.565736 17.301488 13.198746 0.667888 8.746156-9.922912 10.20915-17.301488 16.220144z" fill="#EED564" p-id="2415"></path><path d="M556.732615 810.625586l-34.730192 0.286238c15.170606-17.587726 15.80669-17.587726 34.730192-0.286238z" fill="#F0D664" p-id="2416"></path><path d="M657.58375 592.448737l24.711868-7.728421c1.017735 13.294158-11.067863 14.725347-19.050719 18.541851-2.766966 1.335777-9.98652-3.816505-5.661149-10.81343z" fill="#ECD263" p-id="2417"></path><path d="M783.751033 792.401777c-6.360841 6.233624-15.075193 7.378576-22.994441 10.240954 6.170016-6.583471 10.81343-16.601795 22.994441-10.240954z" fill="#EDD360" p-id="2418"></path><path d="M282.612169 512.461161c0.38165 1.81284 0.763301 3.625679 1.113147 5.438519-2.735162 4.229959-4.961456 1.399385-7.18775-0.572476-1.653819-1.462993-2.512532-3.275833-0.763301-5.184085 2.353511-2.544336 4.61161-0.731497 6.837904 0.318042z" fill="#EAD163" p-id="2419"></path><path d="M576.673852 811.643321c12.944312-0.095413 25.888623-0.159021 38.832934-0.254434-21.086188 16.79262-23.853154 16.824425-38.832934 0.254434z" fill="#B69518" p-id="2420"></path><path d="M303.157685 826.559493c-5.851974 0.38165-8.428114 0.763301-10.97245 0.60428-1.272168-0.063608-2.512532-1.049539-4.198155-1.781035 4.070938-5.565736 7.823835-4.961456 15.170605 1.176755z" fill="#B3931B" p-id="2421"></path><path d="M728.602541 827.259186c4.102742-7.41038 8.300898-8.01466 12.530857-0.095413l-12.530857 0.095413z" fill="#AF901D" p-id="2422"></path><path d="M413.009411 570.91729c-49.23291 19.305153-104.031556-14.693543-113.191167-68.951517 33.012765-1.399385 83.26341 35.302668 113.191167 68.951517zM610.577135 570.344815c32.59931-31.867814 65.707488-61.763767 113.381992-70.128273-5.915582 54.766842-65.0396 91.341678-113.381992 70.128273z" fill="#FEFFFF" p-id="2423"></path></svg>