<?xml version="1.0" standalone="no"?><!DOCTYPE svg PUBLIC "-//W3C//DTD SVG 1.1//EN" "http://www.w3.org/Graphics/SVG/1.1/DTD/svg11.dtd"><svg t="1732356406530" class="icon" viewBox="0 0 1024 1024" version="1.1" xmlns="http://www.w3.org/2000/svg" p-id="5409" xmlns:xlink="http://www.w3.org/1999/xlink" width="200" height="200"><path d="M845.78 895.64c-41.5 0-75.28-33.78-75.28-75.28V204.44c0-41.5 33.78-75.28 75.28-75.28s75.28 33.78 75.28 75.28v615.92c0 41.5-33.78 75.28-75.28 75.28z m0-725.42c-18.87 0-34.22 15.34-34.22 34.22v615.92c0 18.87 15.34 34.22 34.22 34.22 18.87 0 34.22-15.34 34.22-34.22V204.44c-0.01-18.87-15.35-34.22-34.22-34.22z" fill="#2196F3" p-id="5410"></path><path d="M243.54 190.75m-61.59 0a61.59 61.59 0 1 0 123.18 0 61.59 61.59 0 1 0-123.18 0Z" fill="#2196F3" p-id="5411"></path><path d="M435.16 669.8m-61.59 0a61.59 61.59 0 1 0 123.18 0 61.59 61.59 0 1 0-123.18 0Z" fill="#2196F3" p-id="5412"></path><path d="M380.41 567.15c-56.61 0-102.65-46.05-102.65-102.65s46.05-102.65 102.65-102.65S483.06 407.9 483.06 464.5s-46.04 102.65-102.65 102.65z m0-164.25c-33.96 0-61.59 27.63-61.59 61.59s27.63 61.59 61.59 61.59S442 498.45 442 464.49s-27.62-61.59-61.59-61.59zM202.48 895.64c-56.61 0-102.65-46.05-102.65-102.65s46.05-102.65 102.65-102.65 102.65 46.05 102.65 102.65-46.04 102.65-102.65 102.65z m0-164.25c-33.96 0-61.59 27.63-61.59 61.59 0 33.96 27.63 61.59 61.59 61.59s61.59-27.63 61.59-61.59c0-33.96-27.62-61.59-61.59-61.59zM784.18 389.22H619.94c-49.95 0-75.28-43.75-75.28-130.03 0-34.04-3.1-47.9-34.22-47.9H291.45v-41.06h218.99c75.28 0 75.28 64.64 75.28 88.97 0 59.87 11.19 88.97 34.22 88.97h164.25v41.05z" fill="#2196F3" p-id="5413"></path><path d="M462.54 443.96h314.8v41.06h-314.8zM469.38 649.27H770.5v41.06H469.38z" fill="#2196F3" p-id="5414"></path><path d="M517.29 827.2h-219v-41.06h218.99c44.46 0 47.9-78.57 47.9-102.65 0-102.65 77.26-130.03 102.65-130.03h109.5v41.06h-109.5c-28.87 0-61.59 27.37-61.59 88.97 0.01 133.35-68.09 143.71-88.95 143.71z" fill="#2196F3" p-id="5415"></path><path d="M859.46 895.64c-18.9 0-34.22-15.32-34.22-34.22V231.81c0-18.9 15.32-34.22 34.22-34.22s34.22 15.32 34.22 34.22v629.61c0 18.9-15.32 34.22-34.22 34.22z" fill="#2196F3" opacity=".2" p-id="5416"></path><path d="M400.95 485.03m-54.75 0a54.75 54.75 0 1 0 109.5 0 54.75 54.75 0 1 0-109.5 0Z" fill="#2196F3" opacity=".2" p-id="5417"></path><path d="M223.01 813.52m-54.75 0a54.75 54.75 0 1 0 109.5 0 54.75 54.75 0 1 0-109.5 0Z" fill="#2196F3" opacity=".2" p-id="5418"></path></svg>