<?xml version="1.0" standalone="no"?><!DOCTYPE svg PUBLIC "-//W3C//DTD SVG 1.1//EN" "http://www.w3.org/Graphics/SVG/1.1/DTD/svg11.dtd"><svg t="1733877648092" class="icon" viewBox="0 0 1194 1024" version="1.1" xmlns="http://www.w3.org/2000/svg" p-id="7457" xmlns:xlink="http://www.w3.org/1999/xlink" width="149.25" height="128"><path d="M185.863838 527.918801c-0.767994 60.586162 45.482288 103.807135 147.966767 74.879376C519.343726 550.403947 753.752439 371.376105 973.483941 318.085883c190.974409-46.37828 50.090249 62.762144-8.234598 106.367113a13.65322 13.65322 0 0 0-0.426663 21.63182 14.079883 14.079883 0 0 0 17.279856 0.383997c54.186215-40.447663 268.157765-201.726319 198.953009-242.003317-67.54077-39.253006-211.070241 12.799893-279.421672 43.26364C825.687839 173.959084 721.368709 122.674178 606.553665 128.43413 198.407733 149.041958 185.863838 527.918801 185.863838 527.918801" fill="#000F9F" p-id="7458"></path><path d="M1008.811647 538.756044c0.767994-60.586162-45.482288-103.807135-147.924101-74.879376-185.555787 52.39423-419.9645 231.422071-639.696003 284.712294-190.974409 46.335614-50.047583-62.762144 8.234599-106.367114a13.65322 13.65322 0 0 0 0.426663-21.63182 14.079883 14.079883 0 0 0-17.279856-0.34133c-54.186215 40.404997-268.157765 201.683653-198.910343 241.917984 67.54077 39.295673 211.027575-12.757227 279.379005-43.220973 75.9887 73.770052 180.307831 125.054958 295.080208 119.295006 408.188598-20.607828 420.689828-399.484671 420.689828-399.484671" fill="#000F9F" p-id="7459"></path></svg>