<?xml version="1.0" standalone="no"?><!DOCTYPE svg PUBLIC "-//W3C//DTD SVG 1.1//EN" "http://www.w3.org/Graphics/SVG/1.1/DTD/svg11.dtd"><svg t="1733877687210" class="icon" viewBox="0 0 1024 1024" version="1.1" xmlns="http://www.w3.org/2000/svg" p-id="8524" xmlns:xlink="http://www.w3.org/1999/xlink" width="128" height="128"><path d="M957.568 1024H66.432C29.78304 1024 0 994.21696 0 957.568V66.432C0 29.78304 29.78304 0 66.432 0h891.13088C994.21696 0 1024 29.78304 1024 66.432v891.13088c0 36.51584-29.78304 66.43712-66.432 66.43712zM73.30816 950.69184h877.3888V73.30816H73.30816v877.38368z" fill="#333333" p-id="8525"></path><path d="M449.64864 148.54656h135.30112v77.7472h262.01088v141.10208h-262.01088v46.10048h230.36928v138.23488h-161.21856c24.91392 24.9856 49.89952 48.03584 74.88 69.08416 42.23488 36.51072 80.60928 65.29024 115.18464 86.40512v161.21856c-138.23488-90.27072-219.84768-149.76512-244.7616-178.53952-5.72928-5.72928-10.59328-10.5216-14.3872-14.3872v192.93184H449.72032v-193.00352l-5.72928 5.72928c-63.35488 71.0144-148.7616 133.37088-256.28672 187.13088v-155.4176c47.96416-28.77952 91.13088-62.35136 129.57696-100.79744 17.2544-15.31904 37.44256-35.5072 60.4928-60.4928H216.41216V413.42464h233.23648v-46.10048H187.63264V226.28864h262.01088V148.54656z" fill="#333333" p-id="8526"></path></svg>