<?xml version="1.0" standalone="no"?><!DOCTYPE svg PUBLIC "-//W3C//DTD SVG 1.1//EN" "http://www.w3.org/Graphics/SVG/1.1/DTD/svg11.dtd"><svg t="1732356402756" class="icon" viewBox="0 0 1024 1024" version="1.1" xmlns="http://www.w3.org/2000/svg" p-id="5247" xmlns:xlink="http://www.w3.org/1999/xlink" width="200" height="200"><path d="M612.716 42.82c-22.75 0-43.312 9.344-58.062 24.406-14.75-15.062-35.31-24.406-58.06-24.406-44.874 0-81.248 36.374-81.248 81.278 0 92.872 139.306 174.15 139.306 174.15s139.34-81.278 139.34-174.15c0.002-44.904-36.404-81.278-81.276-81.278z" fill="#ED5564" p-id="5248"></path><path d="M612.716 42.82c-7.376 0-14.532 1-21.344 2.844 34.53 9.376 59.936 40.936 59.936 78.434 0 69.934-78.936 133.246-117.964 160.308 12.81 8.874 21.31 13.842 21.31 13.842s139.34-81.278 139.34-174.15c0-44.904-36.406-81.278-81.278-81.278z" fill="#FFFFFF" p-id="5249"></path><path d="M760.054 405.214c-246.524 0.656-137.15 285.974-221.276 356.722 0 0 45.312 41.936 221.276 41.936 175.962 0 221.304-41.936 221.304-41.936-84.122-70.746 25.218-356.064-221.304-356.722z" fill="#343A42" p-id="5250"></path><path d="M980.64 844.622l-1.718-0.5c-28.748-7.812-49.81-15.25-62.498-20.124-44.966-17.312-56.686-29.81-59.652-35.686-0.124-0.188-0.188-0.438-0.282-0.624l-0.406-54.998-192.058 2.188-0.376 52.81c-0.094 0.188-0.188 0.438-0.282 0.624-3 5.876-14.686 18.374-59.652 35.686-12.688 4.876-33.782 12.312-62.25 20.062l-1.968 0.562c-25.904 8.624-43.34 32.938-43.34 60.374v76.186h527.826v-76.186c-0.002-27.438-17.408-51.75-43.344-60.374z" fill="#EC87C0" p-id="5251"></path><path d="M909.612 632.254c0 97.122-92.622 190.618-149.556 190.618-56.904 0-149.556-93.496-149.556-190.618 0-97.2 66.964-161.324 149.556-161.324s149.556 64.124 149.556 161.324z" fill="#EAC6BB" p-id="5252"></path><path d="M587.404 815.558l-2.032-0.624c-34.876-9.436-60.436-18.436-75.81-24.374-54.498-20.936-68.716-36.06-72.31-43.248-0.156-0.25-0.25-0.5-0.376-0.75l-0.468-66.686-232.868 2.688-0.438 63.998c-0.124 0.25-0.218 0.5-0.344 0.75-3.624 7.188-17.812 22.312-72.34 43.31-15.344 5.876-40.936 14.876-75.466 24.248l-2.376 0.688c-31.436 10.5-52.56 40-52.56 73.25v92.372h639.948v-92.372c0-33.25-21.09-62.75-52.56-73.25z" fill="#5D9CEC" p-id="5253"></path><path d="M501.314 558.068c0 117.872-112.308 231.118-181.338 231.118-68.998 0-181.306-113.246-181.306-231.118 0-117.792 81.184-195.54 181.306-195.54 100.152 0 181.338 77.748 181.338 195.54z" fill="#EAC6BB" p-id="5254"></path><path d="M436.846 341.216c-30.874-27.938-134.246-62.248-237.336 0-52.216 31.498-90.216 170.65-90.216 170.65s101.84 57.702 234.43-4.656c79.34-37.342 77.56-17.782 100.216 16.218 13.468 20.154 57.374 34.638 57.374 34.638s34.186-127.54-64.468-216.85z" fill="#A85D5D" p-id="5255"></path><path d="M792.022 407.088l-10.094 104.778s69.688 62.514 152.372 65.388l0.376-0.062c-11.002-80.418-36.378-157.29-142.654-170.104z" fill="#434A54" p-id="5256"></path><path d="M864.614 432.182c-24.81-16.78-58.466-26.842-104.558-26.966-154.12 0.406-169.15 112.058-179.306 212.976 147.556-8.064 283.832-186.01 283.864-186.01z" fill="#656D78" p-id="5257"></path></svg>