<?xml version="1.0" standalone="no"?><!DOCTYPE svg PUBLIC "-//W3C//DTD SVG 1.1//EN" "http://www.w3.org/Graphics/SVG/1.1/DTD/svg11.dtd"><svg t="1733877757040" class="icon" viewBox="0 0 1024 1024" version="1.1" xmlns="http://www.w3.org/2000/svg" p-id="11076" xmlns:xlink="http://www.w3.org/1999/xlink" width="128" height="128"><path d="M138.666667 710.4c-10.666667 85.333333-2.133333 151.466667 10.666666 164.266667 12.8 12.8 76.8 21.333333 164.266667 10.666666-23.466667-36.266667-44.8-72.533333-61.866667-113.066666-38.4-17.066667-76.8-38.4-113.066666-61.866667zM885.333333 313.6c10.666667-85.333333 2.133333-151.466667-10.666666-164.266667-12.8-12.8-76.8-21.333333-164.266667-10.666666 23.466667 36.266667 44.8 72.533333 61.866667 113.066666 38.4 17.066667 76.8 38.4 113.066666 61.866667zM309.333333 795.733333C381.866667 934.4 484.266667 1024 512 1024c17.066667 0 70.4-40.533333 123.733333-106.666667-89.6-19.2-174.933333-51.2-249.6-98.133333-25.6-6.4-51.2-14.933333-76.8-23.466667zM714.666667 228.266667C642.133333 89.6 539.733333 0 512 0c-17.066667 0-70.4 40.533333-123.733333 106.666667 89.6 19.2 174.933333 51.2 249.6 98.133333 25.6 6.4 51.2 14.933333 76.8 23.466667zM512 192h8.533333C347.733333 119.466667 170.666667 128 149.333333 149.333333c-12.8 12.8-21.333333 76.8-10.666666 164.266667C251.733333 236.8 381.866667 192 512 192zM512 832h-8.533333c170.666667 72.533333 347.733333 64 369.066666 42.666667 12.8-12.8 21.333333-76.8 10.666667-164.266667C772.266667 787.2 642.133333 832 512 832z" fill="#de2854" p-id="11077"></path><path d="M512 234.666667C228.266667 234.666667 0 469.333333 0 512s228.266667 277.333333 512 277.333333 512-234.666667 512-277.333333-228.266667-277.333333-512-277.333333z m0 512c-130.133333 0-234.666667-104.533333-234.666667-234.666667s104.533333-234.666667 234.666667-234.666667 234.666667 104.533333 234.666667 234.666667-104.533333 234.666667-234.666667 234.666667z" fill="#de2854" p-id="11078"></path><path d="M512 277.333333s-85.333333 117.333333-85.333333 234.666667 85.333333 234.666667 85.333333 234.666667 85.333333-117.333333 85.333333-234.666667-85.333333-234.666667-85.333333-234.666667z" fill="#de2854" p-id="11079"></path></svg>