<?xml version="1.0" standalone="no"?><!DOCTYPE svg PUBLIC "-//W3C//DTD SVG 1.1//EN" "http://www.w3.org/Graphics/SVG/1.1/DTD/svg11.dtd"><svg t="1733877778542" class="icon" viewBox="0 0 1024 1024" version="1.1" xmlns="http://www.w3.org/2000/svg" p-id="12090" xmlns:xlink="http://www.w3.org/1999/xlink" width="128" height="128"><path d="M512 512m-512 0a512 512 0 1 0 1024 0 512 512 0 1 0-1024 0Z" fill="#FF9999" p-id="12091"></path><path d="M787.877647 241.041569v553.963921a60.235294 60.235294 0 0 1-60.235294 60.235294H258.208627V170.767059h459.39451a70.27451 70.27451 0 0 1 70.27451 70.27451z" fill="#E2E2E2" p-id="12092"></path><path d="M777.035294 230.098824v554.36549a60.235294 60.235294 0 0 1-60.235294 60.235294H260.517647V169.863529H716.8a60.235294 60.235294 0 0 1 60.235294 60.235295z" fill="#FFFFFF" p-id="12093"></path><path d="M268.247843 169.763137h51.501177v675.237647h-51.501177z" fill="#DBDBDB" p-id="12094"></path><path d="M535.893333 168.759216v291.137255h0.803138l95.472941-93.465098 89.248627 93.465098h0.401569v-291.137255H535.893333z" fill="#FF9999" p-id="12095"></path></svg>