<?xml version="1.0" standalone="no"?><!DOCTYPE svg PUBLIC "-//W3C//DTD SVG 1.1//EN" "http://www.w3.org/Graphics/SVG/1.1/DTD/svg11.dtd"><svg t="1732356452638" class="icon" viewBox="0 0 1024 1024" version="1.1" xmlns="http://www.w3.org/2000/svg" p-id="6986" xmlns:xlink="http://www.w3.org/1999/xlink" width="200" height="200"><path d="M966.08 311.792c20.64 51.6 30.96 109.392 30.96 169.248 0 255.936-208.465 464.4-464.4 464.4-216.72 0-392.16-101.137-392.16-227.04 0-63.984 47.473-123.84 121.776-165.12-99.071 39.216-163.055 99.072-163.055 165.12 0 158.927 185.76 288.959 412.799 288.959 274.511 0 495.359-220.848 495.359-495.359 0-72.24-14.448-138.288-41.28-200.208z" fill="#2C2C2C" p-id="6987"></path><path d="M346.88 313.856c-51.6 47.472-86.688 113.52-99.071 185.76C278.769 423.248 357.2 367.52 450.08 367.52c35.088 0 61.92 26.832 61.92 61.92 0 80.496-63.984 144.48-144.48 144.48-103.2 0-185.76 63.984-185.76 144.48 0 53.663 43.345 101.135 113.52 130.031-20.64-39.216-30.96-82.56-30.96-130.031v-4.128 4.128c0 90.815 138.288 165.12 309.6 165.12 84.624 0 163.056-33.025 222.911-86.689-53.663 28.896-134.16 45.408-222.911 45.408-90.816 0-165.12-45.408-165.12-103.2 0-28.895 18.576-53.663 47.472-72.24 24.768 6.193 49.536 10.32 76.368 10.32 148.608 0 268.32-105.263 268.32-237.359 0-66.048-30.96-103.2-61.92-175.44 16.512 0 35.087-8.255 45.407-16.511 8.256-2.064 16.512-4.128 26.832-4.128 26.832 0 47.472 12.384 51.6 26.831v-6.192c0-24.767-26.832-47.471-63.984-57.791 2.064 0 2.064-2.064 2.064-4.128 0-22.704-45.407-41.28-103.2-41.28-37.151 0-68.111-24.768-78.431-57.792-2.064 8.256-4.128 18.576-4.128 26.832 0 30.96 16.512 57.792 43.344 72.24h-2.064c-18.576 0-35.088-6.192-47.472-18.576 6.192 20.64 24.768 37.152 45.408 45.408 18.576 41.28 30.96 99.071 16.512 117.647-18.576 22.704-51.6 24.768-72.24 6.192-66.048-55.728-74.304-152.735-18.576-218.783 24.768-30.96 20.64-76.368-8.256-101.136-16.512-10.32-33.024-16.512-49.536-16.512-208.464 0-392.16 107.328-495.36 266.255 63.985-51.6 140.353-90.815 222.913-109.391C109.52 262.256 16.64 417.056 16.64 594.56c0 30.96 2.064 61.92 8.256 92.88C57.921 514.064 183.825 371.648 346.88 313.856zM770 212.721c-20.64 10.32-51.6 10.32-51.6-10.32 10.32-10.32 51.6 0 51.6 10.32z" fill="#2C2C2C" p-id="6988"></path></svg>