<?xml version="1.0" standalone="no"?><!DOCTYPE svg PUBLIC "-//W3C//DTD SVG 1.1//EN" "http://www.w3.org/Graphics/SVG/1.1/DTD/svg11.dtd"><svg t="1732356409743" class="icon" viewBox="0 0 1028 1024" version="1.1" xmlns="http://www.w3.org/2000/svg" p-id="5566" xmlns:xlink="http://www.w3.org/1999/xlink" width="200.78125" height="200"><path d="M 490.678 898.403 c 21 -79.798 275.094 -138.597 350.692 -302.393 c -18.9 10.5 -39.899 18.9 -60.898 25.2 c -92.398 25.199 -167.997 16.799 -226.795 -2.1 c -73.499 65.098 -264.594 98.697 -256.194 260.393 c 8.4 197.396 388.49 113.398 388.49 113.398 S 463.38 995 490.679 898.403 Z" fill="#2c2c2c" p-id="5567"></path><path d="M 748.972 768.206 c -130.197 69.298 -226.794 113.397 -220.495 144.896 c 8.4 42 138.597 62.999 195.296 44.1 c 56.699 -21 144.897 -111.298 180.596 -94.498 c 35.699 16.8 31.499 77.698 -10.5 149.096 c 56.699 -44.099 113.397 -155.396 60.899 -226.795 c -52.5 -69.298 -151.197 -44.099 -205.796 -16.8 Z M 192.485 608.61 c 65.099 -58.8 37.8 -42 69.299 -159.597 c 25.199 -100.798 107.097 -88.198 172.196 -195.295 s 23.099 -247.795 2.1 -245.695 c -29.4 4.2 25.199 54.599 -29.4 178.496 c 6.3 -48.299 -4.2 -86.098 -29.4 -79.798 c 25.2 69.298 -44.098 163.796 -140.696 214.195 c -111.297 56.699 -52.499 98.698 -90.298 151.197 S 85.388 545.61 70.688 556.11 c -44.099 -10.5 -96.598 65.098 -33.6 100.797 c 6.3 -27.3 29.4 -31.499 33.6 6.3 c 21 25.2 58.799 44.1 94.498 12.6 c -52.499 -4.2 -10.5 -31.5 27.3 -67.199 Z m 14.7 -188.996 c 10.5 -16.8 60.898 -39.9 67.198 -33.6 c 0 0 -16.8 21 -23.1 33.6 c -12.599 27.3 -18.899 50.399 -41.998 39.899 c -12.6 -6.3 -14.7 -23.1 -2.1 -39.9 Z M 400.38 575.01 c -73.498 25.2 -117.597 2.1 -132.297 -41.999 c 0 44.1 -27.299 151.197 -113.397 178.496 C 255.484 770.306 320.582 604.41 400.38 575.01 Z" fill="#2c2c2c" p-id="5568"></path><path d="M 123.187 333.516 c 18.9 -65.099 119.697 -88.198 102.897 -178.496 c -16.8 96.598 -88.198 83.998 -121.797 163.796 c -31.5 77.698 10.5 151.197 -31.5 220.495 c 63 -90.298 21 -98.698 50.4 -205.795 Z M 307.982 419.614 c -41.999 48.299 -39.899 155.396 65.099 136.497 s 136.497 -188.996 79.798 -296.094 c -23.1 81.899 -102.897 111.298 -144.897 159.597 Z" fill="#2c2c2c" p-id="5569"></path><path d="M 604.076 255.818 c -33.6 18.9 -60.899 37.799 -90.298 48.298 c 6.3 25.2 10.5 52.5 10.5 79.799 c 0 27.299 -4.2 54.598 -10.5 77.698 c -8.4 27.3 -18.9 52.499 -33.6 73.498 c 237.295 132.297 428.39 -23.1 485.09 -113.397 c -104.998 33.599 -172.197 58.798 -258.295 60.898 c 130.197 -18.9 264.594 -92.398 312.893 -188.995 c -58.799 -31.5 -109.197 -50.4 -153.296 -65.099 c 29.399 -6.3 56.698 -12.6 81.898 -25.2 c -266.694 -170.095 -409.49 -4.2 -470.39 29.4 c 10.5 14.7 18.9 29.4 25.2 46.199 c 33.6 -10.5 67.198 -18.9 100.798 -23.1 Z" fill="#2c2c2c" p-id="5570"></path></svg>