<?xml version="1.0" standalone="no"?><!DOCTYPE svg PUBLIC "-//W3C//DTD SVG 1.1//EN" "http://www.w3.org/Graphics/SVG/1.1/DTD/svg11.dtd"><svg t="1732356421617" class="icon" viewBox="0 0 1112 1024" version="1.1" xmlns="http://www.w3.org/2000/svg" p-id="6023" xmlns:xlink="http://www.w3.org/1999/xlink" width="217.1875" height="200"><path d="M383.1835574 499.18871265L515.92429848 625.60846528q18.05996495 17.1569666 42.89241601 17.15696661T601.70913048 625.60846528L734.44987156 499.18871265Q872.60860173 552.46560814 957.49043537 674.37037005T1042.37227004 947.97883633q0 11.73897752-9.02998248 20.76895898t-21.22045866 9.02998248T990.90137023 968.74779531t-9.02998248-20.76895898Q966.52041785 832.39506185 849.13064769 754.2857143T560.1712115 676.17636674t-289.41093486 78.10934756T137.5680369 947.97883633q0 11.73897752-9.02998248 20.76895898t-20.76895898 9.02998248-21.22045867-9.02998248-9.48148114-20.76895898q0-151.70370337 84.88183365-273.1569666T383.1835574 499.18871265z m49.66490312-244.71252216L686.59096515 254.47619049l-126.41975365 308.82539682z m-43.34391569-2.70899505L521.34228756 574.13756649l-321.46737168-345.84832508z m530.05996495-23.47795403l-321.46737168 345.84832508 132.74074008-322.37037105z m-493.94003505-14.44797156l59.59788394-160.73368584L634.21706699 53.10758401l60.50088229 160.73368584-269.09347455 0zM676.65798433 53.10758401L791.33876045 53.10758401 924.07950153 185.84832408l-186.92063493 26.18694908z m-480.39506185 132.74074007L329.00366356 53.10758401 443.68443969 53.10758401l-60.50088229 158.92768915z" p-id="6024"></path></svg>