<?xml version="1.0" standalone="no"?><!DOCTYPE svg PUBLIC "-//W3C//DTD SVG 1.1//EN" "http://www.w3.org/Graphics/SVG/1.1/DTD/svg11.dtd"><svg t="1732356434701" class="icon" viewBox="0 0 1024 1024" version="1.1" xmlns="http://www.w3.org/2000/svg" p-id="6655" xmlns:xlink="http://www.w3.org/1999/xlink" width="200" height="200"><path d="M1024 512c0 282.7648-229.2352 512-512 512S0 794.7648 0 512 229.2352 0 512 0s512 229.2352 512 512z" fill="#91CDFF" p-id="6656"></path><path d="M360 110.0032a30.0032 30.0032 0 0 1 30.0032-30.0032h240a30.0032 30.0032 0 0 1 0 60.0064h-240a30.0032 30.0032 0 0 1-30.0032-30.0032z m460.0064 659.9936a30.0032 30.0032 0 0 0 29.9904 30.0032h85.3632a511.488 511.488 0 0 0 35.1616-60.0064h-120.5248a30.0032 30.0032 0 0 0-30.0032 30.0032z m-70.016-489.9968h-240a30.0032 30.0032 0 0 0 0 60.0064h240a30.0032 30.0032 0 0 0 0-60.0064z m-419.9936 80H89.9968a30.0032 30.0032 0 0 0 0 60.0064h240a30.0032 30.0032 0 0 0 0-60.0064zM70.016 560H2.2528c1.8944 20.3648 4.992 40.3968 9.2032 60.0064h58.5472a30.0032 30.0032 0 0 0 0-60.0064z m359.1552-360H329.984a30.0032 30.0032 0 0 1-29.9904-30.0032 30.0032 30.0032 0 0 0-30.0032-30.0032h-109.7728a514.8288 514.8288 0 0 0-54.1696 60.0064h23.936a30.0032 30.0032 0 0 1 30.0032 30.0032 30.0032 30.0032 0 0 0 30.0032 29.9904h240a30.0032 30.0032 0 0 0 29.952-31.4496c-0.7552-16.128-14.6432-28.544-30.7968-28.544z m539.3664 80H830.848c-16.1536 0-30.0544 12.416-30.8096 28.544a30.0032 30.0032 0 0 0 29.952 31.4496h100.0064A30.0032 30.0032 0 0 1 960 370.0096a30.0032 30.0032 0 0 0 30.0032 30.0032h21.6832a508.3392 508.3392 0 0 0-43.1616-120z" fill="#ABDCFF" p-id="6657"></path><path d="M872 73.9968V876.032C797.44 949.76 700.3648 1000.7552 592 1017.7664V129.9968c0-5.5168 4.48-9.9968 9.9968-9.9968h110.0032V73.9968c0-5.5168 4.48-9.9968 9.9968-9.9968h140.0064c5.5168 0 9.9968 4.48 9.9968 9.9968z" fill="#EBEBF0" p-id="6658"></path><path d="M652.0064 164.0064v840.6144c-6.6176 1.8688-13.2864 3.584-20.0064 5.1968v0.0128l-1.7152 0.3968c-1.0368 0.256-2.0736 0.4864-3.1104 0.7168-11.584 2.6624-23.3088 4.9536-35.1744 6.8224V129.9968c0-5.5168 4.48-9.9968 9.9968-9.9968h30.0032V160h16c2.2144 0 4.0064 1.792 4.0064 4.0064z m43.4944-4.0064h-22.0032a3.9936 3.9936 0 0 0-3.9936 4.0064v835.2768a508.672 508.672 0 0 0 29.9904-10.7136v-824.576a3.9936 3.9936 0 0 0-3.9936-3.9936z m142.5024 0H816a3.9936 3.9936 0 0 0-4.0064 4.0064v762.9056a514.4192 514.4192 0 0 0 30.0032-23.488V164.0064a3.9936 3.9936 0 0 0-3.9936-4.0064z m-95.0016 0h-22.0032a3.9936 3.9936 0 0 0-3.9936 4.0064v817.2672c10.1632-4.4544 20.1856-9.216 29.9904-14.2976V163.9936a3.9936 3.9936 0 0 0-3.9936-3.9936z m47.488 0H768.512a3.9936 3.9936 0 0 0-3.9936 4.0064v793.472a512.512 512.512 0 0 0 29.9904-18.432v-775.04a3.9936 3.9936 0 0 0-3.9936-4.0064z" fill="#D2D2D7" p-id="6659"></path><path d="M532.0064 390.0032v509.9904s-138.048 110.336-141.0048 109.6192A510.912 510.912 0 0 1 152 876.032V390.0032c0-5.5296 4.48-10.0096 9.9968-10.0096h68.0064v-49.9968c0-5.5168 4.48-9.9968 9.9968-9.9968h89.9968V169.9968a9.9968 9.9968 0 0 1 20.0064 0V320h89.9968c5.5168 0 9.9968 4.48 9.9968 9.9968v50.0096h72c5.5296 0 10.0096 4.48 10.0096 9.984z" fill="#505A8C" p-id="6660"></path><path d="M385.7152 430.0032v40c0 5.5168-4.48 9.9968-9.9968 9.9968h-71.424a9.9968 9.9968 0 0 1-10.0096-9.9968v-40c0-5.5296 4.48-10.0096 9.9968-10.0096h71.424c5.5296 0 10.0096 4.48 10.0096 10.0096z m-9.9968 69.9904h-71.424a9.9968 9.9968 0 0 0-10.0096 10.0096v40c0 5.5168 4.48 9.9968 9.9968 9.9968h71.424c5.5296 0 10.0096-4.48 10.0096-9.9968v-40a9.9968 9.9968 0 0 0-9.9968-10.0096z m0 160h-71.424a9.9968 9.9968 0 0 0-10.0096 10.0096v40c0 5.5168 4.48 9.9968 9.9968 9.9968h71.424c5.5296 0 10.0096-4.48 10.0096-9.9968v-40a9.9968 9.9968 0 0 0-9.9968-10.0096z m0-80h-71.424a9.9968 9.9968 0 0 0-10.0096 10.0096v40c0 5.5168 4.48 9.9968 9.9968 9.9968h71.424c5.5296 0 10.0096-4.48 10.0096-9.9968v-40a9.9968 9.9968 0 0 0-9.9968-10.0096z m-114.2912-160h-51.4304v-39.9872h-48a9.9968 9.9968 0 0 0-9.9968 9.984V876.032a514.56 514.56 0 0 0 57.9968 49.408v-45.44h51.4304c5.5168 0 9.9968-4.48 9.9968-9.9968v-40a9.9968 9.9968 0 0 0-9.984-9.9968h-51.4432V800h51.4304c5.5168 0 9.9968-4.48 9.9968-9.9968v-40a9.9968 9.9968 0 0 0-9.984-10.0096h-51.4432V720h51.4304c5.5168 0 9.9968-4.48 9.9968-9.9968v-40a9.9968 9.9968 0 0 0-9.984-10.0096h-51.4432V640h51.4304c5.5168 0 9.9968-4.48 9.9968-9.9968v-40a9.9968 9.9968 0 0 0-9.984-10.0096h-51.4432V560h51.4304c5.5168 0 9.9968-4.48 9.9968-9.9968v-40a9.9968 9.9968 0 0 0-9.984-10.0096h-51.4432V480h51.4304c5.5168 0 9.9968-4.48 9.9968-9.9968v-40a9.9968 9.9968 0 0 0-9.984-10.0096z m114.2912 320h-71.424a9.9968 9.9968 0 0 0-10.0096 10.0096v40c0 5.5168 4.48 9.9968 9.9968 9.9968h71.424c5.5296 0 10.0096-4.48 10.0096-9.9968v-40a9.9968 9.9968 0 0 0-9.9968-10.0096z m0 80h-71.424a9.9968 9.9968 0 0 0-10.0096 10.0096v40c0 5.5168 4.48 9.9968 9.9968 9.9968h71.424c5.5296 0 10.0096-4.48 10.0096-9.9968v-40a9.9968 9.9968 0 0 0-9.9968-9.9968z m114.2784 0h-71.424a9.9968 9.9968 0 0 0-9.9968 10.0096v40c0 5.5168 4.48 9.9968 9.984 9.9968h71.4368c5.5296 0 10.0096-4.48 10.0096-9.9968v-40a9.9968 9.9968 0 0 0-10.0096-9.9968z m0-240h-71.424a9.9968 9.9968 0 0 0-9.9968 10.0096v40c0 5.5168 4.48 9.9968 9.984 9.9968h71.4368c5.5296 0 10.0096-4.48 10.0096-9.9968v-40a9.9968 9.9968 0 0 0-10.0096-10.0096z m0-160h-71.424a9.9968 9.9968 0 0 0-9.9968 10.0096v40c0 5.5168 4.48 9.9968 9.984 9.9968h71.4368c5.5296 0 10.0096-4.48 10.0096-9.9968v-40a9.9968 9.9968 0 0 0-10.0096-10.0096z m0 80h-71.424a9.9968 9.9968 0 0 0-9.9968 10.0096v40c0 5.5168 4.48 9.9968 9.984 9.9968h71.4368c5.5296 0 10.0096-4.48 10.0096-9.9968v-40a9.9968 9.9968 0 0 0-10.0096-10.0096z m0 240h-71.424a9.9968 9.9968 0 0 0-9.9968 10.0096v40c0 5.5168 4.48 9.9968 9.984 9.9968h71.4368c5.5296 0 10.0096-4.48 10.0096-9.9968v-40a9.9968 9.9968 0 0 0-10.0096-10.0096z m0-80h-71.424a9.9968 9.9968 0 0 0-9.9968 10.0096v40c0 5.5168 4.48 9.9968 9.984 9.9968h71.4368c5.5296 0 10.0096-4.48 10.0096-9.9968v-40a9.9968 9.9968 0 0 0-10.0096-10.0096z" fill="#414B82" p-id="6661"></path><path d="M632.9984 609.9968v399.5776A513.1776 513.1776 0 0 1 512 1024c-41.6896 0-82.2016-5.0176-120.9984-14.4256V609.9968c0-5.5168 4.48-9.9968 9.9968-9.9968h59.008v-30.0032c0-5.5168 4.48-9.9968 9.984-9.9968h84.0064c5.5296 0 10.0096 4.48 10.0096 9.9968v30.0032h58.9952c5.5168 0 9.9968 4.48 9.9968 9.9968z" fill="#FFE67D" p-id="6662"></path><path d="M587.008 664.9984h-143.36a10.6368 10.6368 0 1 0 0 21.2864h143.36a15.0016 15.0016 0 0 1 0 30.0032h-143.36a10.6368 10.6368 0 1 0 0 21.2864h143.36a15.0016 15.0016 0 0 1 0 29.9904h-143.36a10.6368 10.6368 0 1 0 0 21.2864h143.36a15.0016 15.0016 0 0 1 0 30.0032h-143.36a10.6368 10.6368 0 1 0 0 21.2864h143.36a15.0016 15.0016 0 0 1 0 29.9904h-143.36a10.6368 10.6368 0 1 0 0 21.2864h143.36a15.0016 15.0016 0 0 1 0 30.0032h-143.36a10.6368 10.6368 0 1 0 0 21.2864h143.36a15.0016 15.0016 0 0 1 0 30.0032h-143.36a10.6368 10.6368 0 1 0 0 21.2736h143.36c8.2816 0 14.9888 6.72 14.9888 15.0016v7.104A515.072 515.072 0 0 1 512 1024a515.072 515.072 0 0 1-120.9984-14.3872V609.9968c0-5.5168 4.48-9.9968 9.9968-9.9968h32v24.3584c0 5.888 4.7616 10.6368 10.6496 10.6368h143.36a15.0016 15.0016 0 0 1 0 30.0032z" fill="#FFD06B" p-id="6663"></path><path d="M980.0064 529.9968a30.0032 30.0032 0 0 1-30.0032 30.0032h-240a30.0032 30.0032 0 0 1 0-60.0064h240a30.0032 30.0032 0 0 1 30.0032 30.0032zM240 750.0032a30.0032 30.0032 0 0 0-30.0032-30.0032H44.0448a510.4384 510.4384 0 0 0 31.6416 60.0064h134.3104a30.0032 30.0032 0 0 0 30.0032-30.0032z m169.152 149.9904h-99.1488a30.0032 30.0032 0 0 1-30.0032-29.9904 30.0032 30.0032 0 0 0-30.0032-30.0032H118.8736c40.4224 48.384 89.6128 89.2032 145.1392 120H409.984a30.0032 30.0032 0 0 0 29.9648-31.4496c-0.7552-16.128-14.656-28.544-30.8096-28.544z" fill="#C8E6FF" p-id="6664"></path></svg>