<?xml version="1.0" standalone="no"?><!DOCTYPE svg PUBLIC "-//W3C//DTD SVG 1.1//EN" "http://www.w3.org/Graphics/SVG/1.1/DTD/svg11.dtd"><svg t="1732356412892" class="icon" viewBox="0 0 1024 1024" version="1.1" xmlns="http://www.w3.org/2000/svg" p-id="5718" xmlns:xlink="http://www.w3.org/1999/xlink" width="200" height="200"><path d="M512.443733 925.610667l-325.973333-186.026667v-373.76l162.133333-93.866667 17.066667 27.306667-146.773333 85.333333v336.213334l293.546666 168.96 293.546667-168.96v-336.213334l-146.773333-85.333333 15.36-27.306667 163.84 93.866667v373.76z" fill="#1296db" p-id="5719"></path><path d="M512.443733 570.624l-319.146666-182.613333 17.066666-27.306667 302.08 172.373333 302.08-172.373333 15.36 27.306667z" fill="#1296db" p-id="5720"></path><path d="M495.377067 551.850667h32.426666v354.986666h-32.426666z" fill="#1296db" p-id="5721"></path><path d="M511.658667 392.533333l-170.666667-98.986666V98.986667l170.666667-98.986667 170.666666 98.986667v196.266666l-170.666666 97.28z m-138.24-116.053333l138.24 80.213333 138.24-80.213333V117.76l-138.24-80.213333-138.24 80.213333v158.72z" fill="#1296db" p-id="5722"></path><path d="M511.658667 215.04l-162.133334-93.866667 15.36-27.306666 146.773334 83.626666 146.773333-83.626666 17.066667 27.306666z" fill="#1296db" p-id="5723"></path><path d="M496.298667 196.266667h32.426666v177.493333h-32.426666z" fill="#1296db" p-id="5724"></path><path d="M39.253333 751.7184l-39.253333-22.186667 39.253333-22.186666 11.946667 22.186666zM85.333333 719.291733l-17.066666-29.013333 30.72-17.066667 17.066666 27.306667-30.72 18.773333z m59.733334-35.84l-17.066667-27.306666 30.72-17.066667 17.066667 27.306667-30.72 17.066666zM938.666667 719.291733l-30.72-17.066666 17.066666-27.306667 30.72 17.066667-17.066666 27.306666z m-59.733334-35.84l-30.72-17.066666 17.066667-27.306667 30.72 17.066667-17.066667 27.306666zM984.746667 751.7184l-11.946667-22.186667 11.946667-22.186666 39.253333 22.186666zM564.906667 994.065067l-17.066667-27.306667 30.72-17.066667 17.066667 27.306667-30.72 17.066667z m59.733333-34.133334l-17.066667-27.306666 30.72-17.066667 17.066667 27.306667-30.72 17.066666z m59.733333-35.84l-17.066666-27.306666 30.72-17.066667 17.066666 27.306667-30.72 17.066666z m59.733334-34.133333l-17.066667-27.306667 30.72-17.066666 17.066667 27.306666-30.72 17.066667z m61.44-34.133333l-17.066667-27.306667 30.72-17.066667 17.066667 27.306667-30.72 17.066667z m59.733333-34.133334l-17.066667-27.306666 30.72-17.066667 17.066667 27.306667-30.72 17.066666z m59.733333-35.84l-17.066666-27.306666 30.72-17.066667 17.066666 27.306667-30.72 17.066666zM512 1023.0784l-22.186667-11.946667 17.066667-29.013333h11.946667l15.36 29.013333zM459.093333 994.065067l-30.72-17.066667 17.066667-27.306667 30.72 17.066667-17.066667 27.306667z m-59.733333-34.133334l-30.72-17.066666 17.066667-27.306667 30.72 17.066667-17.066667 27.306666z m-59.733333-35.84l-30.72-17.066666 17.066666-27.306667 30.72 17.066667-17.066666 27.306666z m-59.733334-34.133333l-30.72-17.066667 17.066667-27.306666 30.72 17.066666-17.066667 27.306667z m-61.44-34.133333l-30.72-17.066667 17.066667-27.306667 30.72 17.066667-17.066667 27.306667z m-59.733333-34.133334l-30.72-17.066666 17.066667-27.306667 30.72 17.066667-17.066667 27.306666z m-59.733333-35.84l-30.72-17.066666 17.066666-27.306667 30.72 17.066667-17.066666 27.306666z" fill="#1296db" p-id="5725"></path></svg>