<?xml version="1.0" standalone="no"?><!DOCTYPE svg PUBLIC "-//W3C//DTD SVG 1.1//EN" "http://www.w3.org/Graphics/SVG/1.1/DTD/svg11.dtd"><svg t="1733877816926" class="icon" viewBox="0 0 1024 1024" version="1.1" xmlns="http://www.w3.org/2000/svg" p-id="13111" xmlns:xlink="http://www.w3.org/1999/xlink" width="128" height="128"><path d="M791.7056 778.24a147.1488 147.1488 0 0 1-140.1856-95.5392l-9.5744-27.3408H382.0544l-9.6256 27.3408A147.1488 147.1488 0 0 1 232.2944 778.24a132.1472 132.1472 0 0 1-101.7856-46.4896 118.1696 118.1696 0 0 1-26.3168-96.5632l42.7008-270.848a167.7824 167.7824 0 0 1 128.9216-132.0448A1238.3744 1238.3744 0 0 1 511.9488 204.8a1238.3744 1238.3744 0 0 1 236.1856 27.4944 167.7824 167.7824 0 0 1 128.9728 132.0448l42.7008 270.848a118.2208 118.2208 0 0 1-26.4192 96.6144 132.096 132.096 0 0 1-101.6832 46.4384zM655.3088 460.8a51.2 51.2 0 1 0 51.2 51.2 51.2 51.2 0 0 0-51.2-51.2z m-404.48-40.96a15.36 15.36 0 0 0-15.36 15.36v30.72a15.36 15.36 0 0 0 15.36 15.36h66.56v66.56a15.36 15.36 0 0 0 15.36 15.36h30.72a15.36 15.36 0 0 0 15.36-15.36V481.28h66.56a15.36 15.36 0 0 0 15.36-15.36v-30.72a15.36 15.36 0 0 0-15.36-15.36h-66.56V353.28a15.36 15.36 0 0 0-15.36-15.36h-30.72a15.36 15.36 0 0 0-15.36 15.36v66.56z m486.4-81.92a51.2 51.2 0 1 0 51.2 51.2 51.2 51.2 0 0 0-51.2-51.2z" fill="#F92D2D" p-id="13112"></path></svg>