<?xml version="1.0" standalone="no"?><!DOCTYPE svg PUBLIC "-//W3C//DTD SVG 1.1//EN" "http://www.w3.org/Graphics/SVG/1.1/DTD/svg11.dtd"><svg t="1733877855420" class="icon" viewBox="0 0 1098 1024" version="1.1" xmlns="http://www.w3.org/2000/svg" p-id="14556" xmlns:xlink="http://www.w3.org/1999/xlink" width="137.25" height="128"><path d="M93.74354465 938.12132297q-24.04277568-27.88962032-24.04277676-64.43463997 0-28.85133147 15.38737743-52.41325102T127.40343083 786.17097854Q203.37860252 910.23170264 333.2095925 978.51318615q-35.58330849 18.27250982-71.16661697 18.27250982-39.43015204 0-67.31977236-15.38737634-35.58330849 15.38737636-67.31977234 15.38737634-32.69817501 0-61.54950648-12.02138784t-45.200419-33.17903113q39.43015204-2.88513347 73.0900393-13.46395403zM875.61461699 459.18922619q-11.54053279 0-33.65988619-3.84684354-20.19593214-6.73197701-32.69817501-24.04277676t-12.50224394-38.46844089q0-28.85133147 19.23422098-48.08555244t48.08555242-19.23421991q8.65539933 0 15.38737636 6.73197704t6.73197701 15.38737634q0 10.57882165 6.251122 16.34908751t16.34908751 5.77026584 16.3490875-5.77026584 6.25112199-16.34908751q0-29.81304263-20.19593214-47.12384129-17.31079867-20.19593214-47.12384021-20.19593106-47.12384131 0-79.34116129 32.69817502t-32.21731997 79.8220163q0 40.3918632 28.85133146 73.0900382-43.27699666 16.34908751-85.59228216 16.34908752-68.28148353 0-129.83098999-38.46844089-25.00448685 15.38737636-59.62608417 15.38737636-29.81304263 0-56.74095177-13.46395404-22.11935337-62.51121766-22.11935338-120.2138795 0-47.12384131 13.46395403-94.24768258 28.85133147-18.27250982 65.39635112-18.27250873 17.31079867 0 25.966198 2.88513236 27.88962032-32.69817501 71.16661697-50.97068482t92.32425919-18.27250983q50.00897367 0 91.84340414 17.79165478T857.34210716 212.99120134l18.27250983 0q54.81752948 0 94.24768151 36.54501856t39.4301531 87.03484945-39.4301531 86.55399332-94.24768151 36.06416352z m-2.88513239 271.20251279q-2.88513347-18.27250982-13.46395512-35.58330849 67.31977234-17.31079867 122.61815685-55.77924062T1074.68880164 544.78150836q-10.57882165 141.37152279-94.24768151 252.93000297-39.43015204-60.58779534-107.71163553-67.31977235z m-780.90936225-226.00209382q0-127.90756769 60.10693921-237.06177048T315.89879383 91.33475456 545.74773118 13.91701666q-75.01346053 51.932396-118.77131221 133.67783357T383.21856618 325.51139265q0 124.06072412 71.64747202 222.63610421T642.88054617 686.15303115q30.77475269-25.00448685 75.97517166-25.00448684 13.46395404 0 20.19593214 1.92342234l3.84684464 0q3.84684464 0.96171116 9.13625437 2.40427733T761.17100335 667.88052134q1.92342231 0 4.80855577 1.92342232l12.50224288 6.731977q1.92342231 0 2.88513347 1.4425662t1.92342232 1.44256727q1.92342231 0.96171116 6.73197701 4.32769966t6.73197705 4.32769967l4.80855577 3.84684355q0 0.96171116 2.40427735 2.40427736t3.84684463 3.36598958 2.40427735 3.84684355l4.80855471 3.84684464q15.38737636 20.19593214 15.38737634 45.2004179l0 22.11935443 22.11935445 0q31.73646386 0 58.66437303 16.82994256T951.58978865 833.29481982q0 1.92342231 3.3659896 8.17454319T958.32176676 851.56732964q0 0.96171116 0.96171116 3.36598851t0.96171008 3.36598849q0 3.84684464 1.92342232 6.73197703 2.88513347 6.73197701 2.88513347 20.19593212 0 47.12384131-32.69817501 79.3411602t-79.82201633 32.21731998q-37.5067308 0-69.24319466-25.00448686 25.00448685-31.73646386 25.00448685-64.43463994 0-81.74543862-178.87825251-89.43912572 57.70266185 4.8085547 95.69024769 29.81304154T763.09442566 907.34656917q0 25.96619799-25.48534187 48.08555245t-65.87720616 32.69817501q-58.66437301 8.65539933-87.51570449 8.65539934-134.63954469 0-247.64059213-65.87720616t-178.87825252-178.8782525T91.82012235 504.38964516z" fill="#de2854" p-id="14557"></path></svg>