<?xml version="1.0" standalone="no"?><!DOCTYPE svg PUBLIC "-//W3C//DTD SVG 1.1//EN" "http://www.w3.org/Graphics/SVG/1.1/DTD/svg11.dtd"><svg t="1733877886381" class="icon" viewBox="0 0 1024 1024" version="1.1" xmlns="http://www.w3.org/2000/svg" p-id="15815" xmlns:xlink="http://www.w3.org/1999/xlink" width="128" height="128"><path d="M161.3683 907.042869c78.54185 50.821197 401.949469 235.625551 693.016326 0a20.79049 20.79049 0 0 0 0-23.100545 481.415341 481.415341 0 0 0-679.156-18.480435l-18.480435 13.860327a20.79049 20.79049 0 0 0 0 23.100544z" fill="#4EB780" opacity=".3" p-id="15816"></path><path d="M503.256354 283.328175h46.201088v577.513605h-46.201088z" fill="#4EB780" p-id="15817"></path><path d="M535.597116 458.892311H378.513415a101.642395 101.642395 0 0 1-36.960871-4.620109A351.128272 351.128272 0 0 1 105.926993 277.322033 300.307075 300.307075 0 0 1 68.966123 135.484692V15.361862l18.480435-4.620109a443.530449 443.530449 0 0 1 194.044572 0 343.736098 343.736098 0 0 1 198.66468 101.180384 329.413761 329.413761 0 0 1 73.921741 180.646255V323.523122z" fill="#4EB780" p-id="15818"></path><path d="M366.963143 296.72649l31.878751-30.030707 132.597124 152.463592-31.41674 29.568696-133.059135-152.001581z" fill="#FFFFFF" opacity=".32" p-id="15819"></path><path d="M653.409891 572.084978h-18.480435l-129.363048-13.860327v-161.70381a101.642395 101.642395 0 0 1 4.620109-36.96087 369.608707 369.608707 0 0 1 170.944027-235.625551 300.307075 300.307075 0 0 1 143.223375-36.960871h115.502721l4.620109 18.480435a457.852786 457.852786 0 0 1 0 194.044572 344.198109 344.198109 0 0 1-101.642395 198.66468 328.027728 328.027728 0 0 1-180.184245 73.921742z" fill="#4EB780" p-id="15820"></path><path d="M531.485219 495.853182l156.852695-156.852696 26.103615 26.149816-156.806494 156.806495z" fill="#FFFFFF" opacity=".32" p-id="15821"></path></svg>