<?xml version="1.0" standalone="no"?><!DOCTYPE svg PUBLIC "-//W3C//DTD SVG 1.1//EN" "http://www.w3.org/Graphics/SVG/1.1/DTD/svg11.dtd"><svg t="1732356290458" class="icon" viewBox="0 0 1024 1024" version="1.1" xmlns="http://www.w3.org/2000/svg" p-id="2165" xmlns:xlink="http://www.w3.org/1999/xlink" width="200" height="200"><path d="M506.538667 494.933333m-472.25363 0a472.25363 472.25363 0 1 0 944.507259 0 472.25363 472.25363 0 1 0-944.507259 0Z" fill="#252B50" p-id="2166"></path><path d="M155.154963 798.226963l-6.219852 5.12c6.902519 7.964444 14.108444 15.777185 21.579852 23.36237h0.379259c21.010963 0 215.988148-31.478519 215.988148-31.478518-27.003259-15.018667-231.727407 2.996148-231.727407 2.996148z" fill="#A3B9DD" p-id="2167"></path><path d="M144.57363 798.226963h306.782814v-125.989926H68.759704a472.064 472.064 0 0 0 75.813926 125.989926z" fill="#EDEDED" p-id="2168"></path><path d="M305.872593 583.755852h58.481777v58.481778H305.872593z" fill="#BAC1D8" p-id="2169"></path><path d="M68.759704 672.237037h409.6v-29.961481H57.761185c3.337481 10.126222 6.97837 20.100741 10.998519 29.961481z" fill="#303B78" p-id="2170"></path><path d="M248.869926 473.543111a246.708148 192.70163 0 1 0 493.416296 0 246.708148 192.70163 0 1 0-493.416296 0Z" fill="#CCD6ED" p-id="2171"></path><path d="M248.869926 461.520593a246.708148 180.717037 0 1 0 493.416296 0 246.708148 180.717037 0 1 0-493.416296 0Z" fill="#FFFFFF" p-id="2172"></path><path d="M411.761778 361.813333h160.161185a95.383704 95.383704 0 0 1 95.383704 95.383704v38.456889a124.09363 124.09363 0 0 1-124.09363 124.09363H440.471704a124.09363 124.09363 0 0 1-124.09363-124.09363v-38.456889a95.383704 95.383704 0 0 1 95.383704-95.383704z" fill="#DCDDDD" p-id="2173"></path><path d="M409.372444 381.307259h164.977778a92.99437 92.99437 0 0 1 92.918519 92.994371v21.276444a124.207407 124.207407 0 0 1-124.169482 124.207407h-102.513778a124.207407 124.207407 0 0 1-124.207407-124.245333v-21.31437A92.99437 92.99437 0 0 1 409.372444 381.269333v0.037926z" fill="#282828" p-id="2174"></path><path d="M191.585138 547.178067a66.029037 37.925926 62.06 1 0 67.010465-35.540134 66.029037 37.925926 62.06 1 0-67.010465 35.540134Z" fill="#2E49A0" p-id="2175"></path><path d="M305.872593 594.223407s-49.455407-59.922963-53.968593-109.454222c-4.513185-49.493333 0-92.766815 26.775704-203.131259a0.18963 0.18963 0 1 0-0.341334-0.18963c-7.168 8.154074-84.195556 98.417778-78.923851 194.332445 4.513185 82.488889 79.492741 124.472889 106.458074 118.480592z" fill="#F7F8F9" p-id="2176"></path><path d="M732.645136 587.774114a37.925926 66.029037 27.94 1 0 61.875373-116.665218 37.925926 66.029037 27.94 1 0-61.875373 116.665218Z" fill="#2E49A0" p-id="2177"></path><path d="M167.556741 823.675259c181.323852 187.050667 479.876741 191.905185 667.154963 10.808889-90.794667-24.272593-216.89837-39.291259-356.352-39.291259-117.418667 0-225.393778 10.657185-310.802963 28.520296z" fill="#A3B9DD" p-id="2178"></path><path d="M417.60237 958.767407c51.958519 9.898667 105.168593 11.07437 157.468445 3.413334v-19.986963h-157.468445v16.573629z" fill="#F2F2F2" p-id="2179"></path><path d="M682.780444 594.223407s49.493333-59.922963 53.968593-109.454222c4.551111-49.493333 0-92.766815-26.775704-203.131259a0.18963 0.18963 0 1 1 0.341334-0.18963c7.168 8.154074 84.195556 98.417778 78.923852 194.332445-4.475259 82.488889-79.454815 124.472889-106.458075 118.480592z" fill="#F7F8F9" p-id="2180"></path><path d="M440.585481 664.76563h111.502223a67.204741 67.204741 0 0 1 67.242666 67.20474v149.504a75.700148 75.700148 0 0 1-75.738074 75.700149h-94.473481a75.700148 75.700148 0 0 1-75.738074-75.700149v-149.504a67.204741 67.204741 0 0 1 67.20474-67.242666z" fill="#FFFFFF" p-id="2181"></path><path d="M249.969778 887.428741a37.925926 37.925926 0 1 0 75.851852 0 37.925926 37.925926 0 1 0-75.851852 0Z" fill="#303B78" p-id="2182"></path><path d="M274.394074 708.228741h98.986667v37.925926h-98.986667z" fill="#303B78" p-id="2183"></path><path d="M349.37363 861.221926c10.315852 8.343704 15.890963 21.238519 15.018666 34.474667a32.312889 32.312889 0 0 1-31.478518 31.478518s10.467556-16.497778 5.95437-27.003259c-4.475259-10.467556-19.493926-13.463704-25.486222-7.471408-5.992296 5.992296-11.984593 22.490074 10.505481 32.995556 0 0-32.995556 0-36.029629-29.999407-2.958222-29.999407 24.045037-38.987852 24.045037-38.987852s-24.007111-32.995556-1.517037-82.488889c22.490074-49.493333 58.481778-71.983407 62.957037-55.48563 4.551111 16.497778-4.475259 46.497185-4.475259 80.971852 0 34.512593-2.996148 49.493333-19.493926 61.477926zM641.327407 861.221926a40.96 40.96 0 0 0-14.98074 34.474667c1.517037 22.490074 19.493926 31.478519 31.478518 31.478518 0 0-10.505481-16.497778-5.992296-27.003259 4.475259-10.467556 19.493926-13.463704 25.486222-7.471408 5.992296 5.992296 11.984593 22.490074-10.505481 32.995556 0 0 32.995556 0 36.029629-29.999407 2.958222-29.999407-24.007111-38.987852-24.007111-38.987852s23.969185-32.995556 1.517037-82.488889c-22.528-49.493333-58.519704-71.983407-63.032889-55.48563-4.475259 16.497778 4.513185 46.497185 4.513185 80.971852 0 34.512593 3.034074 49.493333 19.493926 61.477926z" fill="#FFFFFF" p-id="2184"></path><path d="M424.353185 499.787852m-37.925926 0a37.925926 37.925926 0 1 0 75.851852 0 37.925926 37.925926 0 1 0-75.851852 0Z" fill="#3AA3F9" p-id="2185"></path><path d="M553.339259 499.787852m-37.925926 0a37.925926 37.925926 0 1 0 75.851852 0 37.925926 37.925926 0 1 0-75.851852 0Z" fill="#3AA3F9" p-id="2186"></path><path d="M445.364148 658.735407m18.962963 0l59.543704 0q18.962963 0 18.962963 18.962963l0 0q0 18.962963-18.962963 18.962963l-59.543704 0q-18.962963 0-18.962963-18.962963l0 0q0-18.962963 18.962963-18.962963Z" fill="#BFBFBF" p-id="2187"></path><path d="M496.336593 798.226963m-37.925926 0a37.925926 37.925926 0 1 0 75.851852 0 37.925926 37.925926 0 1 0-75.851852 0Z" fill="#3C59AA" p-id="2188"></path><path d="M496.336593 831.943111a33.754074 33.754074 0 1 1 0-67.508148 33.754074 33.754074 0 0 1 0 67.508148z m0-65.991111a32.237037 32.237037 0 1 0 0 64.474074 32.237037 32.237037 0 0 0 0-64.474074z" fill="#4F6EB2" p-id="2189"></path><path d="M368.867556 721.73037m18.962963 0l0 0q18.962963 0 18.962962 18.962963l0 0q0 18.962963-18.962962 18.962963l0 0q-18.962963 0-18.962963-18.962963l0 0q0-18.962963 18.962963-18.962963Z" fill="#BFBFBF" p-id="2190"></path><path d="M611.821037 721.73037m18.962963 0l0 0q18.962963 0 18.962963 18.962963l0 0q0 18.962963-18.962963 18.962963l0 0q-18.962963 0-18.962963-18.962963l0 0q0-18.962963 18.962963-18.962963Z" fill="#BFBFBF" p-id="2191"></path><path d="M327.642074 761.476741c-1.896296 4.475259-3.716741 8.988444-5.30963 13.577481a291.157333 291.157333 0 0 0-4.475259 13.842963 121.66637 121.66637 0 0 0-3.185778 14.070519c-0.83437 4.702815-1.099852 9.481481-0.796444 14.222222a32.995556 32.995556 0 0 0 1.21363 6.826667 35.119407 35.119407 0 0 0 12.591407 16.346074 32.995556 32.995556 0 0 0 12.970667 5.385481 28.672 28.672 0 0 0 7.168 0.379259 18.128593 18.128593 0 0 0 3.489185-0.64474 8.836741 8.836741 0 0 0 3.261629-1.517037 12.743111 12.743111 0 0 1-6.674962 3.034074 29.771852 29.771852 0 0 1-7.471408 0.265481 32.730074 32.730074 0 0 1-14.108444-4.854518 35.764148 35.764148 0 0 1-14.108445-17.445926 35.498667 35.498667 0 0 1-1.403259-7.471408 61.364148 61.364148 0 0 1 1.024-14.904889c0.872296-4.816593 2.123852-9.595259 3.716741-14.260148 3.109926-9.329778 7.168-18.356148 12.09837-26.851555zM663.210667 761.476741c4.854519 8.495407 8.874667 17.445926 11.984592 26.737778 1.554963 4.664889 2.806519 9.481481 3.716741 14.298074 0.948148 4.93037 1.289481 9.898667 0.986074 14.904888a35.498667 35.498667 0 0 1-1.403259 7.471408 35.764148 35.764148 0 0 1-14.108445 17.445926 32.730074 32.730074 0 0 1-14.070518 4.854518 29.771852 29.771852 0 0 1-7.509333-0.303407 12.743111 12.743111 0 0 1-6.674963-2.996148 8.836741 8.836741 0 0 0 3.261629 1.517037c1.137778 0.303407 2.351407 0.530963 3.527111 0.606815a28.672 28.672 0 0 0 7.130074-0.37926 32.995556 32.995556 0 0 0 22.603852-15.511703 23.210667 23.210667 0 0 0 2.996148-6.181926 32.995556 32.995556 0 0 0 1.21363-6.826667c0.265481-4.778667 0-9.557333-0.83437-14.222222a121.66637 121.66637 0 0 0-3.147852-14.070519 183.409778 183.409778 0 0 0-4.513185-13.842963c-1.668741-4.551111-3.299556-9.02637-5.157926-13.501629zM314.254222 855.684741l32.995556 2.161778a2.275556 2.275556 0 0 1-0.265482 4.475259l-33.033481-2.161778a2.275556 2.275556 0 1 1 0.303407-4.475259zM677.205333 861.601185l-33.033481 2.161778a2.275556 2.275556 0 1 1-0.303408-4.475259l33.033482-2.199704a2.275556 2.275556 0 1 1 0.303407 4.513185z" fill="#00A0E9" p-id="2192"></path><path d="M152.917333 708.228741h62.994963v77.975703H152.917333zM93.942519 724.726519h12.515555v-16.497778H85.105778c2.844444 5.575111 5.764741 11.07437 8.836741 16.497778z" fill="#303B78" p-id="2193"></path><path d="M119.921778 757.684148l-6.674963-1.289481c15.17037 22.831407 32.350815 44.297481 51.237926 64.13274l0.417185 0.18963-19.493926-45.018074-25.486222-17.976889z" fill="#5279D1" p-id="2194"></path><path d="M824.775111 795.230815l-36.02963 40.466963a189.62963 189.62963 0 0 0-11.984592 43.501037 6.371556 6.371556 0 0 0 0.151704 2.996148 474.680889 474.680889 0 0 0 63.450074-53.134222l-15.587556-33.867852z" fill="#31487E" p-id="2195"></path><path d="M824.775111 795.230815l15.54963 33.754074c9.102222-9.02637 17.749333-18.432 26.017185-28.254815l-41.566815-5.537185z" fill="#6C82BB" p-id="2196"></path><path d="M42.666667 583.755852h63.753481v-101.982815a21.010963 21.010963 0 0 0-20.973037-20.973037H35.536593a474.642963 474.642963 0 0 0 7.130074 122.955852z" fill="#828DBE" p-id="2197"></path><path d="M49.000296 612.238222h103.917037v-28.444444H42.666667c1.820444 9.557333 3.944296 19.076741 6.333629 28.444444z" fill="#9AAAD8" p-id="2198"></path><path d="M57.761185 642.23763h72.666074v-29.961482H49.000296c2.578963 10.126222 5.499259 20.100741 8.722963 29.961482z" fill="#8691C0" p-id="2199"></path><path d="M732.615111 80.213333a100.503704 100.503704 0 1 0 134.447408 109.719704 474.263704 474.263704 0 0 0-134.447408-109.719704z" fill="#6A98C5" p-id="2200"></path><path d="M737.621333 83.019852c-1.630815-0.910222-3.299556-1.896296-5.006222-2.768593a100.503704 100.503704 0 1 0 86.167704 180.679111 100.503704 100.503704 0 0 1-81.161482-177.872592z" fill="#547DAF" p-id="2201"></path><path d="M781.994667 111.350519c-11.681185-0.379259-21.238519 4.171852-21.655704 10.505481-0.493037 6.637037 9.178074 12.667259 21.617778 13.50163 10.164148 0.758519 19.038815-2.313481 22.110815-7.092149-7.205926-5.878519-14.563556-11.491556-22.072889-16.914962z" fill="#95A7D0" p-id="2202"></path><path d="M781.042548 221.583726a37.925926 37.925926 0 1 0 5.31757-75.665229 37.925926 37.925926 0 1 0-5.31757 75.665229Z" fill="#95A7D0" p-id="2203"></path><path d="M826.753854 251.81143a37.925926 37.925926 0 1 0 5.29644-75.666711 37.925926 37.925926 0 1 0-5.29644 75.666711Z" fill="#95A7D0" p-id="2204"></path><path d="M822.727111 144.156444c-10.884741 2.048-18.773333 7.698963-19.304296 14.866963-0.682667 9.784889 12.553481 18.697481 29.582222 19.873186 7.319704 0.644741 14.639407-0.493037 21.428148-3.299556a474.453333 474.453333 0 0 0-31.706074-31.440593z" fill="#95A7D0" p-id="2205"></path><path d="M451.849481 58.595556c6.674963 15.663407-0.379259 37.850074-19.493925 60.909037-21.959111 26.548148-56.32 50.744889-96.786963 68.001185-40.504889 17.294222-81.692444 25.41037-116.053334 22.869333-29.809778-2.199704-50.744889-12.439704-57.457778-28.065185a30.53037 30.53037 0 0 1-2.123851-8.154074c-8.988444 9.746963-17.59763 19.835259-25.78963 30.340741 14.298074 23.589926 43.273481 38.001778 82.75437 40.922074 4.93037 0.379259 9.936593 0.530963 15.018667 0.530963 36.408889 0 77.444741-9.102222 117.380741-26.130963 45.511111-19.493926 84.612741-47.104 110.061037-77.975704 28.103111-34.019556 36.864-68.494222 24.651852-97.09037a66.977185 66.977185 0 0 0-13.956741-20.707556c-20.138667 1.517037-40.201481 4.361481-59.998815 8.495407 21.466074 4.171852 36.333037 13.274074 41.79437 26.055112z" fill="#7777D8" p-id="2206"></path><path d="M169.832296 163.84A133.499259 133.499259 0 1 0 395.112296 35.953778a471.570963 471.570963 0 0 0-225.28 127.886222z" fill="#7070C8" p-id="2207"></path><path d="M431.862519 124.852148a133.082074 133.082074 0 0 0-7.850667-42.287407 91.022222 91.022222 0 0 0-28.634074-4.399408c-29.051259 0-52.565333 12.136296-52.565334 27.154963 0 15.018667 23.514074 27.154963 52.565334 27.154963 14.108444 0 26.927407-2.88237 36.484741-7.585185z" fill="#95A7D0" p-id="2208"></path><path d="M304.66514 216.197871a38.418963 37.925926 10.408 1 0 13.703128-74.603805 38.418963 37.925926 10.408 1 0-13.703128 74.603805Z" fill="#95A7D0" p-id="2209"></path><path d="M373.852371 229.765617a37.925926 37.925926 0 1 0 13.406146-74.657744 37.925926 37.925926 0 1 0-13.406146 74.657744Z" fill="#95A7D0" p-id="2210"></path><path d="M313.419852 71.149037c15.284148 2.730667 28.937481-1.820444 30.454518-10.202074a10.808889 10.808889 0 0 0-2.578963-8.495407c-12.781037 4.778667-25.296593 10.088296-37.50874 15.928888a49.303704 49.303704 0 0 0 9.595259 2.768593z" fill="#95A7D0" p-id="2211"></path><path d="M169.832296 163.84A133.575111 133.575111 0 0 0 351.800889 250.235259a133.499259 133.499259 0 0 1-145.749333-119.61837c-12.629333 10.42963-24.727704 21.541926-36.21926 33.223111z" fill="#4E6FC0" p-id="2212"></path><path d="M837.518222 295.063704m-37.925926 0a37.925926 37.925926 0 1 0 75.851852 0 37.925926 37.925926 0 1 0-75.851852 0Z" fill="#FFFFFF" p-id="2213"></path><path d="M815.028148 582.997333m-37.925926 0a37.925926 37.925926 0 1 0 75.851852 0 37.925926 37.925926 0 1 0-75.851852 0Z" fill="#FFFFFF" p-id="2214"></path><path d="M939.501037 490.040889m-37.925926 0a37.925926 37.925926 0 1 0 75.851852 0 37.925926 37.925926 0 1 0-75.851852 0Z" fill="#FFFFFF" p-id="2215"></path><path d="M842.031407 729.960296m-37.925926 0a37.925926 37.925926 0 1 0 75.851852 0 37.925926 37.925926 0 1 0-75.851852 0Z" fill="#FFFFFF" p-id="2216"></path><path d="M623.80563 687.217778m-37.925926 0a37.925926 37.925926 0 1 0 75.851852 0 37.925926 37.925926 0 1 0-75.851852 0Z" fill="#FFFFFF" p-id="2217"></path><path d="M433.682963 241.85363a37.925926 37.925926 0 1 0 75.851852 0 37.925926 37.925926 0 1 0-75.851852 0Z" fill="#FFFFFF" p-id="2218"></path><path d="M294.646519 319.070815m-37.925926 0a37.925926 37.925926 0 1 0 75.851851 0 37.925926 37.925926 0 1 0-75.851851 0Z" fill="#FFFFFF" p-id="2219"></path><path d="M113.170963 359.575704m-37.925926 0a37.925926 37.925926 0 1 0 75.851852 0 37.925926 37.925926 0 1 0-75.851852 0Z" fill="#FFFFFF" p-id="2220"></path><path d="M109.416296 322.825481m-37.925926 0a37.925926 37.925926 0 1 0 75.851852 0 37.925926 37.925926 0 1 0-75.851852 0Z" fill="#FFFFFF" p-id="2221"></path><path d="M557.093926 40.12563m-37.925926 0a37.925926 37.925926 0 1 0 75.851852 0 37.925926 37.925926 0 1 0-75.851852 0Z" fill="#FFFFFF" p-id="2222"></path></svg>