<?xml version="1.0" standalone="no"?><!DOCTYPE svg PUBLIC "-//W3C//DTD SVG 1.1//EN" "http://www.w3.org/Graphics/SVG/1.1/DTD/svg11.dtd"><svg t="1732356373107" class="icon" viewBox="0 0 1025 1024" version="1.1" xmlns="http://www.w3.org/2000/svg" p-id="4058" xmlns:xlink="http://www.w3.org/1999/xlink" width="200.1953125" height="200"><path d="M201.66875 230.544747c6.884804-6.027274 14.32117-11.305487 22.135136-16.009625 5.025457 14.582113 28.624944 7.619538 24.698518-8.215102-0.318248-1.281179-0.62524-2.562359-0.933255-3.842515 25.66145-10.968819 53.844326-17.33276 81.06734-21.930475 0.270153 3.239787 0.523933 6.477528 0.795109 9.717316 1.391696 16.59291 27.421536 16.72901 26.018583 0-0.379647-4.5312-0.73678-9.0624-1.112334-13.5936 20.259416-2.712785 40.58637-4.299933 60.938907-5.573949 0.550539 7.578606 1.328251 15.193027 2.5071 22.926152 2.52245 16.543791 27.591405 9.489118 25.090445-6.91755-0.898463-5.89629-1.521656-11.738345-1.949398-17.557888 12.627598-0.759293 25.258267-1.565658 37.874609-2.650363 16.585747-1.426489 16.724917-27.457352 0-26.018583-12.919241 1.110287-25.832342 1.9934-38.741349 2.835581-0.026606-8.66024 0.124843-17.367553 0.194428-26.215058 0.134053-16.784268-25.88453-16.770965-26.018583 0-0.074701 9.455349-0.141216 18.712177-0.01535 27.910677-20.662599 1.387603-41.307801 3.018753-61.924351 5.565762-0.710175-9.307993-1.409093-18.619056-2.003634-27.940352-1.061169-16.659425-27.087938-16.762779-26.018583 0 0.672312 10.54517 1.450025 21.078061 2.266623 31.607882-28.224832 4.594645-57.05546 11.222599-83.865059 22.040992-0.553609-4.631484-0.911766-9.296737-0.942465-14.027481-0.109494-16.773012-26.1291-16.784268-26.018583 0 0.056282 8.579399 0.952698 17.076934 2.348488 25.501814-12.401448 6.722098-24.105001 14.631232-34.792411 23.987321C170.622663 223.218898 189.101527 241.547335 201.66875 230.544747z" fill="#3FA9F5" p-id="4059"></path><path d="M200.751868 350.654288c-28.103058-45.096081 70.683852-70.200852 97.318466-76.283384 34.121122-7.7935 69.476351-10.643408 104.406908-8.643867 13.199627 0.754177 29.819143 1.228991 41.981137 6.943133 16.534582 7.766894 6.52767 32.158421 1.306762 43.973514-6.714935 15.20019 15.69854 28.453029 22.467711 13.133112 9.014304-20.403702 15.869433-42.126446 5.924943-63.412239-7.429203-15.900132-25.868157-20.527522-41.46539-23.215748-43.243897-7.451716-88.089267-4.236488-130.978077 3.924379-46.792723 8.902764-167.250188 46.391587-123.429147 116.715235C187.135755 377.99089 209.652585 364.93862 200.751868 350.654288z" fill="#3FA9F5" p-id="4060"></path><path d="M417.169872 440.138322c14.168698-14.682397 29.942963-34.346249 20.986987-55.850006-6.652514-15.972786-24.209378-30.845519-41.040718-34.967396-16.638959-4.074805-35.002189-5.478781-53.386908-4.384867-1.870604-12.82612-3.773953-25.621541-4.757351-37.811164-1.341554-16.60519-27.371394-16.73515-26.018583 0 1.105171 13.680581 3.254114 27.334555 5.244444 40.978297-17.159822 3.272533-33.633005 8.768711-47.931662 16.482393-14.769378 7.968485-1.633197 30.43108 13.133112 22.466688 11.843746-6.388501 24.77629-10.459213 38.117133-12.852726 3.980661 36.679387 6.202259 73.609485 5.053086 110.50172-0.522909 16.788361 25.497721 16.737196 26.018583 0 1.172709-37.673018-1.274016-75.289754-5.282307-112.738667-0.01535-0.144286-0.035816-0.288572-0.051165-0.433882 10.652618-0.369414 21.298072 0.063445 31.616068 1.038656 13.05534 1.235131 17.640776 3.411703 27.387767 11.797697 15.520485 13.354146 4.206812 25.258267-7.487531 37.373189C387.123556 433.81122 405.501112 452.229708 417.169872 440.138322z" fill="#3FA9F5" p-id="4061"></path><path d="M232.96657 413.513942c-0.061398 23.221888-1.003863 46.440705-0.858554 69.662593 0.106424 16.773012 26.125007 16.782222 26.018583 0-0.145309-23.221888 0.797156-46.440705 0.858554-69.662593C259.029156 396.732743 233.010572 396.736836 232.96657 413.513942z" fill="#3FA9F5" p-id="4062"></path><path d="M854.144132 247.846808c-16.45988-0.608867-34.040281 3.930519-50.186006 6.582929-18.946514 3.111874-37.85312 6.473435-56.740282 9.933233-5.694699-11.177574-11.157107-22.471804-16.222473-33.9533-9.480932-21.493523-20.09671-48.067762-16.566304-72.099085 2.409886-16.405645-22.657023-23.468504-25.087375-6.916527-3.724835 25.344225 2.587941 49.923016 11.512195 73.566506 5.712095 15.128559 12.44238 29.855982 19.669992 44.351114-2.394537 0.449231-4.78805 0.892323-7.179516 1.343601-23.873734 4.495384-47.862078 8.865925-71.803349 13.498432 1.556449-34.982746 3.853771-69.992097-1.194198-104.789625 3.14155-2.39556 6.194072-4.90266 9.0624-7.601118 12.241812-11.521404-6.192026-29.885658-18.396999-18.399045-11.280928 10.619872-25.546839 17.911952-40.515762 21.707394-16.256242 4.122901-9.357112 29.217439 6.916527 25.090445 6.417153-1.62808 12.704346-3.858888 18.797112-6.551206 3.495614 30.884404 1.341554 63.299675-0.274246 95.630011-22.106484 4.517897-44.12087 9.383718-65.913199 14.962783-16.244986 4.15974-9.347902 29.254278 6.916527 25.090445 19.161409-4.906753 38.500872-9.251711 57.916061-13.289678-0.550539 21.098527-0.1361 41.968857 3.006474 62.146409-26.755364 8.244778-52.023864 21.37482-65.013713 46.222741-7.763824 14.851243 14.69263 28.005844 22.467711 13.133112 9.395998-17.972327 27.981285-27.909653 48.087205-34.279734 5.606695 19.058055 14.503319 37.278022 28.329209 54.230112 10.609639 13.009292 28.904307-5.51562 18.395976-18.399045-10.3006-12.630668-17.063631-27.003004-21.511943-42.221614 7.013741-1.461281 13.827937-2.711761 20.10899-3.940752 16.45681-3.219321 9.472745-28.294416-6.916527-25.090445-5.977132 1.168616-12.211113 2.403746-18.551518 3.792373-2.76395-19.504216-2.948145-39.594787-2.659573-58.677401 0.011256-0.700965 0.030699-1.39886 0.045025-2.099824 24.38641-4.7727 48.833195-9.238408 73.160253-13.856589 6.391571-1.212618 12.786211-2.411933 19.180851-3.606131 4.365424 8.145517 8.800433 16.244986 13.230326 24.317848 10.479679 19.097964 21.484314 38.303374 32.172747 57.766658-16.296151 19.058055-32.080649 38.483476-45.089941 60.46614-8.566096 14.474666 13.929244 27.556613 22.466688 13.134135 10.443863-17.649985 22.741957-33.707706 35.658128-49.27117 20.405749 39.179324 38.124296 79.672574 46.324048 122.80493 3.128247 16.471137 28.204365 9.477862 25.087375-6.91755-9.16166-48.210002-30.109762-93.480045-53.367465-137.092331 11.800767-13.667278 23.658839-27.330462 34.71157-41.759079 10.206456-13.325493-12.413727-26.25906-22.466688-13.134135-8.133238 10.616802-16.686031 20.793582-25.321712 30.854728-5.959735-10.781554-11.95324-21.478174-17.83418-32.102139-6.264681-11.31572-12.555967-22.632463-18.703991-34.022884 15.347546-2.781346 30.708396-5.480828 46.089711-8.064676 15.978926-2.683109 32.331359-7.057743 48.202838-6.472412C870.93147 274.486538 870.869048 248.465908 854.144132 247.846808z" fill="#3FA9F5" p-id="4063"></path><path d="M792.471514 210.264864c-1.804089-0.299829-1.953492-0.270153-0.448208 0.085958 0.035816 0.013303 0.045025 0.01535 0.078795 0.027629 0.694825 0.364297 1.375324 0.7552 2.038426 1.176802 0.041956 0.026606 1.801019 1.352811 2.009773 1.468444 3.099594 2.609431 5.837962 5.664 8.323573 8.847505 4.367471 5.603625 13.847379 4.549619 18.395976 0 5.474688-5.472642 4.356214-12.811794 0-18.398022-7.577582-9.720386-17.777899-18.065448-30.397311-19.227923-7.072069-0.650823-13.009292 6.40999-13.009292 13.009292C779.462222 204.838272 785.412748 209.615065 792.471514 210.264864z" fill="#3FA9F5" p-id="4064"></path><path d="M281.955308 535.935132c-4.965082 4.963035-5.074575 13.447267 0 18.395976 3.51915 3.433192 7.0383 6.863315 10.556427 10.29446 5.074575 4.948709 13.33982 5.058203 18.398022 0 4.965082-4.964058 5.074575-13.44829 0-18.396999-3.51915-3.432169-7.0383-6.863315-10.555403-10.293437C295.279778 530.9854 287.014534 530.874883 281.955308 535.935132z" fill="#3FA9F5" p-id="4065"></path><path d="M154.197575 619.513666c-2.792603-6.5246-12.261255-7.910157-17.800411-4.6673-6.670933 3.910053-7.452739 11.264555-4.673439 17.780969-1.198292-2.808976 0.471744 1.12973 0.661056 1.584078 1.342578 3.218298 2.64934 6.450922 3.949962 9.686616 3.742231 9.304923 7.272637 18.692734 10.608615 28.15013 5.541203 15.711843 30.683836 8.949836 25.090445-6.91755C166.60107 649.729851 160.619845 634.526591 154.197575 619.513666z" fill="#3FA9F5" p-id="4066"></path><path d="M175.39127 633.809253c-15.062044 7.394411-1.86958 29.833469 13.131065 22.467711 21.548782-10.582009 45.686529-17.58654 68.838831-24.541953 33.997302-10.213619 68.526723-18.780739 103.371322-25.561166 31.124881-6.055926 63.096037-10.93198 94.895277-9.706059 9.05626 0.347924 20.123316 1.627057 27.52489 5.13802 4.01136 1.902326 5.250584 3.27458 6.070252 4.5312 0.963954 1.482771 0.167822-0.499373 0.953721 2.50403-0.479931-1.831718-0.013303 3.289929-0.128937 4.542456-1.543146 16.71059 24.490787 16.561188 26.019607 0C525.269892 513.474584 217.852338 612.960413 175.39127 633.809253z" fill="#3FA9F5" p-id="4067"></path><path d="M201.827362 719.573569c-6.523577-3.818979-13.709233-1.106194-17.800411 4.6673-2.737344 3.865028-5.474688 7.730055-8.213056 11.592013-4.106528 5.799076-1.046842 14.452153 4.6673 17.801435 6.523577 3.818979 13.709233 1.106194 17.800411-4.6673 2.737344-3.865028 5.474688-7.730055 8.213056-11.592013C210.60119 731.574904 207.541504 722.921827 201.827362 719.573569z" fill="#3FA9F5" p-id="4068"></path><path d="M473.767915 657.037281c-2.128477-2.835581-4.221138-5.000897-7.77508-5.977132-3.358491-0.926092-7.019881-0.448208-10.024308 1.309832-2.90926 1.704828-5.084808 4.523013-5.979178 7.77508-0.836041 3.041266-0.670266 7.383154 1.311879 10.025331 0.857531 1.143033 1.716084 2.287089 2.573615 3.431146 2.128477 2.834558 4.221138 4.999874 7.77508 5.977132 3.358491 0.925069 7.019881 0.448208 10.025331-1.309832 2.907213-1.705851 5.082762-4.523013 5.978155-7.776104 0.836041-3.040243 0.670266-7.382131-1.310855-10.025331C475.482976 659.323347 474.624422 658.180314 473.767915 657.037281z" fill="#3FA9F5" p-id="4069"></path><path d="M431.635329 749.050927c-8.381901 3.89061-17.457604 7.68503-26.873044 11.298324 0.017396-5.874801-0.01842-11.752672-0.122797-17.628496-0.260943-14.760169-0.110517-30.995945-4.360308-45.279253-0.264013-0.883113-0.598634-1.687432-0.977257-2.436492 2.114151-0.654916 4.230348-1.312902 6.345522-1.967818 15.971763-4.951779 9.152451-30.072923-6.916527-25.087375-45.291532 14.045901-90.584088 28.090778-135.876644 42.136679-3.236718 1.001817-5.52176 2.842745-7.000438 5.084808-0.852414 1.12666-1.566682 2.452865-2.086521 4.000104-8.18031 24.378224-13.719466 56.166207 7.42818 75.806523 17.391089 16.153912 44.458561 15.861246 66.454528 13.034874 16.893762-2.168386 33.710776-5.938246 50.257637-10.821463-0.196475 4.872984-0.405229 9.744945-0.644683 14.612813-0.286526 5.837962-0.573051 11.724019-0.87902 17.644869-13.33368 13.32754-32.321126 21.866007-48.830125 30.04734-14.607696 7.240915-29.556153 13.923104-44.724621 19.911492-15.417131 6.087649-8.707312 31.256888 6.916527 25.088398 17.267269-6.815219 34.258245-14.392802 50.939159-22.533202 10.881838-5.307889 22.623253-10.993378 33.449833-17.83725-2.212388 26.657126-5.89015 53.296857-13.400195 78.429257-4.814656 16.118096 20.299325 22.953781 25.090445 6.91755 12.773931-42.754756 14.846126-89.795119 17.271362-134.072555 0.491187-8.977465 0.852414-17.96721 1.13587-26.959002 13.826913-5.094018 27.382651-10.818393 40.537252-16.925485C459.974771 764.459872 446.750585 742.03514 431.635329 749.050927zM339.342319 779.889283c-17.283642 3.570315-40.229237 7.28901-56.161091-1.004887-15.293311-7.964392-11.425214-29.565363-6.54302-45.837978 32.717146-10.147104 65.432245-20.293185 98.149391-30.43722 0.099261 0.571005 0.223081 1.152243 0.401136 1.750877 3.609201 12.129248 3.15076 25.787316 3.432169 38.361703 0.198521 8.918114 0.167822 17.84339 0.039909 26.76662C365.625939 773.612323 352.335238 777.204128 339.342319 779.889283z" fill="#3FA9F5" p-id="4070"></path><path d="M857.602907 801.490254c-9.221012-2.445702-16.628726-10.237155-22.710234-18.240433 8.357342-7.747451 16.033162-16.143679 21.811772-25.177426 9.073656-14.177907-13.45443-27.215852-22.466688-13.134135-3.226484 5.045923-8.368598 10.756995-14.121626 16.363689-7.951089-13.254885-14.737656-27.2619-21.079084-41.290405-2.672876-5.91164-5.163603-11.908214-7.576559-17.938558 12.647041-3.570315 25.710568-6.072299 37.71395-9.033747 16.284895-4.0175 9.376555-29.106922-6.916527-25.087375-13.028735 3.213181-26.569122 6.173606-39.737026 10.112312-1.683339-4.91494-3.300162-9.852392-4.847401-14.807241-3.709485-11.885701-8.090259-24.997324-8.331759-37.176714-0.329505-16.755616-26.349111-16.786315-26.018583 0 0.398066 20.206204 6.188956 41.197284 13.782911 61.473073-9.109472 4.308119-17.686824 9.612938-25.357528 16.444531-15.231913 13.56597-19.673062 34.615379-22.164812 53.875025-2.295276 17.750269-1.515516 39.08211 8.828063 54.384631 13.161764 19.476587 35.976376 16.549931 54.606689 7.455809 15.075347-7.359618 1.879813-29.79663-13.134135-22.467711-9.057283 4.421706-18.142196 6.991228-22.249747-4.03592-4.53427-12.18246-3.494591-26.787086-1.385557-39.350217 2.5071-14.941294 7.120165-27.297716 20.016893-36.335556 3.325745-2.331092 6.863315-4.367471 10.530844-6.210445 3.746324 8.604982 7.571443 16.9613 11.171434 24.922622 5.699816 12.606109 12.701277 28.247344 21.462824 43.035142-1.471514 1.154289-2.89084 2.249227-4.208858 3.240811-5.65479 4.251837-8.563026 11.146874-4.6673 17.801435 3.27151 5.587252 12.116969 8.937556 17.800411 4.666276 1.908466-1.433652 3.848655-2.910283 5.799076-4.412496 10.219759 12.404518 22.257933 22.227234 36.532031 26.010397C866.925226 830.881654 873.807984 805.784046 857.602907 801.490254z" fill="#3FA9F5" p-id="4071"></path><path d="M836.115523 592.571037c0-0.962931 0-1.928932 0-2.89084 0-7.092535-6.210445-13.010315-13.302981-13.010315s-13.302981 5.91778-13.302981 13.010315c0 0.961908 0 1.927909 0 2.89084 0 7.091512 6.210445 13.009292 13.302981 13.009292S836.115523 599.662549 836.115523 592.571037z" fill="#3FA9F5" p-id="4072"></path><path d="M885.053095 162.239058C797.660699 68.017116 675.521942 11.190877 547.787745 1.486864 417.883117-8.381901 288.395997 34.298154 187.489819 115.909893 88.353961 196.089004 22.611655 314.349431 4.920737 440.365496-13.239878 569.736982 19.314562 702.851723 95.173274 809.179376c73.835635 103.491049 185.731098 176.586834 309.967634 203.159026 128.057561 27.39493 264.034489 3.216251 375.396809-65.286935C888.516987 880.629685 968.46176 773.723863 1003.609258 652.1776c13.153578-45.484937 19.307741-93.070722 19.497053-140.367935C1022.589542 382.080022 973.253903 257.332856 885.053095 162.239058zM850.835783 859.162768c-9.517771 9.372461-19.418258 18.276249-29.632901 26.750247-1.956561-5.996574-7.65126-11.129478-15.567557-9.748015-60.271712 10.515494-120.489188 5.112438-174.917822-22.388916-1.261737-27.102265-2.476401-54.208623-3.653203-81.317027 7.495718-1.073448 14.990413-2.145873 22.487154-3.219321 7.03216-1.004887 10.784624-9.827833 9.084912-16.002462-2.054799-7.476275-8.988722-10.089799-16.002462-9.084912-5.558599 0.793062-11.117199 1.592264-16.676821 2.388397-0.483001-11.355629-0.982374-22.709211-1.454118-34.06484-0.319272-7.67889-0.691755-15.383362-1.094938-23.102161 0.158612-0.030699 0.317225-0.059352 0.474814-0.091074 21.898753-4.195555 45.403073-8.788154 65.348334-19.203364 14.875802-7.769964 1.720178-30.222325-13.133112-22.467711-16.293081 8.508791-35.960003 12.097526-54.121642 15.610536-1.182942-21.058618-2.360767-42.189891-3.02387-63.286372 3.910053-0.63752 7.818059-1.276063 11.728112-1.913583 16.526395-2.699482 9.491165-27.76946-6.91755-25.087375-1.772366 0.287549-3.542686 0.578168-5.315052 0.86981-0.094144-13.320377 0.090051-26.609031 0.716314-39.830147 0.796132-16.779152-25.227568-16.702404-26.018583 0-0.694825 14.624069-0.855484 29.330002-0.677429 44.072775-6.288217 1.025353-12.577456 2.052752-18.865673 3.080152-16.526395 2.699482-9.491165 27.76946 6.91755 25.087375 4.198625-0.685615 8.396227-1.37123 12.594853-2.057869 0.750083 21.296025 1.979074 42.61661 3.162016 63.850214-14.187117 2.346441-28.571732 3.981684-42.794665 3.605108-16.789385-0.444115-16.744359 25.578562 0 26.018583 14.649652 0.38681 29.496801-1.24741 44.169989-3.602038 0.25378 5.143137 0.493234 10.279111 0.705058 15.403828 1.769296 42.940998 3.66139 85.875856 5.635347 128.806621-10.513448-6.848988-20.719904-14.167674-31.038924-21.324678-7.738241-5.363148-16.129352-11.097756-25.278733-13.988596 1.101077-7.060813 1.807159-14.170744 1.953492-21.346167 0.344854-16.789385-25.674753-16.755616-26.018583 0-0.725524 35.352159-16.738219 69.583798-24.672936 103.669104-3.799536 16.32685 21.287839 23.255657 25.091468 6.916527 4.926196-21.170159 12.466939-42.203194 18.10024-63.536059 1.25355 0.555655 2.605338 1.215688 4.208858 2.103918 6.835685 3.773953 13.20065 8.420787 19.575848 12.906961 17.355273 12.216229 34.824133 24.059975 53.731762 33.785477 55.858192 28.732391 117.813243 34.534538 179.116447 25.971511-86.079494 63.034639-192.080713 96.011704-299.450093 93.868901-129.959887-2.594081-254.194376-59.97393-342.999958-154.283876C66.537073 747.639788 20.731841 617.878422 26.459286 487.532749c5.692652-129.565914 66.184375-252.116041 162.206312-338.52811C286.193842 61.237713 417.429792 18.647709 547.787745 27.506471c121.302717 8.242731 235.84138 64.955384 318.866305 153.130609 83.968413 89.176019 129.944538 209.05327 130.433678 331.173608C996.564818 642.495076 943.929018 767.456113 850.835783 859.162768z" fill="#3FA9F5" p-id="4073"></path></svg>