<?xml version="1.0" standalone="no"?><!DOCTYPE svg PUBLIC "-//W3C//DTD SVG 1.1//EN" "http://www.w3.org/Graphics/SVG/1.1/DTD/svg11.dtd"><svg t="1732356331884" class="icon" viewBox="0 0 1024 1024" version="1.1" xmlns="http://www.w3.org/2000/svg" p-id="3277" xmlns:xlink="http://www.w3.org/1999/xlink" width="200" height="200"><path d="M385.706667 764.586667c-8.533333 8.533333-22.186667 10.24-30.72 3.413333L187.733333 599.04c-6.826667-6.826667-6.826667-20.48 3.413334-30.72l34.133333-34.133333c8.533333-8.533333 22.186667-10.24 30.72-3.413334l168.96 168.96c6.826667 6.826667 6.826667 20.48-3.413333 30.72l-35.84 34.133334z" fill="#FD882B" p-id="3278"></path><path d="M285.013333 730.453333L112.64 902.826667c-17.066667 17.066667-42.666667 17.066667-59.733333 0s-17.066667-42.666667 0-59.733334l172.373333-172.373333 59.733333 59.733333zM836.266667 259.413333L733.866667 221.866667l-37.546667-104.106667L853.333333 102.4zM397.653333 471.04l-78.506666 95.573333 30.72 29.013334 88.746666-90.453334zM578.56 365.226667l139.946667-139.946667L682.666667 126.293333l-150.186667 182.613334zM450.56 515.413333l-90.453333 90.453334 29.013333 29.013333 104.106667-85.333333zM634.88 433.493333l192.853333-162.133333-97.28-35.84-141.653333 141.653333z" fill="#161418" p-id="3279"></path><path d="M844.8 576.853333c8.533333 8.533333 10.24 22.186667 3.413333 30.72l-168.96 168.96c-6.826667 6.826667-20.48 6.826667-30.72-3.413333l-34.133333-34.133333c-8.533333-8.533333-10.24-22.186667-3.413333-30.72l168.96-168.96c6.826667-6.826667 20.48-6.826667 30.72 3.413333l34.133333 34.133333z" fill="#FD882B" p-id="3280"></path><path d="M810.666667 677.546667l172.373333 172.373333c17.066667 17.066667 17.066667 42.666667 0 59.733333s-42.666667 17.066667-59.733333 0L749.226667 737.28l61.44-59.733333z" fill="#161418" p-id="3281"></path><path d="M339.626667 124.586667l-39.253334 104.106666-102.4 37.546667-15.36-157.013333zM206.506667 279.893333l98.986666-37.546666 370.346667 370.346666-29.013333 29.013334zM715.093333 573.44l-29.013333 29.013333-370.346667-370.346666 35.84-98.986667z" fill="#161418" p-id="3282"></path></svg>