<?xml version="1.0" standalone="no"?><!DOCTYPE svg PUBLIC "-//W3C//DTD SVG 1.1//EN" "http://www.w3.org/Graphics/SVG/1.1/DTD/svg11.dtd"><svg t="1733877997718" class="icon" viewBox="0 0 1024 1024" version="1.1" xmlns="http://www.w3.org/2000/svg" p-id="19301" xmlns:xlink="http://www.w3.org/1999/xlink" width="128" height="128"><path d="M659.5072 536.0128c1.0752-7.2192 1.6384-14.592 1.6384-21.9136 0-8.3968-0.768-17.0496-2.304-25.6-2.1504-12.1344 3.1744-24.3712 13.5168-31.1296l41.1136-26.7264-30.4128-52.6336-46.2336 23.5008a30.63296 30.63296 0 0 1-32.6656-3.072c-11.776-9.0624-24.7808-16.2816-38.5536-21.3504a30.7712 30.7712 0 0 1-20.0704-27.1872L542.72 296.96H481.8944l-2.9184 55.296a30.6688 30.6688 0 0 1-18.9952 26.7776 145.3056 145.3056 0 0 0-35.5328 20.8896 30.83776 30.83776 0 0 1-33.0752 3.3792l-49.8176-25.344-30.4128 52.6336 46.336 30.1568a30.80704 30.80704 0 0 1 13.6192 30.5152 143.79008 143.79008 0 0 0-0.512 41.7792c1.536 11.7248-3.7888 23.2448-13.6704 29.696l-45.7728 29.9008 30.464 52.736 46.2336-23.3984a30.64832 30.64832 0 0 1 33.6384 3.8912c11.6224 9.728 24.576 17.6128 38.6048 23.3472 10.9568 4.5056 18.3808 14.8992 19.0464 26.7264l2.7648 50.432H542.72l2.6112-48.0768a30.64832 30.64832 0 0 1 20.0704-27.136c15.0528-5.5296 29.0816-13.5168 41.6768-23.7568a30.7968 30.7968 0 0 1 33.28-3.584l42.5984 21.5552 30.464-52.736-40.3968-26.368a30.75072 30.75072 0 0 1-13.5168-30.2592z m-144.2816 77.1072c-54.6304 0-99.0208-44.4416-99.0208-99.0208s44.4416-99.0208 99.0208-99.0208 99.0208 44.4416 99.0208 99.0208-44.3904 99.0208-99.0208 99.0208z" fill="#6893DF" p-id="19302"></path><path d="M515.2256 514.0992m-37.5808 0a37.5808 37.5808 0 1 0 75.1616 0 37.5808 37.5808 0 1 0-75.1616 0Z" fill="#6893DF" p-id="19303"></path><path d="M784.4352 105.1136H240.1792c-73.0624 0-132.5056 59.4432-132.5056 132.5056v544.3072c0 73.0624 59.4432 132.5056 132.5056 132.5056h544.3072c73.0624 0 132.5056-59.4432 132.5056-132.5056V237.6192c-0.0512-73.0624-59.4944-132.5056-132.5568-132.5056z m-61.8496 408.9856c0 3.6352-0.1024 7.2704-0.3072 10.9568l49.1008 32.0512a30.69952 30.69952 0 0 1 9.8304 41.0624l-59.5456 103.1168a30.72512 30.72512 0 0 1-40.4992 12.032l-51.712-26.2144c-7.6288 5.0688-15.5648 9.5744-23.808 13.568l-3.1744 58.0608a30.68416 30.68416 0 0 1-30.6688 29.0304H452.7616c-16.3328 0-29.7984-12.7488-30.6688-29.0304l-3.3792-61.1328c-6.9632-3.6864-13.7728-7.7312-20.2752-12.1856l-55.0912 27.904a30.74048 30.74048 0 0 1-40.4992-12.032l-59.5456-103.1168a30.69952 30.69952 0 0 1 9.8304-41.0624l54.8352-35.7888a191.5392 191.5392 0 0 1 0.2048-19.3024l-54.9888-35.7888a30.71488 30.71488 0 0 1-9.8304-41.1136L302.8992 322.048a30.78656 30.78656 0 0 1 40.5504-12.032l59.0848 30.0544c5.2224-3.3792 10.5472-6.5024 16.0256-9.4208l3.5328-66.048c0.8704-16.3328 14.336-29.0816 30.6688-29.0816h119.04c16.3328 0 29.7984 12.8 30.6688 29.0816l3.3792 62.976a206.336 206.336 0 0 1 19.456 10.8032l55.8592-28.416a30.75072 30.75072 0 0 1 40.5504 12.032l59.5456 103.1168c8.1408 14.1312 3.84 32.2048-9.8304 41.1136l-49.408 32.1536c0.3584 5.2736 0.5632 10.496 0.5632 15.7184z" fill="#6893DF" p-id="19304"></path></svg>