<?xml version="1.0" standalone="no"?><!DOCTYPE svg PUBLIC "-//W3C//DTD SVG 1.1//EN" "http://www.w3.org/Graphics/SVG/1.1/DTD/svg11.dtd"><svg t="1733878030159" class="icon" viewBox="0 0 1024 1024" version="1.1" xmlns="http://www.w3.org/2000/svg" p-id="20686" xmlns:xlink="http://www.w3.org/1999/xlink" width="128" height="128"><path d="M777.161522 1010.435086c-5.40677-26.649937-12.733103-52.755998-22.33092-78.190212-9.05394-23.898563-19.16364-47.317236-32.344642-69.264243-0.575869-0.959782-1.343694-2.047534-1.343694-3.135287-0.031993-1.151738 0.383913-2.783367 1.215723-3.29525s2.719381-0.35192 3.423221 0.287934c1.855578 1.7596 3.455214 3.839127 4.926879 5.950646 6.590501 9.629809 12.445169 19.771502 17.244077 30.425078 5.342785 11.805314 10.301656 23.834578 15.420492 35.73587 0.575869 1.311702 1.087753 2.655396 1.663622 4.095068 3.327243-0.255942 6.11061-1.599636 8.829991-3.103294 9.629809-5.310792 17.97991-12.381183 25.658163-20.187407 32.696562-33.240438 55.507372-72.17558 64.913232-118.469049 4.319017-21.27516 4.958872-42.742276 1.471665-64.273378-0.543876-3.359236-0.959782-6.718472-2.143512-10.173686-0.287934 0.543876-0.671847 1.087753-0.895796 1.663622-8.030173 19.931466-21.307153 35.831848-37.815397 49.044842-21.819036 17.436033-46.805352 27.481748-74.127136 31.704787-15.100565 2.335469-30.169137 2.207498-45.205716-0.863803-2.783367-0.575869-2.975323-0.70384-4.638945-4.031083-4.574959 2.335469-9.05394 4.862894-13.724878 6.974413-12.093249 5.502748-24.282476 10.845533-36.43971 16.22031-1.023767 0.447898-2.175505 0.927789-3.231265 0.927789-0.831811-0.031993-2.207498-0.671847-2.335469-1.279709-0.223949-0.895796 0.127971-2.399454 0.767825-2.975323 1.023767-0.895796 2.495432-1.343694 3.839127-1.855578 25.97809-10.365642 50.708464-23.226716 74.095144-38.743186 31.864751-21.179182 60.594215-46.069519 85.164625-75.598802 12.701111-15.260528 24.506425-31.288882 33.752321-49.044842 4.510974-8.70202 8.382093-17.723968 11.197453-27.161821 4.319017-14.364732 8.893977-28.665479 12.637125-43.190174 6.398544-24.794359 8.382093-50.132595 6.846442-75.726772-2.687389-45.237709-16.540237-86.828247-40.054888-125.283498-19.963458-32.600583-45.269701-60.17831-75.310867-83.532997-32.888518-25.562185-69.392214-43.862022-108.96721-56.211212-16.540237-5.150828-33.400402-8.734013-50.484515-11.389409-12.125242-1.887571-24.346461-3.231265-36.599674-3.967098-2.303476-0.127971-4.638945 0.159964-6.846442-0.287934-2.719381-0.543876-4.478981 1.983549-6.81445 1.791592-2.335469-0.191956-4.191047-1.887571-6.846442-1.823585-13.852849 0.35192-27.705697 0.799818-41.49456 2.527425-18.011902 2.239491-35.831848 5.566734-53.395853 10.141693-19.387589 5.05485-38.231303 11.805314-56.563132 19.86748-35.959819 15.804405-69.264243 36.183768-99.817292 61.138091-29.433304 24.058527-55.155452 51.572268-77.198438 82.733179-15.292521 21.62708-28.185588 44.565861-38.519237 68.944315-11.069482 26.138054-19.035669 53.203896-22.554869 81.517455-1.919563 15.420492-2.879345 30.776998-2.207498 46.293468 1.40768 33.080474 8.925969 64.561313 23.450665 94.314544 18.907699 38.775179 46.101512 70.447973 80.429703 96.042151 30.105151 22.458891 63.47356 38.167317 99.081459 49.300784 20.763276 6.46253 41.910466 11.293431 63.377582 14.556688 21.083204 3.199272 42.358364 4.70293 63.665516 4.287025 11.005496-0.223949 21.947007-1.375687 32.920511-2.079527 0.991774-0.063985 2.015541-0.159964 3.007316-0.191956 1.791592-0.063985 3.519199 0.095978 3.967098 2.335469 0.319927 1.727607-0.927789 3.007316-3.615178 3.423221s-5.374777 0.671847-8.094159 0.927789c-19.547553 1.983549-39.095106 2.719381-58.674652 1.663622-10.557598-0.575869-21.083204-1.791592-31.544824-2.94333-2.207498-0.255942-3.359236 0.447898-4.606952 2.11152-20.379364 27.161821-37.911375 56.051249-52.628027 86.732269-9.501838 19.771502-18.203859 39.862931-25.946097 60.402259-0.511884 1.343694-0.831811 2.751374-1.247716 4.095068-3.423221 0-6.878435 0-10.301656 0 2.847352-7.678253 5.502748-15.484477 8.606042-23.066752 11.901293-29.465297 25.466207-58.130775 41.814487-85.388574 9.309882-15.484477 19.483568-30.3291 31.608809-43.702058 0.543876-0.607862 0.991774-1.311702 1.791592-2.399454-4.894886-0.927789-9.373867-1.7596-13.820856-2.59141-34.616125-6.494523-67.82457-17.180092-99.337401-33.080474-32.696562-16.508244-61.841931-37.879383-86.476327-65.265152-29.689246-33.048482-50.452522-70.927864-60.146317-114.757893-2.751374-12.445169-4.638945-24.986316-5.246806-37.719419-0.287934-6.206588-0.735833-12.413176-0.70384-18.619764 0.255942-27.609719 4.383003-54.643569 12.125242-81.165535 9.885751-33.816307 24.666388-65.297145 43.734051-94.730449 25.594177-39.543004 56.819074-73.903187 93.866646-102.792615 1.695614-1.311702 3.391229-2.655396 5.022857-3.967098 0.127971-13.948827-4.191047-27.065843-6.750464-40.4388-0.031993-0.255942-0.287934-0.479891-0.639854-0.927789-5.278799 1.215723-10.621584 2.623403-16.028354 3.711156-11.101474 2.271483-22.298927 3.679163-33.592358 3.711156-3.551192 0-7.134377-0.383913-10.685569-0.70384-0.831811-0.063985-1.663622-0.383913-2.431447-0.767825-1.567643-0.735833-2.559418-1.919563-2.047534-3.775141 0.447898-1.631629 2.207498-2.335469 4.159054-2.175505 3.807134 0.35192 7.646261 0.927789 11.421402 0.671847 15.708426-1.119745 31.160911-4.031083 46.19749-8.829991 0.383913-0.127971 0.735833-0.415905 1.471665-0.895796-1.279709-5.470755-2.559418-11.037489-3.871119-16.636215-10.525605-44.853796-22.906789-89.195708-35.064023-133.601606-0.575869-2.271483-1.279709-4.510974-1.599636-6.782457-0.255942-2.015541-0.063985-4.127061-0.063985-6.46253-0.70384 0.223949-1.887571 0.511884-3.007316 0.927789-11.581365 4.191047-22.906789 9.021948-33.592358 15.16455-5.726697 3.29525-11.229445 6.942421-15.804405 11.805314-1.471665 1.567643-2.783367 3.29525-3.967098 5.086843-1.375687 2.11152-2.207498 4.35101-1.151738 6.974413 0.671847 1.631629 0.447898 3.231265-1.471665 3.935105-1.791592 0.671847-3.007316-0.383913-3.839127-1.887571-1.471665-2.687389-1.823585-5.694704-0.607862-8.382093 1.567643-3.519199 3.455214-6.974413 5.822675-9.981729 4.159054-5.246806 9.597817-9.085933 15.16455-12.637125 15.996361-10.141693 33.432394-16.956143 51.348318-22.554869 25.178272-7.838217 50.804442-13.564914 77.006481-16.348281 18.939691-1.983549 38.007353-2.303476 56.979037-0.031993 11.773322 1.40768 23.482658 3.679163 34.392176 8.638035 6.238581 2.81536 12.445169 6.046624 17.851939 10.173686 15.86839 12.157234 20.987225 28.569501 16.860164 48.085061-2.975323 14.044805-10.045715 26.010083-18.4598 37.335506-13.308972 17.819946-29.593268 32.504605-47.477199 45.461658-27.961639 20.251393-58.322732 35.799856-91.083279 46.485425-0.927789 0.319927-1.855578 0.70384-3.263258 1.215723 2.207498 12.381183 4.446988 24.762367 6.750464 37.559455 71.887646-51.124369 150.973654-80.333724 240.105377-80.717637-0.511884-5.214814-1.023767-10.013722-1.535651-14.908608-6.974413-0.223949-13.532921-0.159964-20.027444-0.735833-5.950646-0.511884-11.8693-1.567643-17.755961-2.719381-2.015541-0.383913-4.063076-1.471665-5.75869-2.751374-1.119745-0.831811-1.887571-2.495432-2.303476-3.935105-0.383913-1.471665 0.255942-2.911338 1.855578-3.487207 1.40768-0.479891 2.303476 0.223949 3.231265 1.375687s2.303476 2.303476 3.64717 2.559418c11.421402 2.335469 22.970774 2.655396 34.55214 1.503658 0.287934-0.031993 0.511884-0.191956 1.183731-0.479891-5.790683-46.805352-16.764186-92.650922-27.129828-138.976383-1.215723 0.511884-2.143512 0.767825-2.975323 1.215723-7.326333 3.967098-14.300747 8.510064-20.091429 14.652667-3.391229 3.583185-6.238581 7.51829-7.358326 12.509154-0.543876 2.46344-1.791592 3.359236-3.423221 3.007316-1.535651-0.35192-2.527425-1.919563-2.239491-4.127061 0.575869-4.255032 2.303476-8.030173 4.70293-11.51738 5.470755-7.99818 12.92506-13.820856 20.987225-18.907699 1.823585-1.151738 3.64717-2.239491 5.534741-3.29525 1.503658-0.831811 2.94333-1.567643 3.487207-3.487207 0.511884-1.823585 2.207498-2.495432 3.775141-1.7596 1.599636 0.799818 2.751374 0.159964 4.031083-0.415905 23.002767-10.333649 47.189265-16.412266 71.887646-20.731284 21.659073-3.807134 43.446116-5.278799 65.361131-4.063076 20.059437 1.087753 39.862931 4.095068 58.194761 13.05303 5.470755 2.687389 10.877525 5.950646 15.484477 9.949736 12.957052 11.133467 17.084113 25.498199 13.596907 42.1984-2.175505 10.365642-6.878435 19.547553-12.861074 28.153595-9.725787 14.012812-21.883022 25.562185-35.38395 35.73587-27.161821 20.475342-57.554906 34.136234-89.995526 43.414123-15.100565 4.319017-30.393086 7.934195-45.973541 10.173686-3.103294 0.415905-6.206588 0.639854-9.629809 0.959782 0.287934 5.374777 0.543876 10.365642 0.831811 15.612448 5.790683 0.35192 11.325424 0.447898 16.796179 1.05576 12.765096 1.40768 25.562185 2.751374 38.263295 4.670937 27.833668 4.191047 54.579583 12.541147 80.429703 23.578636 29.657253 12.637125 57.075016 29.113377 82.221295 49.588719 20.987225 17.084113 39.574997 36.43971 55.635343 58.194761 23.802585 32.184678 40.918691 67.728592 49.972631 107.047647 6.494523 28.281566 8.318108 56.883059 5.566734 85.740494-1.791592 18.587771-5.598726 36.823623-11.325424 54.611576-3.231265 10.045715-6.270573 20.123422-9.693795 30.073158-5.950646 17.340055-14.876616 33.112467-25.402221 48.021075-33.048482 46.805352-75.086918 83.469011-123.939804 112.390432-1.119745 0.671847-2.207498 1.311702-3.327243 1.983549-0.223949 0.159964-0.415905 0.383913-1.151738 1.05576 3.935105 0.383913 7.358326 0.927789 10.81354 1.05576 33.816307 1.151738 65.201167-7.070392 93.418748-26.138054 18.875706-12.733103 33.816307-29.27334 44.533869-49.620711 1.023767-1.919563 1.919563-3.903112 2.655396-5.918654 1.279709-3.64717 2.783367-7.294341 2.143512-11.325424-0.223949-1.375687 0.223949-2.847352 1.695614-3.071301 1.119745-0.127971 2.687389 0.191956 3.423221 0.959782 1.151738 1.183731 2.079527 2.81536 2.559418 4.414996 2.047534 7.038399 4.319017 14.076798 5.790683 21.27516 2.911338 14.524696 3.615178 29.241348 2.879345 44.053978-1.087753 21.403131-5.854668 42.006444-13.372958 62.001895-8.382093 22.234942-20.347371 42.262385-34.648118 61.074106-9.245897 12.125242-19.803495 22.810811-31.480838 32.44062-8.861984 7.326333-18.235851 14.012812-29.817217 16.988135 1.119745 3.391229 2.11152 6.558508 3.135287 9.661802 6.494523 19.451575 11.741329 39.287062 15.804405 59.378492 0.127971 0.575869 0.127971 1.151738 0.191956 1.695614-3.135287 0.031993-6.270573 0.031993-9.437853 0.031993zM550.908994 189.78978c3.007316-0.287934 5.566734-0.35192 8.062166-0.831811 10.045715-2.079527 20.123422-4.063076 30.105151-6.526515 31.800765-7.838217 62.161858-19.355597 89.899548-37.175543 17.372048-11.16546 33.112467-24.250483 45.525643-41.014669 5.886661-7.934195 10.557598-16.508244 12.765096-26.266025 3.231265-14.46071-0.479891-26.68193-12.381183-35.73587-4.191047-3.167279-8.829991-5.918654-13.596907-8.126151-15.964368-7.358326-33.016489-10.141693-50.292559-11.261438-19.291611-1.279709-38.55123-0.415905-57.71487 2.303476-19.675524 2.783367-39.031121 6.974413-57.938819 13.212994-7.966188 2.623403-15.740419 5.822675-23.802585 8.829991 12.317198 47.157272 23.066752 94.090595 29.337326 142.623554zM295.767038 248.080519c1.247716-0.35192 2.207498-0.511884 3.135287-0.863803 35.128009-12.509154 67.888556-29.561275 97.32186-52.787991 16.092339-12.669118 30.553049-27.001857 41.910466-44.30992 5.310792-8.126151 9.565824-16.764186 11.645351-26.33001 3.519199-16.188317-1.215723-29.433304-14.204768-39.447026-5.342785-4.127061-11.325424-7.198362-17.659982-9.597817-16.700201-6.270573-34.136234-8.062166-51.732231-8.542057-16.892157-0.479891-33.688336 1.05576-50.388537 3.64717-18.907699 2.94333-37.527463 7.294341-55.891285 12.797089-3.615178 1.087753-7.134377 2.335469-11.197453 3.679163 3.743148 1.567643 3.743148 1.567643 4.798908 4.574959 0.607862 1.7596 1.215723 3.551192 1.7596 5.342785 13.149009 44.085971 25.338236 88.459876 36.023805 133.249686 1.471665 6.142603 2.94333 12.317198 4.446988 18.587771z" fill="#444444" p-id="20687"></path><path d="M790.086582 1006.819908c-5.470755-26.617945-12.829081-52.755998-22.33092-78.190212-4.70293-12.541147-9.821766-24.92233-15.292521-37.111557-2.719381-6.046624-5.662712-12.061256-8.70202-17.947917-2.751374-5.374777-8.158144-11.965278-9.725787-17.372048 0 2.399454 0 4.798908 0 7.198362-0.063985-0.031993-0.127971-0.031993-0.159964-0.063985-2.655396 2.079527-5.342785 4.159054-7.99818 6.238581 0.575869-0.095978 1.151738-0.191956 1.7596-0.287934-2.399454 0-4.734923 0-7.134377 0-4.542966-1.599636-1.375687 0.415905 0.35192 2.975323 1.791592 2.655396 3.455214 5.374777 5.118835 8.062166 3.327243 5.438763 6.238581 11.101474 9.021948 16.828172 6.206588 12.861074 11.773322 26.234032 17.084113 39.511011 2.975323 7.486297 8.606042 10.717562 16.508244 9.469846 20.731284-3.263258 39.063113-24.538418 52.212122-39.511011 14.46071-16.444259 26.905879-34.712103 36.727645-54.323642 20.475342-40.854706 32.344642-94.058602 19.16364-139.040369-3.199272-10.909518-18.81172-13.852849-24.538418-3.231265-6.686479 12.477161-12.125242 23.962549-21.883022 34.488154-9.789773 10.557598-21.499109 19.003677-34.008263 25.914105-12.541147 6.942421-26.298017 11.229445-40.214851 14.204768-7.454304 1.599636-14.940601 2.367461-22.554869 2.655396-4.638945 0.159964-9.277889-0.095978-13.916834-0.447898-2.303476-0.159964-4.574959-0.479891-6.846442-0.895796-4.606952-1.311702-4.638945-0.799818-0.095978 1.535651-3.583185-6.782457-12.061256-8.158144-18.363822-4.862894-8.510064 4.414996-17.084113 8.510064-25.850119 12.445169-7.582275 3.391229-16.188317 8.925969-24.378454 10.333649 2.367461 0 4.734923 0 7.134377 0 1.183731 0.735833 2.399454 1.471665 3.551192 2.207498 1.311702 3.199272 2.623403 6.398544 3.935105 9.597817 0.031993-0.511884 0.031993-1.05576 0.063985-1.599636-0.607862 2.303476-1.215723 4.574959-1.823585 6.846442-1.151738 0.991774-2.335469 2.015541-3.487207 3.007316 1.983549-0.799818 3.967098-1.599636 5.950646-2.431447 3.071301-1.247716 6.11061-2.59141 9.149918-3.903112 5.918654-2.559418 11.741329-5.278799 17.532012-8.126151 12.541147-6.11061 24.666388-13.021038 36.503696-20.411356 21.979-13.724878 42.710284-29.721239 61.873924-47.221257 19.227626-17.532012 36.279746-37.271521 51.668246-58.290739 16.412266-22.362913 26.809901-46.453432 34.872067-72.943406 8.510064-27.961639 15.196543-55.571358 16.316288-84.908684 1.023767-26.809901-2.46344-54.003714-9.181911-79.885826-12.957052-49.940639-40.950684-95.466282-76.334634-132.289905-33.016489-34.392176-73.455289-60.338273-117.093362-78.670103-23.226716-9.789773-47.445206-16.668208-72.207573-21.211175-12.253212-2.239491-24.634396-3.871119-37.047572-5.118835-5.982639-0.607862-11.965278-1.023767-17.947917-1.087753-4.638945-0.031993-8.766006 1.439672-12.637125 2.047534 2.367461 0 4.734923 0 7.134377 0-12.541147-3.263258-25.210265-2.015541-38.103332-1.119745-14.844623 1.023767-29.62526 3.327243-44.213941 6.014632-27.545733 5.086843-54.259656 13.500929-80.013797 24.474432-48.884879 20.795269-93.642697 50.228573-132.449868 86.796254-78.350176 73.839202-133.441643 183.766194-118.373071 294.013113 10.973504 80.39771 61.426026 148.062316 128.674727 190.292709 35.991812 22.618854 76.942496 37.175543 118.181114 46.261476 22.106971 4.862894 44.693832 7.902202 67.280694 9.245897 11.133467 0.671847 22.33092 0.70384 33.49638 0.255942 10.269664-0.447898 20.795269-2.431447 31.064933-1.951556-2.239491-0.607862-4.510974-1.215723-6.782457-1.855578-0.831811-0.863803-1.695614-1.727607-2.559418-2.59141-0.607862-2.303476-1.215723-4.574959-1.823585-6.846442-0.063985 0.511884-0.127971 1.05576-0.191956 1.567643 1.311702-3.199272 2.623403-6.398544 3.935105-9.597817 3.167279-1.503658 3.391229-2.015541 0.70384-1.471665-3.199272 0.35192-6.398544 0.607862-9.597817 0.927789-6.878435 0.607862-13.788863 0.959782-20.699291 1.247716-12.701111 0.511884-25.434214 0.223949-38.103332-0.70384-11.261438-0.799818-24.090519-4.958872-34.648118 0.159964-4.319017 2.079527-7.230355 7.774231-9.949736 11.485387-3.871119 5.278799-7.614268 10.653576-11.325424 16.092339-13.500929 19.86748-25.402221 40.822713-35.991812 62.385807-11.101474 22.522876-23.066752 46.485425-29.97718 70.735908 4.287025-3.327243 8.606042-6.654486 12.92506-9.949736-3.423221 0-6.878435 0-10.301656 0 4.287025 5.726697 8.606042 11.453394 12.92506 17.180092 10.365642-28.281566 22.074978-55.763314 36.151776-82.381259 6.590501-12.445169 13.724878-24.57041 21.403131-36.311739 7.550282-11.581365 16.92415-21.467116 24.954323-32.600583 4.862894-6.782457 0.031993-18.395815-7.99818-19.931466-52.404078-9.821766-101.832833-25.562185-146.398695-55.8273-39.798946-27.03385-73.23134-66.320912-91.787119-111.206701-42.166407-101.960804-3.327243-216.302792 63.057655-297.596298 15.996361-19.611538 33.976271-37.49547 53.235889-53.811758 4.70293-3.967098 9.565824-7.774231 14.396725-11.581365 7.134377-5.630719 6.686479-12.701111 5.886661-21.115196-0.639854-6.46253-1.919563-12.829081-3.29525-19.131648-1.343694-6.11061-1.887571-14.300747-5.374777-19.579546s-8.957962-7.678253-15.132557-6.238581c-9.661802 2.303476-19.323604 4.70293-29.209355 5.918654-4.478981 0.575869-8.989955 0.799818-13.500929 0.959782-2.015541 0.063985-4.031083 0.063985-6.046624 0-0.895796-0.063985-1.791592-0.127971-2.655396-0.159964-4.35101-0.895796-3.775141 0.255942 1.695614 3.359236 0.607862 2.303476 1.215723 4.574959 1.823585 6.846442 0-0.543876 0.031993-1.119745 0.031993-1.663622-0.607862 2.303476-1.215723 4.574959-1.823585 6.846442-0.831811 0.927789-1.663622 1.887571-2.495432 2.81536-2.271483 0.607862-4.510974 1.247716-6.782457 1.855578 4.414996-0.287934 8.829991 0.639854 13.27698 0.543876 6.750464-0.127971 13.628899-1.375687 20.315378-2.367461 10.877525-1.599636 24.602403-3.423221 34.136234-9.181911 5.310792-3.231265 7.550282-9.341875 6.142603-15.324514-6.078617-26.266025-12.509154-52.404078-19.387589-78.478147-3.615178-13.692885-7.326333-27.353777-11.069482-41.046662-3.455214-12.605132-9.949736-27.193814-9.661802-40.310829 0.191956-8.766006-8.734013-15.484477-16.988135-13.085023-15.452485 4.478981-31.000947 11.8693-44.66184 20.379364s-25.530192 20.699291-21.915014 37.815397c0-2.399454 0-4.798908 0-7.198362-0.159964 0.447898-0.287934 0.895796-0.447898 1.375687 2.047534-2.687389 4.095068-5.40677 6.174595-8.094159-0.479891 0.319927-0.927789 0.639854-1.375687 0.959782 2.239491-0.607862 4.510974-1.247716 6.750464-1.855578-0.735833-0.031993-1.535651-0.095978-2.303476-0.127971 3.167279 1.311702 6.334559 2.655396 9.469846 3.967098 0.447898 4.510974 1.279709 4.894886 2.527425 1.119745 1.343694-2.46344 3.007316-4.255032 4.958872-6.206588 3.231265-3.263258 7.422311-5.598726 11.293431-7.99818 8.766006-5.438763 18.171866-9.725787 27.73769-13.436943 21.755051-8.414086 44.725825-14.204768 67.600621-18.491793 22.106971-4.159054 44.66184-5.822675 67.12073-4.670937 20.891247 1.05576 44.149956 5.182821 60.370266 19.611538 31.448846 27.993632-13.628899 74.798984-34.520147 93.194799-31.480838 27.73769-68.688374 44.405898-107.239603 59.090557-7.326333 2.783367-10.781547 8.861984-9.373867 16.668208 2.239491 12.509154 4.510974 25.050301 6.750464 37.559455 1.471665 8.254122 12.957052 12.861074 19.707517 8.094159 69.23225-48.948864 148.414236-78.158219 233.354913-78.894052 6.750464-0.063985 14.172776-6.142603 13.40495-13.564914-0.511884-4.958872-1.023767-9.917744-1.535651-14.908608-0.767825-7.51829-5.502748-13.372958-13.40495-13.564914-6.686479-0.159964-13.372958-0.223949-20.027444-0.70384-2.783367-0.191956-5.534741-0.671847-8.286115-1.151738-1.983549-0.35192-3.935105-0.70384-5.886661-1.119745-2.335469-0.767825-1.695614 0.70384 1.983549 4.35101-1.311702 3.199272-2.623403 6.398544-3.935105 9.597817 0.575869-0.447898 1.119745-0.927789 1.695614-1.375687-3.167279 1.343694-6.334559 2.655396-9.469846 3.967098 0.607862 0.031993 1.183731 0.031993 1.791592 0.063985-3.167279-1.311702-6.334559-2.655396-9.469846-3.967098 7.774231 6.910428 14.716652 8.222129 24.890338 9.40586 8.414086 0.991774 21.051211 2.303476 29.017399-1.05576 5.05485-2.11152 10.653576-6.686479 9.821766-13.085023-6.078617-48.117054-17.020128-95.306318-27.609719-142.591561-1.503658-6.718472-9.885751-11.997271-16.508244-9.469846-9.085933 3.487207-16.892157 8.925969-24.442439 15.036579-3.711156 3.007316-7.102384 6.846442-9.821766 10.781547-1.40768 2.079527-2.527425 4.063076-3.487207 6.366552-0.447898 1.087753-0.895796 2.143512-1.343694 3.231265-1.151738 3.455214-0.895796 3.231265 0.831811-0.671847 3.167279-1.311702 6.334559-2.655396 9.469846-3.967098-0.511884 0.031993-0.991774 0.031993-1.503658 0.063985 2.271483 0.607862 4.510974 1.247716 6.782457 1.855578 0.895796 0.895796 1.791592 1.791592 2.687389 2.719381 0.607862 2.303476 1.215723 4.574959 1.823585 6.846442-0.383913-6.942421 9.277889-14.012812 14.172776-17.532012 3.743148-2.719381 7.774231-4.990865 11.741329-7.294341 1.375687-0.991774 2.687389-2.047534 3.935105-3.199272 0.70384-0.927789 1.375687-1.823585 2.11152-2.751374 1.535651-2.623403 0.927789-2.207498-1.791592 1.247716-3.455214 0.447898-6.878435 0.895796-10.333649 1.375687 9.725787 1.855578 15.900383-1.663622 24.826352-5.118835 10.141693-3.935105 20.57132-6.974413 31.064933-9.693795 20.57132-5.278799 41.654524-8.670028 62.865698-9.75778 20.507335-1.05576 41.462567-0.031993 61.426026 5.022857 17.020128 4.287025 37.047572 12.957052 41.046662 31.960729 3.583185 17.084113-10.685569 35.639892-21.083204 47.317236-12.637125 14.172776-28.249573 25.306243-44.437891 34.904059-34.424169 20.507335-76.206663 33.784314-115.909631 37.463477-6.974413 0.671847-13.820856 5.694704-13.40495 13.564914 0.287934 5.182821 0.575869 10.397635 0.831811 15.612448 0.383913 7.678253 5.790683 13.149009 13.40495 13.564914 55.027481 2.94333 107.719494 14.876616 156.732344 40.854706 45.397672 24.090519 84.972669 59.154543 113.862097 101.992797 29.689246 44.053978 46.133505 95.850194 46.133505 149.214054-0.031993 28.249573-5.75869 55.12346-14.236761 81.869375-4.063076 12.829081-7.806224 25.754141-13.532921 37.943368-5.886661 12.445169-13.500929 23.994541-21.531102 35.096016-16.668208 23.03476-36.695652 43.574087-58.162768 62.033888-10.333649 8.861984-21.211175 16.956143-32.376634 24.634396-10.333649 7.102384-23.066752 12.57314-32.280656 21.083204-9.501838 8.766006-1.183731 21.947007 9.501838 23.162731 36.887608 4.095068 74.031158-4.287025 105.831924-23.578636 14.652667-8.893977 27.801675-20.443349 38.583222-33.784314 5.470755-6.750464 10.269664-13.948827 14.556688-21.499109 5.374777-9.469846 7.038399-18.043895 8.222129-28.601493-2.207498 3.903112-4.414996 7.806224-6.654486 11.709336 0.479891-0.35192 0.991774-0.735833 1.503658-1.087753-2.239491 0.607862-4.510974 1.247716-6.782457 1.855578 0.607862 0.063985 1.247716 0.095978 1.855578 0.159964-2.239491-0.607862-4.510974-1.215723-6.782457-1.855578-1.823585-2.751374-2.239491-2.687389-1.151738 0.159964 0.895796 3.007316 1.791592 6.046624 2.655396 9.085933 1.471665 5.214814 2.527425 10.525605 3.423221 15.900383 1.823585 11.037489 1.663622 22.554869 1.215723 33.720329-0.959782 22.970774-7.230355 46.133505-16.444259 67.056745-8.829991 20.091429-21.083204 39.223077-35.287972 55.8273-12.541147 14.620674-28.825442 31.096926-47.701148 36.535688-6.782457 1.951556-11.645351 9.597817-9.373867 16.700201 3.519199 10.81354 7.070392 21.563094 10.173686 32.504605 3.167279 11.101474 7.230355 23.162731 8.510064 34.648118 4.478981-4.510974 8.957962-9.05394 13.40495-13.564914-3.167279 0-6.270573 0-9.437853 0-17.308062 0-17.308062 27.129828 0 27.129828 3.167279 0 6.270573 0 9.437853 0 6.686479 0 14.236761-6.206588 13.40495-13.564914-2.783367-25.306243-11.837307-50.292559-19.611538-74.383078-3.135287 5.566734-6.238581 11.133467-9.373867 16.668208 20.187407-5.822675 36.631666-20.027444 51.316326-34.68011 16.22031-16.124332 29.62526-35.73587 40.630757-55.795307 23.162731-42.262385 32.408627-91.691141 24.474432-139.392289-1.695614-10.237671-4.670937-20.731284-8.766006-30.233122-4.638945-10.781547-19.739509-12.541147-27.513741-4.70293-4.159054 4.191047-3.199272 8.638035-4.031083 13.75687-0.927789 5.598726-4.478981 10.877525-7.294341 15.644441-5.150828 8.70202-11.549373 16.348281-18.68375 23.482658-29.881202 29.913195-73.295326 41.590538-114.341988 37.015579 3.167279 7.742239 6.334559 15.452485 9.469846 23.162731 2.527425-2.335469-3.007316 1.919563 1.791592-0.895796 2.559418-1.503658 5.118835-3.071301 7.646261-4.638945 5.05485-3.103294 10.045715-6.366552 14.972594-9.661802 10.781547-7.198362 21.083204-15.004587 31.224896-23.066752 19.16364-15.260528 36.759637-32.504605 52.692013-51.156362 16.828172-19.643531 32.280656-41.014669 42.934233-64.753269 11.229445-25.114287 19.483568-53.299874 24.378454-80.39771 19.643531-108.071414-29.305333-215.758916-111.974526-283.711457-31.03294-25.530192-65.841021-44.78981-103.176528-59.12255-39.638982-15.228536-81.869375-21.467116-124.067775-23.706607 4.478981 4.510974 8.957962 9.05394 13.40495 13.564914-0.287934-5.182821-0.575869-10.397635-0.831811-15.612448-4.478981 4.510974-8.957962 9.021948-13.40495 13.564914 45.877563-4.255032 92.362988-19.035669 132.065955-42.710284 35.319965-21.051211 77.454379-57.202987 76.270649-102.664644-1.279709-50.004624-63.057655-63.089647-101.800841-65.393123-25.27425-1.503658-50.516508 1.119745-75.34286 5.726697-23.482658 4.383003-45.077745 11.901293-67.344679 20.283386 2.367461 0 4.734923 0 7.134377 0-6.558508-0.927789-12.92506-1.7596-18.107881 3.487207-1.151738 1.279709-2.11152 2.687389-2.975323 4.191047 2.175505-2.015541 1.695614-1.919563-1.471665 0.223949-3.391229 1.951556-6.622493 4.191047-9.789773 6.526515-11.325424 8.190137-22.074978 19.451575-24.794359 33.720329-3.231265 17.052121 14.396725 27.161821 27.321784 16.284295 4.159054-3.519199 4.414996-10.333649 8.158144-14.46071 4.383003-4.894886 11.805314-10.365642 17.180092-12.413176-5.502748-3.167279-11.005496-6.302566-16.508244-9.469846 10.045715 44.853796 20.891247 89.675599 26.649937 135.361206 3.29525-4.35101 6.558508-8.734013 9.853758-13.085023-4.095068 1.695614-10.621584 0.671847-14.972594 0.575869-3.423221-0.063985-6.846442-0.415905-10.237671-0.927789-2.559418-0.383913-2.687389-1.567643-5.342785-3.167279-11.805314-7.006406-22.810811 3.551192-23.834578 15.100565-1.023767 11.357416 11.645351 18.523786 20.795269 20.315378 12.797089 2.431447 25.434214 3.007316 38.423259 3.359236-4.478981-4.510974-8.957962-9.05394-13.40495-13.564914 0.511884 4.958872 1.023767 9.917744 1.503658 14.908608 4.478981-4.510974 8.957962-9.05394 13.40495-13.564914-89.355672 0.735833-173.912436 31.000947-246.887834 82.573215 6.558508 2.687389 13.149009 5.40677 19.707517 8.094159-2.239491-12.509154-4.510974-25.018308-6.750464-37.559455-3.103294 5.566734-6.238581 11.133467-9.373867 16.668208 23.642621-9.021948 46.709374-17.755961 68.784352-30.393086s43.030211-27.961639 61.234069-45.84557c31.992722-31.480838 63.601531-89.323679 19.323604-124.963571-21.339145-17.180092-48.564952-22.266934-75.118911-23.994541-28.185588-1.823585-56.787081 1.951556-84.364807 7.614268-26.68193 5.502748-53.203896 13.532921-77.902278 25.242257-18.651757 8.829991-53.075925 29.561275-42.966225 55.411394 3.391229 8.606042 14.588681 16.284295 23.578636 9.981729 8.286115-5.822675 8.925969-12.349191 7.134377-21.723058 0 2.399454 0 4.798908 0 7.198362 1.599636-7.614268 15.16455-13.27698 21.147189-16.476252 8.70202-4.638945 18.043895-8.734013 27.513741-11.51738-5.662712-4.35101-11.325424-8.70202-16.988135-13.085023-0.287934 13.820856 5.118835 27.481748 8.734013 40.694742 3.743148 13.660892 7.454304 27.353777 11.133467 41.014669 7.582275 28.313559 14.620674 56.755088 21.211175 85.324589 2.047534-5.118835 4.095068-10.205678 6.174595-15.324514-5.566734 3.391229-14.780637 4.063076-21.115196 5.310792-7.422311 1.471665-15.036579 2.46344-22.618854 2.623403-7.102384 0.159964-11.901293-1.375687-18.68375 1.983549-6.206588 3.039309-8.734013 11.997271-7.038399 18.299837 4.031083 14.844623 23.002767 13.820856 34.904059 13.372958 15.740419-0.607862 31.160911-4.095068 46.421439-7.742239-5.05485-2.079527-10.1097-4.159054-15.132557-6.238581 2.143512 3.199272 2.46344 12.125242 3.327243 16.188317 1.343694 6.142603 2.11152 12.125242 2.207498 18.363822 1.311702-3.199272 2.623403-6.398544 3.935105-9.597817-82.477237 65.58508-145.40692 157.340206-157.180242 264.803758-5.790683 52.819984 4.70293 106.535764 29.465297 153.309123 23.450665 44.213941 60.050339 80.74963 101.800841 107.303589 43.574087 27.73769 92.490959 42.518327 142.751525 51.95618-2.687389-6.654486-5.342785-13.27698-7.99818-19.931466-6.910428 9.597817-17.468026 21.403131-24.954323 32.600583-8.382093 12.605132-15.836397 25.850119-22.906789 39.223077-14.620674 27.641712-26.521966 56.563132-37.335506 85.964443-3.071301 8.382093 4.798908 17.180092 12.92506 17.180092 3.423221 0 6.878435 0 10.301656 0 6.014632 0 11.293431-4.159054 12.92506-9.949736 7.486297-26.170046 20.763276-51.892195 33.208445-75.982714 6.526515-12.605132 13.628899-24.890338 21.179182-36.919601 3.455214-5.566734 7.102384-11.005496 10.781547-16.412266 2.623403-3.839127 7.87021-14.172776 11.261438-15.836397-2.239491 0.607862-4.510974 1.247716-6.750464 1.855578 13.212994-0.479891 27.065843 2.687389 40.374815 3.167279 14.940601 0.575869 29.97718-0.095978 44.885789-1.311702 10.653576-0.863803 27.73769-0.191956 31.320875-13.372958 1.567643-5.694704 0.127971-12.125242-4.063076-16.380274-5.150828-5.182821-12.285205-4.734923-18.939691-4.287025-28.025624 1.951556-55.347409 2.367461-83.309048-1.023767-27.73769-3.359236-55.187445-10.301656-81.613433-19.355597-94.85842-32.472613-173.336567-111.846555-180.982827-216.302792-8.062166-110.630832 58.290739-214.063301 141.183881-280.288235 41.718509-33.368409 90.955308-58.482695 142.239641-72.655471 27.513741-7.614268 55.699329-11.709336 84.140858-12.765096 2.81536-0.127971 6.526515-0.831811 9.277889-0.383913 2.847352 0.479891 4.862894 1.919563 7.966188 1.919563 2.975323 0 5.790683-0.863803 8.446079-2.11152-3.551192 1.695614 1.503658 0.575869 2.911338 0.575869 14.076798 0.095978 28.313559 2.335469 42.166407 4.638945 102.664644 17.116106 195.731472 82.349266 238.537734 179.511162 21.62708 49.076835 25.946097 106.343807 12.349191 158.140024-7.102384 26.969864-14.844623 53.555816-29.401311 77.422387-13.468936 22.042985-30.745006 41.84648-49.044842 59.922368-32.056707 31.672795-70.032068 57.01103-110.598839 76.014707-4.798908 2.239491-9.629809 4.319017-14.524696 6.334559-5.246806 2.143512-11.933285 3.807134-14.81263 9.309882-5.342785 10.1097-1.535651 20.92324 9.597817 24.186498 9.821766 2.879345 23.226716-6.558508 31.832758-10.333649 10.81354-4.798908 21.435124-9.693795 31.928736-15.132557-6.11061-1.599636-12.22122-3.231265-18.363822-4.862894 4.414996 8.318108 10.877525 10.1097 19.579546 11.485387 11.581365 1.855578 23.194723 2.11152 34.872067 1.05576 19.323604-1.7596 37.783404-7.134377 55.507372-14.81263 16.988135-7.358326 32.376634-18.4598 45.813578-31.224896 13.500929-12.829081 21.403131-27.833668 30.073158-43.989992-8.190137-1.087753-16.348281-2.143512-24.506425-3.231265 11.229445 38.263295 0.479891 83.277055-16.444259 118.149122-8.190137 16.828172-18.68375 32.408627-30.68102 46.677381-10.237671 12.157234-25.690156 32.0887-42.262385 34.712103 5.502748 3.167279 11.005496 6.302566 16.508244 9.469846-9.309882-23.258709-18.779728-47.029301-32.152685-68.240476-5.950646-9.40586-12.701111-20.187407-25.242257-18.075888-12.605132 2.079527-15.196543 16.956143-9.597817 26.617945 25.786134 44.597854 42.90224 93.738675 53.331867 144.22319 3.551192 17.116106 29.433304 9.853758 25.914105-7.198362z" fill="#444444" p-id="20688"></path><path d="M550.908994 203.354694c42.454342-3.519199 86.892232-18.907699 123.939804-39.830939 34.104241-19.227626 73.679238-51.060384 76.87851-93.45074 3.679163-48.692923-62.865698-59.506463-97.545809-61.138091-46.837345-2.175505-92.650922 8.734013-136.193017 25.146279-6.910428 2.59141-11.357416 9.05394-9.373867 16.668208 11.933285 45.781585 22.68284 92.043061 28.857435 139.040369 0.991774 7.326333 5.40677 13.532921 13.436943 13.532921 6.590501 0 14.396725-6.206588 13.40495-13.564914-6.494523-49.460748-17.244077-98.0257-29.817217-146.238731-3.135287 5.566734-6.238581 11.133467-9.373867 16.668208 36.375725-13.692885 73.039384-23.226716 112.070504-24.346461 18.555779-0.511884 37.335506 0.735833 55.283423 5.662712 14.076798 3.871119 32.600583 11.389409 32.408627 28.537508-0.159964 15.51647-13.308972 29.849209-23.38668 40.182859-12.509154 12.797089-27.513741 22.714832-42.998218 31.416853-16.412266 9.245897-33.880292 16.124332-51.764224 21.787044-17.851939 5.598726-37.239528 11.229445-55.891285 12.765096-17.084113 1.439672-17.212084 28.569501 0.031993 27.129828z" fill="#444444" p-id="20689"></path><path d="M299.31823 261.165542c17.755961-4.574959 35.38395-13.436943 51.700238-21.723058 18.363822-9.341875 35.703878-20.57132 51.988173-33.272431 28.313559-22.074978 62.833706-55.8273 61.234069-95.178347-1.791592-43.670065-53.779765-55.539365-88.171941-57.938819-43.958-3.039309-89.291686 6.270573-130.882225 20.2194-9.821766 3.29525-14.716652 19.707517-3.199272 24.794359 6.46253 2.847352-3.103294-8.606042-0.447898-0.863803 1.05576 3.103294 1.919563 6.302566 2.847352 9.469846 2.015541 6.782457 3.967098 13.596907 5.950646 20.379364 3.935105 13.596907 7.742239 27.257799 11.453394 40.918691 7.550282 27.801675 14.364732 55.731321 21.083204 83.756946 4.063076 16.988135 29.913195 9.789773 25.850119-7.198362-7.262348-30.3291-14.716652-60.53023-22.938782-90.603388-4.031083-14.81263-8.222129-29.561275-12.541147-44.277927-3.423221-11.805314-5.214814-29.465297-17.723968-35.000038-1.05576 8.254122-2.11152 16.508244-3.199272 24.794359 34.520147-11.581365 70.671922-19.387589 107.111633-19.739509 17.564004-0.159964 35.000038 1.567643 51.796217 7.038399 12.381183 4.031083 25.690156 12.317198 26.298017 26.745915 0.607862 14.46071-9.40586 28.825442-17.915924 39.543004-10.717562 13.532921-23.834578 25.146279-37.559455 35.415943-14.012812 10.493613-29.049391 19.547553-44.533869 27.609719-14.236761 7.422311-29.689246 15.004587-45.269701 19.003677-16.764186 4.255032-9.629809 30.393086 7.134377 26.106061z" fill="#444444" p-id="20690"></path><path d="M352.938032 423.752554c-2.047534 0.543876-4.255032 1.05576-6.366552 1.695614-21.051211 6.334559-42.102422 12.669118-63.153633 19.035669-2.047534 0.607862-3.99909 1.503658-6.014632 2.303476-1.439672 0.575869-2.911338 0.735833-3.775141-0.831811-0.927789-1.695614-0.255942-3.231265 1.247716-4.095068 2.207498-1.279709 4.510974-2.527425 6.910428-3.327243 17.851939-6.078617 35.575907-12.477161 53.587809-17.97991 24.026534-7.326333 48.30901-13.788863 72.943406-18.843713 11.741329-2.431447 23.578636-4.319017 35.38395-6.430537 1.663622-0.287934 3.29525-0.095978 3.743148 1.887571 0.447898 1.951556-0.831811 2.975323-2.431447 3.519199s-3.263258 1.023767-5.246806 1.599636c0.639854 1.05576 1.151738 2.015541 1.791592 2.879345 8.446079 11.805314 14.556688 24.730374 18.907699 38.679201 6.782457 21.755051 9.277889 44.053978 8.318108 66.704825-1.119745 26.362003-7.102384 51.476289-20.635306 74.351085-5.630719 9.533831-12.669118 17.851939-21.563094 24.442439-5.598726 4.159054-11.677343 7.262348-18.491793 8.734013-13.724878 3.007316-25.370228-1.311702-35.38395-10.81354-8.062166-7.678253-13.436943-17.212084-17.819946-27.353777-6.046624-13.980819-9.629809-28.697471-11.997271-43.734051-2.975323-18.907699-3.743148-37.975361-2.623403-57.075016 0.799818-13.436943 2.751374-26.745915 6.622493-39.670975 1.599636-5.278799 3.935105-10.365642 6.014632-15.708426zM393.056905 412.907021c-0.479891 4.383003-1.119745 8.222129-1.343694 12.093249-0.70384 12.189227 0.255942 24.282476 2.751374 36.215761 3.679163 17.62799 10.525605 33.464387 24.57041 45.525643 5.75869 4.926879 11.997271 7.006406 19.323604 6.430537 7.966188-0.639854 13.532921-5.150828 15.996361-12.381183 3.64717-10.909518 4.830901-22.394905 3.519199-33.816307-0.927789-7.966188-3.103294-15.836397-5.246806-23.610629-3.903112-14.332739-10.81354-27.257799-19.323604-39.926917-13.436943 3.167279-26.841894 6.334559-40.246844 9.469846zM357.640962 563.208828c0 0.159964-0.127971 0.607862 0 1.023767 3.071301 9.373867 6.81445 18.395815 12.189227 26.649937 4.319017 6.718472 9.533831 12.605132 16.668208 16.508244 4.638945 2.527425 9.597817 3.839127 14.81263 3.519199 8.062166-0.511884 15.16455-3.807134 21.531102-8.70202 12.061256-9.245897 20.091429-21.563094 26.042076-35.415943 0.159964-0.35192 0.063985-0.799818 0.127971-1.503658-0.607862 0.575869-1.05576 0.895796-1.40768 1.311702-7.262348 8.286115-16.252303 13.500929-27.03385 15.484477-7.486297 1.375687-15.036579 1.279709-22.618854 1.343694-10.557598 0.063985-19.963458-3.199272-28.249573-9.629809-4.223039-3.29525-8.094159-7.070392-12.061256-10.557598z" fill="#444444" p-id="20691"></path><path d="M674.720827 363.862179c8.126151 12.957052 12.957052 26.33001 16.028354 40.374815 6.590501 30.233122 9.821766 60.786171 7.294341 91.723133-1.087753 13.436943-3.455214 26.649937-8.606042 39.191084-2.879345 7.006406-6.654486 13.436943-11.997271 18.843713-13.75687 13.948827-31.256889 15.228536-46.837345 3.29525-8.606042-6.590501-14.780637-15.260528-19.963458-24.666388-7.582275-13.724878-12.509154-28.473522-16.252303-43.670065-4.766916-19.547553-7.614268-39.415033-8.925969-59.47447-0.799818-12.029263-0.959782-23.994541 1.215723-35.863841 0.831811-4.510974 2.399454-8.893977 3.615178-13.308972 0.479891-1.791592 1.023767-3.551192 1.599636-5.502748-1.983549-0.575869-4.287025-0.575869-4.159054-3.135287 0.159964-2.335469 2.239491-2.911338 3.99909-3.29525 8.797998-1.823585 17.595997-3.839127 26.425988-5.246806 11.965278-1.919563 24.026534-3.423221 36.055797-4.926879 6.238581-0.799818 12.509154-1.439672 18.779728-1.791592 15.004587-0.799818 29.97718-1.40768 44.981767-2.079527 0.991774-0.031993 2.015541-0.031993 3.007316 0.063985 2.559418 0.255942 3.967098 1.471665 3.743148 3.231265-0.255942 2.207498-1.855578 2.655396-3.743148 2.751374-4.990865 0.255942-10.013722 0.479891-14.972594 0.895796-10.205678 0.799818-20.443349 1.695614-31.320875 2.623403zM631.114747 368.213189c-0.287934 1.471665-0.639854 2.687389-0.799818 3.935105-2.239491 16.444259-1.919563 32.856525 0.511884 49.236799 1.343694 9.021948 3.391229 17.883931 7.422311 26.138054 2.11152 4.319017 4.734923 8.254122 8.510064 11.293431 6.046624 4.926879 14.172776 5.566734 20.763276 1.375687 8.382093-5.342785 13.75687-13.021038 15.932375-22.714832 1.663622-7.51829 1.631629-15.260528 0.607862-22.874796-1.535651-11.325424-4.638945-22.33092-8.382093-33.112467-2.015541-5.790683-5.022857-11.261438-7.646261-17.020128-12.541147 1.247716-24.602403 2.46344-36.887608 3.711156zM614.190598 521.906224c0.191956 0.479891 0.35192 0.959782 0.575869 1.439672 3.199272 6.974413 7.230355 13.468936 12.061256 19.387589 4.095068 5.05485 8.829991 9.469846 14.716652 12.381183 4.446988 2.175505 9.085933 3.263258 14.076798 2.623403 8.861984-1.151738 15.16455-6.302566 20.315378-13.212994 5.246806-7.038399 8.286115-15.100565 10.301656-23.610629 0.095978-0.415905 0-0.895796 0-1.823585-9.693795 11.325424-21.659073 16.092339-35.575907 16.604223-14.012812 0.511884-25.754141-4.926879-36.503696-13.820856z" fill="#444444" p-id="20692"></path><path d="M554.140259 631.193362c-0.639854 1.375687-1.119745 2.431447-1.567643 3.455214-8.094159 17.436033-21.659073 27.577726-40.406808 30.425078-14.492703 2.207498-27.257799-1.727607-37.559455-12.381183-13.05303-13.500929-13.852849-34.936052-1.983549-49.492741 5.182821-6.366552 11.933285-9.853758 20.251393-9.277889 1.855578 0.127971 3.807134 1.087753 5.374777 2.143512 0.70384 0.479891 0.927789 2.399454 0.575869 3.391229-0.191956 0.639854-2.015541 1.311702-2.783367 1.05576-5.886661-2.015541-10.397635 0.735833-14.46071 4.287025-12.669118 11.133467-12.349191 32.248664 0.511884 43.862022 6.302566 5.694704 13.788863 8.510064 22.266934 8.766006 14.588681 0.447898 26.457981-5.182821 35.73587-16.348281 4.574959-5.502748 7.646261-11.837307 7.99818-19.227626 0.127971-2.175505 0.831811-4.031083 3.167279-4.574959 2.239491-0.511884 3.807134 0.639854 5.05485 2.46344 2.015541 2.975323 3.903112 6.078617 6.238581 8.766006 8.318108 9.75778 18.68375 15.16455 31.704787 13.948827 18.395815-1.7596 33.720329-17.340055 35.543914-32.536598 0.671847-5.534741-0.447898-10.685569-3.199272-15.388499-1.663622-2.847352-3.775141-5.438763-5.726697-8.094159-1.279709-1.727607-2.751374-3.327243-4.095068-5.022857-2.207498-2.751374-2.431447-4.287025-0.959782-5.662712 1.375687-1.311702 2.847352-1.215723 5.374777 0.70384 8.797998 6.654486 15.036579 14.940601 16.540237 26.298017 0.735833 5.470755-0.191956 10.653576-1.983549 15.740419-5.982639 16.860164-23.38668 31.800765-44.821803 32.120693-11.805314 0.159964-21.979-4.574959-30.489064-12.797089-2.11152-1.983549-3.935105-4.191047-6.270573-6.718472z" fill="#444444" p-id="20693"></path><path d="M598.546157 276.07415c10.045715-0.063985 17.595997 3.903112 23.578636 10.877525 5.182821 6.014632 8.286115 13.085023 9.629809 20.955233 0.415905 2.495432 0.511884 5.05485-1.119745 7.038399-0.735833 0.895796-2.431447 1.503658-3.615178 1.375687-1.663622-0.191956-1.887571-1.727607-1.663622-3.391229 0.191956-1.503658 0.191956-3.167279-0.191956-4.638945-1.823585-6.334559-4.894886-12.029263-9.309882-16.860164-7.614268-8.3501-18.075888-10.237671-28.057617-4.958872-9.565824 5.022857-16.028354 12.829081-19.547553 23.098745-1.311702 3.871119-1.919563 7.87021-0.35192 11.8693 0.671847 1.663622 0.799818 3.135287-0.959782 4.095068-1.40768 0.735833-3.29525 0-4.031083-2.207498-0.959782-2.975323-1.951556-6.174595-1.7596-9.181911 1.151738-17.212084 15.932375-34.072249 32.568591-37.559455 1.791592-0.35192 3.679163-0.319927 4.830901-0.447898z" fill="#444444" p-id="20694"></path><path d="M338.925219 364.406055c1.215723-15.452485 6.974413-29.593268 19.131648-40.534778 10.333649-9.309882 22.746825-10.1097 34.296198-2.367461 7.99818 5.374777 13.628899 12.669118 15.86839 22.298927 0.319927 1.375687 0.511884 2.94333 0.127971 4.255032-0.287934 1.023767-1.503658 2.399454-2.399454 2.46344-0.863803 0.095978-1.951556-1.183731-2.81536-2.015541-0.35192-0.35192-0.223949-1.119745-0.415905-1.663622-3.551192-9.437853-9.693795-16.636215-18.68375-21.115196-6.910428-3.423221-13.628899-2.207498-19.803495 2.207498-4.159054 2.94333-7.550282 6.654486-10.301656 10.941511-5.662712 8.734013-9.469846 18.075888-9.565824 28.729464 0 0.831811-0.127971 1.791592-0.543876 2.46344-0.415905 0.607862-1.375687 1.343694-2.015541 1.247716-0.831811-0.095978-1.599636-0.895796-2.335469-1.503658-0.255942-0.255942-0.287934-0.799818-0.319927-1.215723-0.095978-1.151738-0.159964-2.303476-0.255942-4.223039z" fill="#444444" p-id="20695"></path><path d="M264.830076 660.914601c0-2.623403-0.031993-5.182821 0-7.806224 0-0.863803 0.063985-1.7596 0.255942-2.59141 0.287934-1.503658 0.959782-2.783367 2.687389-2.911338 1.919563-0.095978 2.911338 1.119745 3.135287 2.879345 0.575869 4.446988 1.087753 8.893977 1.535651 13.340965 0.255942 2.399454-0.063985 4.894886 1.823585 6.910428 0.447898 0.479891 0.383913 1.631629 0.255942 2.431447-0.287934 1.567643-0.543876 3.199272-1.247716 4.574959-0.607862 1.151738-1.695614 2.335469-2.879345 2.751374-1.663622 0.607862-3.071301-0.511884-3.807134-2.047534-0.543876-1.151738-0.895796-2.431447-1.151738-3.711156-0.35192-1.695614-0.639854-3.423221-0.70384-5.150828-0.127971-2.879345-0.031993-5.790683-0.031993-8.670028 0.031993 0 0.063985 0 0.127971 0z" fill="#444444" p-id="20696"></path><path d="M816.640541 536.174978c0 1.567643 0.063985 3.167279-0.031993 4.734923-0.095978 1.695614-0.767825 3.135287-2.559418 3.551192-1.983549 0.479891-3.583185-0.479891-4.095068-2.271483-1.023767-3.711156-2.047534-7.51829-2.367461-11.325424-0.287934-3.391229 0.287934-6.910428 0.639854-10.333649 0.159964-1.887571 0.479891-3.871119 2.911338-4.127061 1.887571-0.223949 3.327243 0.991774 3.807134 3.871119 0.735833 4.542966 1.151738 9.149918 1.663622 13.724878 0.063985 0.70384 0 1.439672 0 2.175505 0 0 0 0 0 0z" fill="#444444" p-id="20697"></path><path d="M340.076957 649.525192c0 0.735833 0.095978 1.471665-0.031993 2.143512-0.287934 1.695614-1.151738 3.29525-2.911338 3.199272-1.183731-0.063985-2.847352-1.05576-3.359236-2.079527-1.247716-2.559418-1.951556-5.40677-2.847352-8.158144-1.215723-3.775141-0.735833-7.99818-3.231265-11.51738-1.023767-1.40768 0.447898-3.359236 2.431447-3.711156 2.623403-0.447898 4.574959 0.895796 5.630719 3.071301 1.311702 2.687389 2.335469 5.566734 3.103294 8.478071 0.735833 2.783367 0.959782 5.694704 1.375687 8.542057-0.063985 0.031993-0.127971 0.031993-0.191956 0.031993z" fill="#444444" p-id="20698"></path><path d="M302.485509 644.2144c0-1.439672 0.031993-2.879345 0-4.319017-0.063985-2.015541 0.70384-3.391229 2.751374-3.743148 1.951556-0.319927 3.391229 0.607862 4.063076 2.431447 0.511884 1.343694 0.799818 2.783367 0.959782 4.191047 0.35192 2.559418 0.479891 5.150828 0.895796 7.742239 0.287934 1.791592 0.799818 3.583185 1.375687 5.310792 0.799818 2.239491 0.191956 4.510974-1.663622 5.662712s-4.191047 0.607862-5.438763-1.791592c-1.05576-1.983549-1.7596-4.255032-2.143512-6.494523-0.575869-2.975323-0.735833-5.982639-1.05576-8.989955 0.063985 0 0.159964-0.031993 0.255942-0.031993z" fill="#444444" p-id="20699"></path><path d="M778.921122 530.864187c0-1.567643-0.191956-3.167279 0.063985-4.70293 0.191956-1.151738 0.767825-2.847352 1.567643-3.103294 1.119745-0.383913 2.911338-0.063985 3.839127 0.70384 1.087753 0.927789 1.823585 2.559418 2.143512 3.99909 0.511884 2.367461 0.511884 4.830901 0.927789 7.230355 0.191956 1.311702 0.639854 2.655396 1.215723 3.871119 1.05576 2.079527 0.735833 3.967098-1.215723 5.662712-1.663622 1.471665-3.839127 1.663622-5.374777 0.063985-1.023767-1.087753-2.015541-2.527425-2.335469-3.967098-0.70384-3.199272-0.927789-6.46253-1.375687-9.725787 0.191956 0 0.35192-0.031993 0.543876-0.031993z" fill="#444444" p-id="20700"></path><path d="M755.50245 546.028737c-0.575869 3.327243-0.799818 6.238581-1.567643 8.957962-0.799818 2.751374-2.911338 3.903112-5.182821 3.29525-1.983549-0.511884-3.199272-2.431447-3.039309-5.086843 0.127971-1.695614 0.511884-3.391229 0.735833-5.118835 0.447898-3.103294 0.927789-6.238581 1.247716-9.341875 0.159964-1.535651 0.383913-2.911338 2.11152-3.263258 1.599636-0.35192 3.007316 0.383913 3.455214 1.823585 0.927789 2.975323 1.567643 6.014632 2.207498 8.70202z" fill="#444444" p-id="20701"></path></svg>