<?xml version="1.0" standalone="no"?><!DOCTYPE svg PUBLIC "-//W3C//DTD SVG 1.1//EN" "http://www.w3.org/Graphics/SVG/1.1/DTD/svg11.dtd"><svg t="1733878088960" class="icon" viewBox="0 0 1024 1024" version="1.1" xmlns="http://www.w3.org/2000/svg" p-id="23103" xmlns:xlink="http://www.w3.org/1999/xlink" width="128" height="128"><path d="M710.883986 26.626816A51.176587 51.176587 0 0 0 665.83876 0.000246h-307.182392A51.201161 51.201161 0 0 0 314.630987 76.808131l117.257663 138.232077L307.467494 811.981607a51.213448 51.213448 0 0 0 14.326987 43.533889l153.591196 153.591196a51.213448 51.213448 0 0 0 72.187862 0l153.591196-153.591196a51.164299 51.164299 0 0 0 14.326987-44.541447l-132.088429-594.926283L708.844295 78.847822c10.198455-15.715451 10.972555-35.75603 2.039691-52.221006z" fill="#00CCC6" p-id="23104"></path><path d="M665.83876 0.000246h-307.182392A51.201161 51.201161 0 0 0 314.630987 76.808131l117.257663 138.232077-1.007558 6.831736h153.468323l-0.933834-5.824178L708.844295 78.847822a51.164299 51.164299 0 0 0 2.039691-52.221006A51.176587 51.176587 0 0 0 665.83876 0.000246z" fill="#567794" p-id="23105"></path></svg>