<?xml version="1.0" standalone="no"?><!DOCTYPE svg PUBLIC "-//W3C//DTD SVG 1.1//EN" "http://www.w3.org/Graphics/SVG/1.1/DTD/svg11.dtd"><svg t="1732356395892" class="icon" viewBox="0 0 1058 1024" version="1.1" xmlns="http://www.w3.org/2000/svg" p-id="4937" xmlns:xlink="http://www.w3.org/1999/xlink" width="206.640625" height="200"><path d="M0 0h1058.133333v1024H0V0m548.181333 143.018667c-0.341333 21.162667-1.365333 63.829333-1.706666 85.333333 122.88 7.168 245.76 20.138667 367.957333 37.205333-77.482667 74.410667-148.48 169.984-94.890667 280.234667 26.624 0.341333 79.530667 1.365333 106.154667 1.706667-14.677333-43.349333-29.354667-86.698667-43.690667-130.389334 55.978667-69.973333 74.069333-156.672 80.213334-243.712-137.557333-16.384-275.456-27.648-414.037334-30.378666M189.781333 239.274667c37.205333 27.989333 75.093333 55.978667 112.64 83.626666-116.053333 71.68-196.266667 182.954667-172.032 325.632 24.234667 25.6 48.810667 50.858667 73.045334 76.458667-31.402667 29.013333-61.781333 59.050667-92.501334 88.746667 40.618667 31.061333 81.237333 62.122667 121.514667 93.525333 65.877333-46.762667 139.264-84.992 194.218667-145.749333l-121.173334-24.576c96.256-53.930667 202.752-83.285333 312.32-52.565334-1.365333 42.666667-2.389333 85.674667-3.754666 128.682667-68.608 10.581333-164.864-14.336-196.608 67.584 161.792 15.018667 324.949333 31.402667 486.741333 8.192-44.373333-86.016-148.821333-65.877333-228.352-78.165333l48.128-113.664c53.589333 3.754667 107.178667 7.509333 160.768 10.922666-1.024-20.821333-2.730667-62.805333-3.754667-83.626666-135.509333-9.216-271.018667-12.970667-406.528-11.605334 8.533333-15.701333 24.917333-47.445333 33.109334-63.146666l93.525333 22.528c12.288-10.922667 37.205333-32.768 49.493333-43.690667 41.301333 15.36 82.602667 30.037333 124.245334 44.032-16.042667-51.2-34.474667-102.058667-53.248-152.234667 40.618667-50.517333 79.189333-102.4 112.298666-158.378666-123.904 15.36-173.738667 138.581333-241.664 225.28-48.128-86.357333 58.368-153.941333 90.794667-226.986667-79.189333 6.144-136.874667 57.002667-181.589333 118.442667-46.421333-17.066667-92.501333-34.474667-139.264-50.858667 66.218667-17.066667 131.754667-34.816 196.266666-57.002667-59.392-37.888-121.514667-70.656-185.002666-101.034666-60.757333 24.234667-122.197333 47.104-183.637334 69.632z" fill="#C3E7FC" p-id="4938"></path><path d="M356.010667 443.392c154.624-45.056 23.552 150.186667 0 0z" fill="#C3E7FC" p-id="4939"></path><path d="M548.181333 143.018667c138.581333 2.730667 276.48 13.994667 414.037334 30.378666-6.144 87.04-24.234667 173.738667-80.213334 243.712 14.336 43.690667 29.013333 87.04 43.690667 130.389334-26.624-0.341333-79.530667-1.365333-106.154667-1.706667-53.589333-110.250667 17.408-205.824 94.890667-280.234667-122.197333-17.066667-245.077333-30.037333-367.957333-37.205333 0.341333-21.504 1.365333-64.170667 1.706666-85.333333z" fill="#00A2FF" p-id="4940"></path><path d="M189.781333 239.274667c61.44-22.528 122.88-45.397333 183.637334-69.632 63.488 30.378667 125.610667 63.146667 185.002666 101.034666-64.512 22.186667-130.048 39.936-196.266666 57.002667 46.762667 16.384 92.842667 33.792 139.264 50.858667 44.714667-61.44 102.4-112.298667 181.589333-118.442667-32.426667 73.045333-138.922667 140.629333-90.794667 226.986667 67.925333-86.698667 117.76-209.92 241.664-225.28-33.109333 55.978667-71.68 107.861333-112.298666 158.378666 18.773333 50.176 37.205333 101.034667 53.248 152.234667-41.642667-13.994667-82.944-28.672-124.245334-44.032-12.288 10.922667-37.205333 32.768-49.493333 43.690667l-93.525333-22.528c-8.192 15.701333-24.576 47.445333-33.109334 63.146666 135.509333-1.365333 271.018667 2.389333 406.528 11.605334 1.024 20.821333 2.730667 62.805333 3.754667 83.626666-53.589333-3.413333-107.178667-7.168-160.768-10.922666l-48.128 113.664c79.530667 12.288 183.978667-7.850667 228.352 78.165333-161.792 23.210667-324.949333 6.826667-486.741333-8.192 31.744-81.92 128-57.002667 196.608-67.584 1.365333-43.008 2.389333-86.016 3.754666-128.682667-109.568-30.72-216.064-1.365333-312.32 52.565334l121.173334 24.576c-54.954667 60.757333-128.341333 98.986667-194.218667 145.749333-40.277333-31.402667-80.896-62.464-121.514667-93.525333 30.72-29.696 61.098667-59.733333 92.501334-88.746667-24.234667-25.6-48.810667-50.858667-73.045334-76.458667-24.234667-142.677333 55.978667-253.952 172.032-325.632-37.546667-27.648-75.434667-55.637333-112.64-83.626666m166.229334 204.117333c23.552 150.186667 154.624-45.056 0 0m-0.341334 109.568c-36.522667 13.312-62.464 86.698667-10.581333 96.938667 69.290667 11.605333 93.866667-128.682667 10.581333-96.938667z" fill="#00A2FF" p-id="4941"></path><path d="M355.669333 552.96c83.285333-31.744 58.709333 108.544-10.581333 96.938667-51.882667-10.24-25.941333-83.626667 10.581333-96.938667z" fill="#68C7FD" p-id="4942"></path></svg>