<?xml version="1.0" standalone="no"?><!DOCTYPE svg PUBLIC "-//W3C//DTD SVG 1.1//EN" "http://www.w3.org/Graphics/SVG/1.1/DTD/svg11.dtd"><svg t="1733878151713" class="icon" viewBox="0 0 1024 1024" version="1.1" xmlns="http://www.w3.org/2000/svg" p-id="24158" xmlns:xlink="http://www.w3.org/1999/xlink" width="128" height="128"><path d="M908.8 728.576H901.12c-10.752-1.024-19.456-7.68-24.576-16.896-4.608-9.728-4.608-20.48 1.024-29.696 68.096-187.904-15.872-397.312-195.072-485.376-147.456-70.144-323.072-38.912-437.248 78.336-15.36 11.776-37.376 10.24-51.2-3.584s-15.36-35.84-3.584-51.2C330.24 79.36 542.72 41.984 721.408 125.952c213.504 105.472 311.808 356.864 226.304 579.584-6.144 14.848-22.016 24.576-38.912 23.04zM518.656 1002.496c-70.144-0.512-139.776-16.896-203.264-47.104-205.824-103.936-305.664-343.552-234.496-563.712 3.584-10.752 11.264-19.968 22.016-24.576 10.752-4.608 22.528-4.096 32.768 1.024 18.432 7.168 28.672 27.648 23.552 47.104-59.392 183.296 23.552 382.976 195.072 470.016 147.456 70.144 323.072 38.912 437.248-78.336 9.216-12.288 24.576-17.92 39.424-14.848 14.848 3.072 26.624 14.848 29.696 29.696 3.072 14.848-2.56 30.72-14.848 39.424-83.456 92.16-203.264 143.36-327.168 141.312z" p-id="24159"></path><path d="M181.76 493.568c-15.36 0-23.04 0-30.72-15.36l-30.72-46.08-53.76 46.08c-16.896 12.8-40.96 9.216-53.76-7.68-6.144-8.192-8.704-18.432-7.168-28.16 1.536-10.24 6.656-18.944 14.848-25.088L104.448 348.16c7.68-7.68 23.04-15.36 30.72-7.68s23.04 7.68 23.04 15.36L211.968 440.32c15.36 15.36 7.68 38.4-15.36 53.76h-14.848zM891.904 774.656h-7.68l-23.04-23.04-46.08-84.48c-15.36-15.36-7.68-38.4 15.36-53.76 19.456-5.12 39.936 0.512 53.76 15.36l23.04 53.76 53.76-46.08c17.408-9.216 39.424-6.144 53.76 7.68 7.68 15.36 7.68 46.08-7.68 53.76l-91.648 69.12-23.552 7.68z" p-id="24160"></path></svg>