<?xml version="1.0" standalone="no"?><!DOCTYPE svg PUBLIC "-//W3C//DTD SVG 1.1//EN" "http://www.w3.org/Graphics/SVG/1.1/DTD/svg11.dtd"><svg t="1732356456846" class="icon" viewBox="0 0 1024 1024" version="1.1" xmlns="http://www.w3.org/2000/svg" p-id="7136" xmlns:xlink="http://www.w3.org/1999/xlink" width="200" height="200"><path d="M342.242286 727.999407s293.601477 0.250803 378.827562 0.624509c3.968884-15.288996 11.976597-29.008224 22.929996-39.796753-3.187497-0.491614-401.757558-0.82835-401.757558-0.82835-35.20336 0-63.99975 28.79639-63.99975 63.999751 0 6.984516 1.17208 13.695247 3.265436 20.000296 8.452364-25.475997 32.514471-43.999454 60.734314-43.999453zM717.632546 801.96833c-0.390693 4.390553-0.890301 8.672191-1.319963 12.827928 6.015277-0.077939 9.538511-0.155878 9.929204-0.24281-4.312614-3.797019-6.99251-8.014707-8.609241-12.585118z" fill="#EAEAEA" p-id="7137"></path><path d="M1023.999001 512c0 282.764985-229.234015 512-512 512S0 794.764985 0 512 229.234015 0 512 0s511.999001 229.234015 511.999001 512z" fill="#FBD000" p-id="7138"></path><path d="M742.242224 839.999469h-407.999657c-35.20336 0-63.99975-28.79639-63.99975-63.99975V287.999875c0-35.20336 28.79639-63.921811 63.99975-63.827885l407.999657 1.000215v614.827264z" fill="#3AD0F9" p-id="7139"></path><path d="M747.999703 851.999048H331.999329c-39.69883 0-71.999469-32.296642-71.99947-72.000469V291.999735c0-38.265955 32.480498-75.827464 74.069844-75.827464l413.929001 3.827994c4.413535 0.010991 7.999719 3.589182 7.999719 7.999719v615.999345a7.993724 7.993724 0 0 1-7.99872 7.999719zM334.221584 232.171709c-32.636375 0-58.222286 30.609966-58.222287 59.828026v487.999843c0 30.874758 25.120277 56.000031 56.000032 56.000032h407.999656l-3.999859-602.847671-401.777542-0.98023z" fill="#0C508E" p-id="7140"></path><path d="M718.242068 750.039102c0-23.898236 9.890235-45.578214 25.757776-61.21094-3.187497-0.491614-401.757558-0.82835-401.757558-0.828349-35.20336 0-63.99975 28.79639-63.99975 63.99975 0 35.20336 28.79639 63.99975 63.99975 63.99975 0 0 379.671898-0.515595 383.999501-1.445865-17.968892-15.796597-7.999719-38.85849-7.999719-64.514346z" fill="#FFFFFF" p-id="7141"></path><path d="M334.241568 256c0-35.20336 28.79639-63.99975 63.99975-63.99975h280.000156c35.20336 0 63.99975 28.79639 63.999751 63.99975V687.999813h-343.999907c-35.20336 0-63.99975-28.79639-63.99975-63.999751V256z" fill="#EAEAEA" p-id="7142"></path><path d="M718.242068 588.234144V221.835824c0-6.867608-1.109129-13.281572-3.101565-19.140971a63.378238 63.378238 0 0 0-18.226689-2.694884H479.312665L371.508308 219.023033c-11.476989 11.57791-18.593401 27.48442-18.593401 44.976686v368.000062c0 35.20336 31.881968 59.999891 67.085327 59.999891h63.99975c84.992268-16.492051 171.218567-28.640513 171.218567-28.640513 34.663784-6.117197 63.023517-39.921655 63.023517-75.125015z" fill="#D4D6D6" p-id="7143"></path><path d="M747.999703 691.999672H396.000078c-39.69883 0-69.75723-28.296783-69.75723-67.99961V256c0-39.69883 32.300639-71.999469 71.99947-71.999469h280.000156c39.983607 0 73.758088 32.973111 73.758088 71.999469V687.999813c-0.000999 4.421528 0.42067 3.999859-4.000859 3.999859zM398.242318 199.999969c-30.878755 0-56.000031 25.121276-56.000032 56.000031V624.000062c0 30.874758 25.121276 56.000031 56.000032 56.000032l341.757666-3.99986V259.999859c0-30.355166-30.45309-59.999891-61.75751-59.99989h-280.000156z" fill="#0C508E" p-id="7144"></path><path d="M731.999266 827.998891H340.000047c-39.69883 0-69.75723-36.296502-69.75723-76.000327 0-39.702827 32.300639-71.999469 71.999469-71.99947 264.882026 0.226822 400.460576 0.531583 402.975602 0.921277a8.001717 8.001717 0 0 1 4.398546 13.601321c-15.077162 14.852339-25.616887 40.531177-25.616887 61.476731 0 38.7186 16.765836 55.367528 16.91472 55.585357 1.608737 2.462067 0.48362 5.828424-0.914283 8.414393-1.398902 2.587968-5.063025 8.000718-8.000718 8.000718zM340.000047 691.999672c-30.871761 0-53.757792 29.125132-53.757792 59.999891 0 30.874758 22.878037 59.999891 53.757792 59.999891h383.9995c-4.95411-11.757768-16.000437-29.546801-16.000437-56.000032 0-19.343812 13.109707-48.383012 24.000156-63.99975-59.00767-0.265791-382.233887 0-391.999219 0z" fill="#0C508E" p-id="7145"></path><path d="M711.999969 557.053626c0 35.20336-19.452727 69.007818-54.11651 75.126014 0 0-325.312579 62.007315-340.562605 67.116303-15.250026 5.109988-49.741945 17.484272-49.741945 53.492001V270.655493c0-35.20336 28.358734-69.006819 63.023516-75.125015L657.883459 137.780821c34.663784-6.117197 62.117228 17.671125 62.117228 52.874485l-8.000718 366.39832z" fill="#3AD0F9" p-id="7146"></path><path d="M303.999313 263.484124c0-28.984243 21.163383-57.023228 46.335619-71.436911l-19.734505 3.484264c-34.663784 6.117197-63.023517 39.921655-63.023517 75.125015V752.788943c0-29.327973 19.695536-42.969262 36.421404-49.788908l0.000999-439.515911z" fill="#00B3F9" p-id="7147"></path><path d="M275.999297 763.999141c-4.417532 0-7.999719 4.413535-7.999719 0l-7.999719-495.999563c0-37.988173 29.526817-73.344413 69.210659-80.347914l327.281034-57.749657c4.06281-0.715438 8.055675-1.08215 11.867682-1.082151 31.375365 0 55.641313 21.618026 55.641312 59.179535v368.000063c0 42.562582-28.969255 77.749954-64.726179 84.054004-130.44558 24.867475-328.597 63.203375-339.41051 66.828529-23.910227 7.999719-47.86342 19.569635-47.86342 45.905957v2.617944c-0.000999 4.413535 8.416392 8.593253 3.99886 8.593253z m392.358937-619.178848c-2.882737 0-5.937338 0.285776-9.085866 0.840341L331.991335 203.410291c-31.956909 5.639572-55.992038 34.405986-55.992038 64.589287l-3.999859 446.929091c13.726223-13.492406 32.753284-19.859407 42.308781-23.062892 15.788603-5.288847 308.722605-61.186959 342.074418-67.546965 32.749287-5.780461 51.616473-39.967619 51.616473-68.319358V187.999391c0-28.698467-17.319402-43.179098-39.640876-43.179098z" fill="#0C508E" p-id="7148"></path><path d="M510.640068 353.026819c-7.769899 0-14.796383-3.093571-19.796457-8.710161-6.097213-6.85162-8.734142-16.797811-7.422172-28.004013 2.578975-22.113637 19.644576-42.949278 38.851495-47.42976 10.50775-2.466064 20.6328 0.467633 27.171666 7.815863 6.10121 6.850621 8.734142 16.800809 7.429167 28.016003-2.577976 22.116635-19.648573 42.952276-38.855492 47.433757-2.488046 0.581543-4.971097 0.87831-7.378207 0.878311z m19.031057-69.026803c-1.188067 0-2.446079 0.155878-3.750055 0.460638-12.640076 2.949684-24.820512 18.387563-26.609108 33.707534-0.762401 6.514885 0.507601 12.168446 3.484264 15.514819 2.702878 3.035617 6.730715 4.015847 11.585904 2.886733 12.633081-2.949684 24.811519-18.383566 26.601114-33.707534 0.758405-6.518882-0.515595-12.179437-3.492258-15.526809-1.968454-2.215261-4.601387-3.335381-7.819861-3.335381zM483.781156 449.870781h-0.003997c-11.383063 0-22.094652-2.281209-31.836003-6.781675a7.999719 7.999719 0 0 1-4.464495-8.948974c7.265296-33.663569 33.311845-62.957568 61.937369-69.648315 15.616738-3.652133 30.093372 0.105917 40.147478 10.281927 8.883025 8.995937 13.672265 22.433386 13.484413 37.832296a8.003716 8.003716 0 0 1-2.89073 6.058243c-17.351376 14.390701-36.343465 24.292926-54.94486 28.640513-7.277286 1.702663-14.488624 2.565985-21.429175 2.565985z m-18.93813-18.88717c5.925348 1.918494 12.269367 2.886733 18.933134 2.886733h0.003997c5.71851 0 11.702811-0.722433 17.785036-2.144316 15.168091-3.546216 30.792823-11.461001 45.402352-22.975961-0.523589-9.48855-3.593179-17.468285-8.797093-22.73415-6.093216-6.176151-15.031198-8.281498-25.117279-5.945332-20.370006 4.765259-40.545166 26.456228-48.210147 50.913026zM443.714615 363.053946c-6.325034 0-12.059531-2.527016-16.140328-7.112416-4.898154-5.499682-7.027482-13.414468-5.996292-22.281505 1.988439-17.101573 15.262017-33.233906 30.218274-36.730161 8.480342-2.008423 16.72287 0.414674 22.051686 6.401973 4.898154 5.499682 7.027482 13.414468 5.996292 22.281506-1.980445 17.089582-15.246029 33.230909-30.203285 36.738154a26.282364 26.282364 0 0 1-5.926347 0.702449z m14.007002-50.832089c-0.710442 0-1.475841 0.097923-2.281209 0.285776-8.375424 1.956464-16.77383 12.707023-17.972888 23.003938-0.487617 4.206697 0.261794 7.772897 2.054387 9.789314 1.472844 1.6557 3.684107 2.136323 6.468921 1.472843 8.371427-1.964458 16.765836-12.715017 17.960897-23.007935 0.488616-4.211693-0.257798-7.78189-2.054387-9.797307-1.042182-1.17208-2.410108-1.746629-4.175721-1.746629z" fill="#FFFFFF" p-id="7149"></path><path d="M423.9921 434.335978c-8.687179 0.003997-16.929708-1.734638-24.374862-5.175936a7.99872 7.99872 0 0 1-4.460498-8.944976c5.492687-25.542945 25.33211-47.785481 47.17596-52.879482 10.476774-2.461068 20.484916-0.62451 28.163887 5.182931a7.989727 7.989727 0 0 1 1.55378 11.203203 7.988728 7.988728 0 0 1-11.202205 1.55478c-3.870961-2.922705-9.019918-3.750056-14.867327-2.363145-13.785176 3.214476-27.437457 17.511251-33.285865 34.003302 7.242314 1.914497 15.370931 1.899509 23.863264-0.085932 4.308617-0.988224 8.601247 1.675684 9.609455 5.976307a8.004715 8.004715 0 0 1-5.977307 9.608456c-5.507676 1.282993-10.933416 1.920492-16.198282 1.920492zM416.569928 514.351154c-3.778034 0-7.136397-2.682894-7.854833-6.526875a8.001717 8.001717 0 0 1 6.389983-9.33567l149.667487-28.000016c4.335596-0.816359 8.515314 2.055386 9.33567 6.390982 0.812362 4.34359-2.055386 8.523308-6.397976 9.33567l-149.660493 28.000016c-0.499608 0.092927-0.992221 0.135893-1.479838 0.135893zM518.124192 539.796176a7.996721 7.996721 0 0 1-7.854833-6.530873 8.001717 8.001717 0 0 1 6.389983-9.33567l48.113223-8.995936c4.335596-0.832346 8.515314 2.054387 9.33567 6.393979 0.812362 4.34359-2.055386 8.523308-6.397976 9.33567l-48.10523 8.999934a8.623229 8.623229 0 0 1-1.480837 0.132896zM416.569928 558.796258a7.995722 7.995722 0 0 1-7.854833-6.530873 8.001717 8.001717 0 0 1 6.389983-9.33567l61.460743-11.49997c4.363574-0.742417 8.523308 2.054387 9.33567 6.397976a8.002717 8.002717 0 0 1-6.389982 9.33567l-61.461743 11.499971c-0.499608 0.086932-0.992221 0.132896-1.479838 0.132896z" fill="#FFFFFF" p-id="7150"></path><path d="M679.999094 556.843791a7.995722 7.995722 0 0 1-7.999719-7.999719V224.983353c0-15.288996 0-40.874907-5.179932-45.120573-2.624939-2.156307-11.085296-0.812362-19.007077 0.769396-11.906651 2.386127-61.062057 11.769759-146.097291 27.890101-4.34359 0.844337-8.528304-2.031405-9.34766-6.370997-0.824353-4.339593 2.027408-8.523308 6.370997-9.347661 84.980277-16.109352 134.07473-25.48499 145.93342-27.859126 12.843916-2.558991 24.141046-4.148743 32.288648 2.546001 9.507535 7.789884 11.039332 23.327684 11.039333 57.49186v323.859719a7.996721 7.996721 0 0 1-8.000719 8.001718zM362.23359 234.788654c-3.77004 0-7.128403-2.6749-7.850836-6.514885a7.996721 7.996721 0 0 1 6.373996-9.343663l85.949516-16.257236c4.363574-0.848334 8.527305 2.031405 9.34766 6.370998a7.997721 7.997721 0 0 1-6.370997 9.347661l-85.956511 16.258234a7.841843 7.841843 0 0 1-1.492828 0.138891z" fill="#FFFFFF" p-id="7151"></path><path d="M923.725731 384.304261c0-3.124547-3.554209-6.226112-7.906792-6.89059l-14.890309-2.250233c-4.351583-0.664478-8.445369-4.765259-9.101853-9.109847l-2.249234-14.867327c-0.656485-4.34359-3.758049-7.905793-6.883596-7.905793s-6.226112 3.562203-6.882596 7.905793l-2.250233 14.867327c-0.655485 4.34359-4.749271 8.445369-9.101854 9.109847l-14.890308 2.250233c-4.351583 0.664478-7.905793 3.766043-7.905793 6.89059s3.562203 6.226112 7.913786 6.882596l14.874322 2.250233c4.351583 0.655485 8.453363 4.757265 9.109847 9.101854l2.250233 14.875321c0.655485 4.34359 3.75705 7.905793 6.882596 7.905792s6.188141-3.562203 6.804658-7.92178l2.40611-17.163524c0.616516-4.359577 4.703307-8.195565 9.09386-8.523308l14.750419-1.118122c4.390553-0.327743 7.976737-3.164515 7.976737-6.289062zM473.757027 83.516427c0-3.125546-3.562203-6.226112-7.906792-6.89059l-14.890309-2.250233c-4.34359-0.664478-8.44437-4.765259-9.101854-9.109848l-2.249234-14.867327c-0.656485-4.34359-3.758049-7.905793-6.883595-7.905792s-6.226112 3.562203-6.882596 7.905792l-2.250233 14.867327c-0.656485 4.34359-4.757265 8.445369-9.101854 9.109848l-14.890309 2.250233c-4.34359 0.664478-7.906792 3.765044-7.906792 6.89059 0 3.124547 3.562203 6.226112 7.914786 6.882596l14.874321 2.250233c4.351583 0.656485 8.453363 4.757265 9.109848 9.101853l2.250233 14.874322c0.656485 4.34359 3.758049 7.906792 6.882596 7.906792s6.188141-3.562203 6.804657-7.92178l2.406111-17.164524c0.616516-4.359577 4.703307-8.195565 9.09386-8.524307l14.750419-1.117123c4.391552-0.327743 7.976737-3.163516 7.976737-6.288062zM207.999688 622.98386c0-3.124547-3.562203-6.226112-7.906792-6.890589l-14.890309-2.249234c-4.34359-0.664478-8.445369-4.765259-9.101854-9.109848l-2.250233-14.867327c-0.656485-4.34359-3.758049-7.906792-6.882596-7.906792s-6.226112 3.562203-6.883595 7.906792l-2.249234 14.867327c-0.656485 4.34359-4.757265 8.445369-9.101854 9.109848l-14.890309 2.249234c-4.34359 0.664478-7.906792 3.766043-7.906792 6.890589 0 3.125546 3.562203 6.227111 7.906792 6.883596l14.890309 2.249234c4.34359 0.656485 8.445369 4.758264 9.101854 9.101853l2.249234 14.875321c0.656485 4.34359 3.758049 7.906792 6.883595 7.906792 3.124547 0 6.187142-3.562203 6.804657-7.92178l2.406111-17.163524c0.616516-4.359577 4.703307-8.195565 9.09386-8.524307l14.74942-1.117123c4.392551-0.328742 7.977736-3.164515 7.977736-6.290062zM139.891164 427.999953c-17.586192 0-31.890961-14.304769-31.890961-31.89096 0-17.593187 14.304769-31.905949 31.890961-31.905949 17.590189 0 31.898954 14.312762 31.898954 31.905949 0 17.586192-14.308765 31.890961-31.898954 31.89096z m0-48.864633c-9.350658 0-16.959684 7.61602-16.959684 16.973673 0 9.350658 7.609026 16.958685 16.959684 16.958684 9.354655 0 16.966679-7.608027 16.966678-16.958684 0-9.357653-7.612023-16.973673-16.966678-16.973673zM867.995488 683.999953c-17.644147 0-31.996877-14.351732-31.996878-31.996877 0-17.651141 14.352731-32.010866 31.996878-32.010867 17.645146 0 32.003872 14.359725 32.003872 32.010867 0 17.644147-14.359725 31.996877-32.003872 31.996877z m0-49.026506c-9.384632 0-17.01564 7.637004-17.01564 17.029629 0 9.385631 7.630009 17.01564 17.01564 17.01564s17.022635-7.630009 17.022634-17.01564c-0.000999-9.393625-7.637004-17.029629-17.022634-17.029629z" fill="#FFFFFF" p-id="7152"></path><path d="M635.999641 731.999266H387.99936a7.997721 7.997721 0 0 1-7.999719-7.999719 7.997721 7.997721 0 0 1 7.999719-7.999719h248.000281a7.995722 7.995722 0 0 1 7.999719 7.999719 7.995722 7.995722 0 0 1-7.999719 7.999719zM675.999235 763.999141H475.999266a7.997721 7.997721 0 0 1-7.999719-7.999719 7.997721 7.997721 0 0 1 7.999719-7.999719H675.999235a7.995722 7.995722 0 0 1 7.999719 7.999719 7.994723 7.994723 0 0 1-7.999719 7.999719zM422.241474 763.999141h-95.999625a7.997721 7.997721 0 0 1-7.999719-7.999719 7.997721 7.997721 0 0 1 7.999719-7.999719h95.999625a7.997721 7.997721 0 0 1 7.999719 7.999719 7.996721 7.996721 0 0 1-7.999719 7.999719z" fill="#0C508E" p-id="7153"></path></svg>