<?xml version="1.0" standalone="no"?><!DOCTYPE svg PUBLIC "-//W3C//DTD SVG 1.1//EN" "http://www.w3.org/Graphics/SVG/1.1/DTD/svg11.dtd"><svg t="1732356438086" class="icon" viewBox="0 0 1324 1024" version="1.1" xmlns="http://www.w3.org/2000/svg" p-id="6812" xmlns:xlink="http://www.w3.org/1999/xlink" width="258.59375" height="200"><path d="M32.278261 666.713043l607.721739 349.495653c13.356522 7.791304 31.165217 7.791304 44.521739 0l607.721739-349.495653c21.147826-12.243478 28.93913-38.956522 16.695652-61.217391-4.452174-6.678261-10.017391-12.243478-16.695652-16.695652L684.521739 241.530435c-13.356522-7.791304-30.052174-7.791304-44.521739 0L32.278261 589.913043C11.130435 602.156522 3.33913 628.869565 15.582609 651.130435c4.452174 5.565217 10.017391 11.130435 16.695652 15.582608z" fill="#F0F4FE" p-id="6813"></path><path d="M1064.069565 602.156522l-405.147826 244.869565-438.53913-256 253.773913-148.034783c138.017391-37.843478 207.026087-55.652174 210.365217-55.652174 2.226087 0 128 72.347826 379.547826 214.817392z" fill="#D3DAEA" p-id="6814"></path><path d="M624.417391 664.486957v145.808695l380.66087-218.156522V446.330435z" fill="#A6B9DC" p-id="6815"></path><path d="M243.756522 446.330435v145.808695l380.660869 218.156522V664.486957z" fill="#DEE9FB" p-id="6816"></path><path d="M1005.078261 446.330435L624.417391 227.06087 243.756522 446.330435l380.660869 218.156522z" fill="#E8EEF9" p-id="6817"></path><path d="M912.695652 394.017391L555.408696 611.06087 301.634783 474.156522l253.773913-148.034783c92.382609-37.843478 140.243478-56.765217 142.469565-55.652174 2.226087 0 74.573913 41.182609 214.817391 123.547826z" fill="#D3DAEA" p-id="6818"></path><path d="M535.373913 538.713043v57.878261l353.947826-202.573913v-57.878261z" fill="#E14C46" p-id="6819"></path><path d="M686.747826 219.269565l201.46087 116.869565-352.834783 202.573913L333.913043 422.956522z" fill="#FB8070" p-id="6820"></path><path d="M333.913043 480.834783V422.956522l201.46087 115.756521v57.878261z" fill="#FAF6F9" p-id="6821"></path><path d="M333.913043 480.834783v-3.339131l201.46087 114.643478v4.452174zM333.913043 426.295652V422.956522l201.46087 115.756521v4.452174z" fill="#FE5F4B" p-id="6822"></path><path d="M533.147826 538.713043v56.765218l2.226087 1.113043v-57.878261zM505.321739 525.356522l-2.226087-4.452174L857.043478 317.217391l4.452174 3.339131z" fill="#FE5F4B" p-id="6823"></path><path d="M785.953391 136.759652l-200.347826-123.547826C557.779478-2.370783 524.388174-2.370783 496.562087 13.211826 487.657739 17.664 483.205565 26.568348 483.205565 36.585739v3.339131c0 3.33913 3.33913 10.017391 14.469565 18.921739 17.808696 13.356522 210.365217 122.434783 210.365218 122.434782l2.226087 303.86087 77.913043-45.634783-2.226087-302.747826z" fill="#F6FCFE" p-id="6824"></path><path d="M497.352348 58.846609c-11.130435-8.904348-13.356522-15.582609-14.469565-20.034783v313.878261l227.060869 132.452174-2.226087-303.86087s-192.556522-109.078261-210.365217-122.434782" fill="#8BB8E9" p-id="6825"></path><path d="M586.395826 13.211826c-27.826087-15.582609-61.217391-15.582609-89.043478 0-7.791304 4.452174-13.356522 13.356522-13.356522 22.26087v3.33913c1.113043 3.33913 3.33913 11.130435 14.469565 20.034783 15.582609 12.243478 175.86087 103.513043 209.252174 122.434782l75.686957-43.408695-1.113044-1.113044-195.895652-123.547826z" fill="#DFEDF7" p-id="6826"></path><path d="M565.248 186.846609l-35.617391-20.034783c2.226087 20.034783 8.904348 37.843478 17.808695 55.652174 8.904348-6.678261 15.582609-18.921739 17.808696-35.617391z m-57.878261-42.295652l40.069565 23.373913c-3.33913-8.904348-5.565217-15.582609-6.678261-18.92174h6.678261c1.113043 4.452174 3.33913 11.130435 6.678261 20.034783h-5.565217l38.956522 22.26087v7.791304l-15.582609-8.904348c-3.33913 18.921739-8.904348 32.278261-18.921739 40.069565 7.791304 11.130435 18.921739 24.486957 35.617391 40.069566-2.226087 2.226087-4.452174 4.452174-5.565217 6.67826-15.582609-16.695652-27.826087-30.052174-34.504348-42.295652-7.791304 3.33913-20.034783 4.452174-35.617391 3.339131-1.113043-3.33913-3.33913-7.791304-5.565218-11.130435 15.582609 3.33913 27.826087 2.226087 35.617391-1.113044-10.017391-20.034783-16.695652-41.182609-18.921739-62.330434l-15.582608-8.904348v-10.017391zM608.656696 264.759652l32.278261 17.808696v-12.243478l-25.6-14.469566v-7.791304c3.33913-4.452174 5.565217-8.904348 7.791304-13.356522l-12.243478-6.678261v-7.791304l15.582608 8.904348c1.113043-3.33913 2.226087-6.678261 4.452174-10.017391l6.678261 6.67826c-1.113043 2.226087-2.226087 5.565217-3.33913 7.791305l36.730434 21.147826v6.678261l-40.069565-22.26087c-2.226087 5.565217-5.565217 10.017391-7.791304 13.356522l17.808696 10.017391v-14.469565l6.67826 3.33913v14.469566l23.373913 13.356521v7.791305l-23.373913-13.356522v12.243478l26.713044 15.582609v7.791304l-27.826087-14.469565v20.034783l-6.678261-3.339131v-20.034782l-31.165217-18.921739v-7.791305z m22.260869-64.556522l5.565218-2.226087c2.226087 4.452174 5.565217 10.017391 7.791304 15.582609l-3.33913 1.113044 34.504347 20.034782v7.791305l-67.895652-38.956522v31.165217c0 25.6-3.33913 42.295652-11.130435 51.2-1.113043-3.33913-3.33913-6.678261-4.452174-10.017391 5.565217-6.678261 8.904348-21.147826 8.904348-43.408696v-41.182608l36.730435 21.147826c-3.33913-3.33913-5.565217-7.791304-6.678261-12.243479z" fill="#FFFFFF" p-id="6827"></path><path d="M529.630609 273.664v72.347826l125.773913 73.46087v-73.46087z" fill="#FFFFFF" p-id="6828"></path><path d="M1167.404522 667.681391c0 16.695652-27.826087 31.165217-62.330435 31.165218-34.504348 0-62.330435-14.469565-62.330435-31.165218 0-16.695652 27.826087-31.165217 62.330435-31.165217 35.617391 0 62.330435 14.469565 62.330435 31.165217" fill="#D3DAEA" p-id="6829"></path><path d="M1142.917565 613.142261h-85.704348l11.130435 53.426087c1.113043 7.791304 14.469565 14.469565 31.165218 14.469565 15.582609 0 27.826087-5.565217 31.165217-13.356522l12.243478-54.53913z" fill="#B5B5B5" p-id="6830"></path><path d="M1099.50887 570.846609c-26.713043 0-48.973913 11.130435-48.973913 24.486956v14.469565c0 13.356522 22.26087 23.373913 48.973913 23.373913 26.713043 0 48.973913-11.130435 48.973913-24.486956v-15.582609c0-12.243478-22.26087-22.26087-48.973913-22.260869" fill="#B5B5B5" p-id="6831"></path><path d="M1120.656696 456.20313c-2.226087-10.017391-11.130435-17.808696-21.147826-16.695652-7.791304 1.113043-14.469565 5.565217-12.243479 20.034783 3.33913 32.278261 1.113043 50.086957 2.226087 56.765217 1.113043 6.678261-3.33913 32.278261-7.791304 42.295652-4.452174 10.017391-31.165217 22.26087-15.582609 38.956522 15.582609 15.582609 38.956522 13.356522 47.86087 7.791305 8.904348-5.565217 23.373913-8.904348 22.260869-14.469566-1.113043-5.565217 0-20.034783-1.113043-23.373913 0-3.33913 3.33913-12.243478 7.791304-16.695652 4.452174-3.33913 6.678261-17.808696 6.678261-24.486956 0-6.678261-7.791304-23.373913-13.356522-30.052174-4.452174-5.565217-12.243478-24.486957-15.582608-40.069566" fill="#6ECFA9" p-id="6832"></path><path d="M192.378435 626.498783c0 15.582609-25.6 27.826087-55.652174 27.826087-31.165217 0-55.652174-12.243478-55.652174-27.826087s25.6-27.826087 55.652174-27.826087c30.052174-1.113043 55.652174 12.243478 55.652174 27.826087" fill="#D3DAEA" p-id="6833"></path><path d="M140.065391 630.950957l-22.260869-13.356522v-50.086957h44.521739v50.086957z" fill="#967348" p-id="6834"></path><path d="M140.065391 630.950957l-22.260869-13.356522v-53.426087l23.373913 10.017391z" fill="#B2916D" p-id="6835"></path><path d="M140.065391 352.690087v227.06087l-87.930434-51.2z" fill="#B3FBE0" p-id="6836"></path><path d="M140.065391 352.690087v227.06087l87.930435-50.086957z" fill="#73D4B0" p-id="6837"></path><path d="M71.056696 489.594435l69.008695 40.069565 67.895652-38.956522 10.017392 18.921739-77.913044 45.634783-77.913043-45.634783z" fill="#1AC680" p-id="6838"></path></svg>