<svg id="visual" viewBox="0 0 1920 610" width="1920" height="610" xmlns="http://www.w3.org/2000/svg" xmlns:xlink="http://www.w3.org/1999/xlink" version="1.1"><rect x="0" y="0" width="1920" height="610" fill="#061422"></rect><defs><linearGradient id="grad1_0" x1="68.2%" y1="0%" x2="100%" y2="100%"><stop offset="-12.950819672131146%" stop-color="#0068d1" stop-opacity="1"></stop><stop offset="112.95081967213116%" stop-color="#0068d1" stop-opacity="1"></stop></linearGradient></defs><defs><linearGradient id="grad1_1" x1="68.2%" y1="0%" x2="100%" y2="100%"><stop offset="-12.950819672131146%" stop-color="#0068d1" stop-opacity="1"></stop><stop offset="112.95081967213116%" stop-color="#0053a2" stop-opacity="1"></stop></linearGradient></defs><defs><linearGradient id="grad1_2" x1="68.2%" y1="0%" x2="100%" y2="100%"><stop offset="-12.950819672131146%" stop-color="#003e74" stop-opacity="1"></stop><stop offset="112.95081967213116%" stop-color="#0053a2" stop-opacity="1"></stop></linearGradient></defs><defs><linearGradient id="grad1_3" x1="68.2%" y1="0%" x2="100%" y2="100%"><stop offset="-12.950819672131146%" stop-color="#003e74" stop-opacity="1"></stop><stop offset="112.95081967213116%" stop-color="#002949" stop-opacity="1"></stop></linearGradient></defs><defs><linearGradient id="grad1_4" x1="68.2%" y1="0%" x2="100%" y2="100%"><stop offset="-12.950819672131146%" stop-color="#061422" stop-opacity="1"></stop><stop offset="112.95081967213116%" stop-color="#002949" stop-opacity="1"></stop></linearGradient></defs><defs><linearGradient id="grad2_0" x1="0%" y1="0%" x2="31.8%" y2="100%"><stop offset="-12.950819672131146%" stop-color="#0068d1" stop-opacity="1"></stop><stop offset="112.95081967213116%" stop-color="#0068d1" stop-opacity="1"></stop></linearGradient></defs><defs><linearGradient id="grad2_1" x1="0%" y1="0%" x2="31.8%" y2="100%"><stop offset="-12.950819672131146%" stop-color="#0053a2" stop-opacity="1"></stop><stop offset="112.95081967213116%" stop-color="#0068d1" stop-opacity="1"></stop></linearGradient></defs><defs><linearGradient id="grad2_2" x1="0%" y1="0%" x2="31.8%" y2="100%"><stop offset="-12.950819672131146%" stop-color="#0053a2" stop-opacity="1"></stop><stop offset="112.95081967213116%" stop-color="#003e74" stop-opacity="1"></stop></linearGradient></defs><defs><linearGradient id="grad2_3" x1="0%" y1="0%" x2="31.8%" y2="100%"><stop offset="-12.950819672131146%" stop-color="#002949" stop-opacity="1"></stop><stop offset="112.95081967213116%" stop-color="#003e74" stop-opacity="1"></stop></linearGradient></defs><defs><linearGradient id="grad2_4" x1="0%" y1="0%" x2="31.8%" y2="100%"><stop offset="-12.950819672131146%" stop-color="#002949" stop-opacity="1"></stop><stop offset="112.95081967213116%" stop-color="#061422" stop-opacity="1"></stop></linearGradient></defs><g transform="translate(1920, 0)"><path d="M0 457.5C-40.5 451.8 -81.1 446.2 -115.2 429.8C-149.3 413.5 -176.9 386.5 -214 370.7C-251.1 354.8 -297.7 350 -323.5 323.5C-349.3 297 -354.3 248.6 -362.9 209.5C-371.4 170.4 -383.5 140.5 -399.9 107.2C-416.3 73.8 -436.9 36.9 -457.5 0L0 0Z" fill="#051e35"></path><path d="M0 366C-32.4 361.5 -64.9 356.9 -92.1 343.9C-119.4 330.8 -141.5 309.2 -171.2 296.5C-200.9 283.8 -238.2 280 -258.8 258.8C-279.4 237.6 -283.4 198.9 -290.3 167.6C-297.1 136.3 -306.8 112.4 -319.9 85.7C-333 59 -349.5 29.5 -366 0L0 0Z" fill="#00335f"></path><path d="M0 274.5C-24.3 271.1 -48.7 267.7 -69.1 257.9C-89.6 248.1 -106.1 231.9 -128.4 222.4C-150.7 212.9 -178.6 210 -194.1 194.1C-209.6 178.2 -212.6 149.2 -217.7 125.7C-222.9 102.2 -230.1 84.3 -239.9 64.3C-249.8 44.3 -262.1 22.1 -274.5 0L0 0Z" fill="#00488b"></path><path d="M0 183C-16.2 180.7 -32.4 178.5 -46.1 171.9C-59.7 165.4 -70.8 154.6 -85.6 148.3C-100.4 141.9 -119.1 140 -129.4 129.4C-139.7 118.8 -141.7 99.4 -145.1 83.8C-148.6 68.2 -153.4 56.2 -160 42.9C-166.5 29.5 -174.8 14.8 -183 0L0 0Z" fill="#005eb9"></path><path d="M0 91.5C-8.1 90.4 -16.2 89.2 -23 86C-29.9 82.7 -35.4 77.3 -42.8 74.1C-50.2 71 -59.5 70 -64.7 64.7C-69.9 59.4 -70.9 49.7 -72.6 41.9C-74.3 34.1 -76.7 28.1 -80 21.4C-83.3 14.8 -87.4 7.4 -91.5 0L0 0Z" fill="#0068d1"></path></g><g transform="translate(0, 610)"><path d="M0 -457.5C40.4 -456.1 80.7 -454.6 118.4 -441.9C156.1 -429.2 191.1 -405.3 218 -377.6C244.9 -349.9 263.8 -318.5 294.9 -294.9C325.9 -271.3 369 -255.5 391.4 -226C413.9 -196.5 415.5 -153.3 423.1 -113.4C430.6 -73.4 444.1 -36.7 457.5 0L0 0Z" fill="#051e35"></path><path d="M0 -366C32.3 -364.8 64.6 -363.7 94.7 -353.5C124.9 -343.4 152.8 -324.2 174.4 -302.1C196 -279.9 211.1 -254.8 235.9 -235.9C260.7 -217 295.2 -204.4 313.2 -180.8C331.1 -157.2 332.4 -122.7 338.5 -90.7C344.5 -58.7 355.3 -29.4 366 0L0 0Z" fill="#00335f"></path><path d="M0 -274.5C24.2 -273.6 48.4 -272.8 71 -265.1C93.6 -257.5 114.6 -243.2 130.8 -226.6C147 -209.9 158.3 -191.1 176.9 -176.9C195.5 -162.8 221.4 -153.3 234.9 -135.6C248.3 -117.9 249.3 -92 253.8 -68C258.4 -44 266.4 -22 274.5 0L0 0Z" fill="#00488b"></path><path d="M0 -183C16.1 -182.4 32.3 -181.8 47.4 -176.8C62.4 -171.7 76.4 -162.1 87.2 -151C98 -140 105.5 -127.4 117.9 -117.9C130.4 -108.5 147.6 -102.2 156.6 -90.4C165.5 -78.6 166.2 -61.3 169.2 -45.3C172.3 -29.4 177.6 -14.7 183 0L0 0Z" fill="#005eb9"></path><path d="M0 -91.5C8.1 -91.2 16.1 -90.9 23.7 -88.4C31.2 -85.8 38.2 -81.1 43.6 -75.5C49 -70 52.8 -63.7 59 -59C65.2 -54.3 73.8 -51.1 78.3 -45.2C82.8 -39.3 83.1 -30.7 84.6 -22.7C86.1 -14.7 88.8 -7.3 91.5 0L0 0Z" fill="#0068d1"></path></g></svg>