<svg id="visual" viewBox="0 0 1280 550" width="1280" height="550" xmlns="http://www.w3.org/2000/svg" xmlns:xlink="http://www.w3.org/1999/xlink" version="1.1"><rect x="0" y="0" width="1280" height="550" fill="#FFFFFF"></rect><defs><linearGradient id="grad1_0" x1="57%" y1="0%" x2="100%" y2="100%"><stop offset="3.454545454545457%" stop-color="#3ce9fa" stop-opacity="1"></stop><stop offset="96.54545454545453%" stop-color="#3ce9fa" stop-opacity="1"></stop></linearGradient></defs><defs><linearGradient id="grad1_1" x1="57%" y1="0%" x2="100%" y2="100%"><stop offset="3.454545454545457%" stop-color="#3ce9fa" stop-opacity="1"></stop><stop offset="96.54545454545453%" stop-color="#7aeefb" stop-opacity="1"></stop></linearGradient></defs><defs><linearGradient id="grad1_2" x1="57%" y1="0%" x2="100%" y2="100%"><stop offset="3.454545454545457%" stop-color="#a2f3fc" stop-opacity="1"></stop><stop offset="96.54545454545453%" stop-color="#7aeefb" stop-opacity="1"></stop></linearGradient></defs><defs><linearGradient id="grad1_3" x1="57%" y1="0%" x2="100%" y2="100%"><stop offset="3.454545454545457%" stop-color="#a2f3fc" stop-opacity="1"></stop><stop offset="96.54545454545453%" stop-color="#c4f7fd" stop-opacity="1"></stop></linearGradient></defs><defs><linearGradient id="grad1_4" x1="57%" y1="0%" x2="100%" y2="100%"><stop offset="3.454545454545457%" stop-color="#e3fbfe" stop-opacity="1"></stop><stop offset="96.54545454545453%" stop-color="#c4f7fd" stop-opacity="1"></stop></linearGradient></defs><defs><linearGradient id="grad1_5" x1="57%" y1="0%" x2="100%" y2="100%"><stop offset="3.454545454545457%" stop-color="#e3fbfe" stop-opacity="1"></stop><stop offset="96.54545454545453%" stop-color="#ffffff" stop-opacity="1"></stop></linearGradient></defs><defs><linearGradient id="grad2_0" x1="0%" y1="0%" x2="43%" y2="100%"><stop offset="3.454545454545457%" stop-color="#3ce9fa" stop-opacity="1"></stop><stop offset="96.54545454545453%" stop-color="#3ce9fa" stop-opacity="1"></stop></linearGradient></defs><defs><linearGradient id="grad2_1" x1="0%" y1="0%" x2="43%" y2="100%"><stop offset="3.454545454545457%" stop-color="#7aeefb" stop-opacity="1"></stop><stop offset="96.54545454545453%" stop-color="#3ce9fa" stop-opacity="1"></stop></linearGradient></defs><defs><linearGradient id="grad2_2" x1="0%" y1="0%" x2="43%" y2="100%"><stop offset="3.454545454545457%" stop-color="#7aeefb" stop-opacity="1"></stop><stop offset="96.54545454545453%" stop-color="#a2f3fc" stop-opacity="1"></stop></linearGradient></defs><defs><linearGradient id="grad2_3" x1="0%" y1="0%" x2="43%" y2="100%"><stop offset="3.454545454545457%" stop-color="#c4f7fd" stop-opacity="1"></stop><stop offset="96.54545454545453%" stop-color="#a2f3fc" stop-opacity="1"></stop></linearGradient></defs><defs><linearGradient id="grad2_4" x1="0%" y1="0%" x2="43%" y2="100%"><stop offset="3.454545454545457%" stop-color="#c4f7fd" stop-opacity="1"></stop><stop offset="96.54545454545453%" stop-color="#e3fbfe" stop-opacity="1"></stop></linearGradient></defs><defs><linearGradient id="grad2_5" x1="0%" y1="0%" x2="43%" y2="100%"><stop offset="3.454545454545457%" stop-color="#ffffff" stop-opacity="1"></stop><stop offset="96.54545454545453%" stop-color="#e3fbfe" stop-opacity="1"></stop></linearGradient></defs><g transform="translate(1280, 0)"><path d="M0 495C-54.7 468.6 -109.5 442.2 -175.7 424.1C-241.8 405.9 -319.4 396 -350 350C-380.6 304 -364.3 222 -380.6 157.7C-397 93.3 -446 46.7 -495 0L0 0Z" fill="#f1fdff"></path><path d="M0 412.5C-45.6 390.5 -91.2 368.5 -146.4 353.4C-201.5 338.3 -266.2 330 -291.7 291.7C-317.2 253.4 -303.6 185 -317.2 131.4C-330.8 77.8 -371.7 38.9 -412.5 0L0 0Z" fill="#d4f9fe"></path><path d="M0 330C-36.5 312.4 -73 294.8 -117.1 282.7C-161.2 270.6 -212.9 264 -233.3 233.3C-253.8 202.7 -242.9 148 -253.8 105.1C-264.7 62.2 -297.3 31.1 -330 0L0 0Z" fill="#b4f5fd"></path><path d="M0 247.5C-27.4 234.3 -54.7 221.1 -87.8 212C-120.9 203 -159.7 198 -175 175C-190.3 152 -182.2 111 -190.3 78.8C-198.5 46.7 -223 23.3 -247.5 0L0 0Z" fill="#8ff0fc"></path><path d="M0 165C-18.2 156.2 -36.5 147.4 -58.6 141.4C-80.6 135.3 -106.5 132 -116.7 116.7C-126.9 101.3 -121.4 74 -126.9 52.6C-132.3 31.1 -148.7 15.6 -165 0L0 0Z" fill="#60ebfb"></path><path d="M0 82.5C-9.1 78.1 -18.2 73.7 -29.3 70.7C-40.3 67.7 -53.2 66 -58.3 58.3C-63.4 50.7 -60.7 37 -63.4 26.3C-66.2 15.6 -74.3 7.8 -82.5 0L0 0Z" fill="#3ce9fa"></path></g><g transform="translate(0, 550)"><path d="M0 -495C67.9 -483.1 135.8 -471.2 179.5 -433.3C223.1 -395.4 242.5 -331.7 291.3 -291.3C340.2 -251 418.5 -234.1 457.3 -189.4C496.2 -144.8 495.6 -72.4 495 0L0 0Z" fill="#f1fdff"></path><path d="M0 -412.5C56.6 -402.6 113.2 -392.6 149.6 -361.1C185.9 -329.5 202.1 -276.4 242.8 -242.8C283.5 -209.2 348.7 -195.1 381.1 -157.9C413.5 -120.6 413 -60.3 412.5 0L0 0Z" fill="#d4f9fe"></path><path d="M0 -330C45.3 -322.1 90.6 -314.1 119.7 -288.9C148.7 -263.6 161.7 -221.1 194.2 -194.2C226.8 -167.3 279 -156.1 304.9 -126.3C330.8 -96.5 330.4 -48.3 330 0L0 0Z" fill="#b4f5fd"></path><path d="M0 -247.5C34 -241.5 67.9 -235.6 89.7 -216.6C111.6 -197.7 121.2 -165.8 145.7 -145.7C170.1 -125.5 209.2 -117 228.7 -94.7C248.1 -72.4 247.8 -36.2 247.5 0L0 0Z" fill="#8ff0fc"></path><path d="M0 -165C22.6 -161 45.3 -157.1 59.8 -144.4C74.4 -131.8 80.8 -110.6 97.1 -97.1C113.4 -83.7 139.5 -78 152.4 -63.1C165.4 -48.3 165.2 -24.1 165 0L0 0Z" fill="#60ebfb"></path><path d="M0 -82.5C11.3 -80.5 22.6 -78.5 29.9 -72.2C37.2 -65.9 40.4 -55.3 48.6 -48.6C56.7 -41.8 69.7 -39 76.2 -31.6C82.7 -24.1 82.6 -12.1 82.5 0L0 0Z" fill="#3ce9fa"></path></g></svg>