<svg id="visual" viewBox="0 0 1920 610" width="1920" height="610" xmlns="http://www.w3.org/2000/svg" xmlns:xlink="http://www.w3.org/1999/xlink" version="1.1"><rect x="0" y="0" width="1920" height="610" fill="#e3ecec"></rect><defs><linearGradient id="grad1_0" x1="68.2%" y1="0%" x2="100%" y2="100%"><stop offset="-12.950819672131146%" stop-color="#0068d1" stop-opacity="1"></stop><stop offset="112.95081967213116%" stop-color="#0068d1" stop-opacity="1"></stop></linearGradient></defs><defs><linearGradient id="grad1_1" x1="68.2%" y1="0%" x2="100%" y2="100%"><stop offset="-12.950819672131146%" stop-color="#0068d1" stop-opacity="1"></stop><stop offset="112.95081967213116%" stop-color="#0090db" stop-opacity="1"></stop></linearGradient></defs><defs><linearGradient id="grad1_2" x1="68.2%" y1="0%" x2="100%" y2="100%"><stop offset="-12.950819672131146%" stop-color="#55b3dc" stop-opacity="1"></stop><stop offset="112.95081967213116%" stop-color="#0090db" stop-opacity="1"></stop></linearGradient></defs><defs><linearGradient id="grad1_3" x1="68.2%" y1="0%" x2="100%" y2="100%"><stop offset="-12.950819672131146%" stop-color="#55b3dc" stop-opacity="1"></stop><stop offset="112.95081967213116%" stop-color="#9dd1de" stop-opacity="1"></stop></linearGradient></defs><defs><linearGradient id="grad1_4" x1="68.2%" y1="0%" x2="100%" y2="100%"><stop offset="-12.950819672131146%" stop-color="#e3ecec" stop-opacity="1"></stop><stop offset="112.95081967213116%" stop-color="#9dd1de" stop-opacity="1"></stop></linearGradient></defs><defs><linearGradient id="grad2_0" x1="0%" y1="0%" x2="31.8%" y2="100%"><stop offset="-12.950819672131146%" stop-color="#0068d1" stop-opacity="1"></stop><stop offset="112.95081967213116%" stop-color="#0068d1" stop-opacity="1"></stop></linearGradient></defs><defs><linearGradient id="grad2_1" x1="0%" y1="0%" x2="31.8%" y2="100%"><stop offset="-12.950819672131146%" stop-color="#0090db" stop-opacity="1"></stop><stop offset="112.95081967213116%" stop-color="#0068d1" stop-opacity="1"></stop></linearGradient></defs><defs><linearGradient id="grad2_2" x1="0%" y1="0%" x2="31.8%" y2="100%"><stop offset="-12.950819672131146%" stop-color="#0090db" stop-opacity="1"></stop><stop offset="112.95081967213116%" stop-color="#55b3dc" stop-opacity="1"></stop></linearGradient></defs><defs><linearGradient id="grad2_3" x1="0%" y1="0%" x2="31.8%" y2="100%"><stop offset="-12.950819672131146%" stop-color="#9dd1de" stop-opacity="1"></stop><stop offset="112.95081967213116%" stop-color="#55b3dc" stop-opacity="1"></stop></linearGradient></defs><defs><linearGradient id="grad2_4" x1="0%" y1="0%" x2="31.8%" y2="100%"><stop offset="-12.950819672131146%" stop-color="#9dd1de" stop-opacity="1"></stop><stop offset="112.95081967213116%" stop-color="#e3ecec" stop-opacity="1"></stop></linearGradient></defs><g transform="translate(1920, 0)"><path d="M0 457.5C-41.6 457.8 -83.2 458.1 -118.4 441.9C-153.6 425.7 -182.5 392.9 -212.5 368.1C-242.5 343.3 -273.5 326.4 -304.1 304.1C-334.6 281.7 -364.6 253.8 -381.9 220.5C-399.2 187.2 -403.9 148.7 -414.4 111C-424.9 73.4 -441.2 36.7 -457.5 0L0 0Z" fill="#c0dfe3"></path><path d="M0 366C-33.3 366.3 -66.5 366.5 -94.7 353.5C-122.9 340.5 -146 314.3 -170 294.4C-194 274.6 -218.8 261.1 -243.2 243.2C-267.7 225.3 -291.7 203 -305.5 176.4C-319.4 149.8 -323.1 118.9 -331.5 88.8C-339.9 58.7 -352.9 29.4 -366 0L0 0Z" fill="#7ac2dc"></path><path d="M0 274.5C-25 274.7 -49.9 274.9 -71 265.1C-92.2 255.4 -109.5 235.7 -127.5 220.8C-145.5 206 -164.1 195.9 -182.4 182.4C-200.8 169 -218.8 152.3 -229.2 132.3C-239.5 112.3 -242.3 89.2 -248.6 66.6C-254.9 44 -264.7 22 -274.5 0L0 0Z" fill="#2aa2dc"></path><path d="M0 183C-16.6 183.1 -33.3 183.3 -47.4 176.8C-61.5 170.3 -73 157.1 -85 147.2C-97 137.3 -109.4 130.6 -121.6 121.6C-133.8 112.7 -145.8 101.5 -152.8 88.2C-159.7 74.9 -161.6 59.5 -165.8 44.4C-169.9 29.4 -176.5 14.7 -183 0L0 0Z" fill="#007dd8"></path><path d="M0 91.5C-8.3 91.6 -16.6 91.6 -23.7 88.4C-30.7 85.1 -36.5 78.6 -42.5 73.6C-48.5 68.7 -54.7 65.3 -60.8 60.8C-66.9 56.3 -72.9 50.8 -76.4 44.1C-79.8 37.4 -80.8 29.7 -82.9 22.2C-85 14.7 -88.2 7.3 -91.5 0L0 0Z" fill="#0068d1"></path></g><g transform="translate(0, 610)"><path d="M0 -457.5C36.1 -439.7 72.1 -422 111 -414.4C150 -406.8 191.8 -409.4 228.7 -396.2C265.7 -383 297.9 -354 321 -321C344.1 -288 358.1 -251.1 375 -216.5C391.9 -181.9 411.7 -149.8 426 -114.1C440.2 -78.5 448.9 -39.2 457.5 0L0 0Z" fill="#c0dfe3"></path><path d="M0 -366C28.8 -351.8 57.7 -337.6 88.8 -331.5C120 -325.4 153.4 -327.5 183 -317C212.6 -306.4 238.4 -283.2 256.8 -256.8C275.3 -230.4 286.5 -200.8 300 -173.2C313.5 -145.6 329.4 -119.9 340.8 -91.3C352.2 -62.8 359.1 -31.4 366 0L0 0Z" fill="#7ac2dc"></path><path d="M0 -274.5C21.6 -263.8 43.3 -253.2 66.6 -248.6C90 -244.1 115.1 -245.6 137.2 -237.7C159.4 -229.8 178.8 -212.4 192.6 -192.6C206.5 -172.8 214.9 -150.6 225 -129.9C235.1 -109.2 247 -89.9 255.6 -68.5C264.1 -47.1 269.3 -23.5 274.5 0L0 0Z" fill="#2aa2dc"></path><path d="M0 -183C14.4 -175.9 28.8 -168.8 44.4 -165.8C60 -162.7 76.7 -163.8 91.5 -158.5C106.3 -153.2 119.2 -141.6 128.4 -128.4C137.6 -115.2 143.2 -100.4 150 -86.6C156.8 -72.8 164.7 -59.9 170.4 -45.7C176.1 -31.4 179.5 -15.7 183 0L0 0Z" fill="#007dd8"></path><path d="M0 -91.5C7.2 -87.9 14.4 -84.4 22.2 -82.9C30 -81.4 38.4 -81.9 45.7 -79.2C53.1 -76.6 59.6 -70.8 64.2 -64.2C68.8 -57.6 71.6 -50.2 75 -43.3C78.4 -36.4 82.3 -30 85.2 -22.8C88 -15.7 89.8 -7.8 91.5 0L0 0Z" fill="#0068d1"></path></g></svg>