<svg id="visual" viewBox="0 0 1920 550" width="1920" height="550" xmlns="http://www.w3.org/2000/svg" xmlns:xlink="http://www.w3.org/1999/xlink" version="1.1"><rect x="0" y="0" width="1920" height="550" fill="#FFFFFF"></rect><defs><linearGradient id="grad1_0" x1="71.4%" y1="0%" x2="100%" y2="100%"><stop offset="-19.818181818181813%" stop-color="#3ce9fa" stop-opacity="1"></stop><stop offset="119.81818181818181%" stop-color="#3ce9fa" stop-opacity="1"></stop></linearGradient></defs><defs><linearGradient id="grad1_1" x1="71.4%" y1="0%" x2="100%" y2="100%"><stop offset="-19.818181818181813%" stop-color="#3ce9fa" stop-opacity="1"></stop><stop offset="119.81818181818181%" stop-color="#7aeefb" stop-opacity="1"></stop></linearGradient></defs><defs><linearGradient id="grad1_2" x1="71.4%" y1="0%" x2="100%" y2="100%"><stop offset="-19.818181818181813%" stop-color="#a2f3fc" stop-opacity="1"></stop><stop offset="119.81818181818181%" stop-color="#7aeefb" stop-opacity="1"></stop></linearGradient></defs><defs><linearGradient id="grad1_3" x1="71.4%" y1="0%" x2="100%" y2="100%"><stop offset="-19.818181818181813%" stop-color="#a2f3fc" stop-opacity="1"></stop><stop offset="119.81818181818181%" stop-color="#c4f7fd" stop-opacity="1"></stop></linearGradient></defs><defs><linearGradient id="grad1_4" x1="71.4%" y1="0%" x2="100%" y2="100%"><stop offset="-19.818181818181813%" stop-color="#e3fbfe" stop-opacity="1"></stop><stop offset="119.81818181818181%" stop-color="#c4f7fd" stop-opacity="1"></stop></linearGradient></defs><defs><linearGradient id="grad1_5" x1="71.4%" y1="0%" x2="100%" y2="100%"><stop offset="-19.818181818181813%" stop-color="#e3fbfe" stop-opacity="1"></stop><stop offset="119.81818181818181%" stop-color="#ffffff" stop-opacity="1"></stop></linearGradient></defs><defs><linearGradient id="grad2_0" x1="0%" y1="0%" x2="28.6%" y2="100%"><stop offset="-19.818181818181813%" stop-color="#3ce9fa" stop-opacity="1"></stop><stop offset="119.81818181818181%" stop-color="#3ce9fa" stop-opacity="1"></stop></linearGradient></defs><defs><linearGradient id="grad2_1" x1="0%" y1="0%" x2="28.6%" y2="100%"><stop offset="-19.818181818181813%" stop-color="#7aeefb" stop-opacity="1"></stop><stop offset="119.81818181818181%" stop-color="#3ce9fa" stop-opacity="1"></stop></linearGradient></defs><defs><linearGradient id="grad2_2" x1="0%" y1="0%" x2="28.6%" y2="100%"><stop offset="-19.818181818181813%" stop-color="#7aeefb" stop-opacity="1"></stop><stop offset="119.81818181818181%" stop-color="#a2f3fc" stop-opacity="1"></stop></linearGradient></defs><defs><linearGradient id="grad2_3" x1="0%" y1="0%" x2="28.6%" y2="100%"><stop offset="-19.818181818181813%" stop-color="#c4f7fd" stop-opacity="1"></stop><stop offset="119.81818181818181%" stop-color="#a2f3fc" stop-opacity="1"></stop></linearGradient></defs><defs><linearGradient id="grad2_4" x1="0%" y1="0%" x2="28.6%" y2="100%"><stop offset="-19.818181818181813%" stop-color="#c4f7fd" stop-opacity="1"></stop><stop offset="119.81818181818181%" stop-color="#e3fbfe" stop-opacity="1"></stop></linearGradient></defs><defs><linearGradient id="grad2_5" x1="0%" y1="0%" x2="28.6%" y2="100%"><stop offset="-19.818181818181813%" stop-color="#ffffff" stop-opacity="1"></stop><stop offset="119.81818181818181%" stop-color="#e3fbfe" stop-opacity="1"></stop></linearGradient></defs><g transform="translate(1920, 0)"><path d="M0 495C-69.4 492.9 -138.9 490.9 -189.4 457.3C-240 423.8 -271.7 358.7 -308.3 308.3C-344.9 257.9 -386.6 222.3 -418.5 173.4C-450.5 124.4 -472.7 62.2 -495 0L0 0Z" fill="#f1fdff"></path><path d="M0 412.5C-57.9 410.8 -115.7 409.1 -157.9 381.1C-200 353.1 -226.4 298.9 -256.9 256.9C-287.5 214.9 -322.1 185.2 -348.8 144.5C-375.4 103.7 -393.9 51.8 -412.5 0L0 0Z" fill="#d4f9fe"></path><path d="M0 330C-46.3 328.6 -92.6 327.3 -126.3 304.9C-160 282.5 -181.1 239.1 -205.5 205.5C-230 172 -257.7 148.2 -279 115.6C-300.3 83 -315.2 41.5 -330 0L0 0Z" fill="#b4f5fd"></path><path d="M0 247.5C-34.7 246.5 -69.4 245.4 -94.7 228.7C-120 211.9 -135.8 179.3 -154.1 154.1C-172.5 129 -193.3 111.1 -209.3 86.7C-225.2 62.2 -236.4 31.1 -247.5 0L0 0Z" fill="#8ff0fc"></path><path d="M0 165C-23.1 164.3 -46.3 163.6 -63.1 152.4C-80 141.3 -90.6 119.6 -102.8 102.8C-115 86 -128.9 74.1 -139.5 57.8C-150.2 41.5 -157.6 20.7 -165 0L0 0Z" fill="#60ebfb"></path><path d="M0 82.5C-11.6 82.2 -23.1 81.8 -31.6 76.2C-40 70.6 -45.3 59.8 -51.4 51.4C-57.5 43 -64.4 37 -69.8 28.9C-75.1 20.7 -78.8 10.4 -82.5 0L0 0Z" fill="#3ce9fa"></path></g><g transform="translate(0, 550)"><path d="M0 -495C66.9 -491.4 133.9 -487.8 189.4 -457.3C245 -426.9 289.1 -369.6 314.7 -314.7C340.2 -259.7 347.2 -207 374.2 -155C401.1 -102.9 448.1 -51.5 495 0L0 0Z" fill="#f1fdff"></path><path d="M0 -412.5C55.8 -409.5 111.6 -406.5 157.9 -381.1C204.1 -355.7 240.9 -308 262.2 -262.2C283.5 -216.4 289.3 -172.5 311.8 -129.2C334.3 -85.8 373.4 -42.9 412.5 0L0 0Z" fill="#d4f9fe"></path><path d="M0 -330C44.6 -327.6 89.3 -325.2 126.3 -304.9C163.3 -284.6 192.7 -246.4 209.8 -209.8C226.8 -173.1 231.5 -138 249.4 -103.3C267.4 -68.6 298.7 -34.3 330 0L0 0Z" fill="#b4f5fd"></path><path d="M0 -247.5C33.5 -245.7 66.9 -243.9 94.7 -228.7C122.5 -213.4 144.6 -184.8 157.3 -157.3C170.1 -129.9 173.6 -103.5 187.1 -77.5C200.6 -51.5 224 -25.7 247.5 0L0 0Z" fill="#8ff0fc"></path><path d="M0 -165C22.3 -163.8 44.6 -162.6 63.1 -152.4C81.7 -142.3 96.4 -123.2 104.9 -104.9C113.4 -86.6 115.7 -69 124.7 -51.7C133.7 -34.3 149.4 -17.2 165 0L0 0Z" fill="#60ebfb"></path><path d="M0 -82.5C11.2 -81.9 22.3 -81.3 31.6 -76.2C40.8 -71.1 48.2 -61.6 52.4 -52.4C56.7 -43.3 57.9 -34.5 62.4 -25.8C66.9 -17.2 74.7 -8.6 82.5 0L0 0Z" fill="#3ce9fa"></path></g></svg>