<svg id="visual" viewBox="0 0 2539 477" width="2539" height="477" xmlns="http://www.w3.org/2000/svg" xmlns:xlink="http://www.w3.org/1999/xlink" version="1.1"><rect x="0" y="0" width="2539" height="477" fill="#001220"></rect><defs><linearGradient id="grad1_0" x1="81.2%" y1="100%" x2="100%" y2="0%"><stop offset="-56.457023060796644%" stop-color="#fbae3c" stop-opacity="1"></stop><stop offset="156.45702306079667%" stop-color="#fbae3c" stop-opacity="1"></stop></linearGradient></defs><defs><linearGradient id="grad1_1" x1="81.2%" y1="100%" x2="100%" y2="0%"><stop offset="-56.457023060796644%" stop-color="#fbae3c" stop-opacity="1"></stop><stop offset="156.45702306079667%" stop-color="#96446e" stop-opacity="1"></stop></linearGradient></defs><defs><linearGradient id="grad1_2" x1="81.2%" y1="100%" x2="100%" y2="0%"><stop offset="-56.457023060796644%" stop-color="#001220" stop-opacity="1"></stop><stop offset="156.45702306079667%" stop-color="#96446e" stop-opacity="1"></stop></linearGradient></defs><defs><linearGradient id="grad2_0" x1="0%" y1="100%" x2="18.8%" y2="0%"><stop offset="-56.457023060796644%" stop-color="#fbae3c" stop-opacity="1"></stop><stop offset="156.45702306079667%" stop-color="#fbae3c" stop-opacity="1"></stop></linearGradient></defs><defs><linearGradient id="grad2_1" x1="0%" y1="100%" x2="18.8%" y2="0%"><stop offset="-56.457023060796644%" stop-color="#96446e" stop-opacity="1"></stop><stop offset="156.45702306079667%" stop-color="#fbae3c" stop-opacity="1"></stop></linearGradient></defs><defs><linearGradient id="grad2_2" x1="0%" y1="100%" x2="18.8%" y2="0%"><stop offset="-56.457023060796644%" stop-color="#96446e" stop-opacity="1"></stop><stop offset="156.45702306079667%" stop-color="#001220" stop-opacity="1"></stop></linearGradient></defs><g transform="translate(2539, 477)"><path d="M-477 0C-469.4 -41.9 -461.9 -83.9 -443.4 -118.8C-424.8 -153.7 -395.4 -181.6 -378.5 -218.5C-361.5 -255.4 -357.1 -301.2 -335.9 -335.9C-314.7 -370.5 -276.6 -394 -238.5 -413.1C-200.4 -432.2 -162.2 -447 -122.4 -456.9C-82.7 -466.8 -41.3 -471.9 0 -477L0 0Z" fill="#3d3056"></path><path d="M-318 0C-313 -28 -307.9 -55.9 -295.6 -79.2C-283.2 -102.5 -263.6 -121.1 -252.3 -145.7C-241 -170.3 -238.1 -200.8 -223.9 -223.9C-209.8 -247 -184.4 -262.7 -159 -275.4C-133.6 -288.1 -108.1 -298 -81.6 -304.6C-55.1 -311.2 -27.6 -314.6 0 -318L0 0Z" fill="#e1685e"></path><path d="M-159 0C-156.5 -14 -154 -28 -147.8 -39.6C-141.6 -51.2 -131.8 -60.5 -126.2 -72.8C-120.5 -85.1 -119 -100.4 -112 -112C-104.9 -123.5 -92.2 -131.3 -79.5 -137.7C-66.8 -144.1 -54.1 -149 -40.8 -152.3C-27.6 -155.6 -13.8 -157.3 0 -159L0 0Z" fill="#fbae3c"></path></g><g transform="translate(0, 0)"><path d="M477 0C448.5 34.6 420.1 69.3 414.4 111C408.7 152.8 425.7 201.7 413.1 238.5C400.5 275.3 358.2 300.1 321.7 321.7C285.3 343.4 254.7 362 223.5 387.1C192.3 412.2 160.5 443.7 123.2 459.8C85.9 475.8 42.9 476.4 0 477L0 0Z" fill="#3d3056"></path><path d="M318 0C299 23.1 280.1 46.2 276.3 74C272.5 101.9 283.8 134.5 275.4 159C267 183.5 238.8 200 214.5 214.5C190.2 228.9 169.8 241.4 149 258.1C128.2 274.8 107 295.8 82.1 306.5C57.2 317.2 28.6 317.6 0 318L0 0Z" fill="#e1685e"></path><path d="M159 0C149.5 11.5 140 23.1 138.1 37C136.2 50.9 141.9 67.2 137.7 79.5C133.5 91.8 119.4 100 107.2 107.2C95.1 114.5 84.9 120.7 74.5 129C64.1 137.4 53.5 147.9 41.1 153.3C28.6 158.6 14.3 158.8 0 159L0 0Z" fill="#fbae3c"></path></g></svg>